<?xml version="1.0" encoding="UTF-8"?>
<svg xmlns="http://www.w3.org/2000/svg" xmlns:xlink="http://www.w3.org/1999/xlink" version="1.2" >
<font id="Biennale Black">
<font-face  font-family="Biennale" units-per-em="1000" ascent="1040" descent="-345" font-style="normal" font-weight="900" font-stretch="normal" cap-height="695" x-height="527" underline-position="-75" underline-thickness="50" />
<missing-glyph  horiz-adv-x="630" d="M100 730 L100 0 L530 0 L530 730 L100 730 Z M165 695 L465 695 L315 408 L165 695 Z M293 365 L140 73 L140 657 L293 365 Z M338 365 L490 657 L490 73 L338 365 Z M315 322 L465 35 L165 35 L315 322 Z " />
<glyph glyph-name="NULL" d="" />
<glyph glyph-name="CR" unicode="&#xd;" horiz-adv-x="250" d="" />
<glyph glyph-name="space" unicode="&#x20;" horiz-adv-x="187" d="" />
<glyph glyph-name="exclam" unicode="&#x21;" horiz-adv-x="280" d="M73 252 L205 252 L235 731 L45 731 L73 252 Z M140 -10 C192 -10 231 29 231 80 C231 133 192 172 140 172 C89 172 50 133 50 80 C50 29 89 -10 140 -10 L140 -10 Z " />
<glyph glyph-name="quotedbl" unicode="&#x22;" horiz-adv-x="410" d="M51 437 L170 437 L184 715 L39 715 L51 437 Z M241 437 L360 437 L372 715 L230 715 L241 437 Z " />
<glyph glyph-name="numbersign" unicode="&#x23;" horiz-adv-x="704" d="M679 422 L679 548 L599 548 L639 695 L502 695 L462 548 L351 548 L391 695 L257 695 L217 548 L97 548 L97 422 L182 422 L147 292 L27 292 L27 166 L112 166 L67 0 L202 0 L247 166 L357 166 L312 0 L450 0 L495 166 L610 166 L610 292 L529 292 L565 422 L679 422 Z M392 292 L281 292 L317 422 L427 422 L392 292 Z " />
<glyph glyph-name="dollar" unicode="&#x24;" horiz-adv-x="530" d="M499 193 C499 433 201 372 201 480 C201 509 222 530 263 530 C303 530 334 506 347 456 L490 511 C473 579 417 632 339 651 L339 746 L205 746 L205 653 C105 632 50 562 50 469 C50 242 345 304 345 191 C345 156 322 135 276 135 C222 135 181 167 166 226 L23 170 C49 82 117 26 205 9 L205 -82 L339 -82 L339 12 C440 35 499 104 499 193 L499 193 Z " />
<glyph glyph-name="percent" unicode="&#x25;" horiz-adv-x="783" d="M185 378 C279 378 347 450 347 541 C347 631 279 704 185 704 C91 704 22 631 22 541 C22 450 91 378 185 378 L185 378 Z M132 0 L258 1 L654 696 L525 695 L132 0 Z M185 481 C152 481 128 507 128 541 C128 574 151 601 185 601 C218 601 241 574 241 541 C241 507 218 481 185 481 L185 481 Z M598 -9 C692 -9 761 64 761 154 C761 244 692 317 598 317 C505 317 435 244 435 154 C435 64 505 -9 598 -9 L598 -9 Z M598 94 C566 94 542 120 542 154 C542 188 565 214 598 214 C632 214 654 188 654 154 C654 120 631 94 598 94 L598 94 Z " />
<glyph glyph-name="ampersand" unicode="&#x26;" horiz-adv-x="708" d="M707 0 L576 142 C624 196 650 256 658 336 L503 398 C500 342 487 297 467 261 L406 327 C306 437 283 453 283 490 C283 520 308 546 345 546 C392 546 414 514 417 482 L589 482 C580 619 484 704 347 704 C206 704 114 623 114 505 C114 464 123 426 153 380 C74 336 34 274 34 191 C34 73 141 -10 282 -10 C360 -10 420 11 473 53 L528 0 L707 0 Z M284 138 C242 138 204 167 204 210 C204 238 216 258 241 278 L360 162 C334 145 310 138 284 138 L284 138 Z " />
<glyph glyph-name="quotesingle" unicode="&#x27;" horiz-adv-x="221" d="M51 437 L170 437 L184 715 L39 715 L51 437 Z " />
<glyph glyph-name="parenleft" unicode="&#x28;" horiz-adv-x="354" d="M244 -130 L354 -24 C238 81 188 194 188 342 C188 490 238 602 354 707 L244 814 C106 703 30 542 30 342 C30 142 106 -19 244 -130 L244 -130 Z " />
<glyph glyph-name="parenright" unicode="&#x29;" horiz-adv-x="354" d="M110 -130 C247 -19 324 142 324 342 C324 542 247 703 110 814 L0 707 C115 602 166 490 166 342 C166 194 115 81 0 -24 L110 -130 Z " />
<glyph glyph-name="asterisk" unicode="&#x2a;" horiz-adv-x="421" d="M154 368 L267 368 L258 461 L333 404 L391 509 L303 549 L391 589 L333 692 L259 636 L268 731 L153 731 L162 636 L88 692 L30 589 L118 549 L30 509 L88 404 L163 461 L154 368 Z " />
<glyph glyph-name="plus" unicode="&#x2b;" horiz-adv-x="497" d="M469 402 L322 402 L322 570 L175 570 L175 402 L27 402 L27 262 L175 262 L175 100 L322 100 L322 262 L469 262 L469 402 Z " />
<glyph glyph-name="comma" unicode="&#x2c;" horiz-adv-x="238" d="M118 173 C69 173 28 135 28 83 C28 36 56 7 95 -1 L31 -129 L122 -129 L182 -9 C200 26 209 53 209 80 C209 135 168 173 118 173 L118 173 Z " />
<glyph glyph-name="hyphen" unicode="&#x2d;" horiz-adv-x="391" d="M49 177 L342 177 L342 312 L49 312 L49 177 Z " />
<glyph glyph-name="period" unicode="&#x2e;" horiz-adv-x="239" d="M119 -10 C171 -10 210 29 210 80 C210 133 171 172 119 172 C68 172 29 133 29 80 C29 29 68 -10 119 -10 L119 -10 Z " />
<glyph glyph-name="slash" unicode="&#x2f;" horiz-adv-x="385" d="M24 -50 L169 -50 L359 711 L215 711 L24 -50 Z " />
<glyph glyph-name="zero" unicode="0" horiz-adv-x="708" d="M354 -13 C544 -13 670 125 670 349 C670 578 546 708 354 708 C162 708 38 578 38 349 C38 125 162 -13 354 -13 L354 -13 Z M354 145 C267 145 208 215 208 348 C208 479 267 550 354 550 C441 550 500 479 500 348 C500 215 441 145 354 145 L354 145 Z " />
<glyph glyph-name="one" unicode="1" horiz-adv-x="430" d="M320 138 L320 695 L154 695 L154 595 L45 595 L45 457 L154 457 L154 138 L42 138 L42 0 L400 0 L400 138 L320 138 Z " />
<glyph glyph-name="two" unicode="2" horiz-adv-x="593" d="M277 138 L401 254 C496 339 542 409 542 501 C542 627 444 708 291 708 C159 708 56 635 31 525 L188 474 C203 535 240 566 290 566 C340 566 372 537 372 492 C372 440 331 385 271 332 L32 110 L32 0 L554 0 L554 138 L277 138 Z " />
<glyph glyph-name="three" unicode="3" horiz-adv-x="595" d="M363 418 L519 565 L519 695 L52 695 L52 565 L331 565 L166 419 L166 311 L289 311 C345 311 387 276 387 221 C387 167 347 129 286 129 C226 129 183 160 167 211 L14 150 C45 51 150 -13 291 -13 C448 -13 561 82 561 209 C561 323 479 407 363 418 L363 418 Z " />
<glyph glyph-name="four" unicode="4" horiz-adv-x="617" d="M584 270 L512 270 L512 694 L348 694 L18 262 L18 140 L346 140 L346 0 L512 0 L512 140 L584 140 L584 270 Z M348 270 L188 270 L348 481 L348 270 Z " />
<glyph glyph-name="five" unicode="5" horiz-adv-x="581" d="M279 450 L234 450 L241 565 L499 565 L499 695 L100 695 L79 321 L273 321 C340 321 378 277 378 222 C378 168 339 128 276 128 C223 128 178 157 164 214 L11 154 C51 42 144 -13 275 -13 C447 -13 548 82 548 220 C548 361 443 450 279 450 L279 450 Z " />
<glyph glyph-name="six" unicode="6" horiz-adv-x="599" d="M328 468 L499 695 L306 695 L97 412 C68 373 31 315 31 232 C31 84 150 -13 304 -13 C457 -13 575 83 575 234 C575 374 472 460 328 468 L328 468 Z M304 129 C246 129 201 173 201 232 C201 292 246 335 304 335 C361 335 405 293 405 232 C405 173 361 129 304 129 L304 129 Z " />
<glyph glyph-name="seven" unicode="7" horiz-adv-x="521" d="M16 694 L16 555 L315 555 L91 0 L277 0 L500 569 L500 694 L16 694 Z " />
<glyph glyph-name="eight" unicode="8" horiz-adv-x="600" d="M434 365 C495 391 537 443 537 521 C537 626 454 708 301 708 C146 708 64 626 64 521 C64 444 105 392 162 366 C84 337 36 271 36 190 C36 67 147 -13 301 -13 C454 -13 565 67 565 190 C565 271 512 336 434 365 L434 365 Z M301 573 C347 573 379 544 379 499 C379 454 347 423 301 423 C254 423 222 454 222 499 C222 544 254 573 301 573 L301 573 Z M301 121 C240 121 202 158 202 211 C202 262 241 300 301 300 C360 300 399 262 399 211 C399 158 361 121 301 121 L301 121 Z " />
<glyph glyph-name="nine" unicode="9" horiz-adv-x="598" d="M295 708 C142 708 24 612 24 461 C24 321 127 235 271 227 L100 0 L293 0 L502 283 C531 322 568 380 568 463 C568 611 449 708 295 708 L295 708 Z M295 360 C238 360 194 402 194 463 C194 522 238 566 295 566 C353 566 398 522 398 463 C398 403 353 360 295 360 L295 360 Z " />
<glyph glyph-name="colon" unicode="&#x3a;" horiz-adv-x="263" d="M131 288 C183 288 222 327 222 378 C222 431 183 470 131 470 C80 470 41 431 41 378 C41 327 80 288 131 288 L131 288 Z M131 -10 C183 -10 222 29 222 80 C222 133 183 172 131 172 C80 172 41 133 41 80 C41 29 80 -10 131 -10 L131 -10 Z " />
<glyph glyph-name="semicolon" unicode="&#x3b;" horiz-adv-x="264" d="M132 288 C184 288 223 327 223 378 C223 431 184 470 132 470 C80 470 41 431 41 378 C41 327 80 288 132 288 L132 288 Z M132 173 C82 173 42 135 42 83 C42 35 70 7 109 -1 L45 -129 L136 -129 L196 -9 C214 26 222 53 222 80 C222 135 182 173 132 173 L132 173 Z " />
<glyph glyph-name="less" unicode="&#x3c;" horiz-adv-x="441" d="M392 560 L23 369 L23 272 L392 79 L392 228 L197 320 L392 411 L392 560 Z " />
<glyph glyph-name="equal" unicode="&#x3d;" horiz-adv-x="529" d="M53 360 L476 360 L476 500 L53 500 L53 360 Z M53 129 L476 129 L476 269 L53 269 L53 129 Z " />
<glyph glyph-name="greater" unicode="&#x3e;" horiz-adv-x="441" d="M49 560 L49 411 L244 320 L49 228 L49 79 L418 272 L418 369 L49 560 Z " />
<glyph glyph-name="question" unicode="&#x3f;" horiz-adv-x="495" d="M148 252 L291 252 L291 276 C291 374 466 389 466 551 C466 670 383 741 251 741 C127 741 42 674 19 573 L176 522 C182 558 207 581 240 581 C273 581 293 564 293 532 C293 451 148 426 148 288 L148 252 Z M220 -10 C272 -10 311 29 311 81 C311 132 272 172 220 172 C169 172 130 133 130 80 C130 29 169 -10 220 -10 L220 -10 Z " />
<glyph glyph-name="at" unicode="&#x40;" horiz-adv-x="806" d="M405 586 C178 586 29 426 29 232 C29 32 168 -116 390 -116 C480 -116 551 -88 596 -49 L530 33 C504 5 451 -12 390 -12 C231 -12 143 91 143 232 C143 365 241 483 405 483 C573 483 661 380 661 246 C661 191 643 162 613 162 C592 162 581 179 581 204 L581 386 L486 386 L486 350 C461 381 424 401 375 401 C275 401 214 324 214 227 C214 133 282 55 375 55 C437 55 476 80 499 119 C520 81 560 57 615 57 C703 57 774 143 774 246 C774 441 631 586 405 586 L405 586 Z M397 166 C359 166 336 195 336 228 C336 262 359 290 397 290 C434 290 458 263 458 228 C458 193 434 166 397 166 L397 166 Z " />
<glyph glyph-name="A" unicode="A" horiz-adv-x="662" d="M497 0 L661 0 L433 695 L229 695 L0 0 L165 0 L208 134 L454 134 L497 0 Z M251 270 L331 518 L410 270 L251 270 Z " />
<glyph glyph-name="B" unicode="B" horiz-adv-x="633" d="M488 371 C544 404 579 460 579 526 C579 630 503 695 386 695 L59 695 L59 0 L373 0 C521 0 603 81 603 198 C603 276 561 338 488 371 L488 371 Z M412 492 C412 450 381 422 333 422 L224 422 L224 561 L334 561 C386 561 412 534 412 492 L412 492 Z M348 134 L224 134 L224 289 L347 289 C401 289 436 262 436 212 C436 162 404 134 348 134 L348 134 Z " />
<glyph glyph-name="C" unicode="C" horiz-adv-x="734" d="M391 -13 C572 -13 686 97 722 216 L562 281 C541 199 485 145 388 145 C278 145 201 225 201 347 C201 469 278 550 389 550 C485 550 541 496 562 414 L722 479 C688 594 575 708 393 708 C187 708 31 557 31 347 C31 138 187 -13 391 -13 L391 -13 Z " />
<glyph glyph-name="D" unicode="D" horiz-adv-x="725" d="M335 695 L59 695 L59 0 L335 0 C547 0 693 135 693 348 C693 561 547 695 335 695 L335 695 Z M330 148 L226 148 L226 547 L330 547 C446 547 524 477 524 346 C524 218 446 148 330 148 L330 148 Z " />
<glyph glyph-name="E" unicode="E" horiz-adv-x="575" d="M226 145 L226 280 L497 280 L497 425 L226 425 L226 550 L535 550 L535 695 L59 695 L59 0 L540 0 L540 145 L226 145 Z " />
<glyph glyph-name="F" unicode="F" horiz-adv-x="553" d="M530 550 L530 695 L59 695 L59 0 L226 0 L226 272 L492 272 L492 417 L226 417 L226 550 L530 550 Z " />
<glyph glyph-name="G" unicode="G" horiz-adv-x="776" d="M750 377 L391 377 L391 251 L584 251 C556 171 495 137 410 137 C277 137 201 219 201 344 C201 467 275 550 392 550 C479 550 539 504 563 432 L723 497 C682 606 568 708 395 708 C187 708 31 556 31 347 C31 140 185 -13 395 -13 C595 -13 750 124 750 377 L750 377 Z " />
<glyph glyph-name="H" unicode="H" horiz-adv-x="692" d="M466 695 L466 427 L226 427 L226 695 L59 695 L59 0 L226 0 L226 278 L466 278 L466 0 L633 0 L633 695 L466 695 Z " />
<glyph glyph-name="I" unicode="I" horiz-adv-x="285" d="M59 0 L226 0 L226 695 L59 695 L59 0 Z " />
<glyph glyph-name="J" unicode="J" horiz-adv-x="352" d="M22 0 L74 0 C223 0 299 87 299 221 L299 695 L131 695 L131 223 C131 177 108 149 60 149 L22 149 L22 0 Z " />
<glyph glyph-name="K" unicode="K" horiz-adv-x="655" d="M661 0 L390 356 L657 695 L466 695 L226 392 L226 695 L59 695 L59 0 L226 0 L226 317 L471 0 L661 0 Z " />
<glyph glyph-name="L" unicode="L" horiz-adv-x="547" d="M226 149 L226 695 L59 695 L59 0 L535 0 L535 149 L226 149 Z " />
<glyph glyph-name="M" unicode="M" horiz-adv-x="863" d="M825 0 L772 695 L578 695 L431 231 L285 695 L90 695 L39 0 L194 0 L228 450 L362 22 L501 22 L635 448 L669 0 L825 0 Z " />
<glyph glyph-name="N" unicode="N" horiz-adv-x="693" d="M467 695 L467 286 L198 695 L59 695 L59 0 L226 0 L226 406 L496 0 L634 0 L634 695 L467 695 Z " />
<glyph glyph-name="O" unicode="O" horiz-adv-x="793" d="M397 -13 C602 -13 762 144 762 347 C762 552 602 708 397 708 C191 708 30 552 30 347 C30 144 191 -13 397 -13 L397 -13 Z M397 145 C279 145 200 229 200 348 C200 465 276 550 397 550 C517 550 592 465 592 348 C592 229 515 145 397 145 L397 145 Z " />
<glyph glyph-name="P" unicode="P" horiz-adv-x="616" d="M351 695 L59 695 L59 0 L226 0 L226 248 L351 248 C501 248 598 336 598 471 C598 607 503 695 351 695 L351 695 Z M341 394 L226 394 L226 549 L341 549 C400 549 428 516 428 471 C428 427 400 394 341 394 L341 394 Z " />
<glyph glyph-name="Q" unicode="Q" horiz-adv-x="793" d="M762 347 C762 552 602 708 397 708 C191 708 30 552 30 347 C30 144 191 -13 397 -13 C416 -13 435 -12 454 -9 L635 -179 L750 -59 L621 60 C707 125 762 228 762 347 L762 347 Z M200 348 C200 465 276 550 397 550 C517 550 592 465 592 348 C592 229 515 145 397 145 C279 145 200 229 200 348 L200 348 Z " />
<glyph glyph-name="R" unicode="R" horiz-adv-x="633" d="M427 0 L613 0 L417 283 C529 305 598 385 598 486 C598 607 503 695 351 695 L59 695 L59 0 L225 0 L225 277 L243 277 L427 0 Z M225 549 L346 549 C402 549 435 519 435 472 C435 424 402 395 346 395 L225 395 L225 549 Z " />
<glyph glyph-name="S" unicode="S" horiz-adv-x="597" d="M293 -13 C463 -13 565 73 565 196 C565 460 217 391 217 511 C217 543 243 566 295 566 C345 566 382 540 397 484 L554 545 C529 641 435 708 303 708 C140 708 50 621 50 498 C50 248 396 317 396 192 C396 154 366 131 309 131 C244 131 195 166 178 231 L20 170 C55 53 158 -13 293 -13 L293 -13 Z " />
<glyph glyph-name="T" unicode="T" horiz-adv-x="595" d="M583 695 L12 695 L12 546 L214 546 L214 0 L381 0 L381 546 L583 546 L583 695 Z " />
<glyph glyph-name="U" unicode="U" horiz-adv-x="676" d="M457 695 L457 274 C457 197 418 145 339 145 C259 145 220 197 220 274 L220 695 L52 695 L52 273 C52 117 147 -13 339 -13 C530 -13 624 117 624 273 L624 695 L457 695 Z " />
<glyph glyph-name="V" unicode="V" horiz-adv-x="671" d="M498 695 L335 198 L172 695 L-2 695 L233 0 L439 0 L672 695 L498 695 Z " />
<glyph glyph-name="W" unicode="W" horiz-adv-x="927" d="M758 695 L664 196 L554 695 L373 695 L263 198 L169 695 L4 695 L162 0 L358 0 L464 461 L568 0 L766 0 L923 695 L758 695 Z " />
<glyph glyph-name="X" unicode="X" horiz-adv-x="680" d="M686 0 L442 352 L676 696 L484 696 L348 486 L202 696 L10 696 L243 362 L-8 0 L183 0 L335 230 L495 0 L686 0 Z " />
<glyph glyph-name="Y" unicode="Y" horiz-adv-x="660" d="M666 695 L479 695 L331 430 L182 695 L-5 695 L247 282 L247 0 L414 0 L414 284 L666 695 Z " />
<glyph glyph-name="Z" unicode="Z" horiz-adv-x="592" d="M560 150 L242 150 L559 582 L559 695 L36 695 L36 549 L341 549 L29 114 L29 0 L564 0 L560 150 Z " />
<glyph glyph-name="bracketleft" unicode="&#x5b;" horiz-adv-x="335" d="M307 676 L307 813 L58 813 L58 -129 L307 -129 L307 8 L214 8 L214 676 L307 676 Z " />
<glyph glyph-name="backslash" unicode="&#x5c;" horiz-adv-x="387" d="M220 -50 L365 -50 L168 711 L24 711 L220 -50 Z " />
<glyph glyph-name="bracketright" unicode="&#x5d;" horiz-adv-x="335" d="M28 813 L28 676 L121 676 L121 8 L28 8 L28 -129 L277 -129 L277 813 L28 813 Z " />
<glyph glyph-name="asciicircum" unicode="&#x5e;" horiz-adv-x="554" d="M529 351 L324 684 L225 684 L25 351 L187 351 L277 508 L367 351 L529 351 Z " />
<glyph glyph-name="underscore" unicode="&#x5f;" horiz-adv-x="581" d="M26 -155 L555 -155 L555 -20 L26 -20 L26 -155 Z " />
<glyph glyph-name="grave" unicode="&#x60;" horiz-adv-x="344" d="M285 566 L352 672 L105 833 L30 712 L285 566 Z " />
<glyph glyph-name="a" unicode="a" horiz-adv-x="642" d="M441 527 L441 472 C404 509 354 529 289 529 C136 529 26 421 26 263 C26 105 136 -13 289 -13 C354 -13 404 9 441 48 L441 0 L595 0 L595 527 L441 527 Z M313 134 C242 134 192 188 192 263 C192 338 243 393 313 393 C386 393 435 340 435 263 C435 187 386 134 313 134 L313 134 Z " />
<glyph glyph-name="b" unicode="b" horiz-adv-x="642" d="M358 539 C301 539 253 522 215 490 L215 731 L48 731 L48 0 L202 0 L202 45 C240 8 291 -13 354 -13 C507 -13 616 105 616 263 C616 421 510 539 358 539 L358 539 Z M330 134 C257 134 207 187 207 263 C207 340 256 393 330 393 C400 393 451 338 451 263 C451 188 400 134 330 134 L330 134 Z " />
<glyph glyph-name="c" unicode="c" horiz-adv-x="576" d="M306 -13 C456 -13 545 86 566 160 L418 219 C405 171 366 135 309 135 C244 135 193 184 193 263 C193 342 244 391 309 391 C365 391 402 355 415 305 L563 364 C542 441 454 539 305 539 C144 539 25 417 25 262 C25 106 146 -13 306 -13 L306 -13 Z " />
<glyph glyph-name="d" unicode="d" horiz-adv-x="642" d="M428 731 L428 490 C390 522 342 539 285 539 C132 539 26 421 26 263 C26 105 136 -13 289 -13 C352 -13 403 8 441 45 L441 0 L595 0 L595 731 L428 731 Z M313 134 C242 134 192 188 192 263 C192 338 243 393 313 393 C386 393 435 340 435 263 C435 187 386 134 313 134 L313 134 Z " />
<glyph glyph-name="e" unicode="e" horiz-adv-x="595" d="M186 214 L568 214 C570 228 572 248 572 274 C572 404 470 540 298 540 C146 540 24 415 24 263 C24 106 134 -13 308 -13 C439 -13 505 40 547 95 L422 178 C401 143 372 123 313 123 C250 123 203 155 186 214 L186 214 Z M184 318 C198 382 241 415 302 415 C363 415 403 378 417 318 L184 318 Z " />
<glyph glyph-name="f" unicode="f" horiz-adv-x="381" d="M337 613 L368 613 L368 743 L330 743 C177 743 97 660 95 527 L18 527 L18 385 L95 385 L95 0 L261 0 L261 385 L367 385 L367 527 L261 527 L261 538 C261 585 288 613 337 613 L337 613 Z " />
<glyph glyph-name="g" unicode="g" horiz-adv-x="641" d="M440 527 L440 479 C403 517 353 539 288 539 C136 539 26 421 26 279 C26 137 135 22 288 22 C353 22 403 44 440 82 L440 67 C440 -5 389 -53 301 -53 C242 -53 194 -32 173 16 L32 -39 C67 -128 149 -192 300 -192 C487 -192 594 -79 594 83 L594 527 L440 527 Z M310 149 C242 149 191 203 191 271 C191 339 242 393 310 393 C381 393 430 340 430 271 C430 202 381 149 310 149 L310 149 Z " />
<glyph glyph-name="h" unicode="h" horiz-adv-x="605" d="M357 540 C299 540 251 522 215 493 L215 731 L48 731 L48 0 L215 0 L215 308 C215 356 256 392 306 392 C356 392 395 359 395 302 L395 0 L562 0 L562 335 C562 456 481 540 357 540 L357 540 Z " />
<glyph glyph-name="i" unicode="i" horiz-adv-x="263" d="M132 598 C191 598 237 640 237 700 C237 760 191 803 132 803 C73 803 27 760 27 700 C27 640 73 598 132 598 L132 598 Z M48 0 L215 0 L215 527 L48 527 L48 0 Z " />
<glyph glyph-name="j" unicode="j" horiz-adv-x="266" d="M138 599 C197 599 243 641 243 701 C243 760 197 804 138 804 C79 804 33 760 33 701 C33 641 79 599 138 599 L138 599 Z M-36 -185 L-5 -185 C121 -185 218 -101 218 45 L218 527 L51 527 L51 42 C51 -11 19 -43 -27 -43 L-37 -43 L-36 -185 Z " />
<glyph glyph-name="k" unicode="k" horiz-adv-x="553" d="M563 0 L365 284 L561 527 L376 527 L215 327 L215 731 L48 731 L48 0 L215 0 L215 232 L383 0 L563 0 Z " />
<glyph glyph-name="l" unicode="l" horiz-adv-x="263" d="M48 0 L215 0 L215 731 L48 731 L48 0 Z " />
<glyph glyph-name="m" unicode="m" horiz-adv-x="916" d="M673 540 C592 540 536 512 505 471 C476 516 427 540 351 540 C288 540 238 517 205 484 L205 527 L48 527 L48 1 L215 1 L215 309 C215 348 240 392 298 392 C352 392 377 347 377 297 L377 1 L544 1 L544 309 C544 347 569 392 627 392 C681 392 706 347 706 297 L706 1 L873 1 L873 329 C873 444 806 540 673 540 L673 540 Z " />
<glyph glyph-name="n" unicode="n" horiz-adv-x="605" d="M357 540 C293 540 241 518 205 485 L205 527 L48 527 L48 0 L215 0 L215 308 C215 356 256 392 306 392 C356 392 395 359 395 302 L395 0 L562 0 L562 335 C562 456 481 540 357 540 L357 540 Z " />
<glyph glyph-name="o" unicode="o" horiz-adv-x="627" d="M313 -13 C482 -13 602 106 602 263 C602 421 482 539 313 539 C145 539 25 421 25 263 C25 106 145 -13 313 -13 L313 -13 Z M314 135 C241 135 193 189 193 263 C193 339 241 391 314 391 C387 391 434 339 434 264 C434 188 386 135 314 135 L314 135 Z " />
<glyph glyph-name="p" unicode="p" horiz-adv-x="642" d="M358 539 C294 539 241 517 202 479 L202 527 L48 527 L48 -179 L215 -179 L215 33 C251 4 298 -13 354 -13 C506 -13 616 105 616 263 C616 421 511 539 358 539 L358 539 Z M330 134 C256 134 207 186 207 263 C207 340 257 393 330 393 C400 393 451 338 451 263 C451 188 400 134 330 134 L330 134 Z " />
<glyph glyph-name="q" unicode="q" horiz-adv-x="642" d="M441 527 L441 479 C402 517 349 539 285 539 C132 539 26 421 26 263 C26 105 136 -13 289 -13 C345 -13 392 4 428 33 L428 -179 L595 -179 L595 527 L441 527 Z M313 134 C243 134 192 188 192 263 C192 338 242 393 313 393 C386 393 435 340 435 263 C435 186 386 134 313 134 L313 134 Z " />
<glyph glyph-name="r" unicode="r" horiz-adv-x="366" d="M205 482 L205 527 L48 527 L48 0 L215 0 L215 282 C215 351 263 384 351 384 L351 540 C292 540 241 517 205 482 L205 482 Z " />
<glyph glyph-name="s" unicode="s" horiz-adv-x="500" d="M250 -13 C389 -13 477 53 477 162 C477 356 202 308 202 383 C202 405 219 418 253 418 C288 418 313 401 325 368 L463 422 C442 496 364 539 256 539 C123 539 39 477 39 375 C39 194 314 234 314 151 C314 127 294 112 256 112 C202 112 167 137 153 181 L15 128 C46 36 131 -13 250 -13 L250 -13 Z " />
<glyph glyph-name="t" unicode="t" horiz-adv-x="413" d="M304 0 L394 0 L394 145 L339 145 C292 145 265 172 265 223 L265 385 L391 385 L391 527 L271 527 L271 667 L109 667 L109 586 C109 547 90 527 53 527 L11 527 L11 385 L99 385 L99 203 C99 81 168 0 304 0 L304 0 Z " />
<glyph glyph-name="u" unicode="u" horiz-adv-x="597" d="M383 527 L383 220 C383 170 349 135 296 135 C242 135 210 171 210 220 L210 527 L43 527 L43 198 C43 79 111 -13 246 -13 C304 -13 356 9 393 44 L393 0 L549 0 L549 527 L383 527 Z " />
<glyph glyph-name="v" unicode="v" horiz-adv-x="569" d="M397 527 L284 164 L172 527 L0 527 L187 0 L382 0 L569 527 L397 527 Z " />
<glyph glyph-name="w" unicode="w" horiz-adv-x="825" d="M651 527 L581 169 L506 527 L320 527 L246 169 L174 527 L5 527 L140 0 L338 0 L413 335 L491 0 L687 0 L821 527 L651 527 Z " />
<glyph glyph-name="x" unicode="x" horiz-adv-x="570" d="M578 0 L382 264 L575 527 L398 527 L292 384 L186 527 L2 527 L191 273 L-13 0 L164 0 L280 153 L394 0 L578 0 Z " />
<glyph glyph-name="y" unicode="y" horiz-adv-x="571" d="M400 527 L278 131 L174 527 L2 527 L170 0 L226 0 L157 -179 L321 -179 L384 0 L571 527 L400 527 Z " />
<glyph glyph-name="z" unicode="z" horiz-adv-x="502" d="M236 134 L467 405 L467 527 L37 527 L37 393 L262 393 L27 117 L27 0 L476 0 L476 134 L236 134 Z " />
<glyph glyph-name="braceleft" unicode="&#x7b;" horiz-adv-x="359" d="M285 -129 L330 -129 L330 8 L308 8 C270 8 249 31 249 72 L249 221 C249 281 230 314 180 341 C230 369 249 402 249 461 L249 611 C249 652 269 675 308 675 L330 675 L330 812 L285 812 C159 812 93 736 93 612 L93 458 C93 423 72 412 45 412 L18 412 L18 271 L45 271 C72 271 93 260 93 225 L93 71 C93 -53 159 -129 285 -129 L285 -129 Z " />
<glyph glyph-name="bar" unicode="&#x7c;" horiz-adv-x="238" d="M58 -96 L180 -96 L180 721 L58 721 L58 -96 Z " />
<glyph glyph-name="braceright" unicode="&#x7d;" horiz-adv-x="359" d="M29 -129 L74 -129 C200 -129 266 -53 266 71 L266 225 C266 260 287 271 314 271 L341 271 L341 412 L314 412 C287 412 266 423 266 458 L266 612 C266 736 200 812 74 812 L29 812 L29 675 L51 675 C90 675 110 652 110 611 L110 461 C110 402 129 369 179 341 C129 314 110 281 110 221 L110 72 C110 31 89 8 51 8 L29 8 L29 -129 Z " />
<glyph glyph-name="asciitilde" unicode="&#x7e;" horiz-adv-x="523" d="M357 239 C411 239 460 268 493 322 L415 412 C397 384 367 373 335 373 C273 373 250 425 167 425 C113 425 64 396 31 342 L110 252 C127 280 158 290 189 290 C251 290 274 239 357 239 L357 239 Z " />
<glyph glyph-name="uni00A0" unicode="&#xa0;" horiz-adv-x="187" d="" />
<glyph glyph-name="exclamdown" unicode="&#xa1;" horiz-adv-x="272" d="M136 350 C188 350 227 389 227 442 C227 493 188 532 136 532 C85 532 46 493 46 442 C46 389 85 350 136 350 L136 350 Z M41 -179 L231 -179 L201 270 L69 270 L41 -179 Z " />
<glyph glyph-name="cent" unicode="&#xa2;" horiz-adv-x="536" d="M510 242 L367 299 C358 261 327 234 280 234 C230 234 190 269 190 330 C190 393 230 428 280 428 C327 428 355 400 365 360 L508 417 C493 470 439 542 344 566 L344 661 L210 661 L210 566 C103 538 32 443 32 329 C32 216 104 123 210 95 L210 0 L344 0 L344 95 C440 119 496 191 510 242 L510 242 Z " />
<glyph glyph-name="sterling" unicode="&#xa3;" horiz-adv-x="585" d="M269 254 L442 254 L442 399 L269 399 L269 452 C269 493 289 531 342 531 C390 531 408 503 418 468 L561 524 C539 611 467 676 333 676 C196 676 102 577 102 452 L102 399 L32 399 L32 254 L102 254 L102 0 L539 0 L539 145 L269 145 L269 254 Z " />
<glyph glyph-name="currency" unicode="&#xa4;" horiz-adv-x="575" d="M517 331 C517 370 507 407 489 439 L538 487 L443 582 L391 531 C361 545 326 553 288 553 C249 553 213 545 183 530 L131 582 L36 487 L85 438 C67 406 57 370 57 331 C57 292 67 256 85 224 L36 176 L131 81 L183 133 C214 118 249 110 288 110 C326 110 361 118 391 133 L443 81 L538 175 L490 224 C507 256 517 292 517 331 L517 331 Z M288 244 C238 244 202 279 202 331 C202 383 236 419 288 419 C338 419 372 383 372 331 C372 279 337 244 288 244 L288 244 Z " />
<glyph glyph-name="yen" unicode="&#xa5;" horiz-adv-x="624" d="M605 660 L426 660 L312 427 L198 660 L19 660 L214 311 L112 311 L112 203 L229 203 L229 175 L112 175 L112 69 L229 69 L229 0 L395 0 L395 69 L511 69 L511 175 L395 175 L395 203 L511 203 L511 311 L410 311 L605 660 Z " />
<glyph glyph-name="brokenbar" unicode="&#xa6;" horiz-adv-x="238" d="M58 393 L180 393 L180 721 L58 721 L58 393 Z M58 -96 L180 -96 L180 233 L58 233 L58 -96 Z " />
<glyph glyph-name="section" unicode="&#xa7;" horiz-adv-x="533" d="M433 154 C476 185 501 231 501 290 C501 492 216 438 216 537 C216 564 236 582 272 582 C307 582 330 565 342 531 L477 583 C455 657 380 700 272 700 C141 700 58 638 58 529 C58 474 80 438 113 413 C66 384 38 339 38 280 C38 83 327 125 327 26 C327 -7 300 -26 261 -26 C213 -26 180 -1 166 44 L31 -8 C61 -99 143 -141 263 -141 C397 -141 485 -75 485 42 C485 94 464 129 433 154 L433 154 Z M195 294 C195 321 212 345 256 349 C304 332 343 315 343 276 C343 245 322 225 293 218 C239 236 195 253 195 294 L195 294 Z " />
<glyph glyph-name="dieresis" unicode="&#xa8;" horiz-adv-x="468" d="M129 602 C186 602 230 642 230 699 C230 758 187 800 132 800 C75 800 30 761 30 702 C30 642 75 602 129 602 L129 602 Z M377 602 C434 602 478 642 478 699 C478 758 435 800 379 800 C323 800 277 761 277 702 C277 642 323 602 377 602 L377 602 Z " />
<glyph glyph-name="copyright" unicode="&#xa9;" horiz-adv-x="762" d="M382 -14 C591 -14 730 129 730 329 C730 525 591 675 382 675 C173 675 33 525 33 329 C33 129 173 -14 382 -14 L382 -14 Z M382 89 C240 89 140 186 140 329 C140 465 240 572 382 572 C522 572 623 465 623 329 C623 186 522 89 382 89 L382 89 Z M384 145 C484 145 545 212 559 262 L445 303 C438 278 417 260 386 260 C349 260 322 288 322 331 C322 374 349 402 386 402 C417 402 437 384 444 359 L557 399 C543 451 483 517 383 517 C275 517 195 435 195 331 C195 226 277 145 384 145 L384 145 Z " />
<glyph glyph-name="ordfeminine" unicode="&#xaa;" horiz-adv-x="397" d="M269 822 L269 789 C247 814 214 830 167 830 C86 830 20 768 20 673 C20 581 86 516 167 516 C213 516 246 533 269 561 L269 525 L355 525 L355 822 L269 822 Z M188 621 C155 621 135 645 135 674 C135 703 154 726 188 726 C222 726 242 702 242 674 C242 645 222 621 188 621 L188 621 Z " />
<glyph glyph-name="guillemotleft" unicode="&#xab;" horiz-adv-x="536" d="M139 69 L293 69 L176 242 L293 414 L139 414 L22 242 L139 69 Z M344 69 L498 69 L381 242 L498 414 L344 414 L227 242 L344 69 Z " />
<glyph glyph-name="logicalnot" unicode="&#xac;" horiz-adv-x="518" d="M42 402 L42 262 L308 262 L308 123 L463 123 L463 402 L42 402 Z " />
<glyph glyph-name="registered" unicode="&#xae;" horiz-adv-x="523" d="M263 724 C132 724 35 625 35 497 C35 370 132 272 263 272 C388 272 488 369 488 497 C488 625 389 724 263 724 L263 724 Z M263 336 C171 336 101 402 101 497 C101 591 171 658 263 658 C353 658 422 589 422 497 C422 402 353 336 263 336 L263 336 Z M351 542 C351 584 318 610 277 610 L185 610 L185 393 L245 393 L245 475 L254 475 L296 393 L361 393 L313 482 C336 492 351 513 351 542 L351 542 Z M291 542 C291 530 283 521 266 521 L245 521 L245 563 L266 563 C283 563 291 555 291 542 L291 542 Z " />
<glyph glyph-name="macron" unicode="&#xaf;" horiz-adv-x="365" d="M30 636 L375 636 L375 767 L30 767 L30 636 Z " />
<glyph glyph-name="degree" unicode="&#xb0;" horiz-adv-x="400" d="M199 359 C302 359 375 429 375 530 C375 627 302 699 200 699 C99 699 24 627 24 529 C24 431 97 359 199 359 L199 359 Z M199 457 C159 457 129 487 129 529 C129 569 161 601 199 601 C239 601 270 570 270 529 C270 486 240 457 199 457 L199 457 Z " />
<glyph glyph-name="plusminus" unicode="&#xb1;" horiz-adv-x="518" d="M332 493 L332 641 L186 641 L186 493 L46 493 L46 353 L186 353 L186 211 L332 211 L332 353 L472 353 L472 493 L332 493 Z M46 20 L472 20 L472 160 L46 160 L46 20 Z " />
<glyph glyph-name="uni00B2" unicode="&#xb2;" horiz-adv-x="348" d="M193 433 L231 468 C285 515 302 548 302 593 C302 660 255 701 172 701 C98 701 44 662 34 605 L132 573 C137 600 151 613 169 613 C185 613 196 601 196 586 C196 565 182 545 150 516 L40 416 L40 347 L308 347 L308 433 L193 433 Z " />
<glyph glyph-name="uni00B3" unicode="&#xb3;" horiz-adv-x="325" d="M213 557 L275 613 L275 695 L41 695 L41 613 L161 613 L94 560 L94 492 L156 492 C177 492 191 480 191 461 C191 444 178 429 157 429 C136 429 123 439 117 457 L22 419 C36 372 87 340 159 340 C238 340 297 389 297 453 C297 506 262 547 213 557 L213 557 Z " />
<glyph glyph-name="acute" unicode="&#xb4;" horiz-adv-x="354" d="M97 566 L352 712 L277 833 L30 672 L97 566 Z " />
<glyph glyph-name="paragraph" unicode="&#xb6;" horiz-adv-x="657" d="M589 695 L269 695 C117 695 22 607 22 471 C22 336 119 248 269 248 L339 248 L339 557 L378 557 L378 -100 L464 -100 L464 557 L503 557 L503 -100 L589 -100 L589 695 Z " />
<glyph glyph-name="periodcentered" unicode="&#xb7;" horiz-adv-x="248" d="M124 248 C175 248 215 287 215 338 C215 391 175 430 124 430 C72 430 33 391 33 338 C33 287 72 248 124 248 L124 248 Z " />
<glyph glyph-name="cedilla" unicode="&#xb8;" horiz-adv-x="279" d="M157 -242 C238 -242 293 -199 293 -134 C293 -84 261 -46 219 -40 L240 18 L142 18 L109 -76 L117 -83 L132 -83 C160 -83 175 -99 175 -119 C175 -138 160 -152 134 -152 C111 -152 95 -142 84 -127 L30 -195 C54 -221 101 -242 157 -242 L157 -242 Z " />
<glyph glyph-name="uni00B9" unicode="&#xb9;" horiz-adv-x="297" d="M220 440 L220 695 L109 695 L109 642 L43 642 L43 550 L109 550 L109 440 L42 440 L42 347 L266 347 L266 440 L220 440 Z " />
<glyph glyph-name="ordmasculine" unicode="&#xba;" horiz-adv-x="368" d="M183 515 C281 515 349 584 349 674 C349 764 281 833 183 833 C87 833 20 764 20 674 C20 584 87 515 183 515 L183 515 Z M184 620 C149 620 132 642 132 674 C132 706 149 728 184 728 C219 728 235 706 235 674 C235 642 219 620 184 620 L184 620 Z " />
<glyph glyph-name="guillemotright" unicode="&#xbb;" horiz-adv-x="536" d="M38 69 L192 69 L309 242 L192 414 L38 414 L155 242 L38 69 Z M243 69 L397 69 L514 242 L397 414 L243 414 L360 242 L243 69 Z " />
<glyph glyph-name="onequarter" unicode="&#xbc;" horiz-adv-x="689" d="M255 347 L255 440 L209 440 L209 695 L97 695 L97 642 L32 642 L32 550 L97 550 L97 440 L31 440 L31 347 L255 347 Z M467 695 L134 0 L253 0 L588 695 L467 695 Z M663 136 L633 136 L633 348 L530 348 L380 140 L380 63 L529 63 L529 0 L633 0 L633 63 L663 63 L663 136 Z M530 136 L460 136 L530 233 L530 136 Z " />
<glyph glyph-name="onehalf" unicode="&#xbd;" horiz-adv-x="726" d="M255 347 L255 440 L209 440 L209 695 L97 695 L97 642 L32 642 L32 550 L97 550 L97 440 L31 440 L31 347 L255 347 Z M466 695 L133 0 L252 0 L587 695 L466 695 Z M586 86 L624 121 C677 168 694 201 694 246 C694 313 647 354 565 354 C490 354 436 315 426 258 L525 226 C529 253 543 266 561 266 C577 266 588 254 588 239 C588 218 574 198 542 169 L432 69 L432 0 L700 0 L700 86 L586 86 Z " />
<glyph glyph-name="threequarters" unicode="&#xbe;" horiz-adv-x="712" d="M296 453 C296 506 261 547 212 557 L274 613 L274 695 L40 695 L40 613 L160 613 L93 560 L93 492 L155 492 C177 492 190 480 190 461 C190 444 177 429 156 429 C136 429 123 439 116 457 L21 419 C35 372 87 340 158 340 C238 340 296 389 296 453 L296 453 Z M488 695 L155 0 L275 0 L609 695 L488 695 Z M680 136 L651 136 L651 348 L547 348 L398 140 L398 63 L547 63 L547 0 L651 0 L651 63 L680 63 L680 136 Z M547 136 L478 136 L547 233 L547 136 Z " />
<glyph glyph-name="questiondown" unicode="&#xbf;" horiz-adv-x="492" d="M273 349 C324 349 363 389 363 442 C363 492 324 531 273 531 C221 531 182 492 182 440 C182 389 220 349 273 349 L273 349 Z M242 -189 C366 -189 450 -122 473 -21 L317 30 C311 -6 286 -29 253 -29 C220 -29 200 -12 200 21 C200 99 344 114 344 244 L344 270 L202 270 L202 256 C202 166 27 154 27 -12 C27 -122 109 -189 242 -189 L242 -189 Z " />
<glyph glyph-name="Agrave" unicode="&#xc0;" horiz-adv-x="662" d="M504 863 L199 967 L158 831 L467 743 L504 863 Z M497 0 L661 0 L433 695 L229 695 L0 0 L165 0 L208 134 L454 134 L497 0 Z M251 270 L331 518 L410 270 L251 270 Z " />
<glyph glyph-name="Aacute" unicode="&#xc1;" horiz-adv-x="662" d="M514 831 L473 967 L168 863 L205 743 L514 831 Z M497 0 L661 0 L433 695 L229 695 L0 0 L165 0 L208 134 L454 134 L497 0 Z M251 270 L331 518 L410 270 L251 270 Z " />
<glyph glyph-name="Acircumflex" unicode="&#xc2;" horiz-adv-x="662" d="M330 839 L400 757 L547 757 L401 949 L265 949 L114 757 L262 757 L330 839 Z M497 0 L661 0 L433 695 L229 695 L0 0 L165 0 L208 134 L454 134 L497 0 Z M251 270 L331 518 L410 270 L251 270 Z " />
<glyph glyph-name="Atilde" unicode="&#xc3;" horiz-adv-x="662" d="M281 802 C326 802 346 754 415 754 C497 754 542 820 560 884 L446 932 C439 905 423 891 399 891 C357 891 333 939 265 939 C180 939 134 869 120 809 L233 761 C240 788 256 802 281 802 L281 802 Z M497 0 L661 0 L433 695 L229 695 L0 0 L165 0 L208 134 L454 134 L497 0 Z M251 270 L331 518 L410 270 L251 270 Z " />
<glyph glyph-name="Adieresis" unicode="&#xc4;" horiz-adv-x="662" d="M201 751 C260 751 306 793 306 852 C306 912 261 956 204 956 C145 956 98 915 98 855 C98 793 145 751 201 751 L201 751 Z M458 751 C517 751 563 793 563 852 C563 912 517 956 460 956 C401 956 354 915 354 855 C354 793 401 751 458 751 L458 751 Z M497 0 L661 0 L433 695 L229 695 L0 0 L165 0 L208 134 L454 134 L497 0 Z M251 270 L331 518 L410 270 L251 270 Z " />
<glyph glyph-name="Aring" unicode="&#xc5;" horiz-adv-x="662" d="M497 0 L661 0 L433 695 L383 695 C437 713 472 760 472 822 C472 899 414 956 331 956 C248 956 189 899 189 822 C189 760 224 713 279 695 L229 695 L0 0 L165 0 L208 134 L454 134 L497 0 Z M331 864 C357 864 376 846 376 822 C376 796 357 778 331 778 C304 778 286 796 286 822 C286 846 304 864 331 864 L331 864 Z M251 270 L331 518 L410 270 L251 270 Z " />
<glyph glyph-name="AE" unicode="&#xc6;" horiz-adv-x="955" d="M606 145 L606 280 L877 280 L877 425 L606 425 L606 550 L915 550 L915 695 L298 695 L-17 0 L157 0 L215 128 L439 128 L439 0 L920 0 L920 145 L606 145 Z M279 270 L406 550 L439 550 L439 270 L279 270 Z " />
<glyph glyph-name="Ccedilla" unicode="&#xc7;" horiz-adv-x="735" d="M388 145 C278 145 201 225 201 347 C201 469 278 550 389 550 C485 550 541 496 562 414 L722 479 C688 594 575 708 393 708 C187 708 31 557 31 347 C31 154 164 10 346 -10 L323 -76 L331 -83 L347 -83 C374 -83 389 -99 389 -119 C389 -138 374 -152 349 -152 C325 -152 309 -142 298 -127 L244 -195 C268 -221 315 -242 371 -242 C452 -242 507 -199 507 -134 C507 -84 475 -46 433 -40 L445 -10 C595 10 690 109 722 216 L562 281 C541 199 485 145 388 145 L388 145 Z " />
<glyph glyph-name="Egrave" unicode="&#xc8;" horiz-adv-x="575" d="M470 863 L165 967 L124 831 L433 743 L470 863 Z M226 145 L226 280 L497 280 L497 425 L226 425 L226 550 L535 550 L535 695 L59 695 L59 0 L540 0 L540 145 L226 145 Z " />
<glyph glyph-name="Eacute" unicode="&#xc9;" horiz-adv-x="575" d="M480 831 L439 967 L134 863 L171 743 L480 831 Z M226 145 L226 280 L497 280 L497 425 L226 425 L226 550 L535 550 L535 695 L59 695 L59 0 L540 0 L540 145 L226 145 Z " />
<glyph glyph-name="Ecircumflex" unicode="&#xca;" horiz-adv-x="575" d="M296 839 L366 757 L513 757 L366 949 L231 949 L80 757 L228 757 L296 839 Z M226 145 L226 280 L497 280 L497 425 L226 425 L226 550 L535 550 L535 695 L59 695 L59 0 L540 0 L540 145 L226 145 Z " />
<glyph glyph-name="Edieresis" unicode="&#xcb;" horiz-adv-x="575" d="M167 751 C226 751 272 793 272 852 C272 912 227 956 170 956 C111 956 64 915 64 855 C64 793 111 751 167 751 L167 751 Z M423 751 C482 751 528 793 528 852 C528 912 483 956 426 956 C367 956 320 915 320 855 C320 793 367 751 423 751 L423 751 Z M226 145 L226 280 L497 280 L497 425 L226 425 L226 550 L535 550 L535 695 L59 695 L59 0 L540 0 L540 145 L226 145 Z " />
<glyph glyph-name="Igrave" unicode="&#xcc;" horiz-adv-x="285" d="M279 743 L316 863 L11 967 L-30 831 L279 743 Z M59 0 L226 0 L226 695 L59 695 L59 0 Z " />
<glyph glyph-name="Iacute" unicode="&#xcd;" horiz-adv-x="285" d="M17 743 L326 831 L285 967 L-20 863 L17 743 Z M59 0 L226 0 L226 695 L59 695 L59 0 Z " />
<glyph glyph-name="Icircumflex" unicode="&#xce;" horiz-adv-x="285" d="M142 839 L212 757 L359 757 L213 949 L78 949 L-74 757 L74 757 L142 839 Z M59 0 L226 0 L226 695 L59 695 L59 0 Z " />
<glyph glyph-name="Idieresis" unicode="&#xcf;" horiz-adv-x="285" d="M13 751 C72 751 118 793 118 852 C118 912 74 956 16 956 C-43 956 -89 915 -89 855 C-89 793 -43 751 13 751 L13 751 Z M270 751 C329 751 375 793 375 852 C375 912 330 956 272 956 C213 956 166 915 166 855 C166 793 213 751 270 751 L270 751 Z M59 0 L226 0 L226 695 L59 695 L59 0 Z " />
<glyph glyph-name="Eth" unicode="&#xd0;" horiz-adv-x="738" d="M348 695 L72 695 L72 410 L16 410 L16 295 L72 295 L72 0 L348 0 C560 0 706 135 706 348 C706 561 560 695 348 695 L348 695 Z M342 148 L239 148 L239 295 L387 295 L387 410 L239 410 L239 547 L342 547 C458 547 536 477 536 346 C536 218 458 148 342 148 L342 148 Z " />
<glyph glyph-name="Ntilde" unicode="&#xd1;" horiz-adv-x="693" d="M282 802 C327 802 347 754 416 754 C499 754 544 820 561 884 L447 932 C440 905 424 891 401 891 C358 891 334 939 266 939 C181 939 135 869 121 809 L234 761 C241 788 257 802 282 802 L282 802 Z M467 695 L467 286 L198 695 L59 695 L59 0 L226 0 L226 406 L496 0 L634 0 L634 695 L467 695 Z " />
<glyph glyph-name="Ograve" unicode="&#xd2;" horiz-adv-x="793" d="M533 743 L570 863 L265 967 L224 831 L533 743 Z M397 -13 C602 -13 762 144 762 347 C762 552 602 708 397 708 C191 708 30 552 30 347 C30 144 191 -13 397 -13 L397 -13 Z M397 145 C279 145 200 229 200 348 C200 465 276 550 397 550 C517 550 592 465 592 348 C592 229 515 145 397 145 L397 145 Z " />
<glyph glyph-name="Oacute" unicode="&#xd3;" horiz-adv-x="793" d="M270 743 L580 831 L539 967 L234 863 L270 743 Z M397 -13 C602 -13 762 144 762 347 C762 552 602 708 397 708 C191 708 30 552 30 347 C30 144 191 -13 397 -13 L397 -13 Z M397 145 C279 145 200 229 200 348 C200 465 276 550 397 550 C517 550 592 465 592 348 C592 229 515 145 397 145 L397 145 Z " />
<glyph glyph-name="Ocircumflex" unicode="&#xd4;" horiz-adv-x="793" d="M396 839 L466 757 L613 757 L466 949 L331 949 L180 757 L328 757 L396 839 Z M397 708 C191 708 30 552 30 347 C30 144 191 -13 397 -13 C602 -13 762 144 762 347 C762 552 602 708 397 708 L397 708 Z M397 145 C279 145 200 229 200 348 C200 465 276 550 397 550 C517 550 592 465 592 348 C592 229 515 145 397 145 L397 145 Z " />
<glyph glyph-name="Otilde" unicode="&#xd5;" horiz-adv-x="793" d="M481 754 C563 754 608 820 625 884 L512 932 C504 905 489 891 465 891 C422 891 399 939 330 939 C246 939 200 869 185 809 L299 761 C305 788 322 802 347 802 C392 802 412 754 481 754 L481 754 Z M397 -13 C602 -13 762 144 762 347 C762 552 602 708 397 708 C191 708 30 552 30 347 C30 144 191 -13 397 -13 L397 -13 Z M397 145 C279 145 200 229 200 348 C200 465 276 550 397 550 C517 550 592 465 592 348 C592 229 515 145 397 145 L397 145 Z " />
<glyph glyph-name="Odieresis" unicode="&#xd6;" horiz-adv-x="793" d="M267 751 C326 751 372 793 372 852 C372 912 327 956 270 956 C211 956 164 915 164 855 C164 793 211 751 267 751 L267 751 Z M523 751 C582 751 628 793 628 852 C628 912 583 956 526 956 C467 956 420 915 420 855 C420 793 467 751 523 751 L523 751 Z M397 -13 C602 -13 762 144 762 347 C762 552 602 708 397 708 C191 708 30 552 30 347 C30 144 191 -13 397 -13 L397 -13 Z M397 145 C279 145 200 229 200 348 C200 465 276 550 397 550 C517 550 592 465 592 348 C592 229 515 145 397 145 L397 145 Z " />
<glyph glyph-name="multiply" unicode="&#xd7;" horiz-adv-x="511" d="M478 452 L374 556 L255 437 L136 556 L33 453 L152 334 L33 214 L136 112 L256 231 L375 112 L478 215 L359 334 L478 452 Z " />
<glyph glyph-name="Oslash" unicode="&#xd8;" horiz-adv-x="796" d="M766 633 L670 726 L598 651 C541 687 472 708 398 708 C193 708 32 552 32 347 C32 266 57 193 101 134 L30 60 L127 -31 L198 43 C256 8 324 -13 398 -13 C603 -13 764 144 764 347 C764 428 739 501 696 560 L766 633 Z M202 348 C202 465 278 550 398 550 C430 550 459 544 484 533 L220 257 C208 284 202 315 202 348 L202 348 Z M594 348 C594 229 516 145 398 145 C366 145 338 151 313 162 L577 437 C588 410 594 380 594 348 L594 348 Z " />
<glyph glyph-name="Ugrave" unicode="&#xd9;" horiz-adv-x="676" d="M512 863 L207 967 L166 831 L475 743 L512 863 Z M457 695 L457 274 C457 197 418 145 339 145 C259 145 220 197 220 274 L220 695 L52 695 L52 273 C52 117 147 -13 339 -13 C530 -13 624 117 624 273 L624 695 L457 695 Z " />
<glyph glyph-name="Uacute" unicode="&#xda;" horiz-adv-x="676" d="M522 831 L481 967 L176 863 L212 743 L522 831 Z M457 695 L457 274 C457 197 418 145 339 145 C259 145 220 197 220 274 L220 695 L52 695 L52 273 C52 117 147 -13 339 -13 C530 -13 624 117 624 273 L624 695 L457 695 Z " />
<glyph glyph-name="Ucircumflex" unicode="&#xdb;" horiz-adv-x="676" d="M338 839 L408 757 L555 757 L408 949 L273 949 L122 757 L270 757 L338 839 Z M457 695 L457 274 C457 197 418 145 339 145 C259 145 220 197 220 274 L220 695 L52 695 L52 273 C52 117 147 -13 339 -13 C530 -13 624 117 624 273 L624 695 L457 695 Z " />
<glyph glyph-name="Udieresis" unicode="&#xdc;" horiz-adv-x="676" d="M209 751 C268 751 314 793 314 852 C314 912 269 956 212 956 C153 956 106 915 106 855 C106 793 153 751 209 751 L209 751 Z M465 751 C524 751 570 793 570 852 C570 912 525 956 468 956 C409 956 362 915 362 855 C362 793 409 751 465 751 L465 751 Z M457 695 L457 274 C457 197 418 145 339 145 C259 145 220 197 220 274 L220 695 L52 695 L52 273 C52 117 147 -13 339 -13 C530 -13 624 117 624 273 L624 695 L457 695 Z " />
<glyph glyph-name="Yacute" unicode="&#xdd;" horiz-adv-x="660" d="M515 831 L474 967 L169 863 L205 743 L515 831 Z M666 695 L479 695 L331 430 L182 695 L-5 695 L247 282 L247 0 L414 0 L414 284 L666 695 Z " />
<glyph glyph-name="Thorn" unicode="&#xde;" horiz-adv-x="626" d="M351 575 L226 575 L226 695 L59 695 L59 0 L226 0 L226 127 L351 127 C501 127 598 216 598 351 C598 487 503 575 351 575 L351 575 Z M341 273 L226 273 L226 429 L341 429 C400 429 428 396 428 351 C428 306 400 273 341 273 L341 273 Z " />
<glyph glyph-name="germandbls" unicode="&#xdf;" horiz-adv-x="632" d="M491 386 C543 414 580 474 580 542 C580 657 486 743 331 743 C152 743 48 643 48 476 L48 0 L215 0 L215 486 C215 564 253 605 320 605 C373 605 411 573 411 523 C411 476 379 440 322 440 L322 312 C400 312 437 271 437 215 C437 158 401 125 347 125 C310 125 284 141 263 169 L234 42 C264 9 305 -13 372 -13 C508 -13 606 59 606 195 C606 283 556 356 491 386 L491 386 Z " />
<glyph glyph-name="agrave" unicode="&#xe0;" horiz-adv-x="642" d="M481 672 L234 833 L159 712 L414 566 L481 672 Z M441 527 L441 472 C404 509 354 529 289 529 C136 529 26 421 26 263 C26 105 136 -13 289 -13 C354 -13 404 9 441 48 L441 0 L595 0 L595 527 L441 527 Z M313 134 C242 134 192 188 192 263 C192 338 243 393 313 393 C386 393 435 340 435 263 C435 187 386 134 313 134 L313 134 Z " />
<glyph glyph-name="aacute" unicode="&#xe1;" horiz-adv-x="642" d="M487 712 L413 833 L165 672 L232 566 L487 712 Z M441 527 L441 472 C404 509 354 529 289 529 C136 529 26 421 26 263 C26 105 136 -13 289 -13 C354 -13 404 9 441 48 L441 0 L595 0 L595 527 L441 527 Z M313 134 C242 134 192 188 192 263 C192 338 243 393 313 393 C386 393 435 340 435 263 C435 187 386 134 313 134 L313 134 Z " />
<glyph glyph-name="acircumflex" unicode="&#xe2;" horiz-adv-x="642" d="M328 697 L395 599 L538 599 L402 803 L259 803 L119 599 L263 599 L328 697 Z M441 527 L441 472 C404 509 354 529 289 529 C136 529 26 421 26 263 C26 105 136 -13 289 -13 C354 -13 404 9 441 48 L441 0 L595 0 L595 527 L441 527 Z M313 134 C242 134 192 188 192 263 C192 338 243 393 313 393 C386 393 435 340 435 263 C435 187 386 134 313 134 L313 134 Z " />
<glyph glyph-name="atilde" unicode="&#xe3;" horiz-adv-x="642" d="M277 657 C318 657 343 609 407 609 C487 609 521 675 538 739 L425 787 C418 760 401 746 381 746 C336 746 313 794 250 794 C170 794 133 725 118 664 L231 616 C237 643 255 657 277 657 L277 657 Z M441 527 L441 472 C404 509 354 529 289 529 C136 529 26 421 26 263 C26 105 136 -13 289 -13 C354 -13 404 9 441 48 L441 0 L595 0 L595 527 L441 527 Z M313 134 C242 134 192 188 192 263 C192 338 243 393 313 393 C386 393 435 340 435 263 C435 187 386 134 313 134 L313 134 Z " />
<glyph glyph-name="adieresis" unicode="&#xe4;" horiz-adv-x="642" d="M203 602 C260 602 305 642 305 699 C305 758 261 800 206 800 C149 800 104 761 104 702 C104 642 149 602 203 602 L203 602 Z M451 602 C508 602 553 642 553 699 C553 758 509 800 453 800 C397 800 351 761 351 702 C351 642 397 602 451 602 L451 602 Z M441 527 L441 472 C404 509 354 529 289 529 C136 529 26 421 26 263 C26 105 136 -13 289 -13 C354 -13 404 9 441 48 L441 0 L595 0 L595 527 L441 527 Z M313 134 C242 134 192 188 192 263 C192 338 243 393 313 393 C386 393 435 340 435 263 C435 187 386 134 313 134 L313 134 Z " />
<glyph glyph-name="aring" unicode="&#xe5;" horiz-adv-x="642" d="M329 565 C412 565 470 620 470 700 C470 777 412 834 329 834 C246 834 187 777 187 700 C187 620 246 565 329 565 L329 565 Z M329 742 C355 742 373 724 373 700 C373 674 355 656 329 656 C302 656 283 674 283 700 C283 724 302 742 329 742 L329 742 Z M441 527 L441 472 C404 509 354 529 289 529 C136 529 26 421 26 263 C26 105 136 -13 289 -13 C354 -13 404 9 441 48 L441 0 L595 0 L595 527 L441 527 Z M313 134 C242 134 192 188 192 263 C192 338 243 393 313 393 C386 393 435 340 435 263 C435 187 386 134 313 134 L313 134 Z " />
<glyph glyph-name="ae" unicode="&#xe6;" horiz-adv-x="1034" d="M623 216 L1005 216 C1007 230 1008 248 1008 274 C1008 405 923 539 760 539 C685 539 631 512 595 468 L595 527 L441 527 L441 478 C404 517 354 539 289 539 C136 539 26 421 26 263 C26 105 136 -13 289 -13 C354 -13 404 9 441 48 L441 0 L595 0 L595 55 C633 12 691 -13 777 -13 C904 -13 966 54 1000 121 L864 179 C841 141 804 119 745 119 C684 119 639 153 623 216 L623 216 Z M621 313 C633 380 674 418 740 418 C806 418 846 377 858 313 L621 313 Z M313 134 C242 134 192 188 192 263 C192 338 243 393 313 393 C386 393 435 340 435 263 C435 187 386 134 313 134 L313 134 Z " />
<glyph glyph-name="ccedilla" unicode="&#xe7;" horiz-adv-x="576" d="M566 160 L418 219 C405 171 366 135 309 135 C244 135 193 184 193 263 C193 342 244 391 309 391 C365 391 402 355 415 305 L563 364 C542 441 454 539 305 539 C144 539 25 417 25 262 C25 119 127 7 267 -11 L244 -76 L252 -83 L268 -83 C295 -83 310 -99 310 -119 C310 -138 295 -152 270 -152 C246 -152 231 -142 220 -127 L166 -195 C190 -221 237 -242 293 -242 C373 -242 429 -199 429 -134 C429 -84 396 -46 355 -40 L367 -7 C480 15 548 97 566 160 L566 160 Z " />
<glyph glyph-name="egrave" unicode="&#xe8;" horiz-adv-x="594" d="M453 671 L205 832 L131 711 L386 565 L453 671 Z M186 214 L568 214 C570 228 572 248 572 274 C572 404 470 540 298 540 C146 540 24 415 24 263 C24 106 134 -13 308 -13 C439 -13 505 40 547 95 L422 178 C401 143 372 123 313 123 C250 123 203 155 186 214 L186 214 Z M184 318 C198 382 241 415 302 415 C363 415 403 378 417 318 L184 318 Z " />
<glyph glyph-name="eacute" unicode="&#xe9;" horiz-adv-x="594" d="M459 711 L384 832 L137 671 L204 565 L459 711 Z M186 214 L568 214 C570 228 572 248 572 274 C572 404 470 540 298 540 C146 540 24 415 24 263 C24 106 134 -13 308 -13 C439 -13 505 40 547 95 L422 178 C401 143 372 123 313 123 C250 123 203 155 186 214 L186 214 Z M184 318 C198 382 241 415 302 415 C363 415 403 378 417 318 L184 318 Z " />
<glyph glyph-name="ecircumflex" unicode="&#xea;" horiz-adv-x="594" d="M300 697 L367 598 L510 598 L374 802 L231 802 L90 598 L234 598 L300 697 Z M186 214 L568 214 C570 228 572 248 572 274 C572 404 470 540 298 540 C146 540 24 415 24 263 C24 106 134 -13 308 -13 C439 -13 505 40 547 95 L422 178 C401 143 372 123 313 123 C250 123 203 155 186 214 L186 214 Z M184 318 C198 382 241 415 302 415 C363 415 403 378 417 318 L184 318 Z " />
<glyph glyph-name="edieresis" unicode="&#xeb;" horiz-adv-x="594" d="M175 601 C232 601 276 641 276 698 C276 757 233 799 178 799 C121 799 76 760 76 701 C76 641 121 601 175 601 L175 601 Z M423 601 C480 601 524 641 524 698 C524 757 480 799 425 799 C368 799 323 760 323 701 C323 641 368 601 423 601 L423 601 Z M186 214 L568 214 C570 228 572 248 572 274 C572 404 470 540 298 540 C146 540 24 415 24 263 C24 106 134 -13 308 -13 C439 -13 505 40 547 95 L422 178 C401 143 372 123 313 123 C250 123 203 155 186 214 L186 214 Z M184 318 C198 382 241 415 302 415 C363 415 403 378 417 318 L184 318 Z " />
<glyph glyph-name="igrave" unicode="&#xec;" horiz-adv-x="263" d="M217 565 L284 671 L37 833 L-38 711 L217 565 Z M48 0 L215 0 L215 527 L48 527 L48 0 Z " />
<glyph glyph-name="iacute" unicode="&#xed;" horiz-adv-x="263" d="M35 565 L291 711 L216 833 L-31 671 L35 565 Z M48 0 L215 0 L215 527 L48 527 L48 0 Z " />
<glyph glyph-name="icircumflex" unicode="&#xee;" horiz-adv-x="263" d="M131 696 L198 598 L341 598 L205 803 L62 803 L-78 598 L66 598 L131 696 Z M48 0 L215 0 L215 527 L48 527 L48 0 Z " />
<glyph glyph-name="idieresis" unicode="&#xef;" horiz-adv-x="263" d="M6 601 C63 601 108 641 108 698 C108 757 65 799 10 799 C-47 799 -93 760 -93 702 C-93 641 -47 601 6 601 L6 601 Z M254 601 C311 601 356 641 356 698 C356 757 312 799 257 799 C200 799 154 760 154 702 C154 641 200 601 254 601 L254 601 Z M48 0 L215 0 L215 527 L48 527 L48 0 Z " />
<glyph glyph-name="eth" unicode="&#xf0;" horiz-adv-x="631" d="M365 726 L406 767 L325 848 L255 778 C200 797 139 807 75 807 L11 673 C54 673 96 668 136 660 L83 607 L164 525 L257 618 C311 591 356 555 387 513 C363 522 337 527 307 527 C146 527 25 410 25 257 C25 106 145 -13 313 -13 C482 -13 602 96 602 300 C602 471 512 633 365 726 L365 726 Z M314 135 C241 135 193 189 193 257 C193 326 241 379 314 379 C387 379 434 326 434 259 C434 186 386 135 314 135 L314 135 Z " />
<glyph glyph-name="ntilde" unicode="&#xf1;" horiz-adv-x="605" d="M260 656 C301 656 326 608 391 608 C470 608 505 674 522 738 L408 786 C402 759 384 745 364 745 C319 745 297 793 233 793 C154 793 116 724 101 663 L214 615 C221 642 239 656 260 656 L260 656 Z M357 540 C293 540 241 518 205 485 L205 527 L48 527 L48 0 L215 0 L215 308 C215 356 256 392 306 392 C356 392 395 359 395 302 L395 0 L562 0 L562 335 C562 456 481 540 357 540 L357 540 Z " />
<glyph glyph-name="ograve" unicode="&#xf2;" horiz-adv-x="627" d="M402 565 L469 671 L222 832 L147 711 L402 565 Z M313 -13 C482 -13 602 106 602 263 C602 421 482 539 313 539 C145 539 25 421 25 263 C25 106 145 -13 313 -13 L313 -13 Z M314 135 C241 135 193 189 193 263 C193 339 241 391 314 391 C387 391 434 339 434 264 C434 188 386 135 314 135 L314 135 Z " />
<glyph glyph-name="oacute" unicode="&#xf3;" horiz-adv-x="627" d="M220 565 L475 711 L401 832 L153 671 L220 565 Z M313 -13 C482 -13 602 106 602 263 C602 421 482 539 313 539 C145 539 25 421 25 263 C25 106 145 -13 313 -13 L313 -13 Z M314 135 C241 135 193 189 193 263 C193 339 241 391 314 391 C387 391 434 339 434 264 C434 188 386 135 314 135 L314 135 Z " />
<glyph glyph-name="ocircumflex" unicode="&#xf4;" horiz-adv-x="627" d="M316 696 L383 598 L526 598 L390 802 L247 802 L107 598 L251 598 L316 696 Z M313 539 C145 539 25 421 25 263 C25 106 145 -13 313 -13 C482 -13 602 106 602 263 C602 421 482 539 313 539 L313 539 Z M314 135 C241 135 193 189 193 263 C193 339 241 391 314 391 C387 391 434 339 434 264 C434 188 386 135 314 135 L314 135 Z " />
<glyph glyph-name="otilde" unicode="&#xf5;" horiz-adv-x="627" d="M395 608 C474 608 509 674 526 738 L413 786 C406 759 389 745 369 745 C324 745 301 793 238 793 C158 793 121 724 106 663 L219 615 C225 642 243 656 265 656 C306 656 331 608 395 608 L395 608 Z M313 -13 C482 -13 602 106 602 263 C602 421 482 539 313 539 C145 539 25 421 25 263 C25 106 145 -13 313 -13 L313 -13 Z M314 135 C241 135 193 189 193 263 C193 339 241 391 314 391 C387 391 434 339 434 264 C434 188 386 135 314 135 L314 135 Z " />
<glyph glyph-name="odieresis" unicode="&#xf6;" horiz-adv-x="627" d="M191 601 C248 601 292 641 292 698 C292 757 249 799 194 799 C137 799 92 760 92 701 C92 641 137 601 191 601 L191 601 Z M439 601 C496 601 540 641 540 698 C540 757 497 799 441 799 C385 799 339 760 339 701 C339 641 385 601 439 601 L439 601 Z M313 -13 C482 -13 602 106 602 263 C602 421 482 539 313 539 C145 539 25 421 25 263 C25 106 145 -13 313 -13 L313 -13 Z M314 135 C241 135 193 189 193 263 C193 339 241 391 314 391 C387 391 434 339 434 264 C434 188 386 135 314 135 L314 135 Z " />
<glyph glyph-name="divide" unicode="&#xf7;" horiz-adv-x="493" d="M247 452 C299 452 338 491 338 541 C338 595 299 634 247 634 C196 634 157 595 157 541 C157 491 196 452 247 452 L247 452 Z M35 262 L458 262 L458 402 L35 402 L35 262 Z M248 30 C299 30 339 69 339 120 C339 173 299 212 248 212 C196 212 157 173 157 120 C157 69 196 30 248 30 L248 30 Z " />
<glyph glyph-name="oslash" unicode="&#xf8;" horiz-adv-x="650" d="M641 458 L565 545 L498 487 C450 520 391 539 323 539 C155 539 35 421 35 263 C35 210 49 162 73 121 L8 65 L87 -22 L153 36 C200 5 258 -13 323 -13 C492 -13 612 106 612 263 C612 315 599 362 576 402 L641 458 Z M325 135 C251 135 203 189 203 263 C203 339 251 391 325 391 C397 391 444 339 444 264 C444 188 396 135 325 135 L325 135 Z " />
<glyph glyph-name="ugrave" unicode="&#xf9;" horiz-adv-x="597" d="M445 672 L198 833 L123 712 L379 566 L445 672 Z M383 527 L383 220 C383 170 349 135 296 135 C242 135 210 171 210 220 L210 527 L43 527 L43 198 C43 79 111 -13 246 -13 C304 -13 356 9 393 44 L393 0 L549 0 L549 527 L383 527 Z " />
<glyph glyph-name="uacute" unicode="&#xfa;" horiz-adv-x="597" d="M452 712 L377 833 L130 672 L197 566 L452 712 Z M383 527 L383 220 C383 170 349 135 296 135 C242 135 210 171 210 220 L210 527 L43 527 L43 198 C43 79 111 -13 246 -13 C304 -13 356 9 393 44 L393 0 L549 0 L549 527 L383 527 Z " />
<glyph glyph-name="ucircumflex" unicode="&#xfb;" horiz-adv-x="597" d="M293 697 L359 599 L503 599 L367 803 L224 803 L83 599 L227 599 L293 697 Z M383 527 L383 220 C383 170 349 135 296 135 C242 135 210 171 210 220 L210 527 L43 527 L43 198 C43 79 111 -13 246 -13 C304 -13 356 9 393 44 L393 0 L549 0 L549 527 L383 527 Z " />
<glyph glyph-name="udieresis" unicode="&#xfc;" horiz-adv-x="597" d="M168 602 C224 602 269 642 269 699 C269 758 226 800 171 800 C114 800 69 761 69 702 C69 642 114 602 168 602 L168 602 Z M416 602 C472 602 517 642 517 699 C517 758 473 800 418 800 C361 800 316 761 316 702 C316 642 361 602 416 602 L416 602 Z M383 527 L383 220 C383 170 349 135 296 135 C242 135 210 171 210 220 L210 527 L43 527 L43 198 C43 79 111 -13 246 -13 C304 -13 356 9 393 44 L393 0 L549 0 L549 527 L383 527 Z " />
<glyph glyph-name="yacute" unicode="&#xfd;" horiz-adv-x="571" d="M445 712 L370 833 L123 672 L189 566 L445 712 Z M400 527 L278 131 L174 527 L2 527 L170 0 L226 0 L157 -179 L321 -179 L384 0 L571 527 L400 527 Z " />
<glyph glyph-name="thorn" unicode="&#xfe;" horiz-adv-x="642" d="M358 539 C301 539 253 522 215 490 L215 731 L48 731 L48 -179 L215 -179 L215 33 C251 4 298 -13 354 -13 C506 -13 616 105 616 263 C616 421 511 539 358 539 L358 539 Z M330 135 C257 135 209 187 209 263 C209 339 257 391 330 391 C399 391 449 337 449 263 C449 189 399 135 330 135 L330 135 Z " />
<glyph glyph-name="ydieresis" unicode="&#xff;" horiz-adv-x="571" d="M160 602 C217 602 262 642 262 699 C262 758 219 800 164 800 C107 800 61 761 61 702 C61 642 107 602 160 602 L160 602 Z M408 602 C465 602 510 642 510 699 C510 758 466 800 411 800 C354 800 309 761 309 702 C309 642 354 602 408 602 L408 602 Z M400 527 L278 131 L174 527 L2 527 L170 0 L226 0 L157 -179 L321 -179 L384 0 L571 527 L400 527 Z " />
<glyph glyph-name="Amacron" unicode="&#x100;" horiz-adv-x="662" d="M520 922 L141 922 L141 786 L520 786 L520 922 Z M497 0 L661 0 L433 695 L229 695 L0 0 L165 0 L208 134 L454 134 L497 0 Z M251 270 L331 518 L410 270 L251 270 Z " />
<glyph glyph-name="amacron" unicode="&#x101;" horiz-adv-x="642" d="M501 767 L156 767 L156 636 L501 636 L501 767 Z M441 527 L441 472 C404 509 354 529 289 529 C136 529 26 421 26 263 C26 105 136 -13 289 -13 C354 -13 404 9 441 48 L441 0 L595 0 L595 527 L441 527 Z M313 134 C242 134 192 188 192 263 C192 338 243 393 313 393 C386 393 435 340 435 263 C435 187 386 134 313 134 L313 134 Z " />
<glyph glyph-name="Abreve" unicode="&#x102;" horiz-adv-x="662" d="M330 757 C450 757 524 837 524 949 L389 949 C389 908 366 879 330 879 C294 879 272 908 272 949 L136 949 C136 837 210 757 330 757 L330 757 Z M497 0 L661 0 L433 695 L229 695 L0 0 L165 0 L208 134 L454 134 L497 0 Z M251 270 L331 518 L410 270 L251 270 Z " />
<glyph glyph-name="abreve" unicode="&#x103;" horiz-adv-x="642" d="M329 599 C451 599 524 679 524 803 L394 803 C394 747 367 721 329 721 C291 721 263 747 263 803 L133 803 C133 679 207 599 329 599 L329 599 Z M441 527 L441 472 C404 509 354 529 289 529 C136 529 26 421 26 263 C26 105 136 -13 289 -13 C354 -13 404 9 441 48 L441 0 L595 0 L595 527 L441 527 Z M313 134 C242 134 192 188 192 263 C192 338 243 393 313 393 C386 393 435 340 435 263 C435 187 386 134 313 134 L313 134 Z " />
<glyph glyph-name="Aogonek" unicode="&#x104;" horiz-adv-x="662" d="M643 -120 C634 -130 623 -134 611 -134 C594 -134 582 -123 582 -104 C582 -85 591 -70 620 -41 L661 0 L433 695 L229 695 L0 0 L165 0 L208 134 L454 134 L497 0 L540 0 C485 -43 458 -85 458 -131 C458 -196 509 -239 584 -239 C635 -239 678 -223 702 -197 L643 -120 Z M251 270 L331 518 L410 270 L251 270 Z " />
<glyph glyph-name="aogonek" unicode="&#x105;" horiz-adv-x="642" d="M576 -120 C567 -130 556 -134 544 -134 C527 -134 515 -123 515 -104 C515 -85 524 -70 553 -41 L595 0 L595 527 L441 527 L441 472 C404 509 354 529 289 529 C136 529 26 421 26 263 C26 105 136 -13 289 -13 C354 -13 404 9 441 48 L441 0 L474 0 C419 -43 391 -85 391 -131 C391 -196 442 -239 517 -239 C568 -239 611 -223 635 -197 L576 -120 Z M313 134 C242 134 192 188 192 263 C192 338 243 393 313 393 C386 393 435 340 435 263 C435 187 386 134 313 134 L313 134 Z " />
<glyph glyph-name="Cacute" unicode="&#x106;" horiz-adv-x="734" d="M261 743 L570 831 L529 967 L224 863 L261 743 Z M391 -13 C572 -13 686 97 722 216 L562 281 C541 199 485 145 388 145 C278 145 201 225 201 347 C201 469 278 550 389 550 C485 550 541 496 562 414 L722 479 C688 594 575 708 393 708 C187 708 31 557 31 347 C31 138 187 -13 391 -13 L391 -13 Z " />
<glyph glyph-name="cacute" unicode="&#x107;" horiz-adv-x="576" d="M209 566 L464 712 L390 833 L142 672 L209 566 Z M306 -13 C456 -13 545 86 566 160 L418 219 C405 171 366 135 309 135 C244 135 193 184 193 263 C193 342 244 391 309 391 C365 391 402 355 415 305 L563 364 C542 441 454 539 305 539 C144 539 25 417 25 262 C25 106 146 -13 306 -13 L306 -13 Z " />
<glyph glyph-name="Cdotaccent" unicode="&#x10a;" horiz-adv-x="734" d="M387 751 C446 751 491 793 491 852 C491 913 446 956 389 956 C330 956 283 915 283 855 C283 793 330 751 387 751 L387 751 Z M391 -13 C572 -13 686 97 722 216 L562 281 C541 199 485 145 388 145 C278 145 201 225 201 347 C201 469 278 550 389 550 C485 550 541 496 562 414 L722 479 C688 594 575 708 393 708 C187 708 31 557 31 347 C31 138 187 -13 391 -13 L391 -13 Z " />
<glyph glyph-name="cdotaccent" unicode="&#x10b;" horiz-adv-x="576" d="M306 599 C365 599 411 641 411 701 C411 760 365 804 306 804 C247 804 201 760 201 701 C201 641 247 599 306 599 L306 599 Z M306 -13 C456 -13 545 86 566 160 L418 219 C405 171 366 135 309 135 C244 135 193 184 193 263 C193 342 244 391 309 391 C365 391 402 355 415 305 L563 364 C542 441 454 539 305 539 C144 539 25 417 25 262 C25 106 146 -13 306 -13 L306 -13 Z " />
<glyph glyph-name="Ccaron" unicode="&#x10c;" horiz-adv-x="734" d="M457 757 L603 949 L456 949 L387 867 L318 949 L171 949 L322 757 L457 757 Z M388 145 C278 145 201 225 201 347 C201 469 278 550 389 550 C485 550 541 496 562 414 L722 479 C688 594 575 708 393 708 C187 708 31 557 31 347 C31 138 187 -13 391 -13 C572 -13 686 97 722 216 L562 281 C541 199 485 145 388 145 L388 145 Z " />
<glyph glyph-name="ccaron" unicode="&#x10d;" horiz-adv-x="576" d="M379 599 L515 803 L372 803 L305 705 L240 803 L96 803 L236 599 L379 599 Z M418 219 C405 171 366 135 309 135 C244 135 193 184 193 263 C193 342 244 391 309 391 C365 391 402 355 415 305 L563 364 C542 441 454 539 305 539 C144 539 25 417 25 262 C25 106 146 -13 306 -13 C456 -13 545 86 566 160 L418 219 Z " />
<glyph glyph-name="Dcaron" unicode="&#x10e;" horiz-adv-x="725" d="M408 756 L555 949 L408 949 L338 867 L270 949 L122 949 L273 756 L408 756 Z M335 695 L59 695 L59 0 L335 0 C547 0 693 135 693 348 C693 561 547 695 335 695 L335 695 Z M330 148 L226 148 L226 547 L330 547 C446 547 524 477 524 346 C524 218 446 148 330 148 L330 148 Z " />
<glyph glyph-name="dcaron" unicode="&#x10f;" horiz-adv-x="752" d="M663 732 L643 473 L750 473 L781 732 L663 732 Z M428 490 C390 522 342 539 285 539 C132 539 26 421 26 263 C26 105 136 -13 289 -13 C352 -13 403 8 441 45 L441 0 L595 0 L595 731 L428 731 L428 490 Z M313 134 C242 134 192 188 192 263 C192 338 243 393 313 393 C386 393 435 340 435 263 C435 187 386 134 313 134 L313 134 Z " />
<glyph glyph-name="Dcroat" unicode="&#x110;" horiz-adv-x="738" d="M348 695 L72 695 L72 410 L16 410 L16 295 L72 295 L72 0 L348 0 C560 0 706 135 706 348 C706 561 560 695 348 695 L348 695 Z M342 148 L239 148 L239 295 L387 295 L387 410 L239 410 L239 547 L342 547 C458 547 536 477 536 346 C536 218 458 148 342 148 L342 148 Z " />
<glyph glyph-name="dcroat" unicode="&#x111;" horiz-adv-x="642" d="M656 686 L595 686 L595 731 L428 731 L428 686 L284 686 L284 572 L428 572 L428 490 C390 522 342 539 285 539 C132 539 26 421 26 263 C26 105 136 -13 289 -13 C352 -13 403 8 441 45 L441 0 L595 0 L595 572 L656 572 L656 686 Z M313 134 C242 134 192 188 192 263 C192 338 243 393 313 393 C386 393 435 340 435 263 C435 187 386 134 313 134 L313 134 Z " />
<glyph glyph-name="Emacron" unicode="&#x112;" horiz-adv-x="575" d="M486 922 L107 922 L107 786 L486 786 L486 922 Z M226 145 L226 280 L497 280 L497 425 L226 425 L226 550 L535 550 L535 695 L59 695 L59 0 L540 0 L540 145 L226 145 Z " />
<glyph glyph-name="emacron" unicode="&#x113;" horiz-adv-x="594" d="M473 766 L127 766 L127 635 L473 635 L473 766 Z M186 214 L568 214 C570 228 572 248 572 274 C572 404 470 540 298 540 C146 540 24 415 24 263 C24 106 134 -13 308 -13 C439 -13 505 40 547 95 L422 178 C401 143 372 123 313 123 C250 123 203 155 186 214 L186 214 Z M184 318 C198 382 241 415 302 415 C363 415 403 378 417 318 L184 318 Z " />
<glyph glyph-name="Edotaccent" unicode="&#x116;" horiz-adv-x="575" d="M296 751 C355 751 401 793 401 852 C401 913 356 956 298 956 C240 956 193 915 193 855 C193 793 240 751 296 751 L296 751 Z M226 145 L226 280 L497 280 L497 425 L226 425 L226 550 L535 550 L535 695 L59 695 L59 0 L540 0 L540 145 L226 145 Z " />
<glyph glyph-name="edotaccent" unicode="&#x117;" horiz-adv-x="594" d="M300 598 C359 598 405 640 405 700 C405 759 359 803 300 803 C242 803 196 759 196 700 C196 640 242 598 300 598 L300 598 Z M186 214 L568 214 C570 228 572 248 572 274 C572 404 470 540 298 540 C146 540 24 415 24 263 C24 106 134 -13 308 -13 C439 -13 505 40 547 95 L422 178 C401 143 372 123 313 123 C250 123 203 155 186 214 L186 214 Z M184 318 C198 382 241 415 302 415 C363 415 403 378 417 318 L184 318 Z " />
<glyph glyph-name="Eogonek" unicode="&#x118;" horiz-adv-x="575" d="M522 -120 C513 -130 502 -134 490 -134 C473 -134 461 -123 461 -104 C461 -85 470 -70 499 -41 L540 0 L540 145 L226 145 L226 280 L497 280 L497 425 L226 425 L226 550 L535 550 L535 695 L59 695 L59 0 L419 0 C364 -43 336 -85 336 -131 C336 -196 387 -239 463 -239 C514 -239 557 -223 580 -197 L522 -120 Z " />
<glyph glyph-name="eogonek" unicode="&#x119;" horiz-adv-x="594" d="M186 214 L568 214 C570 228 572 248 572 274 C572 404 470 540 298 540 C146 540 24 415 24 263 C24 110 129 -8 296 -13 C265 -45 249 -78 249 -112 C249 -177 301 -220 376 -220 C427 -220 470 -204 494 -178 L435 -101 C426 -111 415 -115 403 -115 C386 -115 374 -104 374 -85 C374 -66 383 -51 412 -22 L448 14 C493 35 524 65 547 95 L422 178 C401 143 372 123 313 123 C250 123 203 155 186 214 L186 214 Z M184 318 C198 382 241 415 302 415 C363 415 403 378 417 318 L184 318 Z " />
<glyph glyph-name="Ecaron" unicode="&#x11a;" horiz-adv-x="575" d="M366 757 L513 949 L366 949 L296 867 L228 949 L80 949 L231 757 L366 757 Z M226 145 L226 280 L497 280 L497 425 L226 425 L226 550 L535 550 L535 695 L59 695 L59 0 L540 0 L540 145 L226 145 Z " />
<glyph glyph-name="ecaron" unicode="&#x11b;" horiz-adv-x="594" d="M374 598 L510 802 L367 802 L300 703 L234 802 L90 802 L231 598 L374 598 Z M186 214 L568 214 C570 228 572 248 572 274 C572 404 470 540 298 540 C146 540 24 415 24 263 C24 106 134 -13 308 -13 C439 -13 505 40 547 95 L422 178 C401 143 372 123 313 123 C250 123 203 155 186 214 L186 214 Z M184 318 C198 382 241 415 302 415 C363 415 403 378 417 318 L184 318 Z " />
<glyph glyph-name="Gbreve" unicode="&#x11e;" horiz-adv-x="776" d="M391 757 C510 757 585 837 585 949 L449 949 C449 908 427 879 391 879 C354 879 332 908 332 949 L197 949 C197 837 271 757 391 757 L391 757 Z M750 377 L391 377 L391 251 L584 251 C556 171 495 137 410 137 C277 137 201 219 201 344 C201 467 275 550 392 550 C479 550 539 504 563 432 L723 497 C682 606 568 708 395 708 C187 708 31 556 31 347 C31 140 185 -13 395 -13 C595 -13 750 124 750 377 L750 377 Z " />
<glyph glyph-name="gbreve" unicode="&#x11f;" horiz-adv-x="641" d="M312 599 C434 599 507 679 507 803 L377 803 C377 747 349 721 312 721 C274 721 246 747 246 803 L116 803 C116 679 189 599 312 599 L312 599 Z M440 527 L440 479 C403 517 353 539 288 539 C136 539 26 421 26 279 C26 137 135 22 288 22 C353 22 403 44 440 82 L440 67 C440 -5 389 -53 301 -53 C242 -53 194 -32 173 16 L32 -39 C67 -128 149 -192 300 -192 C487 -192 594 -79 594 83 L594 527 L440 527 Z M310 149 C242 149 191 203 191 271 C191 339 242 393 310 393 C381 393 430 340 430 271 C430 202 381 149 310 149 L310 149 Z " />
<glyph glyph-name="Gdotaccent" unicode="&#x120;" horiz-adv-x="776" d="M391 751 C450 751 495 793 495 852 C495 913 451 956 393 956 C335 956 287 915 287 855 C287 793 335 751 391 751 L391 751 Z M750 377 L391 377 L391 251 L584 251 C556 171 495 137 410 137 C277 137 201 219 201 344 C201 467 275 550 392 550 C479 550 539 504 563 432 L723 497 C682 606 568 708 395 708 C187 708 31 556 31 347 C31 140 185 -13 395 -13 C595 -13 750 124 750 377 L750 377 Z " />
<glyph glyph-name="gdotaccent" unicode="&#x121;" horiz-adv-x="641" d="M312 599 C370 599 416 641 416 701 C416 760 370 804 312 804 C253 804 207 760 207 701 C207 641 253 599 312 599 L312 599 Z M440 527 L440 479 C403 517 353 539 288 539 C136 539 26 421 26 279 C26 137 135 22 288 22 C353 22 403 44 440 82 L440 67 C440 -5 389 -53 301 -53 C242 -53 194 -32 173 16 L32 -39 C67 -128 149 -192 300 -192 C487 -192 594 -79 594 83 L594 527 L440 527 Z M310 149 C242 149 191 203 191 271 C191 339 242 393 310 393 C381 393 430 340 430 271 C430 202 381 149 310 149 L310 149 Z " />
<glyph glyph-name="uni0122" unicode="&#x122;" horiz-adv-x="776" d="M750 377 L391 377 L391 251 L584 251 C556 171 495 137 410 137 C277 137 201 219 201 344 C201 467 275 550 392 550 C479 550 539 504 563 432 L723 497 C682 606 568 708 395 708 C187 708 31 556 31 347 C31 140 185 -13 395 -13 C595 -13 750 124 750 377 L750 377 Z M390 -48 C344 -48 308 -79 308 -125 C308 -160 328 -188 355 -200 C353 -205 351 -209 348 -214 L313 -271 L388 -300 L422 -247 C458 -192 470 -164 470 -127 C470 -80 436 -48 390 -48 L390 -48 Z " />
<glyph glyph-name="uni0123" unicode="&#x123;" horiz-adv-x="641" d="M312 589 C358 589 394 621 394 667 C394 702 374 729 347 742 C349 746 351 751 354 755 L388 813 L313 842 L280 788 C244 734 232 705 232 669 C232 621 266 589 312 589 L312 589 Z M440 527 L440 479 C403 517 353 539 288 539 C136 539 26 421 26 279 C26 137 135 22 288 22 C353 22 403 44 440 82 L440 67 C440 -5 389 -53 301 -53 C242 -53 194 -32 173 16 L32 -39 C67 -128 149 -192 300 -192 C487 -192 594 -79 594 83 L594 527 L440 527 Z M310 149 C242 149 191 203 191 271 C191 339 242 393 310 393 C381 393 430 340 430 271 C430 202 381 149 310 149 L310 149 Z " />
<glyph glyph-name="Hbar" unicode="&#x126;" horiz-adv-x="740" d="M718 629 L657 629 L657 695 L490 695 L490 629 L250 629 L250 695 L83 695 L83 629 L21 629 L21 499 L83 499 L83 0 L250 0 L250 278 L490 278 L490 0 L657 0 L657 499 L718 499 L718 629 Z M490 427 L250 427 L250 499 L490 499 L490 427 Z " />
<glyph glyph-name="hbar" unicode="&#x127;" horiz-adv-x="605" d="M357 540 C299 540 251 522 215 493 L215 572 L358 572 L358 686 L215 686 L215 731 L48 731 L48 686 L-14 686 L-14 572 L48 572 L48 0 L215 0 L215 308 C215 356 256 392 306 392 C356 392 395 359 395 302 L395 0 L562 0 L562 335 C562 456 481 540 357 540 L357 540 Z " />
<glyph glyph-name="Itilde" unicode="&#x128;" horiz-adv-x="285" d="M223 754 C306 754 351 820 368 884 L254 932 C247 905 231 891 208 891 C165 891 141 939 73 939 C-11 939 -57 869 -72 809 L41 761 C48 788 64 802 89 802 C134 802 154 754 223 754 L223 754 Z M59 0 L226 0 L226 695 L59 695 L59 0 Z " />
<glyph glyph-name="itilde" unicode="&#x129;" horiz-adv-x="263" d="M198 609 C265 609 295 674 309 738 L213 786 C207 759 193 745 175 745 C138 745 118 793 64 793 C-3 793 -35 724 -48 663 L48 615 C54 642 69 656 87 656 C122 656 144 609 198 609 L198 609 Z M48 0 L215 0 L215 527 L48 527 L48 0 Z " />
<glyph glyph-name="Imacron" unicode="&#x12a;" horiz-adv-x="285" d="M7 786 L282 786 L282 922 L7 922 L7 786 Z M59 0 L226 0 L226 695 L59 695 L59 0 Z " />
<glyph glyph-name="imacron" unicode="&#x12b;" horiz-adv-x="263" d="M-7 635 L270 635 L270 767 L-7 767 L-7 635 Z M48 0 L215 0 L215 527 L48 527 L48 0 Z " />
<glyph glyph-name="Iogonek" unicode="&#x12e;" horiz-adv-x="285" d="M208 -120 C199 -130 188 -134 176 -134 C159 -134 147 -123 147 -104 C147 -85 156 -70 185 -41 L226 0 L226 695 L59 695 L59 0 L105 0 C50 -43 23 -85 23 -131 C23 -196 74 -239 149 -239 C200 -239 243 -223 267 -197 L208 -120 Z " />
<glyph glyph-name="iogonek" unicode="&#x12f;" horiz-adv-x="263" d="M132 598 C191 598 237 640 237 700 C237 760 191 803 132 803 C73 803 27 760 27 700 C27 640 73 598 132 598 L132 598 Z M193 -120 C184 -130 173 -134 161 -134 C144 -134 132 -123 132 -104 C132 -85 141 -70 170 -41 L211 0 L215 0 L215 527 L48 527 L48 0 L91 0 C35 -43 8 -85 8 -131 C8 -196 59 -239 134 -239 C185 -239 228 -223 252 -197 L193 -120 Z " />
<glyph glyph-name="Idotaccent" unicode="&#x130;" horiz-adv-x="285" d="M142 751 C201 751 247 793 247 852 C247 913 202 956 145 956 C86 956 39 915 39 855 C39 793 86 751 142 751 L142 751 Z M59 0 L226 0 L226 695 L59 695 L59 0 Z " />
<glyph glyph-name="dotlessi" unicode="&#x131;" horiz-adv-x="263" d="M48 0 L215 0 L215 527 L48 527 L48 0 Z " />
<glyph glyph-name="IJ" unicode="&#x132;" horiz-adv-x="632" d="M59 0 L226 0 L226 695 L59 695 L59 0 Z M302 0 L354 0 C503 0 578 87 578 221 L578 695 L411 695 L411 223 C411 177 387 149 340 149 L302 149 L302 0 Z " />
<glyph glyph-name="ij" unicode="&#x133;" horiz-adv-x="555" d="M428 599 C487 599 533 641 533 701 C533 760 487 804 428 804 C369 804 323 760 323 701 C323 641 369 599 428 599 L428 599 Z M132 598 C191 598 237 640 237 700 C237 760 191 803 132 803 C73 803 27 760 27 700 C27 640 73 598 132 598 L132 598 Z M48 0 L215 0 L215 527 L48 527 L48 0 Z M253 -185 L284 -185 C411 -185 507 -101 507 45 L507 527 L341 527 L341 42 C341 -11 309 -43 263 -43 L253 -43 L253 -185 Z " />
<glyph glyph-name="uni0136" unicode="&#x136;" horiz-adv-x="655" d="M390 356 L657 695 L466 695 L226 392 L226 695 L59 695 L59 0 L226 0 L226 317 L471 0 L661 0 L390 356 Z M355 -48 C309 -48 273 -79 273 -125 C273 -160 293 -188 320 -200 C318 -205 316 -209 313 -214 L278 -271 L353 -300 L386 -247 C423 -192 435 -164 435 -127 C435 -80 400 -48 355 -48 L355 -48 Z " />
<glyph glyph-name="uni0137" unicode="&#x137;" horiz-adv-x="553" d="M365 284 L561 527 L376 527 L215 327 L215 731 L48 731 L48 0 L215 0 L215 232 L383 0 L563 0 L365 284 Z M274 -48 C228 -48 192 -79 192 -125 C192 -160 211 -187 238 -200 C236 -204 234 -209 231 -214 L197 -271 L272 -300 L305 -247 C341 -192 354 -164 354 -127 C354 -80 319 -48 274 -48 L274 -48 Z " />
<glyph glyph-name="kgreenlandic" unicode="&#x138;" horiz-adv-x="553" d="M563 0 L362 277 L562 527 L376 527 L215 315 L215 527 L48 527 L48 0 L215 0 L215 219 L383 0 L563 0 Z " />
<glyph glyph-name="Lacute" unicode="&#x139;" horiz-adv-x="547" d="M285 967 L-20 863 L17 743 L326 831 L285 967 Z M226 149 L226 695 L59 695 L59 0 L535 0 L535 149 L226 149 Z " />
<glyph glyph-name="lacute" unicode="&#x13a;" horiz-adv-x="263" d="M5 779 L314 867 L274 1003 L-32 899 L5 779 Z M48 0 L215 0 L215 731 L48 731 L48 0 Z " />
<glyph glyph-name="uni013B" unicode="&#x13b;" horiz-adv-x="547" d="M226 149 L226 695 L59 695 L59 0 L535 0 L535 149 L226 149 Z M297 -48 C251 -48 215 -79 215 -125 C215 -160 235 -187 262 -200 C260 -204 258 -209 255 -214 L221 -271 L296 -300 L329 -247 C365 -192 377 -164 377 -127 C377 -80 343 -48 297 -48 L297 -48 Z " />
<glyph glyph-name="uni013C" unicode="&#x13c;" horiz-adv-x="263" d="M48 731 L48 0 L215 0 L215 731 L48 731 Z M129 -48 C83 -48 47 -79 47 -125 C47 -160 67 -187 94 -200 C92 -204 90 -209 87 -214 L53 -271 L128 -300 L161 -247 C197 -192 209 -164 209 -127 C209 -80 175 -48 129 -48 L129 -48 Z " />
<glyph glyph-name="Lcaron" unicode="&#x13d;" horiz-adv-x="553" d="M493 706 L375 706 L355 447 L462 447 L493 706 Z M226 149 L226 695 L59 695 L59 0 L535 0 L535 149 L226 149 Z " />
<glyph glyph-name="lcaron" unicode="&#x13e;" horiz-adv-x="372" d="M263 473 L370 473 L401 732 L283 732 L263 473 Z M48 0 L215 0 L215 731 L48 731 L48 0 Z " />
<glyph glyph-name="Ldot" unicode="&#x13f;" horiz-adv-x="563" d="M226 149 L226 695 L59 695 L59 0 L535 0 L535 149 L226 149 Z M434 336 C486 336 525 375 525 426 C525 479 486 518 434 518 C383 518 344 479 344 426 C344 375 383 336 434 336 L434 336 Z " />
<glyph glyph-name="ldot" unicode="&#x140;" horiz-adv-x="419" d="M48 0 L215 0 L215 731 L48 731 L48 0 Z M341 282 C393 282 432 321 432 372 C432 425 393 464 341 464 C290 464 251 425 251 372 C251 321 290 282 341 282 L341 282 Z " />
<glyph glyph-name="Lslash" unicode="&#x141;" horiz-adv-x="606" d="M285 149 L285 339 L405 381 L371 485 L285 455 L285 695 L118 695 L118 397 L14 361 L48 257 L118 281 L118 0 L594 0 L594 149 L285 149 Z " />
<glyph glyph-name="lslash" unicode="&#x142;" horiz-adv-x="389" d="M394 406 L332 510 L280 481 L280 731 L113 731 L113 389 L0 326 L61 222 L113 251 L113 0 L280 0 L280 343 L394 406 Z " />
<glyph glyph-name="Nacute" unicode="&#x143;" horiz-adv-x="693" d="M515 831 L474 967 L169 863 L206 743 L515 831 Z M467 695 L467 286 L198 695 L59 695 L59 0 L226 0 L226 406 L496 0 L634 0 L634 695 L467 695 Z " />
<glyph glyph-name="nacute" unicode="&#x144;" horiz-adv-x="605" d="M471 711 L396 832 L149 671 L215 565 L471 711 Z M357 540 C293 540 241 518 205 485 L205 527 L48 527 L48 0 L215 0 L215 308 C215 356 256 392 306 392 C356 392 395 359 395 302 L395 0 L562 0 L562 335 C562 456 481 540 357 540 L357 540 Z " />
<glyph glyph-name="uni0145" unicode="&#x145;" horiz-adv-x="693" d="M467 695 L467 286 L198 695 L59 695 L59 0 L226 0 L226 406 L496 0 L634 0 L634 695 L467 695 Z M358 -48 C312 -48 276 -79 276 -125 C276 -160 296 -188 323 -200 C321 -205 319 -209 316 -214 L282 -271 L357 -300 L390 -247 C426 -192 438 -164 438 -127 C438 -80 404 -48 358 -48 L358 -48 Z " />
<glyph glyph-name="uni0146" unicode="&#x146;" horiz-adv-x="605" d="M357 540 C293 540 241 518 205 485 L205 527 L48 527 L48 0 L215 0 L215 308 C215 356 256 392 306 392 C356 392 395 359 395 302 L395 0 L562 0 L562 335 C562 456 481 540 357 540 L357 540 Z M300 -48 C254 -48 218 -79 218 -125 C218 -160 237 -187 264 -200 C262 -204 260 -209 257 -214 L223 -271 L298 -300 L331 -247 C367 -192 380 -164 380 -127 C380 -80 345 -48 300 -48 L300 -48 Z " />
<glyph glyph-name="Ncaron" unicode="&#x147;" horiz-adv-x="693" d="M402 757 L548 949 L401 949 L331 867 L263 949 L115 949 L266 757 L402 757 Z M467 695 L467 286 L198 695 L59 695 L59 0 L226 0 L226 406 L496 0 L634 0 L634 695 L467 695 Z " />
<glyph glyph-name="ncaron" unicode="&#x148;" horiz-adv-x="605" d="M386 598 L521 802 L378 802 L311 704 L246 802 L102 802 L242 598 L386 598 Z M357 540 C293 540 241 518 205 485 L205 527 L48 527 L48 0 L215 0 L215 308 C215 356 256 392 306 392 C356 392 395 359 395 302 L395 0 L562 0 L562 335 C562 456 481 540 357 540 L357 540 Z " />
<glyph glyph-name="napostrophe" unicode="&#x149;" horiz-adv-x="733" d="M11 508 L118 508 L149 767 L31 767 L11 508 Z M486 540 C422 540 370 518 334 486 L334 527 L176 527 L176 0 L343 0 L343 308 C343 356 384 392 434 392 C485 392 524 359 524 302 L524 0 L690 0 L690 335 C690 456 610 540 486 540 L486 540 Z " />
<glyph glyph-name="Eng" unicode="&#x14a;" horiz-adv-x="693" d="M467 695 L467 286 L198 695 L59 695 L59 0 L226 0 L226 406 L494 3 L494 -6 C494 -53 470 -81 423 -81 L393 -81 L393 -230 L420 -230 C559 -230 634 -143 634 -8 L634 695 L467 695 Z " />
<glyph glyph-name="eng" unicode="&#x14b;" horiz-adv-x="605" d="M357 540 C293 540 241 518 205 485 L205 527 L48 527 L48 0 L215 0 L215 308 C215 356 256 392 306 392 C356 392 395 359 395 302 L395 34 C395 -14 369 -43 328 -43 L318 -43 L319 -185 L343 -185 C466 -185 562 -101 562 37 L562 335 C562 456 481 540 357 540 L357 540 Z " />
<glyph glyph-name="Omacron" unicode="&#x14c;" horiz-adv-x="793" d="M207 786 L585 786 L585 922 L207 922 L207 786 Z M397 -13 C602 -13 762 144 762 347 C762 552 602 708 397 708 C191 708 30 552 30 347 C30 144 191 -13 397 -13 L397 -13 Z M397 145 C279 145 200 229 200 348 C200 465 276 550 397 550 C517 550 592 465 592 348 C592 229 515 145 397 145 L397 145 Z " />
<glyph glyph-name="omacron" unicode="&#x14d;" horiz-adv-x="627" d="M144 635 L489 635 L489 766 L144 766 L144 635 Z M313 -13 C482 -13 602 106 602 263 C602 421 482 539 313 539 C145 539 25 421 25 263 C25 106 145 -13 313 -13 L313 -13 Z M314 135 C241 135 193 189 193 263 C193 339 241 391 314 391 C387 391 434 339 434 264 C434 188 386 135 314 135 L314 135 Z " />
<glyph glyph-name="Ohungarumlaut" unicode="&#x150;" horiz-adv-x="793" d="M269 735 L415 919 L301 1003 L167 809 L269 735 Z M513 735 L660 919 L545 1003 L411 809 L513 735 Z M397 -13 C602 -13 762 144 762 347 C762 552 602 708 397 708 C191 708 30 552 30 347 C30 144 191 -13 397 -13 L397 -13 Z M397 145 C279 145 200 229 200 348 C200 465 276 550 397 550 C517 550 592 465 592 348 C592 229 515 145 397 145 L397 145 Z " />
<glyph glyph-name="ohungarumlaut" unicode="&#x151;" horiz-adv-x="627" d="M194 565 L341 744 L226 828 L93 638 L194 565 Z M436 565 L583 744 L468 828 L335 638 L436 565 Z M313 -13 C482 -13 602 106 602 263 C602 421 482 539 313 539 C145 539 25 421 25 263 C25 106 145 -13 313 -13 L313 -13 Z M314 135 C241 135 193 189 193 263 C193 339 241 391 314 391 C387 391 434 339 434 264 C434 188 386 135 314 135 L314 135 Z " />
<glyph glyph-name="OE" unicode="&#x152;" horiz-adv-x="1109" d="M760 145 L760 280 L1030 280 L1030 425 L760 425 L760 550 L1068 550 L1068 695 L592 695 L592 648 C540 686 474 708 397 708 C191 708 30 552 30 347 C30 144 191 -13 397 -13 C474 -13 540 9 592 47 L592 0 L1073 0 L1073 145 L760 145 Z M397 145 C279 145 200 229 200 348 C200 465 276 550 397 550 C517 550 592 465 592 348 C592 229 515 145 397 145 L397 145 Z " />
<glyph glyph-name="oe" unicode="&#x153;" horiz-adv-x="1008" d="M600 214 L982 214 C984 228 985 248 985 274 C985 404 884 540 711 540 C636 540 569 510 520 461 C469 510 397 539 313 539 C145 539 25 421 25 263 C25 106 145 -13 313 -13 C396 -13 467 15 518 63 C567 15 637 -13 722 -13 C853 -13 918 40 960 95 L836 178 C814 143 786 123 727 123 C663 123 617 155 600 214 L600 214 Z M598 318 C612 382 655 415 716 415 C776 415 817 378 831 318 L598 318 Z M314 135 C241 135 193 189 193 263 C193 339 241 391 314 391 C387 391 434 339 434 264 C434 188 386 135 314 135 L314 135 Z " />
<glyph glyph-name="Racute" unicode="&#x154;" horiz-adv-x="633" d="M491 831 L450 967 L145 863 L182 743 L491 831 Z M427 0 L613 0 L417 283 C529 305 598 385 598 486 C598 607 503 695 351 695 L59 695 L59 0 L225 0 L225 277 L243 277 L427 0 Z M225 549 L346 549 C402 549 435 519 435 472 C435 424 402 395 346 395 L225 395 L225 549 Z " />
<glyph glyph-name="racute" unicode="&#x155;" horiz-adv-x="366" d="M355 711 L280 832 L33 671 L99 565 L355 711 Z M205 527 L48 527 L48 0 L215 0 L215 282 C215 351 263 384 351 384 L351 540 C292 540 241 517 205 482 L205 527 Z " />
<glyph glyph-name="uni0156" unicode="&#x156;" horiz-adv-x="633" d="M417 283 C529 305 598 385 598 486 C598 607 503 695 351 695 L59 695 L59 0 L225 0 L225 277 L243 277 L427 0 L613 0 L417 283 Z M225 549 L346 549 C402 549 435 519 435 472 C435 424 402 395 346 395 L225 395 L225 549 Z M315 -48 C269 -48 233 -79 233 -125 C233 -160 253 -188 280 -200 C278 -205 276 -209 273 -214 L238 -271 L313 -300 L346 -247 C383 -192 395 -164 395 -127 C395 -80 360 -48 315 -48 L315 -48 Z " />
<glyph glyph-name="uni0157" unicode="&#x157;" horiz-adv-x="366" d="M205 482 L205 527 L48 527 L48 0 L215 0 L215 282 C215 351 263 384 351 384 L351 540 C292 540 241 517 205 482 L205 482 Z M129 -48 C83 -48 47 -79 47 -125 C47 -160 67 -188 94 -200 C92 -205 90 -209 87 -214 L53 -271 L128 -300 L161 -247 C197 -192 209 -164 209 -127 C209 -80 175 -48 129 -48 L129 -48 Z " />
<glyph glyph-name="Rcaron" unicode="&#x158;" horiz-adv-x="633" d="M378 757 L524 949 L377 949 L308 867 L239 949 L92 949 L243 757 L378 757 Z M427 0 L613 0 L417 283 C529 305 598 385 598 486 C598 607 503 695 351 695 L59 695 L59 0 L225 0 L225 277 L243 277 L427 0 Z M225 549 L346 549 C402 549 435 519 435 472 C435 424 402 395 346 395 L225 395 L225 549 Z " />
<glyph glyph-name="rcaron" unicode="&#x159;" horiz-adv-x="366" d="M270 598 L405 802 L262 802 L195 704 L130 802 L-14 802 L126 598 L270 598 Z M205 527 L48 527 L48 0 L215 0 L215 282 C215 351 263 384 351 384 L351 540 C292 540 241 517 205 482 L205 527 Z " />
<glyph glyph-name="Sacute" unicode="&#x15a;" horiz-adv-x="597" d="M177 743 L486 831 L445 967 L140 863 L177 743 Z M293 -13 C463 -13 565 73 565 196 C565 460 217 391 217 511 C217 543 243 566 295 566 C345 566 382 540 397 484 L554 545 C529 641 435 708 303 708 C140 708 50 621 50 498 C50 248 396 317 396 192 C396 154 366 131 309 131 C244 131 195 166 178 231 L20 170 C55 53 158 -13 293 -13 L293 -13 Z " />
<glyph glyph-name="sacute" unicode="&#x15b;" horiz-adv-x="500" d="M161 565 L416 711 L341 833 L94 671 L161 565 Z M250 -13 C389 -13 477 53 477 162 C477 356 202 308 202 383 C202 405 219 418 253 418 C288 418 313 401 325 368 L463 422 C442 496 364 539 256 539 C123 539 39 477 39 375 C39 194 314 234 314 151 C314 127 294 112 256 112 C202 112 167 137 153 181 L15 128 C46 36 131 -13 250 -13 L250 -13 Z " />
<glyph glyph-name="Scedilla" unicode="&#x15e;" horiz-adv-x="597" d="M565 196 C565 460 217 391 217 511 C217 543 243 566 295 566 C345 566 382 540 397 484 L554 545 C529 641 435 708 303 708 C140 708 50 621 50 498 C50 248 396 317 396 192 C396 154 366 131 309 131 C244 131 195 166 178 231 L20 170 C53 61 145 -4 267 -12 L245 -76 L253 -83 L269 -83 C296 -83 311 -99 311 -119 C311 -138 296 -152 271 -152 C247 -152 232 -142 220 -127 L166 -195 C190 -221 237 -242 294 -242 C374 -242 429 -199 429 -134 C429 -84 397 -46 356 -40 L368 -7 C493 15 565 92 565 196 L565 196 Z " />
<glyph glyph-name="scedilla" unicode="&#x15f;" horiz-adv-x="500" d="M477 162 C477 356 202 308 202 383 C202 405 219 418 253 418 C288 418 313 401 325 368 L463 422 C442 496 364 539 256 539 C123 539 39 477 39 375 C39 194 314 234 314 151 C314 127 294 112 256 112 C202 112 167 137 153 181 L15 128 C42 46 112 -1 211 -11 L188 -76 L196 -83 L211 -83 C239 -83 254 -99 254 -119 C254 -138 238 -152 213 -152 C190 -152 174 -142 163 -127 L109 -195 C133 -221 180 -242 236 -242 C316 -242 372 -199 372 -134 C372 -84 339 -46 298 -40 L309 -9 C414 8 477 69 477 162 L477 162 Z " />
<glyph glyph-name="Scaron" unicode="&#x160;" horiz-adv-x="597" d="M376 757 L522 949 L375 949 L306 867 L238 949 L90 949 L241 757 L376 757 Z M217 511 C217 543 243 566 295 566 C345 566 382 540 397 484 L554 545 C529 641 435 708 303 708 C140 708 50 621 50 498 C50 248 396 317 396 192 C396 154 366 131 309 131 C244 131 195 166 178 231 L20 170 C55 53 158 -13 293 -13 C463 -13 565 73 565 196 C565 460 217 391 217 511 L217 511 Z " />
<glyph glyph-name="scaron" unicode="&#x161;" horiz-adv-x="500" d="M331 598 L467 803 L324 803 L257 704 L191 803 L47 803 L188 598 L331 598 Z M202 383 C202 405 219 418 253 418 C288 418 313 401 325 368 L463 422 C442 496 364 539 256 539 C123 539 39 477 39 375 C39 194 314 234 314 151 C314 127 294 112 256 112 C202 112 167 137 153 181 L15 128 C46 36 131 -13 250 -13 C389 -13 477 53 477 162 C477 356 202 308 202 383 L202 383 Z " />
<glyph glyph-name="uni0162" unicode="&#x162;" horiz-adv-x="595" d="M381 0 L381 546 L583 546 L583 695 L12 695 L12 546 L214 546 L214 0 L252 0 L225 -77 L233 -84 L249 -84 C276 -84 291 -100 291 -120 C291 -139 276 -153 251 -153 C227 -153 212 -143 200 -128 L146 -196 C170 -222 217 -243 274 -243 C354 -243 409 -200 409 -135 C409 -85 377 -47 336 -41 L351 0 L381 0 Z " />
<glyph glyph-name="uni0163" unicode="&#x163;" horiz-adv-x="413" d="M304 0 L394 0 L394 145 L339 145 C292 145 265 172 265 223 L265 385 L391 385 L391 527 L271 527 L271 667 L109 667 L109 586 C109 547 90 527 53 527 L11 527 L11 385 L99 385 L99 203 C99 114 135 47 207 17 L178 -66 L186 -74 L201 -74 C229 -74 244 -90 244 -109 C244 -128 229 -143 203 -143 C180 -143 164 -132 153 -118 L99 -185 C123 -212 170 -233 226 -233 C306 -233 362 -189 362 -124 C362 -74 330 -36 288 -31 L299 0 L304 0 Z " />
<glyph glyph-name="Tcaron" unicode="&#x164;" horiz-adv-x="595" d="M368 757 L514 949 L367 949 L297 867 L229 949 L81 949 L232 757 L368 757 Z M583 695 L12 695 L12 546 L214 546 L214 0 L381 0 L381 546 L583 546 L583 695 Z " />
<glyph glyph-name="tcaron" unicode="&#x165;" horiz-adv-x="413" d="M317 549 L423 549 L454 808 L337 808 L317 549 Z M304 0 L394 0 L394 145 L339 145 C292 145 265 172 265 223 L265 385 L391 385 L391 527 L271 527 L271 667 L109 667 L109 586 C109 547 90 527 53 527 L11 527 L11 385 L99 385 L99 203 C99 81 168 0 304 0 L304 0 Z " />
<glyph glyph-name="Tbar" unicode="&#x166;" horiz-adv-x="604" d="M587 546 L587 695 L17 695 L17 546 L218 546 L218 356 L116 356 L116 242 L218 242 L218 0 L385 0 L385 242 L488 242 L488 356 L385 356 L385 546 L587 546 Z " />
<glyph glyph-name="tbar" unicode="&#x167;" horiz-adv-x="417" d="M342 145 C298 145 273 168 269 213 L373 213 L373 327 L269 327 L269 385 L395 385 L395 527 L274 527 L274 667 L112 667 L112 586 C112 547 93 527 56 527 L14 527 L14 385 L102 385 L102 327 L34 327 L34 213 L102 213 L102 203 C102 81 171 0 308 0 L397 0 L397 145 L342 145 Z " />
<glyph glyph-name="Utilde" unicode="&#x168;" horiz-adv-x="676" d="M289 802 C334 802 354 754 423 754 C505 754 550 820 567 884 L454 932 C446 905 431 891 407 891 C364 891 341 939 272 939 C188 939 142 869 127 809 L241 761 C247 788 264 802 289 802 L289 802 Z M457 695 L457 274 C457 197 418 145 339 145 C259 145 220 197 220 274 L220 695 L52 695 L52 273 C52 117 147 -13 339 -13 C530 -13 624 117 624 273 L624 695 L457 695 Z " />
<glyph glyph-name="utilde" unicode="&#x169;" horiz-adv-x="597" d="M242 657 C283 657 308 609 372 609 C451 609 486 675 503 739 L389 787 C383 760 365 746 345 746 C301 746 278 794 214 794 C135 794 97 725 83 664 L195 616 C202 643 220 657 242 657 L242 657 Z M383 527 L383 220 C383 170 349 135 296 135 C242 135 210 171 210 220 L210 527 L43 527 L43 198 C43 79 111 -13 246 -13 C304 -13 356 9 393 44 L393 0 L549 0 L549 527 L383 527 Z " />
<glyph glyph-name="Umacron" unicode="&#x16a;" horiz-adv-x="676" d="M527 922 L149 922 L149 786 L527 786 L527 922 Z M457 695 L457 274 C457 197 418 145 339 145 C259 145 220 197 220 274 L220 695 L52 695 L52 273 C52 117 147 -13 339 -13 C530 -13 624 117 624 273 L624 695 L457 695 Z " />
<glyph glyph-name="umacron" unicode="&#x16b;" horiz-adv-x="597" d="M465 767 L120 767 L120 636 L465 636 L465 767 Z M383 527 L383 220 C383 170 349 135 296 135 C242 135 210 171 210 220 L210 527 L43 527 L43 198 C43 79 111 -13 246 -13 C304 -13 356 9 393 44 L393 0 L549 0 L549 527 L383 527 Z " />
<glyph glyph-name="Uring" unicode="&#x16e;" horiz-adv-x="676" d="M339 687 C422 687 479 742 479 822 C479 899 422 956 339 956 C256 956 197 899 197 822 C197 742 256 687 339 687 L339 687 Z M339 864 C365 864 383 846 383 822 C383 796 365 778 339 778 C312 778 293 796 293 822 C293 846 312 864 339 864 L339 864 Z M457 695 L457 274 C457 197 418 145 339 145 C259 145 220 197 220 274 L220 695 L52 695 L52 273 C52 117 147 -13 339 -13 C530 -13 624 117 624 273 L624 695 L457 695 Z " />
<glyph glyph-name="uring" unicode="&#x16f;" horiz-adv-x="597" d="M293 565 C377 565 434 620 434 700 C434 777 377 834 293 834 C211 834 152 777 152 700 C152 620 211 565 293 565 L293 565 Z M293 742 C319 742 338 724 338 700 C338 674 319 656 293 656 C267 656 248 674 248 700 C248 724 267 742 293 742 L293 742 Z M383 527 L383 220 C383 170 349 135 296 135 C242 135 210 171 210 220 L210 527 L43 527 L43 198 C43 79 111 -13 246 -13 C304 -13 356 9 393 44 L393 0 L549 0 L549 527 L383 527 Z " />
<glyph glyph-name="Uhungarumlaut" unicode="&#x170;" horiz-adv-x="676" d="M357 919 L243 1003 L109 809 L211 735 L357 919 Z M455 735 L602 919 L487 1003 L353 809 L455 735 Z M457 695 L457 274 C457 197 418 145 339 145 C259 145 220 197 220 274 L220 695 L52 695 L52 273 C52 117 147 -13 339 -13 C530 -13 624 117 624 273 L624 695 L457 695 Z " />
<glyph glyph-name="uhungarumlaut" unicode="&#x171;" horiz-adv-x="597" d="M317 745 L203 829 L69 639 L171 566 L317 745 Z M413 566 L559 745 L445 829 L311 639 L413 566 Z M383 220 C383 170 349 135 296 135 C242 135 210 171 210 220 L210 527 L43 527 L43 198 C43 79 111 -13 246 -13 C304 -13 356 9 393 44 L393 0 L549 0 L549 527 L383 527 L383 220 Z " />
<glyph glyph-name="Uogonek" unicode="&#x172;" horiz-adv-x="676" d="M457 695 L457 274 C457 197 418 145 339 145 C259 145 220 197 220 274 L220 695 L52 695 L52 273 C52 123 140 -3 317 -12 C280 -47 262 -82 262 -119 C262 -184 313 -227 389 -227 C440 -227 483 -211 506 -185 L448 -108 C439 -118 428 -122 416 -122 C399 -122 387 -111 387 -92 C387 -73 396 -58 424 -29 L463 9 C571 53 624 156 624 273 L624 695 L457 695 Z " />
<glyph glyph-name="uogonek" unicode="&#x173;" horiz-adv-x="597" d="M531 -120 C522 -130 511 -134 499 -134 C482 -134 470 -123 470 -104 C470 -85 479 -70 508 -41 L549 0 L549 527 L383 527 L383 220 C383 170 349 135 296 135 C242 135 210 171 210 220 L210 527 L43 527 L43 198 C43 79 111 -13 246 -13 C304 -13 356 9 393 44 L393 0 L428 0 C373 -43 345 -85 345 -131 C345 -196 396 -239 472 -239 C523 -239 566 -223 589 -197 L531 -120 Z " />
<glyph glyph-name="Wcircumflex" unicode="&#x174;" horiz-adv-x="927" d="M462 839 L532 757 L679 757 L532 949 L397 949 L246 757 L394 757 L462 839 Z M758 695 L664 196 L554 695 L373 695 L263 198 L169 695 L4 695 L162 0 L358 0 L464 461 L568 0 L766 0 L923 695 L758 695 Z " />
<glyph glyph-name="wcircumflex" unicode="&#x175;" horiz-adv-x="819" d="M409 697 L475 599 L619 599 L483 803 L340 803 L199 599 L343 599 L409 697 Z M651 527 L581 169 L506 527 L320 527 L246 169 L174 527 L5 527 L140 0 L338 0 L413 335 L491 0 L687 0 L821 527 L651 527 Z " />
<glyph glyph-name="Ycircumflex" unicode="&#x176;" horiz-adv-x="660" d="M331 839 L400 757 L548 757 L401 949 L266 949 L115 757 L263 757 L331 839 Z M666 695 L479 695 L331 430 L182 695 L-5 695 L247 282 L247 0 L414 0 L414 284 L666 695 Z " />
<glyph glyph-name="ycircumflex" unicode="&#x177;" horiz-adv-x="571" d="M285 697 L352 599 L495 599 L360 803 L216 803 L76 599 L220 599 L285 697 Z M400 527 L278 131 L174 527 L2 527 L170 0 L226 0 L157 -179 L321 -179 L384 0 L571 527 L400 527 Z " />
<glyph glyph-name="Ydieresis" unicode="&#x178;" horiz-adv-x="660" d="M202 751 C261 751 307 793 307 852 C307 912 262 956 205 956 C146 956 99 915 99 855 C99 793 146 751 202 751 L202 751 Z M458 751 C517 751 563 793 563 852 C563 912 518 956 461 956 C402 956 355 915 355 855 C355 793 402 751 458 751 L458 751 Z M666 695 L479 695 L331 430 L182 695 L-5 695 L247 282 L247 0 L414 0 L414 284 L666 695 Z " />
<glyph glyph-name="Zacute" unicode="&#x179;" horiz-adv-x="592" d="M480 831 L439 967 L133 863 L170 743 L480 831 Z M560 150 L242 150 L559 582 L559 695 L36 695 L36 549 L341 549 L29 114 L29 0 L564 0 L560 150 Z " />
<glyph glyph-name="zacute" unicode="&#x17a;" horiz-adv-x="502" d="M406 711 L332 832 L84 671 L151 565 L406 711 Z M236 134 L467 405 L467 527 L37 527 L37 393 L262 393 L27 117 L27 0 L476 0 L476 134 L236 134 Z " />
<glyph glyph-name="Zdotaccent" unicode="&#x17b;" horiz-adv-x="592" d="M296 751 C355 751 400 793 400 852 C400 913 356 956 298 956 C240 956 192 915 192 855 C192 793 240 751 296 751 L296 751 Z M560 150 L242 150 L559 582 L559 695 L36 695 L36 549 L341 549 L29 114 L29 0 L564 0 L560 150 Z " />
<glyph glyph-name="zdotaccent" unicode="&#x17c;" horiz-adv-x="502" d="M248 598 C307 598 353 640 353 700 C353 759 307 803 248 803 C189 803 143 759 143 700 C143 640 189 598 248 598 L248 598 Z M236 134 L467 405 L467 527 L37 527 L37 393 L262 393 L27 117 L27 0 L476 0 L476 134 L236 134 Z " />
<glyph glyph-name="Zcaron" unicode="&#x17d;" horiz-adv-x="592" d="M366 757 L512 949 L365 949 L296 867 L228 949 L80 949 L231 757 L366 757 Z M560 150 L242 150 L559 582 L559 695 L36 695 L36 549 L341 549 L29 114 L29 0 L564 0 L560 150 Z " />
<glyph glyph-name="zcaron" unicode="&#x17e;" horiz-adv-x="502" d="M321 598 L457 802 L314 802 L247 704 L182 802 L38 802 L178 598 L321 598 Z M236 134 L467 405 L467 527 L37 527 L37 393 L262 393 L27 117 L27 0 L476 0 L476 134 L236 134 Z " />
<glyph glyph-name="uni01EA" unicode="&#x1ea;" horiz-adv-x="793" d="M513 5 C659 51 762 184 762 347 C762 552 602 708 397 708 C191 708 30 552 30 347 C30 152 178 0 372 -12 C332 -49 311 -86 311 -125 C311 -190 362 -233 437 -233 C488 -233 531 -217 555 -191 L496 -114 C487 -124 476 -128 464 -128 C447 -128 435 -117 435 -98 C435 -80 444 -65 473 -35 L513 5 Z M200 348 C200 465 276 550 397 550 C517 550 592 465 592 348 C592 229 515 145 397 145 C279 145 200 229 200 348 L200 348 Z " />
<glyph glyph-name="uni01EB" unicode="&#x1eb;" horiz-adv-x="627" d="M422 5 C531 45 602 143 602 263 C602 421 482 539 313 539 C145 539 25 421 25 263 C25 116 130 3 280 -11 C240 -48 220 -85 220 -124 C220 -190 271 -233 346 -233 C397 -233 440 -217 464 -191 L405 -113 C396 -124 385 -128 373 -128 C356 -128 344 -116 344 -98 C344 -79 353 -64 382 -35 L422 5 Z M193 263 C193 339 241 391 314 391 C387 391 434 339 434 264 C434 188 386 135 314 135 C241 135 193 189 193 263 L193 263 Z " />
<glyph glyph-name="AEacute" unicode="&#x1fc;" horiz-adv-x="955" d="M769 831 L728 967 L422 863 L459 743 L769 831 Z M606 145 L606 280 L877 280 L877 425 L606 425 L606 550 L915 550 L915 695 L298 695 L-17 0 L157 0 L215 128 L439 128 L439 0 L920 0 L920 145 L606 145 Z M279 270 L406 550 L439 550 L439 270 L279 270 Z " />
<glyph glyph-name="aeacute" unicode="&#x1fd;" horiz-adv-x="1034" d="M678 712 L603 833 L356 672 L422 566 L678 712 Z M623 216 L1005 216 C1007 230 1008 248 1008 274 C1008 405 923 539 760 539 C685 539 631 512 595 468 L595 527 L441 527 L441 478 C404 517 354 539 289 539 C136 539 26 421 26 263 C26 105 136 -13 289 -13 C354 -13 404 9 441 48 L441 0 L595 0 L595 55 C633 12 691 -13 777 -13 C904 -13 966 54 1000 121 L864 179 C841 141 804 119 745 119 C684 119 639 153 623 216 L623 216 Z M621 313 C633 380 674 418 740 418 C806 418 846 377 858 313 L621 313 Z M313 134 C242 134 192 188 192 263 C192 338 243 393 313 393 C386 393 435 340 435 263 C435 187 386 134 313 134 L313 134 Z " />
<glyph glyph-name="Oslashacute" unicode="&#x1fe;" horiz-adv-x="796" d="M581 831 L540 967 L235 863 L272 743 L581 831 Z M766 633 L670 726 L598 651 C541 687 472 708 398 708 C193 708 32 552 32 347 C32 266 57 193 101 134 L30 60 L127 -31 L198 43 C256 8 324 -13 398 -13 C603 -13 764 144 764 347 C764 428 739 501 696 560 L766 633 Z M202 348 C202 465 278 550 398 550 C430 550 459 544 484 533 L220 257 C208 284 202 315 202 348 L202 348 Z M594 348 C594 229 516 145 398 145 C366 145 338 151 313 162 L577 437 C588 410 594 380 594 348 L594 348 Z " />
<glyph glyph-name="oslashacute" unicode="&#x1ff;" horiz-adv-x="650" d="M486 711 L411 832 L164 671 L230 565 L486 711 Z M641 458 L565 545 L498 487 C450 520 391 539 323 539 C155 539 35 421 35 263 C35 210 49 162 73 121 L8 65 L87 -22 L153 36 C200 5 258 -13 323 -13 C492 -13 612 106 612 263 C612 315 599 362 576 402 L641 458 Z M325 135 C251 135 203 189 203 263 C203 339 251 391 325 391 C397 391 444 339 444 264 C444 188 396 135 325 135 L325 135 Z " />
<glyph glyph-name="uni0218" unicode="&#x218;" horiz-adv-x="597" d="M217 511 C217 543 243 566 295 566 C345 566 382 540 397 484 L554 545 C529 641 435 708 303 708 C140 708 50 621 50 498 C50 248 396 317 396 192 C396 154 366 131 309 131 C244 131 195 166 178 231 L20 170 C55 53 158 -13 293 -13 C463 -13 565 73 565 196 C565 460 217 391 217 511 L217 511 Z M300 -48 C254 -48 218 -79 218 -125 C218 -160 238 -188 265 -200 C263 -205 261 -209 258 -214 L224 -271 L299 -300 L332 -247 C368 -192 380 -164 380 -127 C380 -80 346 -48 300 -48 L300 -48 Z " />
<glyph glyph-name="uni0219" unicode="&#x219;" horiz-adv-x="500" d="M202 383 C202 405 219 418 253 418 C288 418 313 401 325 368 L463 422 C442 496 364 539 256 539 C123 539 39 477 39 375 C39 194 314 234 314 151 C314 127 294 112 256 112 C202 112 167 137 153 181 L15 128 C46 36 131 -13 250 -13 C389 -13 477 53 477 162 C477 356 202 308 202 383 L202 383 Z M266 -48 C220 -48 184 -79 184 -125 C184 -160 204 -188 231 -200 C229 -205 227 -209 224 -214 L189 -271 L264 -300 L298 -247 C334 -192 346 -164 346 -127 C346 -80 312 -48 266 -48 L266 -48 Z " />
<glyph glyph-name="uni021A" unicode="&#x21a;" horiz-adv-x="595" d="M583 695 L12 695 L12 546 L214 546 L214 0 L381 0 L381 546 L583 546 L583 695 Z M298 -48 C252 -48 216 -79 216 -125 C216 -160 236 -187 263 -200 C261 -204 259 -209 256 -214 L222 -271 L297 -300 L330 -247 C366 -192 378 -164 378 -127 C378 -80 344 -48 298 -48 L298 -48 Z " />
<glyph glyph-name="uni021B" unicode="&#x21b;" horiz-adv-x="413" d="M339 145 C292 145 265 172 265 223 L265 385 L391 385 L391 527 L271 527 L271 667 L109 667 L109 586 C109 547 90 527 53 527 L11 527 L11 385 L99 385 L99 203 C99 81 168 0 304 0 L394 0 L394 145 L339 145 Z M255 -38 C209 -38 173 -70 173 -116 C173 -151 193 -178 220 -191 C218 -195 216 -200 213 -204 L179 -262 L254 -291 L287 -237 C323 -183 335 -154 335 -118 C335 -70 301 -38 255 -38 L255 -38 Z " />
<glyph glyph-name="uni0237" unicode="&#x237;" horiz-adv-x="266" d="M-36 -185 L-5 -185 C121 -185 218 -101 218 45 L218 527 L51 527 L51 42 C51 -11 19 -43 -27 -43 L-37 -43 L-36 -185 Z " />
<glyph glyph-name="circumflex" unicode="&#x2c6;" horiz-adv-x="397" d="M450 599 L314 803 L171 803 L30 599 L174 599 L239 697 L306 599 L450 599 Z " />
<glyph glyph-name="caron" unicode="&#x2c7;" horiz-adv-x="471" d="M306 803 L239 705 L174 803 L30 803 L171 599 L314 599 L450 803 L306 803 Z " />
<glyph glyph-name="breve" unicode="&#x2d8;" horiz-adv-x="413" d="M226 599 C348 599 421 679 421 803 L291 803 C291 747 263 721 226 721 C188 721 160 747 160 803 L30 803 C30 679 103 599 226 599 L226 599 Z " />
<glyph glyph-name="dotaccent" unicode="&#x2d9;" horiz-adv-x="223" d="M135 599 C194 599 240 641 240 701 C240 760 194 804 135 804 C76 804 30 760 30 701 C30 641 76 599 135 599 L135 599 Z " />
<glyph glyph-name="ring" unicode="&#x2da;" horiz-adv-x="299" d="M172 565 C255 565 312 620 312 700 C312 777 255 834 172 834 C89 834 30 777 30 700 C30 620 89 565 172 565 L172 565 Z M172 656 C145 656 126 674 126 700 C126 724 145 742 172 742 C197 742 216 724 216 700 C216 674 197 656 172 656 L172 656 Z " />
<glyph glyph-name="ogonek" unicode="&#x2db;" horiz-adv-x="304" d="M157 -238 C207 -238 250 -222 274 -196 L216 -119 C206 -129 196 -133 184 -133 C167 -133 155 -122 155 -103 C155 -84 163 -69 192 -40 L234 1 L175 46 L125 10 C62 -36 30 -81 30 -130 C30 -195 81 -238 157 -238 L157 -238 Z " />
<glyph glyph-name="tilde" unicode="&#x2dc;" horiz-adv-x="484" d="M319 609 C398 609 433 675 450 739 L337 787 C330 760 313 746 293 746 C248 746 225 794 162 794 C82 794 45 725 30 664 L143 616 C149 643 167 657 189 657 C230 657 255 609 319 609 L319 609 Z " />
<glyph glyph-name="hungarumlaut" unicode="&#x2dd;" horiz-adv-x="434" d="M131 566 L278 745 L163 829 L30 639 L131 566 Z M373 566 L520 745 L405 829 L272 639 L373 566 Z " />
<glyph glyph-name="gravecomb" unicode="&#x300;" d="M-97 566 L-30 672 L-277 833 L-352 712 L-97 566 Z " />
<glyph glyph-name="acutecomb" unicode="&#x301;" d="M-285 566 L-30 712 L-105 833 L-352 672 L-285 566 Z " />
<glyph glyph-name="uni0302" unicode="&#x302;" d="M-30 599 L-166 803 L-309 803 L-450 599 L-306 599 L-241 697 L-174 599 L-30 599 Z " />
<glyph glyph-name="tildecomb" unicode="&#x303;" d="M-161 609 C-82 609 -47 675 -30 739 L-143 787 C-150 760 -167 746 -187 746 C-232 746 -255 794 -318 794 C-398 794 -435 725 -450 664 L-337 616 C-331 643 -313 657 -291 657 C-250 657 -225 609 -161 609 L-161 609 Z " />
<glyph glyph-name="uni0304" unicode="&#x304;" d="M-375 636 L-30 636 L-30 767 L-375 767 L-375 636 Z " />
<glyph glyph-name="uni0306" unicode="&#x306;" d="M-207 599 C-85 599 -12 679 -12 803 L-142 803 C-142 747 -170 721 -207 721 C-245 721 -273 747 -273 803 L-403 803 C-403 679 -330 599 -207 599 L-207 599 Z " />
<glyph glyph-name="uni0307" unicode="&#x307;" d="M-135 599 C-76 599 -30 641 -30 701 C-30 760 -76 804 -135 804 C-194 804 -240 760 -240 701 C-240 641 -194 599 -135 599 L-135 599 Z " />
<glyph glyph-name="uni0308" unicode="&#x308;" d="M-379 602 C-322 602 -278 642 -278 699 C-278 758 -321 800 -376 800 C-433 800 -478 761 -478 702 C-478 642 -433 602 -379 602 L-379 602 Z M-131 602 C-74 602 -30 642 -30 699 C-30 758 -73 800 -129 800 C-185 800 -231 761 -231 702 C-231 642 -185 602 -131 602 L-131 602 Z " />
<glyph glyph-name="uni030A" unicode="&#x30a;" d="M-170 565 C-87 565 -30 620 -30 700 C-30 777 -87 834 -170 834 C-253 834 -312 777 -312 700 C-312 620 -253 565 -170 565 L-170 565 Z M-170 656 C-197 656 -216 674 -216 700 C-216 724 -197 742 -170 742 C-145 742 -126 724 -126 700 C-126 674 -145 656 -170 656 L-170 656 Z " />
<glyph glyph-name="uni030B" unicode="&#x30b;" d="M-418 566 L-272 745 L-386 829 L-520 639 L-418 566 Z M-176 566 L-30 745 L-144 829 L-278 639 L-176 566 Z " />
<glyph glyph-name="uni030C" unicode="&#x30c;" d="M-174 803 L-241 705 L-306 803 L-450 803 L-309 599 L-166 599 L-30 803 L-174 803 Z " />
<glyph glyph-name="uni0326" unicode="&#x326;" d="M-109 -48 C-155 -48 -191 -79 -191 -125 C-191 -160 -171 -188 -144 -200 C-146 -205 -148 -209 -151 -214 L-186 -271 L-111 -300 L-77 -247 C-41 -192 -29 -164 -29 -127 C-29 -80 -63 -48 -109 -48 L-109 -48 Z " />
<glyph glyph-name="uni0327" unicode="&#x327;" d="M-166 -242 C-85 -242 -30 -199 -30 -134 C-30 -84 -62 -46 -104 -40 L-83 18 L-181 18 L-214 -76 L-206 -83 L-191 -83 C-163 -83 -148 -99 -148 -119 C-148 -138 -163 -152 -189 -152 C-212 -152 -228 -142 -239 -127 L-293 -195 C-269 -221 -222 -242 -166 -242 L-166 -242 Z " />
<glyph glyph-name="uni0328" unicode="&#x328;" d="M-147 -238 C-97 -238 -54 -222 -30 -196 L-88 -119 C-98 -129 -108 -133 -120 -133 C-137 -133 -149 -122 -149 -103 C-149 -84 -141 -69 -112 -40 L-70 1 L-129 46 L-179 10 C-242 -36 -274 -81 -274 -130 C-274 -195 -223 -238 -147 -238 L-147 -238 Z " />
<glyph glyph-name="uni0335" unicode="&#x335;" d="M-402 225 L-30 225 L-30 339 L-402 339 L-402 225 Z " />
<glyph glyph-name="uni0336" unicode="&#x336;" d="M-727 263 L-30 263 L-30 393 L-727 393 L-727 263 Z " />
<glyph glyph-name="uni0337" unicode="&#x337;" d="M-373 169 L-41 354 L-102 458 L-435 274 L-373 169 Z " />
<glyph glyph-name="uni0338" unicode="&#x338;" d="M-240 443 L-165 356 L-30 472 L-106 560 L-240 443 Z M-540 184 L-662 80 L-584 -8 L-465 95 L-540 184 Z " />
<glyph glyph-name="Wgrave" unicode="&#x1e80;" horiz-adv-x="927" d="M636 863 L331 967 L290 831 L599 743 L636 863 Z M758 695 L664 196 L554 695 L373 695 L263 198 L169 695 L4 695 L162 0 L358 0 L464 461 L568 0 L766 0 L923 695 L758 695 Z " />
<glyph glyph-name="wgrave" unicode="&#x1e81;" horiz-adv-x="819" d="M561 672 L314 833 L239 712 L495 566 L561 672 Z M651 527 L581 169 L506 527 L320 527 L246 169 L174 527 L5 527 L140 0 L338 0 L413 335 L491 0 L687 0 L821 527 L651 527 Z " />
<glyph glyph-name="Wacute" unicode="&#x1e82;" horiz-adv-x="927" d="M646 831 L605 967 L300 863 L336 743 L646 831 Z M758 695 L664 196 L554 695 L373 695 L263 198 L169 695 L4 695 L162 0 L358 0 L464 461 L568 0 L766 0 L923 695 L758 695 Z " />
<glyph glyph-name="wacute" unicode="&#x1e83;" horiz-adv-x="819" d="M568 712 L493 833 L246 672 L313 566 L568 712 Z M651 527 L581 169 L506 527 L320 527 L246 169 L174 527 L5 527 L140 0 L338 0 L413 335 L491 0 L687 0 L821 527 L651 527 Z " />
<glyph glyph-name="Wdieresis" unicode="&#x1e84;" horiz-adv-x="927" d="M333 751 C392 751 438 793 438 852 C438 912 393 956 336 956 C277 956 230 915 230 855 C230 793 277 751 333 751 L333 751 Z M589 751 C648 751 694 793 694 852 C694 912 649 956 592 956 C533 956 486 915 486 855 C486 793 533 751 589 751 L589 751 Z M758 695 L664 196 L554 695 L373 695 L263 198 L169 695 L4 695 L162 0 L358 0 L464 461 L568 0 L766 0 L923 695 L758 695 Z " />
<glyph glyph-name="wdieresis" unicode="&#x1e85;" horiz-adv-x="819" d="M284 602 C340 602 385 642 385 699 C385 758 342 800 287 800 C230 800 185 761 185 702 C185 642 230 602 284 602 L284 602 Z M531 602 C588 602 633 642 633 699 C633 758 589 800 534 800 C477 800 432 761 432 702 C432 642 477 602 531 602 L531 602 Z M651 527 L581 169 L506 527 L320 527 L246 169 L174 527 L5 527 L140 0 L338 0 L413 335 L491 0 L687 0 L821 527 L651 527 Z " />
<glyph glyph-name="uni1E9E" unicode="&#x1e9e;" horiz-adv-x="656" d="M481 376 L602 540 C565 639 478 705 332 705 C166 705 53 607 53 452 L53 0 L220 0 L220 453 C220 519 260 561 335 561 C380 561 410 547 431 526 L326 379 L326 284 L361 284 C423 284 459 254 459 203 C459 154 431 125 377 125 C348 125 322 137 306 159 L257 36 C280 9 323 -10 394 -10 C536 -10 627 65 627 188 C627 284 569 352 481 376 L481 376 Z " />
<glyph glyph-name="Ygrave" unicode="&#x1ef2;" horiz-adv-x="660" d="M505 863 L199 967 L159 831 L468 743 L505 863 Z M666 695 L479 695 L331 430 L182 695 L-5 695 L247 282 L247 0 L414 0 L414 284 L666 695 Z " />
<glyph glyph-name="ygrave" unicode="&#x1ef3;" horiz-adv-x="571" d="M438 672 L191 833 L116 712 L371 566 L438 672 Z M400 527 L278 131 L174 527 L2 527 L170 0 L226 0 L157 -179 L321 -179 L384 0 L571 527 L400 527 Z " />
<glyph glyph-name="uni1EF8" unicode="&#x1ef8;" horiz-adv-x="660" d="M281 802 C327 802 347 754 416 754 C498 754 543 820 560 884 L447 932 C439 905 423 891 400 891 C357 891 334 939 265 939 C181 939 135 869 120 809 L234 761 C240 788 257 802 281 802 L281 802 Z M666 695 L479 695 L331 430 L182 695 L-5 695 L247 282 L247 0 L414 0 L414 284 L666 695 Z " />
<glyph glyph-name="uni1EF9" unicode="&#x1ef9;" horiz-adv-x="571" d="M234 657 C275 657 300 609 365 609 C444 609 479 675 496 739 L382 787 C376 760 358 746 338 746 C293 746 271 794 207 794 C128 794 90 725 75 664 L188 616 C195 643 213 657 234 657 L234 657 Z M400 527 L278 131 L174 527 L2 527 L170 0 L226 0 L157 -179 L321 -179 L384 0 L571 527 L400 527 Z " />
<glyph glyph-name="endash" unicode="&#x2013;" horiz-adv-x="505" d="M49 177 L456 177 L456 312 L49 312 L49 177 Z " />
<glyph glyph-name="emdash" unicode="&#x2014;" horiz-adv-x="749" d="M49 177 L700 177 L700 312 L49 312 L49 177 Z " />
<glyph glyph-name="quoteleft" unicode="&#x2018;" horiz-adv-x="232" d="M135 576 L199 715 L108 715 L47 584 C31 549 24 521 24 494 C24 440 65 402 114 402 C164 402 205 440 205 492 C205 540 176 569 135 576 L135 576 Z " />
<glyph glyph-name="quoteright" unicode="&#x2019;" horiz-adv-x="234" d="M123 723 C74 723 33 685 33 632 C33 585 62 555 103 548 L38 410 L130 410 L190 541 C207 576 214 603 214 630 C214 685 173 723 123 723 L123 723 Z " />
<glyph glyph-name="quotesinglbase" unicode="&#x201a;" horiz-adv-x="237" d="M118 165 C69 165 28 127 28 75 C28 26 57 -3 98 -9 L33 -148 L124 -148 L185 -17 C201 18 208 45 208 72 C208 127 168 165 118 165 L118 165 Z " />
<glyph glyph-name="quotedblleft" unicode="&#x201c;" horiz-adv-x="444" d="M135 576 L199 715 L108 715 L47 584 C31 549 24 521 24 494 C24 440 65 402 114 402 C164 402 205 440 205 492 C205 540 176 569 135 576 L135 576 Z M347 576 L411 715 L320 715 L259 584 C243 549 236 521 236 494 C236 440 277 402 326 402 C376 402 416 440 416 492 C416 540 387 569 347 576 L347 576 Z " />
<glyph glyph-name="quotedblright" unicode="&#x201d;" horiz-adv-x="446" d="M123 723 C74 723 33 685 33 632 C33 585 62 555 103 548 L38 410 L130 410 L190 541 C207 576 214 603 214 630 C214 685 173 723 123 723 L123 723 Z M335 723 C286 723 245 685 245 632 C245 584 274 555 315 548 L250 410 L341 410 L402 541 C418 576 425 603 425 630 C425 685 385 723 335 723 L335 723 Z " />
<glyph glyph-name="quotedblbase" unicode="&#x201e;" horiz-adv-x="449" d="M118 165 C69 165 28 127 28 75 C28 26 57 -3 98 -9 L33 -148 L124 -148 L185 -17 C201 18 208 45 208 72 C208 127 168 165 118 165 L118 165 Z M330 165 C280 165 240 127 240 75 C240 27 269 -2 309 -9 L245 -148 L336 -148 L397 -17 C413 18 420 45 420 72 C420 127 379 165 330 165 L330 165 Z " />
<glyph glyph-name="dagger" unicode="&#x2020;" horiz-adv-x="391" d="M356 615 L257 615 L257 731 L134 731 L134 615 L35 615 L35 501 L134 501 L134 270 L257 270 L257 501 L356 501 L356 615 Z " />
<glyph glyph-name="daggerdbl" unicode="&#x2021;" horiz-adv-x="416" d="M369 540 L369 655 L269 655 L269 731 L146 731 L146 655 L48 655 L48 540 L146 540 L146 461 L48 461 L48 346 L146 346 L146 270 L269 270 L269 346 L369 346 L369 461 L269 461 L269 540 L369 540 Z " />
<glyph glyph-name="bullet" unicode="&#x2022;" horiz-adv-x="403" d="M202 191 C285 191 349 254 349 337 C349 424 285 487 202 487 C118 487 54 424 54 337 C54 254 118 191 202 191 L202 191 Z " />
<glyph glyph-name="ellipsis" unicode="&#x2026;" horiz-adv-x="679" d="M119 -10 C171 -10 210 29 210 80 C210 133 171 172 119 172 C68 172 29 133 29 80 C29 29 68 -10 119 -10 L119 -10 Z M339 -10 C391 -10 430 29 430 80 C430 133 391 172 339 172 C288 172 249 133 249 80 C249 29 288 -10 339 -10 L339 -10 Z M559 -10 C611 -10 650 29 650 80 C650 133 611 172 559 172 C508 172 469 133 469 80 C469 29 508 -10 559 -10 L559 -10 Z " />
<glyph glyph-name="perthousand" unicode="&#x2030;" horiz-adv-x="1094" d="M185 378 C280 378 348 450 348 541 C348 631 280 704 185 704 C92 704 23 631 23 541 C23 450 92 378 185 378 L185 378 Z M117 0 L243 1 L639 696 L510 695 L117 0 Z M185 481 C153 481 129 507 129 541 C129 574 152 601 185 601 C219 601 242 574 242 541 C242 507 218 481 185 481 L185 481 Z M567 -9 C662 -9 730 64 730 154 C730 244 662 317 567 317 C474 317 405 244 405 154 C405 64 474 -9 567 -9 L567 -9 Z M911 -9 C1005 -9 1073 64 1073 154 C1073 244 1005 317 911 317 C817 317 748 244 748 154 C748 64 817 -9 911 -9 L911 -9 Z M567 94 C535 94 511 120 511 154 C511 188 534 214 567 214 C601 214 624 188 624 154 C624 120 600 94 567 94 L567 94 Z M911 94 C878 94 854 120 854 154 C854 188 877 214 911 214 C945 214 967 188 967 154 C967 120 944 94 911 94 L911 94 Z " />
<glyph glyph-name="guilsinglleft" unicode="&#x2039;" horiz-adv-x="331" d="M139 69 L293 69 L176 242 L293 414 L139 414 L22 242 L139 69 Z " />
<glyph glyph-name="guilsinglright" unicode="&#x203a;" horiz-adv-x="331" d="M38 69 L192 69 L309 242 L192 414 L38 414 L155 242 L38 69 Z " />
<glyph glyph-name="fraction" unicode="&#x2044;" horiz-adv-x="416" d="M-17 0 L102 0 L436 695 L316 695 L-17 0 Z " />
<glyph glyph-name="uni2074" unicode="&#x2074;" horiz-adv-x="335" d="M305 483 L275 483 L275 695 L172 695 L22 487 L22 410 L171 410 L171 347 L275 347 L275 410 L305 410 L305 483 Z M172 483 L102 483 L172 580 L172 483 Z " />
<glyph glyph-name="Euro" unicode="&#x20ac;" horiz-adv-x="759" d="M438 145 C379 145 329 168 297 209 L431 209 L442 316 L258 316 C258 321 258 326 258 331 L258 346 L447 346 L456 453 L297 453 C329 494 379 518 439 518 C517 518 565 482 590 431 L733 527 C682 607 584 676 443 676 C286 676 157 588 109 453 L49 453 L39 346 L88 346 C88 341 88 336 88 331 L88 316 L34 316 L24 209 L109 209 C157 75 286 -13 442 -13 C584 -13 682 55 733 136 L590 232 C565 178 514 145 438 145 L438 145 Z " />
<glyph glyph-name="trademark" unicode="&#x2122;" horiz-adv-x="663" d="M263 662 L25 662 L25 585 L101 585 L101 384 L187 384 L187 585 L263 585 L263 662 Z M617 384 L595 662 L495 662 L452 508 L409 662 L308 662 L286 384 L366 384 L377 528 L416 391 L487 391 L527 528 L538 384 L617 384 Z " />
<glyph glyph-name="minus" unicode="&#x2212;" horiz-adv-x="528" d="M53 262 L476 262 L476 402 L53 402 L53 262 Z " />
<glyph glyph-name="approxequal" unicode="&#x2248;" horiz-adv-x="539" d="M364 336 C419 336 468 365 500 419 L422 509 C405 482 374 471 343 471 C280 471 258 523 175 523 C121 523 71 494 39 440 L117 350 C135 377 165 388 196 388 C259 388 282 336 364 336 L364 336 Z M364 107 C418 107 468 136 500 190 L422 280 C404 252 374 241 343 241 C280 241 258 293 175 293 C120 293 71 264 39 210 L117 120 C134 148 165 158 196 158 C259 158 281 107 364 107 L364 107 Z " />
<glyph glyph-name="notequal" unicode="&#x2260;" horiz-adv-x="529" d="M476 360 L476 500 L399 500 L426 587 L273 587 L245 500 L53 500 L53 360 L201 360 L172 269 L53 269 L53 129 L128 129 L100 41 L254 41 L282 129 L476 129 L476 269 L326 269 L354 360 L476 360 Z " />
<glyph glyph-name="uniF8FF" unicode="&#xf8ff;" horiz-adv-x="2307" d="M561 199 C585 199 604 202 616 209 L616 284 C610 280 602 277 592 277 C581 277 574 282 574 294 L574 342 L616 342 L616 421 L565 421 C535 421 507 404 507 404 L506 408 C544 425 573 470 573 510 L474 510 L474 282 C474 224 499 199 561 199 L561 199 Z M636 204 L735 204 L735 421 L727 421 C698 421 657 413 657 413 L655 416 C699 426 734 466 734 510 L636 510 L636 204 Z M1371 199 C1394 199 1413 202 1425 209 L1425 284 C1419 280 1411 277 1401 277 C1390 277 1383 282 1383 294 L1383 342 L1425 342 L1425 421 L1375 421 C1345 421 1317 404 1317 404 L1315 408 C1354 425 1382 470 1382 510 L1283 510 L1283 282 C1283 224 1309 199 1371 199 L1371 199 Z M100 204 L199 204 L199 509 L100 509 L100 204 Z M285 199 C326 199 349 216 356 226 L359 226 L359 204 L457 204 L457 338 C457 393 415 428 343 428 C271 428 232 399 221 350 L311 336 C311 356 319 365 334 365 C349 365 357 355 357 340 L357 305 L355 305 C343 317 323 326 289 326 C242 326 215 298 215 260 C215 224 242 199 285 199 L285 199 Z M756 204 L855 204 L855 328 C862 352 866 360 881 360 C893 360 900 352 900 333 L900 204 L1000 204 L1000 338 C1000 396 972 426 927 426 C888 426 862 406 856 356 L853 356 L853 421 L756 421 L756 204 Z M1141 199 C1223 199 1267 247 1267 312 C1267 378 1222 426 1141 426 C1061 426 1015 378 1015 312 C1015 246 1059 199 1141 199 L1141 199 Z M1691 132 L1791 132 L1791 242 L1794 242 C1806 212 1830 199 1863 199 C1907 199 1949 232 1949 312 C1949 392 1917 426 1866 426 C1820 426 1799 396 1793 356 L1790 356 L1790 421 L1691 421 L1691 132 Z M2087 199 C2140 199 2191 222 2203 288 L2121 296 C2119 278 2112 262 2091 262 C2069 262 2057 284 2057 308 L2207 308 L2207 317 C2207 377 2161 426 2090 426 C2011 426 1963 378 1963 312 C1963 246 2007 199 2087 199 L2087 199 Z M1472 128 L1511 128 C1562 128 1597 158 1617 214 L1688 421 L1589 421 C1578 367 1565 302 1559 248 L1557 248 C1553 302 1538 367 1529 421 L1429 421 L1483 248 C1491 222 1507 209 1535 209 L1603 209 L1604 206 C1597 198 1579 194 1537 194 L1472 194 L1472 128 Z M2057 320 C2057 348 2072 366 2094 366 C2111 366 2118 357 2118 344 C2118 328 2105 320 2063 320 L2057 320 Z M1825 247 C1815 247 1806 250 1798 260 L1798 332 C1803 353 1813 365 1828 365 C1849 365 1855 345 1855 304 C1855 263 1845 247 1825 247 L1825 247 Z M1141 261 C1124 261 1113 275 1113 312 C1113 350 1123 364 1141 364 C1158 364 1170 350 1170 312 C1170 275 1158 261 1141 261 L1141 261 Z M335 229 C317 229 311 242 311 264 C311 286 322 299 338 299 C347 299 354 296 357 291 L357 240 C353 234 345 229 335 229 L335 229 Z " />
<glyph glyph-name="fi" unicode="&#xfb01;" horiz-adv-x="586" d="M337 613 L538 613 L538 743 L330 743 C177 743 97 660 95 527 L18 527 L18 385 L95 385 L95 0 L261 0 L261 385 L371 385 L371 0 L538 0 L538 527 L261 527 L261 538 C261 585 288 613 337 613 L337 613 Z " />
<glyph glyph-name="fl" unicode="&#xfb02;" horiz-adv-x="612" d="M564 731 L330 731 C182 731 103 652 96 527 L18 527 L18 385 L95 385 L95 0 L261 0 L261 385 L337 385 L337 519 L261 519 L261 526 C261 572 288 601 337 601 L397 601 L397 0 L564 0 L564 731 Z " />
</font>
</svg>
