<svg width="655" height="579" viewBox="0 0 655 579" fill="none" xmlns="http://www.w3.org/2000/svg">
<path fill-rule="evenodd" clip-rule="evenodd" d="M238.361 13.5464C285.822 0.625425 331.584 -3.0522 375.646 2.5134C419.709 8.07899 459.882 20.9751 496.167 41.202C532.452 61.429 563.642 87.9031 589.738 120.625C615.835 153.347 633.983 189.046 644.94 230.593C655.897 272.141 657.748 312.276 651.251 353.872C644.754 395.467 630.771 434.239 609.301 470.189C587.832 506.139 559.387 537.716 523.967 564.921C488.546 592.125 447.106 612.187 399.644 625.108L161.283 690L0 78.4383L238.361 13.5464ZM349.425 104.572L202.208 391.411L332.909 355.829L314.391 527.056L467.549 238.599L336.847 274.182L349.425 104.572Z" fill="#F9F8FB"/>
</svg>
