<?xml version="1.0" encoding="UTF-8"?>
<svg xmlns="http://www.w3.org/2000/svg" xmlns:xlink="http://www.w3.org/1999/xlink" version="1.2" >
<font id="Boston Skyline Clean Alt">
<font-face  font-family="Boston Skyline Clean Alt" units-per-em="1000" ascent="715" descent="-223" font-style="normal" font-weight="400" font-stretch="normal" cap-height="786" x-height="477" underline-position="-75" underline-thickness="50" />
<missing-glyph  horiz-adv-x="195" d="" />
<glyph glyph-name="NULL" d="" />
<glyph glyph-name="CR" unicode="&#xd;" horiz-adv-x="195" d="" />
<glyph glyph-name="space" unicode="&#x20;" horiz-adv-x="195" d="" />
<glyph glyph-name="exclam" unicode="&#x21;" horiz-adv-x="187" d="M98 332 L98 332 C122 346 116 389 135 407 C139 429 141 439 150 452 C168 518 198 604 225 672 C235 696 256 727 253 745 C250 764 221 777 200 762 C168 670 129 564 103 467 C92 427 67 355 98 332 L98 332 Z M63 160 C29 220 -21 132 23 110 C25 108 37 110 45 107 C54 122 59 140 63 160 L63 160 Z " />
<glyph glyph-name="quotedbl" unicode="&#x22;" horiz-adv-x="218" d="M177 710 L177 710 C155 622 104 549 110 452 C125 445 138 410 157 430 C138 457 160 504 170 532 C183 584 203 629 217 680 C205 691 190 699 177 710 L177 710 Z M60 655 C49 589 24 553 10 490 C14 468 29 444 50 447 C51 518 103 572 107 640 C102 641 99 645 97 650 C81 645 81 659 60 655 L60 655 Z " />
<glyph glyph-name="numbersign" unicode="&#x23;" horiz-adv-x="492" d="M434 618 L434 618 C397 538 360 458 324 378 C297 380 248 360 211 360 C241 431 280 506 301 578 C293 594 274 592 261 598 C232 553 209 503 184 455 C186 450 197 461 201 453 C184 419 171 381 156 345 C109 329 60 323 16 305 C18 284 18 273 26 258 C62 260 97 284 134 288 C128 260 114 240 109 213 C89 207 60 204 39 193 C26 148 60 138 86 155 C74 120 33 30 86 3 C96 19 114 32 111 53 C101 51 98 29 91 33 C107 79 118 125 139 170 C174 186 213 198 254 205 C233 139 166 14 251 -17 C243 56 279 158 314 225 C351 230 398 247 436 243 C443 251 455 256 459 268 C455 270 453 275 456 278 C418 294 368 279 329 275 C336 299 347 319 359 338 C420 356 475 360 534 358 C538 414 470 387 426 393 C408 391 396 385 379 390 C411 458 442 527 476 593 C463 602 457 619 434 618 L434 618 Z M189 303 C227 313 262 326 304 333 C295 308 283 286 276 260 C232 250 209 243 161 230 C170 255 184 274 189 303 L189 303 Z " />
<glyph glyph-name="dollar" unicode="&#x24;" horiz-adv-x="430" d="M378 759 L378 759 C371 774 359 783 336 782 C303 707 283 617 256 544 C235 532 210 523 198 502 C192 508 191 499 183 499 C141 465 100 430 63 389 C58 376 49 366 43 354 C43 343 39 335 41 322 C60 265 109 238 163 217 C150 173 140 126 133 77 C112 65 70 64 43 72 C26 97 35 141 33 159 C24 135 2 124 6 87 C28 50 57 20 118 22 C112 -37 87 -130 163 -146 C165 -135 168 -108 161 -98 C156 -89 162 -111 153 -106 C152 -54 162 -21 168 32 C231 46 268 86 313 117 C354 185 268 216 218 234 C243 325 265 415 296 504 C328 525 383 547 416 552 C391 488 345 446 311 392 C325 386 337 378 356 377 C366 379 366 391 378 392 C406 444 449 479 471 537 L471 549 C455 594 367 605 321 582 C339 644 364 700 378 759 L378 759 Z M83 299 L83 299 C104 378 173 408 223 457 C228 458 228 455 228 452 C209 379 189 326 171 247 C133 255 97 266 83 299 L83 299 Z M186 94 C192 134 202 170 211 207 C238 201 261 192 278 177 C260 137 223 115 186 94 C186 91 182 93 186 94 L186 94 Z " />
<glyph glyph-name="percent" unicode="&#x25;" horiz-adv-x="348" d="M13 -14 L13 -14 C45 0 45 54 53 88 C133 212 211 338 303 456 C329 490 389 525 353 566 C341 563 336 574 330 568 C315 560 303 549 300 528 C188 384 85 234 -10 71 C-10 53 -20 45 -17 23 C-6 12 -1 -6 13 -14 L13 -14 Z M70 388 L70 388 C124 378 132 485 68 468 C57 447 53 407 70 388 L70 388 Z M295 183 C285 205 261 226 240 203 C234 176 223 143 250 131 C264 130 271 135 280 138 C288 151 293 166 295 183 L295 183 Z " />
<glyph glyph-name="ampersand" unicode="&#x26;" horiz-adv-x="438" d="M185 297 L185 297 C280 405 402 506 433 655 C429 677 427 704 405 720 C344 757 244 708 205 675 C110 593 82 431 123 312 C71 250 15 192 -35 127 C-40 104 -57 92 -55 60 C-34 18 3 -1 63 2 C108 22 151 44 190 70 C199 25 234 -35 280 2 C258 28 250 69 233 100 C293 140 337 196 373 260 C321 233 276 177 218 147 C209 194 195 242 185 297 L185 297 Z M278 482 L278 482 C248 441 212 397 168 362 C136 524 207 690 363 707 C364 704 366 702 370 702 C382 680 376 650 373 622 C346 571 316 523 278 482 L278 482 Z M-7 65 C28 131 84 188 135 245 C153 207 160 163 173 110 C118 82 68 26 -7 35 C-10 48 -7 50 -7 65 L-7 65 Z " />
<glyph glyph-name="quotesingle" unicode="&#x27;" horiz-adv-x="172" d="M93 686 C83 620 55 579 43 521 C47 499 62 476 83 479 C85 550 137 603 141 671 C136 673 132 676 131 681 C114 676 114 690 93 686 L93 686 Z " />
<glyph glyph-name="parenleft" unicode="&#x28;" horiz-adv-x="281" d="M398 653 C388 676 368 690 336 690 C311 672 290 645 268 615 C151 453 32 279 13 65 C28 -13 57 -100 153 -82 C162 -67 175 -57 173 -32 C148 -34 125 -65 86 -55 C69 -39 60 -14 53 13 C45 179 131 313 221 468 C245 496 266 528 288 558 C311 587 330 622 366 638 C376 642 365 624 376 628 C389 631 399 637 398 653 L398 653 Z " />
<glyph glyph-name="parenright" unicode="&#x29;" horiz-adv-x="288" d="M-99 -59 C-113 -88 -80 -110 -44 -107 C127 12 210 234 231 443 C232 489 223 538 213 573 C202 615 192 650 168 671 C151 686 108 708 98 683 C113 676 124 664 143 661 C227 542 179 351 141 221 C116 164 86 109 48 56 C12 6 -24 -53 -89 -74 C-97 -74 -95 -63 -99 -59 L-99 -59 Z " />
<glyph glyph-name="asterisk" unicode="&#x2a;" horiz-adv-x="341" d="M219 600 C234 630 278 691 232 715 L222 715 C197 668 184 624 157 583 C126 590 101 604 69 610 C23 567 92 546 129 535 C101 519 69 507 49 483 C49 475 57 474 57 460 C86 450 98 472 119 478 C115 446 122 404 157 403 C158 414 161 423 164 433 C160 440 152 427 149 435 C157 469 163 504 192 518 C222 513 235 491 262 483 C274 507 261 539 237 548 C271 562 324 608 277 640 C259 627 238 604 219 600 L219 600 Z " />
<glyph glyph-name="plus" unicode="&#x2b;" horiz-adv-x="422" d="M251 309 C263 321 259 338 266 356 C275 378 302 390 284 419 C272 420 268 430 254 429 C248 428 244 425 236 426 C211 385 198 331 176 286 C137 277 92 270 49 276 C43 257 56 238 66 221 C91 216 123 209 149 219 C133 185 111 102 164 94 C174 142 197 186 214 234 C270 261 334 271 399 284 C391 346 292 306 251 309 L251 309 Z " />
<glyph glyph-name="comma" unicode="&#x2c;" horiz-adv-x="150" d="M6 24 C28 24 33 59 56 67 C69 110 165 177 86 207 C53 149 -1 102 6 24 L6 24 Z " />
<glyph glyph-name="hyphen" unicode="&#x2d;" horiz-adv-x="398" d="M315 291 C217 306 135 269 50 288 C43 274 35 265 40 243 C70 215 156 237 205 236 C243 254 289 249 320 263 C323 278 319 279 315 291 L315 291 Z " />
<glyph glyph-name="period" unicode="&#x2e;" horiz-adv-x="211" d="M76 178 C45 165 47 117 79 113 C112 109 126 184 76 178 L76 178 Z " />
<glyph glyph-name="slash" unicode="&#x2f;" horiz-adv-x="282" d="M352 684 L344 684 C343 681 339 681 337 679 C203 418 28 205 -73 -73 C-66 -89 -55 -103 -43 -108 C48 145 217 358 339 597 C349 599 347 612 357 614 C361 637 371 670 352 684 L352 684 Z " />
<glyph glyph-name="zero" unicode="0" horiz-adv-x="297" d="M156 564 L156 564 C111 522 84 468 64 404 C50 386 42 362 39 334 C11 253 -55 107 31 49 C80 34 110 58 144 84 C213 186 305 304 294 449 C292 458 297 458 296 466 C292 482 284 500 271 514 C243 515 238 540 219 551 C203 561 175 559 156 564 L156 564 Z M74 86 C60 85 48 70 36 74 C23 100 41 135 39 171 C70 263 89 366 141 436 C163 451 181 468 196 489 C206 480 223 499 236 504 C240 505 240 502 244 501 C266 350 181 197 74 86 L74 86 Z " />
<glyph glyph-name="one" unicode="1" horiz-adv-x="196" d="M61 114 L61 114 C100 230 134 346 184 454 C191 482 195 515 211 539 C211 547 210 556 214 559 C202 560 207 578 194 577 C183 572 174 584 159 577 C136 527 107 484 84 434 C92 430 102 427 106 419 C79 313 46 236 16 114 C-27 100 -111 87 -76 27 C-67 26 -72 39 -64 39 C-33 33 -11 57 16 62 C24 55 33 50 41 54 C32 90 121 60 124 79 C137 69 150 68 166 64 C152 102 111 113 61 114 L61 114 Z M34 62 C35 60 32 63 34 62 L34 62 Z " />
<glyph glyph-name="two" unicode="2" horiz-adv-x="374" d="M51 70 C134 89 228 122 323 113 C264 192 132 131 53 120 C160 220 380 357 391 525 C384 570 330 598 276 580 C178 535 98 473 48 380 C48 354 63 331 78 328 C86 334 80 339 81 350 C136 449 219 508 326 550 C330 547 347 552 351 543 C351 468 304 440 278 390 C239 359 211 316 168 288 C169 282 164 280 163 275 C95 222 29 167 -37 110 C-37 96 -33 69 -17 58 C10 57 30 57 51 70 C51 73 54 72 51 70 L51 70 Z " />
<glyph glyph-name="three" unicode="3" horiz-adv-x="359" d="M-9 167 C1 168 -9 178 -9 167 C-25 156 -33 136 -41 117 C-40 78 -20 58 -4 34 C22 28 49 21 76 24 C131 31 201 56 246 89 C250 92 251 100 256 104 C268 114 288 124 299 137 C312 153 320 175 326 194 C335 252 297 287 259 312 C232 320 202 317 181 327 C251 388 356 446 381 552 C376 563 370 578 359 589 C347 592 338 599 326 602 C311 603 293 600 284 602 C194 561 112 512 61 432 C70 417 77 399 94 392 C159 463 232 539 336 562 C295 460 200 410 119 347 C106 342 91 339 86 324 C88 304 100 293 111 282 C181 266 227 311 286 269 C294 252 291 232 289 214 C237 122 128 62 -11 72 C-37 102 -15 136 -9 167 L-9 167 Z " />
<glyph glyph-name="four" unicode="4" horiz-adv-x="313" d="M242 599 L242 599 C231 634 174 638 162 601 C160 594 170 598 167 589 C157 561 132 539 117 511 C77 443 -10 341 14 234 C39 199 96 180 134 206 C111 148 81 91 92 16 C99 11 109 9 117 4 C145 83 167 169 199 244 C215 252 255 276 264 291 C270 298 258 300 257 306 C246 306 234 294 227 299 C257 365 290 439 337 494 C332 512 319 523 299 526 C256 498 194 353 169 301 C169 293 162 277 157 266 C119 257 90 213 52 234 C81 389 180 475 242 599 L242 599 Z " />
<glyph glyph-name="five" unicode="5" horiz-adv-x="352" d="M470 548 L470 548 C428 573 376 568 330 563 C306 570 254 560 222 553 C216 555 212 559 205 560 C188 525 130 530 92 510 C87 489 90 461 100 448 C108 446 114 449 120 450 C80 391 10 349 30 253 C67 172 235 230 280 163 C231 109 126 83 35 80 C17 80 2 83 -13 90 C-18 97 -20 106 -23 115 C-20 123 -10 124 -10 135 C-42 129 -29 61 -8 45 C4 42 21 30 25 30 C127 21 245 60 305 118 C303 126 309 127 307 135 C302 163 287 182 280 208 C250 227 212 238 172 248 C129 255 82 250 55 270 C101 363 164 410 230 483 C233 489 246 485 247 493 C245 492 241 494 245 495 C301 515 380 514 452 518 C459 527 465 537 470 548 L470 548 Z M92 478 C91 479 94 476 92 478 L92 478 Z " />
<glyph glyph-name="six" unicode="6" horiz-adv-x="352" d="M281 477 L281 477 C307 489 360 523 336 570 C323 580 307 587 286 590 C275 588 271 578 258 577 C201 526 153 464 108 397 C72 343 31 263 13 200 C8 181 4 157 3 140 C2 94 29 71 53 40 C96 10 141 43 176 62 C216 105 319 158 328 267 C315 293 292 309 258 315 C182 296 116 219 76 157 C64 138 57 118 43 100 C37 142 63 175 71 217 C137 332 193 455 293 525 C294 504 282 496 281 477 L281 477 Z M83 67 C125 163 192 234 286 277 C265 195 186 151 136 90 C118 83 103 73 83 67 L83 67 Z " />
<glyph glyph-name="seven" unicode="7" horiz-adv-x="297" d="M19 16 C19 30 28 35 26 51 C114 220 238 362 334 516 C334 530 340 539 341 553 C333 578 312 591 286 598 C177 581 118 513 26 478 C28 458 45 454 59 446 C145 461 206 536 291 553 C196 377 62 241 -14 46 C-8 40 -15 39 -14 31 C-1 14 13 -14 34 -14 C37 -6 42 4 46 18 C38 17 27 9 19 16 L19 16 Z " />
<glyph glyph-name="eight" unicode="8" horiz-adv-x="345" d="M349 543 L349 543 C410 564 350 626 304 613 C192 576 108 511 36 433 C21 397 35 366 46 333 C67 311 93 295 119 278 C72 236 17 187 -14 136 C-11 92 -3 69 21 48 C88 34 187 91 234 146 C277 197 231 250 194 276 C259 349 356 390 381 503 C373 519 361 532 349 543 L349 543 Z M244 531 L244 531 C276 536 302 525 336 521 C304 418 212 374 146 303 C115 319 79 331 56 356 C58 368 60 380 64 391 C111 450 176 492 244 531 L244 531 Z M174 251 C193 246 200 230 216 223 C189 145 104 112 26 98 C64 161 114 211 174 251 L174 251 Z " />
<glyph glyph-name="nine" unicode="9" horiz-adv-x="344" d="M282 563 L282 563 C265 591 211 610 177 585 C106 516 36 445 20 320 C27 276 65 240 117 263 C147 285 182 315 195 345 C228 371 247 410 277 438 C237 343 187 243 160 143 C146 102 128 68 135 18 C148 8 150 -14 172 -15 C173 -12 168 6 170 18 C212 191 299 363 372 533 C371 548 376 556 375 570 C367 582 351 585 340 593 C318 578 303 543 282 535 C283 549 285 550 282 563 L282 563 Z M235 555 C239 556 239 553 242 553 C236 524 234 506 227 480 C231 473 236 483 242 480 C182 417 146 330 57 295 C79 410 149 497 235 555 L235 555 Z " />
<glyph glyph-name="colon" unicode="&#x3a;" horiz-adv-x="243" d="M106 171 C66 208 32 119 83 114 C105 119 117 147 106 171 L106 171 Z M107 379 C79 366 90 314 122 314 C133 328 149 346 137 369 C127 372 119 378 107 379 L107 379 Z " />
<glyph glyph-name="semicolon" unicode="&#x3b;" horiz-adv-x="226" d="M118 379 C90 366 101 314 133 314 C144 328 160 346 148 369 C138 372 130 378 118 379 L118 379 Z M6 24 C28 24 33 59 56 67 C69 110 165 177 86 207 C53 149 -1 102 6 24 L6 24 Z " />
<glyph glyph-name="less" unicode="&#x3c;" horiz-adv-x="484" d="M449 496 C448 498 447 499 444 499 C307 430 171 362 51 276 C52 267 46 265 41 261 C42 240 35 229 41 204 C81 178 130 162 186 154 C196 146 214 146 224 139 C261 135 285 118 314 106 C326 96 342 79 356 79 C360 94 348 104 349 121 C282 180 183 207 86 236 C121 270 161 299 211 316 C284 365 367 403 454 439 C462 451 468 491 449 496 L449 496 Z " />
<glyph glyph-name="equal" unicode="&#x3d;" horiz-adv-x="401" d="M356 325 L356 325 C344 371 269 360 224 358 C168 356 108 351 64 350 C54 339 57 324 61 305 C108 292 165 299 216 303 C266 307 318 308 356 325 L356 325 Z M344 235 C264 272 149 239 66 248 C55 225 62 207 81 193 C135 193 180 195 219 200 C262 211 317 209 344 235 L344 235 Z " />
<glyph glyph-name="greater" unicode="&#x3e;" horiz-adv-x="419" d="M1 50 C85 168 251 204 376 283 C376 287 377 291 381 293 C383 313 379 327 373 340 C291 395 175 415 86 463 C85 467 82 462 78 463 L73 463 C69 445 74 432 78 413 C149 365 247 351 333 318 C222 253 31 207 -9 83 C-3 70 -9 60 1 50 L1 50 Z " />
<glyph glyph-name="question" unicode="&#x3f;" horiz-adv-x="265" d="M123 349 L123 349 C125 363 128 376 131 389 C155 426 183 456 213 492 C272 564 361 633 353 739 C342 755 324 763 308 774 C226 784 161 746 98 689 C87 670 60 654 66 626 C83 626 100 615 116 621 C153 689 221 740 313 744 C314 695 277 658 256 629 C196 549 129 488 83 396 C71 368 105 347 108 324 C119 324 121 316 131 316 C143 328 150 344 158 359 C146 358 133 345 123 349 L123 349 Z M61 169 C34 154 47 106 76 104 C109 116 106 172 61 169 L61 169 Z " />
<glyph glyph-name="at" unicode="&#x40;" horiz-adv-x="586" d="M272 603 C271 599 274 599 274 596 C162 483 60 361 29 168 C28 162 40 170 37 161 C33 159 33 159 29 153 C21 32 76 -40 169 -67 C177 -60 183 -67 192 -67 C276 -63 353 12 402 81 C400 86 394 77 397 88 C402 94 401 85 409 86 C433 125 468 177 482 211 C488 220 468 208 474 223 C484 227 479 216 487 218 C524 308 552 413 529 521 C514 568 484 599 452 628 C467 625 477 617 489 611 C486 624 505 615 504 626 C500 633 491 636 489 646 C446 662 375 662 334 641 C317 632 289 624 274 618 C263 614 251 613 247 601 C255 599 257 615 262 608 C256 597 242 593 234 583 C234 587 234 590 232 591 C221 582 214 570 204 561 C214 557 221 575 229 581 C244 579 259 595 272 603 C272 606 271 610 274 611 C274 608 275 604 272 603 L272 603 Z M369 126 C361 119 359 132 347 128 C341 174 350 217 367 253 C366 256 363 256 359 256 C385 293 404 348 417 391 C404 392 415 371 402 373 C402 384 405 400 417 396 C419 411 412 416 409 426 C396 428 383 430 376 438 C366 433 364 419 352 416 C342 439 320 449 287 448 C271 440 266 425 257 413 C205 346 157 259 137 168 C142 146 159 136 169 118 C186 119 195 128 209 131 C254 175 284 234 324 283 C329 263 313 242 314 208 C311 203 308 212 307 206 C311 197 306 193 307 183 C308 154 321 124 344 111 C357 108 355 119 364 118 C334 59 273 9 212 -27 C117 -50 77 21 72 103 C82 119 77 132 77 153 C82 175 90 198 97 216 C102 230 102 249 107 261 C108 264 115 268 117 271 C129 295 136 325 152 351 C212 454 297 563 399 613 C467 581 479 504 482 416 C461 299 421 206 369 126 C375 128 376 135 382 138 C390 130 376 123 372 118 C369 119 369 122 369 126 L369 126 Z M282 598 C274 601 284 605 284 608 C292 606 281 602 282 598 L282 598 Z M292 593 C291 591 288 591 287 591 C287 593 290 593 292 593 L292 593 Z M269 573 C269 576 273 575 269 573 C269 572 269 570 267 571 C267 567 265 565 264 563 C260 564 262 569 264 571 C265 571 266 571 267 571 C267 572 267 574 269 573 L269 573 Z M247 551 C247 554 248 556 249 558 C253 558 251 553 249 551 C248 551 247 551 247 551 C247 545 245 543 239 543 C231 521 199 511 202 486 C198 486 198 489 194 488 C172 461 156 428 132 403 C114 360 81 319 74 273 C65 273 73 256 62 258 C57 262 68 291 74 301 C91 352 122 388 144 433 C156 440 162 452 167 466 C192 490 210 522 239 543 C239 549 241 551 247 551 L247 551 Z M484 536 C482 521 485 546 484 536 L484 536 L484 536 Z M487 308 C475 313 492 330 492 341 C499 341 490 325 497 326 C513 385 521 464 509 531 C532 477 525 405 509 353 C505 279 468 237 449 178 C441 174 436 168 432 161 C424 168 440 174 439 183 C429 182 446 207 454 206 C453 208 454 211 452 211 C451 209 451 208 449 208 C449 205 445 207 449 208 C449 210 449 211 452 211 C455 226 465 234 467 251 C488 251 488 293 497 313 C482 299 487 267 469 256 C474 270 482 281 484 298 C476 296 480 283 474 278 C467 289 481 302 487 308 L487 308 Z M492 516 C488 517 486 519 487 523 C490 522 492 520 492 516 L492 516 Z M247 518 C245 515 244 519 242 518 C242 522 247 521 247 518 L247 518 Z M234 506 L234 506 C240 516 238 498 234 506 L234 506 Z M494 493 C488 495 488 503 487 508 C495 509 491 498 494 493 L494 493 Z M492 486 L492 486 C497 494 491 467 492 486 L492 486 Z M209 471 C209 473 209 476 209 478 C216 482 216 467 209 471 L209 471 Z M184 441 C184 444 184 448 184 451 C198 449 191 467 204 466 C197 458 198 442 184 441 C176 419 162 403 149 386 C155 410 171 423 184 441 L184 441 Z M489 453 C489 456 489 458 489 461 C496 464 496 450 489 453 L489 453 Z M492 446 L492 446 C497 454 491 427 492 446 L492 446 Z M527 431 C527 432 527 434 527 436 C528 436 530 436 532 436 C532 434 532 432 532 431 C530 431 528 431 527 431 L527 431 Z M529 413 C529 411 526 411 524 411 C524 413 527 413 529 413 L529 413 Z M527 396 L527 396 C526 397 528 394 527 396 L527 396 Z M124 336 C131 353 137 371 144 388 C153 372 133 349 124 336 C101 268 62 210 59 128 C56 128 56 132 52 131 C52 122 61 122 59 111 C56 110 54 107 49 108 C56 107 56 88 49 86 C56 80 53 67 57 56 C29 104 46 178 69 221 C70 227 65 226 67 233 C71 235 74 241 79 236 C80 258 90 284 102 288 C98 306 114 323 124 336 L124 336 Z M522 378 C523 380 524 382 524 386 C529 384 529 382 527 378 C525 378 523 378 522 378 L522 378 Z M227 273 C238 285 248 299 254 316 C264 315 272 324 272 341 C293 348 293 378 317 383 C315 373 319 369 319 361 C271 308 239 238 187 188 C196 223 219 233 227 273 C224 273 225 277 227 273 L227 273 Z M394 378 L394 378 C397 388 397 368 394 378 L394 378 Z M376 348 C376 359 383 361 392 363 C389 356 381 354 376 348 C379 338 369 348 376 348 L376 348 Z M519 361 L519 361 C525 371 523 353 519 361 L519 361 Z M232 358 L232 358 C231 359 233 357 232 358 L232 358 Z M382 341 L382 341 C381 342 383 339 382 341 L382 341 Z M219 198 C247 249 282 291 317 341 C327 330 307 313 297 306 C279 268 249 231 219 198 C217 190 212 185 204 183 C209 188 211 196 219 198 L219 198 Z M227 338 C227 336 224 336 222 336 C222 338 225 338 227 338 L227 338 Z M372 336 L372 336 C371 337 373 334 372 336 L372 336 Z M217 333 C216 336 220 335 217 333 C217 330 213 332 217 333 L217 333 Z M514 331 C514 333 514 334 514 336 C516 336 517 336 519 336 C519 334 519 333 519 331 C517 331 516 331 514 331 L514 331 Z M367 323 L367 323 C370 333 370 314 367 323 L367 323 Z M207 316 C199 319 210 326 217 323 C215 321 214 319 214 316 C212 318 207 320 207 316 L207 316 Z M357 321 C357 318 354 319 352 318 C352 321 355 320 357 321 L357 321 Z M374 318 L374 318 C377 328 377 308 374 318 L374 318 Z M219 316 L219 316 C223 324 225 306 219 316 L219 316 Z M329 206 C337 247 348 285 364 318 C367 308 354 292 354 276 C364 285 360 308 374 313 C368 290 346 257 357 241 C350 242 348 240 349 233 C357 233 347 223 349 233 C344 225 342 213 339 201 C336 227 353 252 354 276 C341 258 342 224 329 206 C329 199 330 192 327 188 C320 191 330 198 327 206 C327 206 328 206 329 206 L329 206 Z M504 296 C503 306 510 308 509 318 C520 316 510 297 504 296 L504 296 Z M197 308 C201 310 206 312 212 313 C206 309 203 302 197 298 C197 302 197 305 197 308 L197 308 Z M324 291 C318 296 327 308 334 308 C332 301 326 298 324 291 L324 291 Z M319 168 C308 212 334 274 347 308 C349 307 351 306 352 303 C335 268 322 228 319 168 L319 168 Z M204 283 C205 291 208 296 212 301 C215 299 210 285 204 283 L204 283 Z M372 296 L372 296 C371 297 373 294 372 296 L372 296 Z M187 278 C188 286 187 296 197 296 C194 289 192 282 187 278 C187 274 186 271 184 268 C178 269 184 278 187 278 L187 278 Z M487 238 C482 256 502 269 502 291 C507 273 492 253 487 238 L487 238 Z M197 263 C188 265 195 271 197 276 C204 274 195 268 197 263 L197 263 Z M212 253 C204 260 221 262 219 271 C232 267 212 259 212 253 L212 253 Z M179 258 C175 260 179 263 179 266 C184 264 180 261 179 258 L179 258 Z M462 261 C463 264 465 266 469 266 C468 263 466 261 462 261 L462 261 Z M194 261 C194 258 191 259 189 258 C189 261 192 260 194 261 L194 261 Z M54 226 C44 230 53 248 54 256 C67 252 52 235 54 226 L54 226 Z M197 253 L197 253 C199 263 199 244 197 253 L197 253 Z M464 256 C464 253 461 254 459 253 C459 256 462 255 464 256 L464 256 Z M169 246 C169 248 169 249 169 251 C171 251 172 251 174 251 C174 249 174 248 174 246 C172 246 171 246 169 246 L169 246 Z M187 246 C188 244 185 247 187 246 L187 246 L187 246 Z M454 246 L454 246 C457 256 457 236 454 246 L454 246 Z M182 238 C181 241 185 240 182 238 C182 235 178 237 182 238 L182 238 Z M164 236 L164 236 C163 237 166 234 164 236 L164 236 Z M199 236 L199 236 C198 237 201 234 199 236 L199 236 Z M447 228 C444 244 454 234 447 228 C447 225 443 227 447 228 L447 228 Z M174 226 L174 226 C177 236 177 216 174 226 L174 226 Z M194 226 L194 226 C200 236 198 218 194 226 L194 226 Z M159 223 L159 223 C165 233 163 215 159 223 L159 223 Z M442 221 L442 221 C441 222 443 219 442 221 L442 221 Z M157 216 L157 216 C156 217 158 214 157 216 L157 216 Z M167 216 C169 215 169 217 169 218 C174 219 173 207 167 211 C167 213 167 214 167 216 L167 216 Z M347 216 L347 216 C346 217 348 214 347 216 L347 216 Z M439 216 L439 216 C438 217 441 214 439 216 L439 216 Z M44 196 C39 198 41 213 44 216 C52 212 48 201 44 196 L44 196 Z M189 211 L189 211 C188 212 191 209 189 211 L189 211 Z M424 193 C424 202 432 202 432 211 C443 209 432 192 424 193 L424 193 Z M459 181 C453 189 467 199 467 211 C478 204 462 189 459 181 L459 181 Z M174 201 L174 201 C173 202 176 199 174 201 L174 201 Z M172 193 C169 204 179 194 172 193 C172 182 162 193 172 193 L172 193 Z M337 186 C331 185 335 195 334 198 C345 199 334 192 337 186 L337 186 Z M152 173 C152 183 156 189 159 196 C165 199 160 172 152 173 L152 173 Z M182 193 L182 193 C188 203 185 185 182 193 L182 193 Z M342 193 L342 193 C344 203 344 184 342 193 L342 193 Z M39 186 L39 186 C38 187 41 184 39 186 L39 186 Z M177 171 C170 173 180 179 177 186 C186 184 180 174 177 171 L177 171 Z M184 183 L184 183 C183 184 186 182 184 183 L184 183 Z M332 181 C333 179 330 182 332 181 L332 181 L332 181 Z M409 171 C409 177 413 179 414 183 C421 180 413 171 409 171 C407 165 407 156 399 156 C401 163 404 168 409 171 L409 171 Z M162 176 L162 176 C165 184 168 166 162 176 L162 176 Z M152 168 L152 168 C154 178 154 159 152 168 L152 168 Z M447 166 C441 154 452 178 447 166 L447 166 L447 166 Z M319 163 C318 160 317 164 314 163 C315 167 319 166 319 163 L319 163 Z M439 151 C439 156 441 159 447 158 C444 156 446 149 439 151 L439 151 Z M342 148 C339 149 336 152 337 156 C340 155 342 153 342 148 L342 148 Z M387 141 C387 146 393 144 392 151 C402 152 395 136 387 141 L387 141 Z M422 121 C416 140 434 135 432 151 C444 144 428 125 422 121 L422 121 Z M412 131 L412 131 C414 141 414 121 412 131 L412 131 Z M419 116 C414 115 414 119 414 123 C417 122 419 120 419 116 L419 116 Z M392 111 C393 113 394 115 394 118 C399 117 399 114 397 111 C395 111 393 111 392 111 L392 111 Z M387 111 C386 108 383 109 382 108 C382 111 385 110 387 111 L387 111 Z M409 103 C408 100 407 104 404 103 C405 107 409 106 409 103 L409 103 Z M387 88 C386 96 392 98 394 103 C399 101 393 88 387 88 L387 88 Z M376 96 L376 96 C379 106 379 86 376 96 L376 96 Z M382 71 L382 71 C385 81 385 61 382 71 L382 71 Z M54 48 L54 48 C53 49 56 47 54 48 L54 48 Z M54 41 L54 41 C53 42 56 39 54 41 L54 41 Z M327 23 C326 21 323 21 322 21 C322 23 325 23 327 23 L327 23 Z M239 -32 L239 -32 C245 -22 243 -40 239 -32 L239 -32 Z M247 601 C240 601 239 597 237 593 C243 593 244 597 247 601 L247 601 Z M489 313 C491 315 493 318 494 321 C489 322 489 317 489 313 L489 313 Z M489 313 C487 313 487 310 487 308 C489 308 488 311 489 313 L489 313 Z M444 193 C443 194 446 192 444 193 L444 193 L444 193 Z M59 186 C58 187 61 184 59 186 L59 186 L59 186 Z M439 183 C441 183 441 184 442 186 C440 190 439 186 439 183 L439 183 Z M49 151 L49 151 C52 141 52 161 49 151 L49 151 Z M49 138 L49 138 C47 124 51 148 49 138 L49 138 Z M52 118 C51 119 53 117 52 118 L52 118 L52 118 Z " />
<glyph glyph-name="A" unicode="A" horiz-adv-x="508" d="M510 708 L510 708 C497 709 487 706 470 713 C308 538 185 324 38 135 C-9 119 -55 85 -107 90 C-92 48 -45 51 -5 70 C-26 37 -51 2 -67 -27 C-76 -26 -79 -29 -85 -30 C-79 -53 -60 -64 -42 -75 C-32 -74 -31 -67 -27 -62 C-16 -49 -8 -33 3 -15 C29 28 60 67 85 108 C157 137 227 169 308 190 C292 115 281 -12 348 -45 C390 -21 350 22 350 55 C341 58 342 62 335 63 C345 107 342 167 363 210 C382 212 394 221 415 220 C460 242 517 241 558 253 C561 267 539 272 525 278 C461 281 418 263 368 253 C409 401 473 546 520 688 C519 696 509 696 510 708 L510 708 Z M133 175 L133 175 C229 313 325 451 425 585 C428 586 430 585 430 583 C387 472 345 355 315 235 C255 224 193 194 133 175 L133 175 Z M363 390 L363 390 C362 391 364 389 363 390 L363 390 Z M90 190 L90 190 C89 191 92 189 90 190 L90 190 Z M68 160 L68 160 C67 161 69 159 68 160 L68 160 Z " />
<glyph glyph-name="B" unicode="B" horiz-adv-x="602" d="M360 364 L360 364 C440 419 597 470 630 572 C666 683 466 676 413 664 C268 624 145 563 38 479 C30 465 15 457 10 439 C20 409 37 360 75 374 C80 396 60 395 55 407 C122 494 227 541 335 587 C335 577 325 567 330 559 C252 420 174 259 108 114 C103 104 95 98 93 87 C89 70 96 53 98 37 C109 33 112 21 128 22 C137 29 129 40 130 52 C134 57 135 65 135 74 C162 137 193 194 220 257 C239 272 239 306 263 317 C352 313 441 333 500 274 C507 259 505 241 508 227 C497 196 475 176 463 147 C427 113 378 83 335 59 C263 19 152 -32 58 -8 C60 17 82 50 60 69 C49 55 36 48 23 42 C22 33 19 28 15 22 C19 -11 31 -36 50 -53 C75 -63 105 -68 135 -66 C149 -60 166 -58 185 -58 C330 -6 476 47 535 197 C558 303 463 354 360 364 L360 364 Z M355 592 C424 619 530 653 598 612 C593 580 571 565 555 544 C478 487 394 437 303 394 C323 452 369 506 395 567 C393 586 372 587 355 592 L355 592 Z " />
<glyph glyph-name="C" unicode="C" horiz-adv-x="496" d="M383 438 C412 507 459 557 460 653 C447 690 400 689 358 686 C201 559 77 408 23 183 C24 162 18 131 20 96 C28 55 45 27 65 -4 C99 -27 118 -58 178 -49 L235 -34 C359 43 438 164 508 296 C461 258 432 203 388 163 C369 127 334 107 310 76 C255 41 216 -9 123 -14 C67 6 53 76 63 148 C87 278 161 397 255 508 C302 556 350 615 413 638 C405 601 390 571 375 541 C366 507 337 482 340 443 C350 439 371 437 383 438 L383 438 Z " />
<glyph glyph-name="D" unicode="D" horiz-adv-x="594" d="M349 637 C342 676 309 642 291 642 C284 634 281 622 275 615 C185 575 114 529 35 478 C28 464 14 444 18 426 C40 419 53 430 72 434 C77 446 90 450 97 460 C125 473 145 493 171 506 C194 519 222 540 245 546 C196 436 134 299 93 175 C80 137 56 82 85 46 C93 43 100 39 108 35 C118 41 124 51 134 57 C122 89 156 110 162 141 C139 135 139 109 117 103 C180 267 259 435 327 578 C377 616 495 633 547 575 C582 489 519 384 485 327 C409 202 243 21 77 11 C67 19 47 19 40 30 C26 73 48 130 53 175 C62 190 67 212 72 234 C92 264 125 292 128 332 C73 266 5 205 -8 102 C2 61 15 24 32 -10 C105 -70 257 7 314 61 C442 165 534 285 594 449 C602 504 601 556 574 589 C533 623 486 651 416 650 C395 645 370 643 349 637 L349 637 Z " />
<glyph glyph-name="E" unicode="E" horiz-adv-x="500" d="M661 625 C656 643 638 648 628 662 C528 654 431 641 341 635 C314 611 264 626 236 607 C234 576 262 557 281 562 C233 487 189 407 138 335 C127 331 115 328 108 320 C105 303 110 300 113 285 C110 276 102 279 101 272 C58 186 -30 84 -44 -25 C-46 -37 -38 -49 -39 -60 C-31 -63 -30 -71 -24 -75 C129 -19 285 52 443 72 C447 79 450 73 453 82 C464 74 473 81 488 80 C502 54 556 53 581 65 C585 82 572 83 573 97 C557 109 544 124 518 127 C318 118 172 51 -2 -10 C44 100 96 188 158 280 C251 304 355 323 458 342 C464 348 472 354 471 360 C477 355 484 365 486 372 C380 391 303 361 198 347 C251 424 292 512 353 580 C443 591 544 624 631 610 C642 619 641 612 653 615 C657 617 653 627 661 625 L661 625 Z " />
<glyph glyph-name="F" unicode="F" horiz-adv-x="406" d="M160 247 L160 247 C207 361 266 491 330 602 C419 627 519 645 623 635 C620 626 609 625 608 615 C622 620 647 619 655 637 C647 647 637 655 630 667 C544 697 452 673 363 665 C373 673 380 686 383 702 C374 717 348 724 328 720 C313 688 304 666 283 642 C174 615 89 578 -17 547 C-26 528 -19 515 -10 502 C2 506 10 503 20 500 C104 525 168 560 253 577 C204 460 144 354 103 230 C56 215 20 201 -40 197 C-41 202 -32 211 -42 210 C-59 203 -65 186 -67 165 C-22 147 29 157 78 170 C56 100 -18 -35 73 -78 C121 -69 97 5 113 42 C97 23 92 -21 73 -28 C80 57 115 113 138 192 C249 226 358 257 458 277 C454 300 432 294 415 300 C331 289 242 277 160 247 C160 246 160 244 158 245 C158 246 158 248 160 247 L160 247 Z M113 42 C120 43 110 53 113 42 L113 42 Z " />
<glyph glyph-name="G" unicode="G" horiz-adv-x="656" d="M304 4 L304 4 C340 34 372 70 402 106 C392 74 387 11 432 1 C444 5 437 22 437 34 C440 45 439 60 442 71 C477 148 508 230 557 294 C559 303 549 311 554 314 C609 331 686 323 739 324 C736 343 712 342 699 351 C602 365 510 342 429 324 C402 305 370 314 349 291 C354 272 370 256 389 259 C408 275 456 283 489 294 C414 186 331 92 244 1 C217 -16 191 -34 162 -49 C138 -56 106 -69 82 -54 C71 -42 63 -27 57 -11 C51 7 53 37 52 61 C101 262 258 530 432 656 C451 657 457 671 477 671 C478 615 444 576 439 519 C452 518 473 515 489 521 C496 535 493 544 494 564 C510 597 533 647 517 684 C495 704 463 713 429 714 C370 686 329 639 289 591 C166 445 60 278 14 86 C11 -1 21 -54 92 -86 C176 -103 249 -53 304 4 C301 4 302 8 304 4 L304 4 Z M82 264 C83 262 80 265 82 264 L82 264 Z " />
<glyph glyph-name="H" unicode="H" horiz-adv-x="539" d="M593 786 C565 744 528 709 506 661 C519 658 527 681 541 686 C480 562 426 441 373 306 C313 289 258 276 186 256 C224 389 328 609 321 646 C302 655 296 652 278 648 C226 514 176 377 126 241 C105 235 90 238 66 236 C66 206 104 209 116 198 C98 143 53 39 131 28 C141 53 151 78 158 106 C165 115 182 140 176 146 C163 132 144 94 131 81 C143 123 150 170 168 206 C234 220 293 246 356 258 C309 113 258 -11 258 -154 C272 -158 277 -172 296 -167 C303 3 367 137 413 276 C438 284 454 286 501 296 C539 303 569 298 573 328 C531 357 486 318 431 323 C491 474 555 619 636 748 C633 756 634 760 631 771 C618 775 604 779 593 786 L593 786 Z " />
<glyph glyph-name="I" unicode="I" horiz-adv-x="385" d="M633 602 L633 602 C630 620 615 634 603 650 C519 691 383 654 288 642 C244 628 206 620 166 605 C126 598 86 581 51 567 C32 567 20 559 11 550 C14 525 31 516 46 502 C58 505 60 518 71 522 C218 576 424 640 593 617 C584 587 545 572 536 550 C575 566 612 569 633 602 L633 602 Z M373 567 C350 582 314 603 306 562 C313 559 319 570 318 560 C252 369 145 220 86 22 C26 7 -16 -24 -79 -30 C-87 -52 -73 -72 -67 -88 C91 -50 221 34 398 42 L393 65 C309 92 207 44 126 30 C169 88 187 168 228 232 C275 349 337 446 373 567 L373 567 Z " />
<glyph glyph-name="J" unicode="J" horiz-adv-x="478" d="M506 627 C517 645 498 672 486 674 C454 680 466 634 451 612 C322 584 193 567 81 527 C74 507 84 477 104 469 C213 506 310 528 434 554 C361 361 274 182 154 37 C122 19 93 -15 56 -18 C47 21 46 78 46 122 C52 134 53 153 56 172 C59 188 67 211 56 217 C37 174 -5 91 -1 24 C1 -35 73 -89 134 -48 C308 101 401 341 491 567 C565 582 620 598 701 607 C725 621 760 624 776 647 C673 656 604 631 506 627 L506 627 Z " />
<glyph glyph-name="K" unicode="K" horiz-adv-x="468" d="M362 723 L362 723 C357 732 348 736 337 738 C239 572 167 396 89 211 C43 164 -16 131 -58 81 C-51 46 -17 38 12 26 C4 -7 -28 -113 44 -114 C63 -97 76 -66 67 -39 C53 -46 53 -67 37 -72 C40 -33 54 0 67 36 C203 50 314 72 449 41 C458 37 461 27 469 23 C465 52 434 55 419 73 C321 110 169 90 82 76 C92 107 111 133 114 163 C269 304 437 431 569 593 C568 614 548 615 537 626 C495 607 485 556 447 533 C362 443 259 353 164 278 C227 414 283 552 357 681 C357 694 360 706 362 723 L362 723 Z M2 68 C14 82 31 91 42 106 C47 96 34 82 32 71 C23 69 14 67 2 68 L2 68 Z " />
<glyph glyph-name="L" unicode="L" horiz-adv-x="375" d="M333 513 C356 547 387 602 413 643 C423 658 442 671 441 686 C440 707 409 720 383 703 C274 489 134 305 36 78 C31 45 16 21 18 -19 C30 -47 50 -66 73 -82 C92 -82 110 -77 126 -74 C237 -19 336 66 466 86 C484 91 488 74 501 81 C503 113 471 111 446 116 C368 96 307 70 246 38 C187 8 136 -36 63 -47 C56 32 103 96 131 156 C162 218 196 277 333 513 L333 513 Z " />
<glyph glyph-name="M" unicode="M" horiz-adv-x="591" d="M324 680 C307 693 289 692 271 685 C232 643 209 585 174 538 C79 346 -25 159 -101 -45 C-68 -94 -45 -38 -29 -10 C42 193 151 396 251 568 C211 380 128 177 171 -25 C184 -32 189 -47 209 -47 C236 -4 250 52 276 95 C344 216 405 342 484 473 C446 341 378 191 406 38 C422 13 431 -19 466 -25 C479 -16 470 15 451 15 C441 64 440 130 451 180 C467 249 487 319 509 385 C538 472 571 549 591 640 C585 653 570 655 554 658 C475 578 429 465 369 365 C312 262 257 158 201 60 C214 241 271 446 324 628 C319 647 329 660 324 680 L324 680 Z " />
<glyph glyph-name="N" unicode="N" horiz-adv-x="515" d="M669 686 C661 695 641 703 624 696 C491 528 410 253 338 43 C330 19 306 -47 272 -72 L257 -39 C230 150 285 343 292 553 C287 565 279 573 272 583 C281 594 274 605 267 613 C259 618 243 615 232 616 C180 521 145 422 109 321 C72 214 38 125 27 -4 C39 -19 50 -44 74 -32 C103 187 174 360 249 533 C243 364 157 115 219 -47 C228 -70 253 -85 269 -104 C287 -104 287 -106 302 -107 C316 -101 324 -91 337 -84 C342 -72 348 -61 357 -52 C439 185 501 429 637 638 C654 637 670 656 669 686 L669 686 Z " />
<glyph glyph-name="O" unicode="O" horiz-adv-x="555" d="M318 625 L318 625 C306 626 304 638 291 637 C266 635 252 621 236 610 C193 552 136 488 101 410 C43 282 -40 72 86 -40 C107 -49 125 -62 153 -65 C171 -61 193 -57 203 -63 C367 18 508 292 533 475 C542 566 502 625 431 655 C391 663 344 646 318 625 L318 625 Z M451 602 C451 615 458 605 468 607 C505 549 482 467 458 397 C395 212 323 48 146 -28 C142 -18 135 -32 121 -28 C108 -25 100 -16 88 -13 C8 146 122 346 211 482 C220 481 228 488 238 492 C277 528 320 559 366 587 C385 586 410 598 423 605 C435 606 441 607 451 602 L451 602 Z " />
<glyph glyph-name="P" unicode="P" horiz-adv-x="555" d="M327 207 L327 207 C360 231 388 260 422 289 C503 362 607 480 607 579 C607 651 564 686 512 709 C397 735 266 658 182 579 C176 573 163 569 154 562 C134 544 106 512 79 484 C57 461 15 421 12 402 C8 375 31 359 47 357 C55 366 41 369 44 382 C124 463 201 560 302 612 C237 466 179 327 114 184 C107 186 105 181 99 182 C76 205 80 261 89 299 C41 263 57 165 104 139 C78 84 56 40 49 -33 C57 -50 58 -73 84 -71 C103 -62 105 -41 112 -26 C96 27 134 86 152 129 C221 147 284 168 327 207 L327 207 Z M309 247 L309 247 C266 231 229 207 177 194 C234 342 304 477 364 622 C364 635 368 638 364 649 C425 679 558 709 574 619 C572 482 485 404 409 322 C388 314 375 300 362 284 C344 280 325 261 309 247 L309 247 Z M89 299 L89 299 C93 301 89 302 89 299 L89 299 Z M327 207 C328 203 330 207 327 207 L327 207 Z " />
<glyph glyph-name="Q" unicode="Q" horiz-adv-x="570" d="M460 648 L460 648 C468 646 468 653 468 660 C465 678 447 681 435 690 C419 691 408 692 395 688 C346 670 301 617 268 583 C150 461 -54 134 88 -20 L-37 -72 C-48 -91 -52 -128 -35 -142 C-19 -146 -17 -135 -2 -137 C46 -103 106 -79 165 -55 C209 -55 242 -43 273 -20 C309 -12 352 2 383 10 C430 23 506 31 540 18 C510 72 422 64 353 55 C449 198 548 328 540 555 C526 567 524 589 513 605 C498 624 476 632 460 648 L460 648 Z M365 600 C398 605 434 616 473 613 C483 592 484 567 490 548 C495 372 419 239 298 88 C279 72 263 54 248 35 C208 16 167 13 125 -5 C74 20 72 85 78 153 C131 344 232 488 365 600 L365 600 Z " />
<glyph glyph-name="R" unicode="R" horiz-adv-x="578" d="M176 143 L176 143 C353 241 595 396 636 513 C659 627 569 679 466 675 C307 673 135 571 6 470 C-8 447 -29 431 -42 408 C-43 395 -45 390 -44 373 C-38 358 -27 349 -12 343 C-2 351 -1 369 3 383 C85 476 214 577 361 615 C436 635 550 652 606 598 C609 586 612 574 611 558 C548 403 339 286 171 195 C244 329 311 468 398 588 C389 601 372 607 351 608 C251 466 188 314 98 168 C64 153 13 162 -19 165 C-30 152 -31 128 -24 110 C3 119 32 101 63 93 C41 38 4 -25 -17 -100 C-10 -120 -6 -139 18 -135 C48 -53 79 29 121 100 C255 81 379 52 486 5 C492 -5 500 -14 508 -22 C527 -18 518 15 518 25 C429 99 294 110 176 143 L176 143 Z M416 75 C415 76 417 74 416 75 L416 75 Z " />
<glyph glyph-name="S" unicode="S" horiz-adv-x="523" d="M408 387 C454 451 500 516 540 587 C563 638 528 673 498 694 C483 693 478 702 460 699 C308 645 184 524 83 407 C76 384 54 355 63 317 C102 184 279 243 383 189 C415 173 419 142 390 122 C363 94 281 46 237 24 C153 -18 27 -59 -42 7 C-46 43 -32 78 -25 112 C-14 128 4 151 5 169 C-28 160 -38 127 -60 107 C-81 64 -74 26 -57 -16 C-41 -41 -16 -56 8 -73 C47 -79 85 -84 123 -76 C249 -50 365 11 433 99 C434 118 438 120 440 137 C433 181 406 208 368 229 C285 274 173 249 98 292 C94 298 93 307 90 314 C96 316 96 323 95 332 C175 455 287 531 408 612 C437 619 469 645 505 642 C478 556 407 513 383 424 C392 412 394 394 408 387 L408 387 Z " />
<glyph glyph-name="T" unicode="T" horiz-adv-x="297" d="M375 684 C302 715 293 636 267 591 C125 555 17 519 -130 496 C-132 467 -122 447 -98 444 C-97 449 -97 455 -90 454 C36 466 116 507 240 531 C161 339 81 160 25 -51 C26 -65 31 -86 30 -94 C48 -100 53 -121 80 -119 C85 -108 75 -103 75 -91 C77 -80 76 -76 75 -64 C140 155 218 352 310 549 C395 573 510 595 597 581 C587 562 565 554 555 534 C580 540 601 551 622 561 C624 583 618 588 617 604 C604 621 578 628 550 629 C481 631 386 610 342 614 C354 635 388 646 375 684 L375 684 Z " />
<glyph glyph-name="U" unicode="U" horiz-adv-x="586" d="M241 639 L221 639 C221 636 216 637 216 634 C157 516 103 391 61 259 C38 159 -7 38 38 -61 C65 -127 136 -119 183 -76 C301 78 377 272 478 442 C450 347 421 249 401 154 C393 91 409 31 466 9 C478 7 483 14 491 17 C491 40 507 49 513 67 C490 61 482 42 458 37 C430 141 486 266 513 364 C544 464 578 521 596 614 C586 627 568 633 546 634 C398 439 286 141 166 -13 C130 -59 139 -65 76 -71 C66 -46 62 -19 61 14 C83 203 171 368 228 544 C239 551 242 565 248 577 C246 600 253 623 241 639 L241 639 Z " />
<glyph glyph-name="V" unicode="V" horiz-adv-x="453" d="M625 678 C613 688 591 694 572 688 C466 583 397 445 312 316 C227 187 173 37 70 -74 C76 120 140 253 177 418 C187 475 216 524 212 586 C200 593 190 599 175 598 C158 582 157 555 152 531 C120 375 80 256 47 118 C37 75 6 -15 20 -64 C29 -96 73 -118 112 -102 C131 -84 144 -62 165 -47 C271 142 369 338 495 513 C513 548 529 570 552 601 C578 625 612 641 625 678 L625 678 Z " />
<glyph glyph-name="W" unicode="W" horiz-adv-x="604" d="M435 89 C476 187 568 507 710 724 C696 737 682 742 657 734 C539 550 465 299 382 84 C371 55 359 23 340 -1 C335 22 336 63 332 99 C351 232 383 335 405 461 C395 472 386 483 365 481 C314 458 297 402 265 361 C183 246 129 89 50 -21 C49 77 81 156 95 231 C141 363 181 504 247 629 C246 647 257 652 255 671 C248 673 250 683 245 686 C231 684 228 687 212 686 C158 593 130 484 87 376 C59 272 6 148 0 24 C-2 3 2 -13 7 -31 C25 -45 36 -67 72 -64 C87 -54 97 -40 110 -29 C181 116 255 271 340 394 C314 292 290 181 287 49 C291 18 304 -4 322 -21 C339 -25 349 -36 370 -36 C408 -13 425 45 435 89 L435 89 Z " />
<glyph glyph-name="X" unicode="X" horiz-adv-x="390" d="M617 723 C612 737 607 751 594 756 L589 756 C455 612 330 465 199 316 C204 428 219 519 217 626 C210 640 205 656 184 656 C173 652 162 648 149 646 C151 630 146 608 152 596 C151 599 159 605 159 598 C151 478 149 348 144 238 C71 132 -25 48 -71 -87 C-63 -96 -63 -114 -48 -117 C-45 -105 -39 -97 -31 -92 L-31 -79 C-22 -76 -17 -68 -16 -57 C40 6 83 94 142 146 C152 77 167 -6 239 -22 C243 -17 249 -14 249 -7 C238 5 246 25 244 36 C234 45 233 14 224 21 C196 93 190 142 197 228 C334 397 484 551 617 723 L617 723 Z " />
<glyph glyph-name="Y" unicode="Y" horiz-adv-x="461" d="M211 40 C443 470 467 521 499 570 C512 596 608 699 502 677 C410 544 312 413 212 285 C179 243 145 197 92 177 C77 182 80 207 72 225 C98 362 154 494 209 615 C205 622 208 637 202 642 C190 650 173 647 162 640 C118 503 35 384 29 225 C36 196 55 179 72 160 C89 156 101 147 124 150 C237 203 280 332 359 412 C306 328 260 241 212 147 C179 62 107 -26 119 -125 C130 -133 142 -139 157 -143 C148 -76 187 -7 211 40 L211 40 Z M382 502 L382 502 C381 504 384 501 382 502 L382 502 Z M212 147 C210 151 209 147 212 147 L212 147 Z " />
<glyph glyph-name="Z" unicode="Z" horiz-adv-x="457" d="M-45 -31 C-40 -20 -27 -16 -23 -4 C158 166 351 323 512 514 C534 534 561 572 575 604 C576 693 503 680 445 664 C346 635 250 593 145 569 C124 562 99 566 90 546 C96 531 105 519 112 504 C243 542 333 576 457 619 C485 618 512 641 535 629 C379 400 152 240 -43 49 C-69 32 -105 4 -105 -31 C-98 -52 -91 -73 -73 -84 C-19 -90 14 -72 55 -59 C147 -25 279 22 380 -9 C386 -14 385 -26 397 -26 C415 -8 387 20 377 34 C234 86 83 -11 -45 -31 L-45 -31 Z " />
<glyph glyph-name="bracketleft" unicode="&#x5b;" horiz-adv-x="288" d="M403 611 C416 637 389 652 368 663 C304 671 243 648 188 643 C193 620 206 604 221 591 C214 539 195 498 183 446 C138 334 90 238 48 121 C26 69 2 18 -4 -49 C4 -67 17 -79 31 -92 C39 -91 45 -93 51 -94 C69 -94 73 -90 93 -89 C121 -63 179 -67 203 -44 C195 -36 191 -23 178 -19 C132 -39 84 -61 38 -62 C69 51 117 159 163 266 C184 314 204 355 221 401 C242 460 263 533 276 583 C277 594 260 600 266 606 C311 615 360 633 403 611 L403 611 Z " />
<glyph glyph-name="backslash" unicode="&#x5c;" horiz-adv-x="336" d="M29 532 C25 530 29 529 29 532 C75 402 128 240 169 117 C190 74 208 -6 246 -61 C265 -56 276 -70 286 -66 C286 -62 286 -59 289 -58 C253 16 227 90 196 174 C139 330 92 494 36 652 C26 667 15 683 16 697 C2 703 -7 715 -26 717 C-31 714 -31 708 -36 707 L29 532 L29 532 Z " />
<glyph glyph-name="bracketright" unicode="&#x5d;" horiz-adv-x="306" d="M107 -55 C112 -44 89 -41 90 -25 C161 221 240 397 320 632 C317 635 317 641 317 647 C309 652 307 662 302 670 C231 691 167 636 90 647 C115 579 211 617 260 625 C248 570 225 530 215 477 C141 298 86 134 40 -28 C12 -28 -2 -41 -28 -43 C-39 -59 -80 -46 -88 -65 C-80 -76 -58 -73 -58 -93 C-9 -102 37 -62 75 -75 C75 -58 103 -68 107 -55 L107 -55 Z " />
<glyph glyph-name="asciicircum" unicode="&#x5e;" horiz-adv-x="420" d="M332 462 C324 534 338 614 347 694 C345 709 339 720 334 732 C319 737 309 747 292 752 C279 748 271 739 259 734 C181 639 98 549 32 442 C38 419 51 402 82 404 C141 495 206 591 284 669 C289 677 294 694 304 687 C290 608 277 524 307 457 C324 447 331 427 359 429 C361 448 352 456 364 472 C351 472 348 459 332 462 L332 462 Z " />
<glyph glyph-name="underscore" unicode="&#x5f;" horiz-adv-x="516" d="M393 190 C276 186 154 197 40 172 C32 161 32 149 38 135 C49 135 59 134 65 129 C179 144 264 133 373 142 C387 151 401 172 393 190 L393 190 Z M165 180 C200 180 238 190 268 177 C194 176 126 177 53 167 C85 182 127 179 165 180 L165 180 Z M130 170 L130 170 C129 171 132 168 130 170 L130 170 Z M153 157 L153 157 C156 167 156 147 153 157 L153 157 Z M163 155 C163 157 165 157 165 159 C167 159 168 159 170 159 C171 154 167 155 163 155 L163 155 Z M190 157 L190 157 C193 167 193 147 190 157 L190 157 Z M125 157 C125 150 105 146 108 157 C115 154 115 158 125 157 L125 157 Z M145 152 C140 151 138 154 135 155 C134 159 149 159 145 152 L145 152 Z M103 155 C102 149 96 149 93 152 C93 155 99 154 103 155 L103 155 Z M75 149 C76 145 64 146 68 152 C72 153 72 150 75 149 L75 149 Z M78 149 L78 149 C85 159 86 142 78 149 L78 149 Z " />
<glyph glyph-name="grave" unicode="&#x60;" horiz-adv-x="320" d="M104 608 C88 589 80 586 77 561 C124 531 172 500 227 491 C231 491 239 497 242 506 C204 548 155 579 104 608 L104 608 Z " />
<glyph glyph-name="a" unicode="a" horiz-adv-x="265" d="M159 394 L159 394 C150 415 131 425 107 431 L87 431 C60 405 44 377 24 346 C-16 282 -61 209 -73 126 C-64 105 -54 84 -33 74 C54 101 71 198 132 251 C125 217 118 199 109 166 C109 142 112 113 122 91 C133 80 158 51 172 79 C166 87 151 86 149 99 C150 227 213 271 229 389 C224 392 222 400 219 406 C205 407 197 414 184 416 C173 413 170 399 159 394 L159 394 Z M-18 151 C15 226 63 298 114 361 C125 363 115 344 122 341 C77 277 35 208 -18 151 L-18 151 Z " />
<glyph glyph-name="b" unicode="b" horiz-adv-x="250" d="M181 700 L181 700 C168 712 154 713 139 715 C137 709 133 704 126 702 C66 472 -30 301 -64 82 C-60 82 -61 76 -61 72 C-49 60 -45 35 -19 45 C-10 53 -11 70 -4 80 C3 66 16 60 39 62 C129 140 202 254 219 387 C213 405 203 418 189 427 C170 433 154 427 136 425 C92 386 88 369 74 362 C112 467 143 565 184 667 C177 678 182 686 181 700 L181 700 Z M9 125 C29 218 81 325 154 387 C158 388 159 385 159 382 C132 282 83 186 9 125 L9 125 Z " />
<glyph glyph-name="c" unicode="c" horiz-adv-x="226" d="M174 415 C167 423 157 429 149 438 C123 439 104 441 84 433 C59 401 19 356 -8 305 C-48 228 -90 129 -23 70 C-11 70 -5 65 2 60 C15 63 30 64 44 65 C55 74 68 80 82 85 C139 141 206 210 217 295 C141 230 98 133 -1 90 C-1 94 -7 92 -11 93 C-34 160 11 205 27 268 C60 302 73 357 117 380 C114 370 107 355 112 345 C126 341 147 345 164 350 C170 371 178 393 174 415 L174 415 Z " />
<glyph glyph-name="d" unicode="d" horiz-adv-x="266" d="M318 672 L318 672 C302 680 275 692 258 677 C201 584 178 470 138 364 C134 403 102 406 73 414 C2 365 -50 235 -60 134 C-62 116 -56 99 -52 84 C-41 76 -32 65 -20 57 C58 55 77 132 110 182 C109 114 112 50 165 37 C172 52 158 63 155 77 C151 125 155 160 160 212 C177 379 305 501 318 672 L318 672 Z M-12 87 C-10 192 43 288 90 369 C99 360 106 337 100 322 C108 318 118 317 130 317 C94 229 50 149 -12 87 L-12 87 Z " />
<glyph glyph-name="e" unicode="e" horiz-adv-x="223" d="M229 289 L229 289 C232 293 232 299 226 294 C208 274 190 253 179 227 C124 181 85 108 11 89 C-3 125 10 168 21 199 C98 223 145 277 171 352 C170 366 171 377 169 394 C150 411 128 424 96 417 C44 369 2 312 -19 234 C-25 232 -30 228 -39 229 C-40 219 -28 221 -29 212 C-43 158 -42 92 4 69 C63 40 120 97 154 134 C184 168 210 213 221 244 C227 260 230 281 229 289 C229 286 225 288 229 289 L229 289 Z M46 259 C65 303 90 341 121 372 C125 372 126 370 126 367 C107 325 79 278 46 259 L46 259 Z " />
<glyph glyph-name="f" unicode="f" horiz-adv-x="251" d="M10 215 L10 215 C80 291 143 375 202 463 C225 508 264 567 267 633 C251 655 221 675 192 670 C72 559 10 368 -33 245 C-46 237 -62 232 -73 235 C-76 217 -60 203 -43 193 C-64 137 -71 80 -68 0 C-57 -12 -51 -30 -33 -35 C-17 -18 -29 12 -28 40 C-26 84 -19 134 -3 170 C92 173 142 222 210 253 C227 285 267 306 270 345 C190 299 109 226 10 215 L10 215 Z M220 630 L227 630 C219 569 184 519 152 473 C120 425 85 380 52 335 C88 443 138 559 220 630 L220 630 Z " />
<glyph glyph-name="g" unicode="g" horiz-adv-x="265" d="M183 360 L183 360 C188 365 181 375 183 387 C167 421 127 422 88 412 C19 330 -40 228 -64 122 C-55 93 -40 70 -7 65 C63 125 97 220 158 290 C122 146 59 -19 -14 -133 C-37 -147 -45 -176 -77 -180 C-97 -170 -89 -131 -107 -118 C-116 -130 -115 -152 -117 -170 C-102 -205 -68 -226 -24 -218 C0 -198 20 -179 38 -155 C119 -14 209 161 208 337 C202 347 191 351 183 360 L183 360 Z M133 340 C87 286 52 220 8 165 C32 247 79 305 128 362 C132 363 132 360 136 360 C134 354 132 348 133 340 L133 340 Z " />
<glyph glyph-name="h" unicode="h" horiz-adv-x="281" d="M188 668 C174 685 149 695 131 678 C68 489 -31 322 -69 128 C-63 115 -59 100 -52 88 C-40 91 -42 80 -29 83 C-17 85 -17 100 -7 103 C22 170 64 223 93 288 C116 307 130 347 151 358 C136 305 108 139 176 111 C215 94 232 139 238 168 C220 169 210 140 181 143 C168 198 181 254 191 306 C195 336 223 369 208 403 C196 416 185 430 166 436 C110 409 83 349 46 308 C85 426 132 535 186 638 C185 650 187 659 188 668 L188 668 Z " />
<glyph glyph-name="i" unicode="i" horiz-adv-x="132" d="M104 473 L104 473 C113 486 126 491 127 508 C130 555 65 548 72 493 C82 485 89 475 104 473 L104 473 Z M-23 73 C-14 135 7 174 29 225 C46 264 79 304 79 353 C70 371 42 382 24 365 C-4 274 -72 191 -48 78 C-37 76 -35 76 -23 73 L-23 73 Z " />
<glyph glyph-name="j" unicode="j" horiz-adv-x="115" d="M77 506 L77 506 C73 536 4 559 15 501 C25 489 34 475 55 473 C67 480 74 491 77 506 L77 506 Z M-145 -132 C-43 -51 39 210 50 346 L32 361 C-3 363 -15 350 -30 323 C-25 322 -17 331 -15 326 C-50 179 -95 29 -170 -69 C-184 -50 -166 -26 -173 -2 C-168 12 -160 36 -170 43 C-194 31 -184 -14 -200 -34 C-219 -85 -192 -125 -145 -132 L-145 -132 Z " />
<glyph glyph-name="k" unicode="k" horiz-adv-x="251" d="M127 632 L109 632 C37 436 -42 237 -86 5 C-65 -7 -63 -44 -33 -33 C-33 8 -25 64 -13 102 C5 85 39 94 57 92 C59 100 66 104 77 102 C84 114 166 176 177 180 C204 216 244 240 254 292 C190 245 122 191 64 145 C47 139 25 125 7 127 C75 226 160 348 237 442 C237 452 232 457 232 467 C221 471 213 478 199 480 C192 481 194 472 184 475 C146 414 100 359 57 302 C60 350 79 385 92 420 C110 468 122 519 142 570 C146 580 152 582 152 592 C151 611 134 618 127 632 L127 632 Z " />
<glyph glyph-name="l" unicode="l" horiz-adv-x="178" d="M1 90 C0 114 7 131 4 152 C52 307 120 428 179 570 C174 590 164 604 139 605 C129 599 121 591 114 582 C113 574 110 566 111 555 C53 446 1 311 -41 177 C-46 152 -43 123 -41 97 C-34 87 -25 78 -21 65 C-4 63 1 51 16 52 C38 54 52 81 69 90 C113 153 153 211 181 292 C149 272 121 226 94 192 C65 156 35 121 1 90 L1 90 Z " />
<glyph glyph-name="m" unicode="m" horiz-adv-x="407" d="M217 428 C165 487 119 404 89 368 C86 391 66 396 42 398 C46 390 43 387 42 378 C21 342 6 308 -18 261 C-34 229 -53 196 -63 171 C-81 126 -96 81 -51 63 C23 155 76 280 152 361 C122 281 84 208 72 111 C83 96 89 76 112 73 C179 136 220 238 277 303 C272 272 253 227 254 181 C255 136 280 86 307 81 C331 76 352 110 354 141 C337 132 325 118 307 111 C270 189 342 279 337 366 C323 374 311 382 299 386 C231 332 190 237 134 178 C158 265 213 321 217 428 L217 428 Z " />
<glyph glyph-name="n" unicode="n" horiz-adv-x="257" d="M152 132 C154 231 211 301 202 397 C185 408 175 426 147 427 C121 408 100 384 80 359 C70 370 57 377 35 374 C-4 299 -40 220 -73 139 C-69 114 -64 86 -30 84 C20 183 70 283 147 354 C128 266 87 185 130 114 C139 108 150 103 165 102 C178 110 183 126 185 144 C172 142 166 133 152 132 L152 132 Z " />
<glyph glyph-name="o" unicode="o" horiz-adv-x="211" d="M142 398 L142 398 C128 411 112 421 92 421 C80 414 64 410 52 403 C32 379 21 359 2 323 C-19 285 -54 228 -51 173 C-49 141 -14 89 12 86 C34 83 39 95 59 98 C89 135 138 194 157 251 C171 294 161 353 127 373 C133 381 139 388 142 398 L142 398 Z M79 321 C90 326 99 318 104 326 C112 322 108 307 109 296 C83 230 59 161 -1 128 C-2 207 43 261 79 321 L79 321 Z " />
<glyph glyph-name="p" unicode="p" horiz-adv-x="281" d="M-10 92 L-10 92 C107 138 183 238 240 337 C248 370 268 407 253 442 C233 450 226 470 200 472 C132 447 101 386 55 339 C64 372 93 390 85 432 C74 445 56 449 38 449 C-28 255 -101 103 -132 -106 C-140 -122 -149 -151 -142 -173 C-135 -175 -133 -182 -125 -183 C-118 -183 -115 -179 -107 -178 C-99 -169 -95 -156 -95 -138 C-62 -58 -37 14 -10 92 L-10 92 Z M213 434 C217 435 217 432 220 432 C189 319 118 245 45 174 C31 175 29 163 18 162 C64 271 120 371 213 434 L213 434 Z " />
<glyph glyph-name="q" unicode="q" horiz-adv-x="275" d="M268 448 L268 448 C236 481 217 422 175 391 L175 408 C158 429 127 433 100 433 C16 373 -30 276 -70 171 C-66 138 -46 125 -35 106 C47 126 73 202 125 251 C105 194 74 126 50 63 C27 -20 8 -80 0 -169 C5 -181 16 -205 25 -219 C64 -238 43 -172 48 -142 C84 56 188 266 278 423 C279 436 270 439 268 448 L268 448 Z M143 348 L143 348 C89 288 37 213 -22 166 C9 245 55 332 125 386 C131 375 117 363 120 346 C123 342 132 352 143 348 C143 351 147 350 143 348 L143 348 Z M125 253 L125 253 C124 254 127 252 125 253 L125 253 Z " />
<glyph glyph-name="r" unicode="r" horiz-adv-x="234" d="M47 309 C53 335 65 353 72 377 C64 393 42 395 17 394 C-8 338 -32 260 -53 189 C-60 164 -66 128 -60 104 C-49 98 -42 87 -25 87 C-13 90 -9 103 2 107 C61 221 116 338 207 419 C218 403 207 382 215 364 C221 364 224 360 232 362 C273 395 242 465 190 454 C116 433 94 359 47 309 C48 307 46 303 45 307 C45 308 45 310 47 309 L47 309 Z " />
<glyph glyph-name="s" unicode="s" horiz-adv-x="226" d="M213 418 L213 418 C211 431 200 434 198 446 C185 448 179 457 163 456 C90 436 36 390 -5 331 C-10 307 2 294 -2 273 C1 263 12 259 13 246 C-30 225 -62 194 -95 163 C-102 131 -86 94 -72 68 C-54 55 -21 59 5 54 C56 62 151 91 140 181 C114 228 51 239 25 286 C45 317 73 339 105 358 C116 353 125 337 138 341 C160 369 195 385 213 418 L213 418 Z M-60 113 C-46 167 -2 191 20 236 C46 218 77 204 100 183 C78 130 12 107 -60 113 L-60 113 Z " />
<glyph glyph-name="t" unicode="t" horiz-adv-x="188" d="M186 655 C170 658 153 680 133 672 C120 638 108 603 91 572 C6 559 -68 524 -157 527 C-157 507 -128 490 -127 470 C-48 471 0 506 68 512 C28 383 -58 240 -54 87 C-40 70 -29 49 1 47 C20 57 37 69 56 80 C113 155 195 220 206 335 C187 326 168 297 156 275 C143 263 128 254 123 235 C76 191 45 131 -14 100 C13 246 83 408 143 532 C254 558 379 572 493 542 C501 541 496 527 508 530 C515 532 518 540 521 547 C515 558 507 565 501 575 C410 615 271 604 168 587 C176 607 181 631 186 655 L186 655 Z " />
<glyph glyph-name="u" unicode="u" horiz-adv-x="258" d="M-19 104 L-19 104 C0 190 36 262 71 336 C85 367 111 391 96 416 C88 420 81 423 76 429 C63 428 54 426 43 419 C0 333 -41 245 -67 141 C-72 106 -55 68 -19 54 C-19 60 -13 51 -9 51 C2 66 20 75 33 89 C61 123 89 170 116 196 C107 149 140 124 176 114 C196 131 214 152 221 184 C200 174 187 144 166 144 C158 230 206 281 211 364 C201 374 187 380 166 379 C109 283 54 175 -19 104 L-19 104 Z M116 201 C115 202 117 200 116 201 L116 201 Z " />
<glyph glyph-name="v" unicode="v" horiz-adv-x="241" d="M16 162 C30 229 47 294 71 352 C65 355 70 369 68 377 C58 389 38 400 18 389 C-1 295 -34 213 -42 102 C-30 85 -16 71 6 64 C86 179 155 303 243 409 C249 404 257 408 261 412 C269 431 291 445 288 467 C285 474 272 472 266 477 C223 462 207 421 173 397 C118 321 63 246 16 162 C16 158 13 156 13 162 L16 162 L16 162 Z " />
<glyph glyph-name="w" unicode="w" horiz-adv-x="344" d="M348 437 C317 454 328 453 298 435 C268 386 240 335 211 285 C191 232 167 169 138 132 C142 214 174 289 173 380 C161 390 146 403 123 395 C80 360 56 306 23 260 C43 301 53 351 66 392 C59 407 51 420 31 420 C24 417 22 410 16 407 C-4 331 -23 253 -52 172 C-67 127 -75 88 -32 65 C-5 69 -3 96 13 110 C34 173 85 284 126 335 C116 250 72 154 113 82 C135 67 152 66 173 82 C236 197 271 329 348 437 L348 437 Z " />
<glyph glyph-name="x" unicode="x" horiz-adv-x="216" d="M210 420 C201 434 191 448 173 453 C130 389 80 332 35 270 C38 301 47 325 50 355 C43 376 18 391 0 393 C12 330 -18 264 -10 208 C-43 142 -120 96 -112 5 C-102 5 -92 -3 -87 0 C-66 56 -28 95 5 138 C11 130 14 120 18 110 C50 79 93 81 125 103 C172 134 208 215 230 263 C179 229 139 163 80 128 C69 125 53 125 38 125 C31 136 31 154 25 165 C40 171 36 180 40 193 C92 249 130 320 185 373 C190 392 213 394 210 420 L210 420 Z " />
<glyph glyph-name="y" unicode="y" horiz-adv-x="314" d="M253 430 C238 435 223 449 206 447 C188 445 152 396 141 380 C118 347 99 308 73 275 C44 236 23 194 -2 170 C5 248 56 295 61 367 C44 371 32 380 11 380 C-4 309 -51 240 -47 150 C-36 132 -24 115 -4 107 C48 110 104 229 128 265 C151 302 175 351 206 372 C158 194 78 20 -19 -133 C-42 -157 -68 -211 -119 -223 C-138 -202 -141 -165 -147 -135 C-180 -192 -141 -273 -82 -268 C0 -237 170 79 241 310 C252 348 268 391 253 430 L253 430 Z " />
<glyph glyph-name="z" unicode="z" horiz-adv-x="274" d="M171 359 C126 308 59 280 18 226 C22 203 20 190 28 174 C54 151 107 179 138 161 C89 87 7 39 -87 19 C-99 37 -82 50 -82 71 C-125 61 -105 0 -94 -31 C-66 -47 -32 -23 -12 -21 C39 0 103 46 146 91 C163 109 186 144 171 179 C152 200 115 214 81 211 C145 278 250 318 278 414 C268 425 257 435 238 439 C136 411 62 355 -19 306 C-20 295 -13 270 1 266 C62 292 107 334 171 359 C170 362 174 360 171 359 L171 359 Z " />
<glyph glyph-name="braceleft" unicode="&#x7b;" horiz-adv-x="305" d="M372 665 C373 680 360 682 355 692 C344 692 337 695 330 697 C181 638 202 422 112 302 C81 290 80 267 27 272 C31 251 47 240 57 225 C83 221 96 228 112 227 C108 108 -9 -108 170 -120 C183 -109 201 -103 210 -88 C207 -82 212 -63 210 -50 C183 -62 165 -95 127 -88 C120 -82 113 -76 110 -68 C108 -35 113 -3 122 25 C134 79 173 177 147 232 C145 238 134 247 135 250 C135 251 151 267 155 272 C169 292 176 313 187 330 C211 434 240 546 305 625 C325 640 345 656 372 665 L372 665 Z " />
<glyph glyph-name="bar" unicode="&#x7c;" horiz-adv-x="211" d="M87 -119 L87 -119 C101 -113 90 -89 89 -77 C87 17 101 104 107 191 C111 252 118 326 122 391 C129 496 140 580 142 683 C132 695 123 726 102 711 C93 437 54 196 49 -74 C53 -81 55 -90 54 -102 C68 -102 79 -130 87 -119 L87 -119 Z M174 548 C173 549 176 547 174 548 L174 548 Z " />
<glyph glyph-name="braceright" unicode="&#x7d;" horiz-adv-x="240" d="M168 207 C164 224 151 231 145 247 C132 340 187 415 223 485 C242 520 265 554 275 590 C287 622 270 652 258 675 C222 691 162 686 140 660 C170 637 200 660 238 652 C218 508 45 387 128 225 C115 226 111 219 103 215 C60 153 100 21 43 -28 C14 -42 -1 -70 -45 -70 C-57 -72 -53 -55 -62 -53 C-62 -83 -31 -115 0 -113 C91 -105 125 5 113 90 C115 117 120 149 135 170 C150 178 164 187 168 207 L168 207 Z " />
<glyph glyph-name="asciitilde" unicode="&#x7e;" horiz-adv-x="515" d="M273 350 C255 362 237 374 216 382 C161 365 135 316 101 277 C89 264 69 250 66 240 C58 216 78 197 103 192 C154 235 180 302 241 335 C232 265 249 213 296 195 C358 180 396 224 418 252 C441 282 466 317 463 355 C407 312 371 240 286 235 C276 280 280 316 273 350 L273 350 Z " />
<glyph glyph-name="exclamdown" unicode="&#xa1;" horiz-adv-x="233" d="M153 488 L153 488 C129 474 135 431 116 413 C112 391 110 381 101 368 C83 302 53 216 26 148 C16 124 -5 93 -2 75 C1 56 30 43 51 58 C83 150 122 256 148 353 C159 393 184 465 153 488 L153 488 Z M188 660 C222 600 272 688 228 710 C226 712 214 710 206 713 C197 698 192 680 188 660 L188 660 Z " />
<glyph glyph-name="cent" unicode="&#xa2;" horiz-adv-x="360" d="M269 549 L269 549 C254 504 250 475 227 437 C202 423 175 409 154 389 C95 332 40 255 24 164 C34 117 55 80 97 64 C93 26 63 -58 122 -66 C123 -13 129 35 142 64 C226 90 261 131 319 192 C326 209 349 223 347 242 C286 202 230 143 159 122 C185 221 227 305 262 394 C270 394 274 398 284 397 C277 377 266 368 262 342 C281 338 291 328 312 332 C350 363 342 437 282 439 C292 475 326 538 269 549 L269 549 Z M67 157 C91 232 138 286 184 339 C158 257 127 186 104 102 C85 101 83 104 69 109 C63 125 65 144 67 157 L67 157 Z " />
<glyph glyph-name="sterling" unicode="&#xa3;" horiz-adv-x="453" d="M298 375 C320 362 338 382 353 390 C397 448 436 512 455 595 C445 633 385 618 355 607 C265 483 176 357 95 222 C73 210 41 221 20 207 L75 180 C27 117 -7 -31 103 -48 C210 -19 287 41 388 77 C405 80 420 84 420 102 C273 117 210 5 78 -13 C63 73 115 133 143 192 C217 219 287 250 358 280 C356 292 347 298 338 302 C276 293 227 270 175 250 C239 357 303 464 388 550 C363 487 327 435 298 375 L298 375 Z " />
<glyph glyph-name="yen" unicode="&#xa5;" horiz-adv-x="393" d="M426 602 C411 616 386 611 366 604 C288 522 229 422 166 324 C168 396 181 499 166 569 C157 575 153 585 141 587 C129 584 115 583 109 574 C118 551 97 525 104 504 C112 509 110 524 121 524 C124 456 118 364 121 297 C83 288 27 271 -9 272 C-5 216 78 243 114 249 C115 238 109 234 111 222 C80 207 38 201 -4 197 C-7 207 -18 203 -26 199 C-23 181 -12 170 -6 154 C34 149 61 158 94 164 C89 113 74 87 79 37 C92 31 99 19 114 14 C124 62 138 114 151 177 C200 198 241 196 289 214 C289 228 273 245 259 252 C227 249 203 240 176 239 C181 247 183 257 189 264 C233 280 291 279 334 289 C330 344 255 309 216 317 C274 412 335 504 419 572 C419 582 427 585 429 594 C426 595 426 598 426 602 L426 602 Z " />
<glyph glyph-name="dieresis" unicode="&#xa8;" horiz-adv-x="314" d="M135 525 L135 525 C130 543 120 557 105 565 C91 556 76 545 75 530 C71 489 126 484 135 525 L135 525 Z M237 537 C225 563 190 569 177 540 C176 516 181 504 200 495 C222 499 237 511 237 537 L237 537 Z " />
<glyph glyph-name="copyright" unicode="&#xa9;" horiz-adv-x="476" d="M255 761 L250 761 C246 758 244 754 235 756 C124 679 32 546 33 388 C40 370 45 349 53 331 C237 69 593 543 405 726 C372 758 318 763 258 763 C256 763 255 763 255 761 L255 761 Z M268 718 L268 718 C286 720 294 732 310 736 C329 720 343 699 343 663 C357 669 359 695 378 688 C379 696 373 696 378 701 C400 669 408 625 405 583 C399 483 351 412 300 353 C254 309 218 279 138 278 C123 286 110 295 98 306 C19 444 144 613 233 693 C243 690 242 698 250 698 C258 703 262 712 268 718 L268 718 Z M328 618 C303 651 264 636 233 621 C216 609 123 468 138 396 C140 383 173 355 188 353 C250 344 285 439 315 476 C314 487 316 494 318 503 C269 465 235 412 178 383 C168 419 199 468 215 496 C222 507 227 520 233 528 C242 541 259 556 270 563 C279 561 289 563 298 556 C311 573 320 595 328 618 L328 618 Z " />
<glyph glyph-name="guillemotleft" unicode="&#xab;" horiz-adv-x="729" d="M449 496 C448 498 447 499 444 499 C307 430 171 362 51 276 C52 267 46 265 41 261 C42 240 35 229 41 204 C81 178 130 162 186 154 C196 146 214 146 224 139 C261 135 285 118 314 106 C326 96 342 79 356 79 C360 94 348 104 349 121 C282 180 183 207 86 236 C121 270 161 299 211 316 C284 365 367 403 454 439 C462 451 468 491 449 496 L449 496 Z M677 496 C676 498 675 499 672 499 C535 430 399 362 279 276 C280 267 274 265 269 261 C270 240 263 229 269 204 C309 178 358 162 414 154 C424 146 442 146 452 139 C489 135 513 118 542 106 C554 96 570 79 584 79 C588 94 576 104 577 121 C510 180 411 207 314 236 C349 270 389 299 439 316 C512 365 595 403 682 439 C690 451 696 491 677 496 L677 496 Z " />
<glyph glyph-name="registered" unicode="&#xae;" horiz-adv-x="500" d="M242 751 L242 751 C129 691 58 589 27 446 C25 356 70 290 147 264 C206 256 256 270 304 296 C348 320 385 360 412 396 C472 477 517 623 432 694 C406 703 386 717 352 716 C342 759 279 756 242 751 L242 751 Z M274 711 L274 711 C284 718 300 733 314 721 C298 716 291 717 274 711 L274 711 Z M252 694 L252 694 C253 703 261 706 269 709 C264 703 261 696 252 694 C244 671 293 690 304 684 C327 697 342 695 367 696 C408 680 414 680 429 629 C430 592 428 569 424 541 C404 468 375 420 332 369 C283 333 205 271 134 294 C98 306 72 347 64 381 C70 526 150 636 252 694 L252 694 Z M217 444 L217 444 C282 471 346 498 372 564 C372 581 364 591 354 604 C336 609 325 622 299 619 C286 650 240 648 237 611 C204 599 164 594 152 561 C164 565 177 560 187 554 C200 554 201 566 214 566 C183 507 142 472 137 389 C149 379 154 363 174 361 C175 377 180 391 172 394 C174 405 179 413 182 424 C210 402 251 393 294 386 C307 391 313 403 334 399 C304 422 251 424 217 444 L217 444 Z M287 594 C306 594 317 598 332 594 C317 549 272 514 222 496 C244 528 265 562 287 594 L287 594 Z " />
<glyph glyph-name="macron" unicode="&#xaf;" horiz-adv-x="304" d="M236 550 C184 564 126 556 69 550 C61 535 68 518 74 505 C128 503 183 509 234 530 C234 541 240 538 236 550 L236 550 Z " />
<glyph glyph-name="degree" unicode="&#xb0;" horiz-adv-x="282" d="M190 507 C190 507 191 507 192 507 C228 545 190 597 150 604 C95 594 51 498 105 462 C116 464 117 457 125 457 C140 468 171 471 170 492 C178 487 176 490 175 499 C183 498 188 501 190 507 C188 507 185 507 185 509 C180 510 177 497 175 504 C177 509 180 512 185 514 C185 513 185 511 185 509 C187 509 190 509 190 507 L190 507 Z M115 497 C129 520 143 544 162 562 C166 530 138 509 115 497 L115 497 Z M195 527 C195 524 192 525 190 524 C190 527 193 526 195 527 L195 527 Z " />
<glyph glyph-name="plusminus" unicode="&#xb1;" horiz-adv-x="422" d="M249 409 C261 421 257 438 264 456 C273 478 300 490 282 519 C270 520 266 530 252 529 C246 528 242 525 234 526 C209 485 196 431 174 386 C135 377 90 370 47 376 C41 357 54 338 64 321 C89 316 121 309 147 319 C131 285 109 202 162 194 C172 242 195 286 212 334 C268 361 332 371 397 384 C389 446 290 406 249 409 L249 409 Z M307 150 C209 165 127 128 42 147 C35 133 27 124 32 102 C62 74 148 96 197 95 C235 113 281 108 312 122 C315 137 311 138 307 150 L307 150 Z " />
<glyph glyph-name="acute" unicode="&#xb4;" horiz-adv-x="309" d="M225 602 L205 602 C166 574 122 551 83 524 C83 519 82 515 78 514 C86 502 77 499 83 482 C100 473 109 489 120 494 C124 494 126 493 128 492 C161 524 252 542 225 602 L225 602 Z " />
<glyph glyph-name="periodcentered" unicode="&#xb7;" horiz-adv-x="187" d="M106 326 C66 363 32 274 83 269 C105 274 117 302 106 326 L106 326 Z " />
<glyph glyph-name="cedilla" unicode="&#xb8;" horiz-adv-x="319" d="M178 27 C191 46 221 55 211 89 C199 95 188 118 176 112 C142 96 119 32 158 -1 C171 -6 185 -9 196 -16 C167 -39 136 -61 93 -71 C94 -64 103 -60 96 -53 C61 -62 76 -115 101 -123 C161 -110 221 -94 241 -41 C237 -1 200 5 178 27 L178 27 Z " />
<glyph glyph-name="guillemotright" unicode="&#xbb;" horiz-adv-x="698" d="M12 50 C96 168 262 204 387 283 C387 287 388 291 392 293 C394 313 390 327 384 340 C302 395 186 415 97 463 C96 467 93 462 89 463 L84 463 C80 445 85 432 89 413 C160 365 258 351 344 318 C233 253 42 207 2 83 C8 70 2 60 12 50 L12 50 Z M260 50 C344 168 510 204 635 283 C635 287 636 291 640 293 C642 313 638 327 632 340 C550 395 434 415 345 463 C344 467 341 462 337 463 L332 463 C328 445 333 432 337 413 C408 365 506 351 592 318 C481 253 290 207 250 83 C256 70 250 60 260 50 L260 50 Z " />
<glyph glyph-name="questiondown" unicode="&#xbf;" horiz-adv-x="416" d="M280 507 L280 507 C278 493 275 480 272 467 C248 430 220 400 190 364 C131 292 42 223 50 117 C61 101 79 93 95 82 C177 72 242 110 305 167 C316 186 343 202 337 230 C320 230 303 241 287 235 C250 167 182 116 90 112 C89 161 126 198 147 227 C207 307 274 368 320 460 C332 488 298 509 295 532 C284 532 282 540 272 540 C260 528 253 512 245 497 C257 498 270 511 280 507 L280 507 Z M342 687 C369 702 356 750 327 752 C294 740 297 684 342 687 L342 687 Z " />
<glyph glyph-name="Agrave" unicode="&#xc0;" horiz-adv-x="508" d="M477 728 C327 536 189 334 55 130 C5 110 -44 87 -98 78 C-107 86 -118 86 -125 85 C-116 66 -96 58 -80 45 C-41 43 -9 61 15 65 C-6 25 -30 -11 -58 -45 C-63 -43 -66 -33 -73 -40 C-74 -43 -75 -45 -78 -47 C-68 -69 -49 -82 -23 -87 C27 -33 60 39 100 103 C174 139 250 164 325 198 C312 130 320 56 325 -10 C331 -28 351 -32 357 -50 C368 -48 369 -53 380 -45 C358 40 360 122 375 215 C410 226 437 230 470 243 C482 233 507 241 522 245 C521 257 508 256 507 268 C479 272 446 276 422 270 C409 267 393 250 382 265 C420 422 461 556 527 703 C519 724 497 723 477 728 L477 728 Z M147 173 C229 308 323 430 412 558 C415 558 417 557 417 555 C375 458 346 347 330 243 C266 222 209 195 147 173 L147 173 Z M487 909 C471 890 463 887 460 862 C507 832 555 801 610 792 C614 792 622 798 625 807 C587 849 538 880 487 909 L487 909 Z " />
<glyph glyph-name="Aacute" unicode="&#xc1;" horiz-adv-x="508" d="M477 728 C327 536 189 334 55 130 C5 110 -44 87 -98 78 C-107 86 -118 86 -125 85 C-116 66 -96 58 -80 45 C-41 43 -9 61 15 65 C-6 25 -30 -11 -58 -45 C-63 -43 -66 -33 -73 -40 C-74 -43 -75 -45 -78 -47 C-68 -69 -49 -82 -23 -87 C27 -33 60 39 100 103 C174 139 250 164 325 198 C312 130 320 56 325 -10 C331 -28 351 -32 357 -50 C368 -48 369 -53 380 -45 C358 40 360 122 375 215 C410 226 437 230 470 243 C482 233 507 241 522 245 C521 257 508 256 507 268 C479 272 446 276 422 270 C409 267 393 250 382 265 C420 422 461 556 527 703 C519 724 497 723 477 728 L477 728 Z M147 173 C229 308 323 430 412 558 C415 558 417 557 417 555 C375 458 346 347 330 243 C266 222 209 195 147 173 L147 173 Z M582 902 C543 874 499 851 460 824 C460 819 459 815 455 814 C463 802 454 799 460 782 C477 773 486 789 497 794 C501 794 503 793 505 792 C538 824 629 842 602 902 L582 902 Z " />
<glyph glyph-name="Acircumflex" unicode="&#xc2;" horiz-adv-x="508" d="M477 728 C327 536 189 334 55 130 C5 110 -44 87 -98 78 C-107 86 -118 86 -125 85 C-116 66 -96 58 -80 45 C-41 43 -9 61 15 65 C-6 25 -30 -11 -58 -45 C-63 -43 -66 -33 -73 -40 C-74 -43 -75 -45 -78 -47 C-68 -69 -49 -82 -23 -87 C27 -33 60 39 100 103 C174 139 250 164 325 198 C312 130 320 56 325 -10 C331 -28 351 -32 357 -50 C368 -48 369 -53 380 -45 C358 40 360 122 375 215 C410 226 437 230 470 243 C482 233 507 241 522 245 C521 257 508 256 507 268 C479 272 446 276 422 270 C409 267 393 250 382 265 C420 422 461 556 527 703 C519 724 497 723 477 728 L477 728 Z M147 173 C229 308 323 430 412 558 C415 558 417 557 417 555 C375 458 346 347 330 243 C266 222 209 195 147 173 L147 173 Z M567 955 C529 893 470 851 434 787 C443 780 444 765 459 765 C500 797 535 849 572 877 C572 833 583 789 622 777 C631 797 615 803 609 820 C608 861 619 900 614 942 C596 948 587 956 567 955 L567 955 Z " />
<glyph glyph-name="Atilde" unicode="&#xc3;" horiz-adv-x="508" d="M477 728 C327 536 189 334 55 130 C5 110 -44 87 -98 78 C-107 86 -118 86 -125 85 C-116 66 -96 58 -80 45 C-41 43 -9 61 15 65 C-6 25 -30 -11 -58 -45 C-63 -43 -66 -33 -73 -40 C-74 -43 -75 -45 -78 -47 C-68 -69 -49 -82 -23 -87 C27 -33 60 39 100 103 C174 139 250 164 325 198 C312 130 320 56 325 -10 C331 -28 351 -32 357 -50 C368 -48 369 -53 380 -45 C358 40 360 122 375 215 C410 226 437 230 470 243 C482 233 507 241 522 245 C521 257 508 256 507 268 C479 272 446 276 422 270 C409 267 393 250 382 265 C420 422 461 556 527 703 C519 724 497 723 477 728 L477 728 Z M147 173 C229 308 323 430 412 558 C415 558 417 557 417 555 C375 458 346 347 330 243 C266 222 209 195 147 173 L147 173 Z M486 804 C502 821 514 841 534 854 C539 814 564 794 601 787 C647 808 659 849 664 897 C634 885 618 838 579 827 C581 852 580 885 566 902 C495 923 470 842 434 804 C440 785 479 789 486 804 L486 804 Z M486 804 C485 804 484 806 486 807 L486 804 Z " />
<glyph glyph-name="Adieresis" unicode="&#xc4;" horiz-adv-x="508" d="M477 728 C327 536 189 334 55 130 C5 110 -44 87 -98 78 C-107 86 -118 86 -125 85 C-116 66 -96 58 -80 45 C-41 43 -9 61 15 65 C-6 25 -30 -11 -58 -45 C-63 -43 -66 -33 -73 -40 C-74 -43 -75 -45 -78 -47 C-68 -69 -49 -82 -23 -87 C27 -33 60 39 100 103 C174 139 250 164 325 198 C312 130 320 56 325 -10 C331 -28 351 -32 357 -50 C368 -48 369 -53 380 -45 C358 40 360 122 375 215 C410 226 437 230 470 243 C482 233 507 241 522 245 C521 257 508 256 507 268 C479 272 446 276 422 270 C409 267 393 250 382 265 C420 422 461 556 527 703 C519 724 497 723 477 728 L477 728 Z M147 173 C229 308 323 430 412 558 C415 558 417 557 417 555 C375 458 346 347 330 243 C266 222 209 195 147 173 L147 173 Z M609 824 C597 850 562 856 549 827 C548 803 553 791 572 782 C594 786 609 798 609 824 L609 824 Z M507 812 C502 830 492 844 477 852 C463 843 448 832 447 817 C443 776 498 771 507 812 L507 812 Z " />
<glyph glyph-name="Aring" unicode="&#xc5;" horiz-adv-x="508" d="M477 728 C327 536 189 334 55 130 C5 110 -44 87 -98 78 C-107 86 -118 86 -125 85 C-116 66 -96 58 -80 45 C-41 43 -9 61 15 65 C-6 25 -30 -11 -58 -45 C-63 -43 -66 -33 -73 -40 C-74 -43 -75 -45 -78 -47 C-68 -69 -49 -82 -23 -87 C27 -33 60 39 100 103 C174 139 250 164 325 198 C312 130 320 56 325 -10 C331 -28 351 -32 357 -50 C368 -48 369 -53 380 -45 C358 40 360 122 375 215 C410 226 437 230 470 243 C482 233 507 241 522 245 C521 257 508 256 507 268 C479 272 446 276 422 270 C409 267 393 250 382 265 C420 422 461 556 527 703 C519 724 497 723 477 728 L477 728 Z M147 173 C229 308 323 430 412 558 C415 558 417 557 417 555 C375 458 346 347 330 243 C266 222 209 195 147 173 L147 173 Z M546 899 C539 899 535 894 529 892 C497 859 457 767 534 754 C563 769 611 795 616 832 C623 873 586 900 546 899 L546 899 Z M526 794 C537 820 554 840 571 859 C576 828 547 809 526 794 L526 794 Z " />
<glyph glyph-name="AE" unicode="&#xc6;" horiz-adv-x="747" d="M903 632 C885 700 798 684 748 679 C661 666 576 644 490 616 C501 645 514 673 527 703 C519 724 497 723 477 728 C327 536 189 334 55 130 C5 110 -44 87 -98 78 C-107 86 -118 86 -125 85 C-116 66 -96 58 -80 45 C-41 43 -9 61 15 65 C-6 25 -30 -11 -58 -45 C-63 -43 -66 -33 -73 -40 C-74 -43 -75 -45 -78 -47 C-68 -69 -49 -82 -23 -87 C27 -33 60 39 100 103 C169 136 239 160 309 191 C280 142 252 89 236 29 C195 17 161 -4 126 -23 C124 -36 129 -43 126 -51 C163 -88 234 -44 268 -38 L331 -20 C339 -30 352 -36 357 -50 C368 -48 369 -53 380 -45 C377 -33 374 -20 372 -8 C492 27 610 62 731 57 C722 55 715 50 711 42 C733 43 749 50 768 54 C780 48 791 40 801 49 C794 65 782 76 773 89 C678 126 500 81 365 43 C361 96 365 151 374 210 L378 216 C411 226 438 230 470 243 C482 233 507 241 522 245 C521 257 508 256 507 268 C479 272 446 276 422 270 C416 268 410 265 404 262 L418 287 C432 278 423 305 436 304 C516 330 603 322 678 354 C635 388 541 373 478 367 C518 422 548 486 598 529 C600 549 607 553 601 569 C586 580 570 575 558 582 C646 609 755 643 846 632 C843 628 834 629 833 622 C864 624 886 632 901 624 C903 630 894 632 903 632 L903 632 Z M147 173 C227 305 319 424 406 549 C408 548 411 547 413 547 C386 481 364 409 348 338 C324 333 302 327 286 317 C278 276 306 272 335 276 C333 265 331 254 330 243 C266 222 209 195 147 173 L147 173 Z M403 350 C422 419 442 485 465 550 C498 560 530 578 556 577 C502 509 456 420 411 352 C408 351 406 350 403 350 L403 350 Z M318 111 C318 83 319 56 321 30 L276 17 C287 48 301 79 318 111 L318 111 Z " />
<glyph glyph-name="Ccedilla" unicode="&#xc7;" horiz-adv-x="496" d="M137 -104 C149 -86 176 -77 171 -47 C187 -44 203 -39 220 -35 C253 -11 289 8 320 33 C382 97 444 177 493 253 C499 262 511 276 505 288 C410 191 328 80 215 0 C201 -2 192 -10 180 -15 C165 -15 154 -17 143 -18 C140 -17 137 -17 135 -19 C129 -19 124 -18 118 -17 C110 -14 108 -7 98 -7 C54 26 55 106 63 168 C94 276 137 371 190 458 C249 539 299 629 403 665 C425 537 335 450 313 350 C328 345 334 345 350 340 C404 411 431 508 458 605 C457 631 451 654 438 673 C418 687 393 695 365 700 C363 693 349 696 340 695 C182 585 83 393 23 200 C15 139 7 88 23 35 C40 -2 70 -26 108 -45 C92 -71 90 -109 117 -132 C130 -137 144 -140 155 -147 C126 -170 95 -192 52 -202 C53 -195 62 -191 55 -184 C20 -193 35 -246 60 -254 C120 -241 180 -225 200 -172 C196 -132 159 -126 137 -104 L137 -104 Z " />
<glyph glyph-name="Egrave" unicode="&#xc8;" horiz-adv-x="500" d="M678 632 C660 700 573 684 523 679 C409 662 299 629 183 589 C180 597 172 591 161 594 C155 578 169 570 171 554 C223 524 287 579 331 577 C277 509 231 420 186 352 C143 339 92 337 61 317 C51 262 105 274 141 284 C101 212 38 131 11 29 C-30 17 -64 -4 -99 -23 C-101 -36 -96 -43 -99 -51 C-62 -88 9 -44 43 -38 C200 4 351 64 506 57 C497 55 490 50 486 42 C508 43 524 50 543 54 C555 48 566 40 576 49 C569 65 557 76 548 89 C430 135 185 55 51 17 C82 107 145 198 193 287 C207 278 198 305 211 304 C291 330 378 322 453 354 C410 388 316 373 253 367 C293 422 323 486 373 529 C375 549 382 553 376 569 C361 580 345 575 333 582 C421 609 530 643 621 632 C618 628 609 629 608 622 C639 624 661 632 676 624 C678 630 669 632 678 632 L678 632 Z M365 861 C349 842 341 839 338 814 C385 784 433 753 488 744 C492 744 500 750 503 759 C465 801 416 832 365 861 L365 861 Z " />
<glyph glyph-name="Eacute" unicode="&#xc9;" horiz-adv-x="500" d="M678 632 C660 700 573 684 523 679 C409 662 299 629 183 589 C180 597 172 591 161 594 C155 578 169 570 171 554 C223 524 287 579 331 577 C277 509 231 420 186 352 C143 339 92 337 61 317 C51 262 105 274 141 284 C101 212 38 131 11 29 C-30 17 -64 -4 -99 -23 C-101 -36 -96 -43 -99 -51 C-62 -88 9 -44 43 -38 C200 4 351 64 506 57 C497 55 490 50 486 42 C508 43 524 50 543 54 C555 48 566 40 576 49 C569 65 557 76 548 89 C430 135 185 55 51 17 C82 107 145 198 193 287 C207 278 198 305 211 304 C291 330 378 322 453 354 C410 388 316 373 253 367 C293 422 323 486 373 529 C375 549 382 553 376 569 C361 580 345 575 333 582 C421 609 530 643 621 632 C618 628 609 629 608 622 C639 624 661 632 676 624 C678 630 669 632 678 632 L678 632 Z M489 842 C450 814 406 791 367 764 C367 759 366 755 362 754 C370 742 361 739 367 722 C384 713 393 729 404 734 C408 734 410 733 412 732 C445 764 536 782 509 842 L489 842 Z " />
<glyph glyph-name="Ecircumflex" unicode="&#xca;" horiz-adv-x="500" d="M678 632 C660 700 573 684 523 679 C409 662 299 629 183 589 C180 597 172 591 161 594 C155 578 169 570 171 554 C223 524 287 579 331 577 C277 509 231 420 186 352 C143 339 92 337 61 317 C51 262 105 274 141 284 C101 212 38 131 11 29 C-30 17 -64 -4 -99 -23 C-101 -36 -96 -43 -99 -51 C-62 -88 9 -44 43 -38 C200 4 351 64 506 57 C497 55 490 50 486 42 C508 43 524 50 543 54 C555 48 566 40 576 49 C569 65 557 76 548 89 C430 135 185 55 51 17 C82 107 145 198 193 287 C207 278 198 305 211 304 C291 330 378 322 453 354 C410 388 316 373 253 367 C293 422 323 486 373 529 C375 549 382 553 376 569 C361 580 345 575 333 582 C421 609 530 643 621 632 C618 628 609 629 608 622 C639 624 661 632 676 624 C678 630 669 632 678 632 L678 632 Z M481 910 C443 848 384 806 348 742 C357 735 358 720 373 720 C414 752 449 804 486 832 C486 788 497 744 536 732 C545 752 529 758 523 775 C522 816 533 855 528 897 C510 903 501 911 481 910 L481 910 Z " />
<glyph glyph-name="Edieresis" unicode="&#xcb;" horiz-adv-x="500" d="M678 632 C660 700 573 684 523 679 C409 662 299 629 183 589 C180 597 172 591 161 594 C155 578 169 570 171 554 C223 524 287 579 331 577 C277 509 231 420 186 352 C143 339 92 337 61 317 C51 262 105 274 141 284 C101 212 38 131 11 29 C-30 17 -64 -4 -99 -23 C-101 -36 -96 -43 -99 -51 C-62 -88 9 -44 43 -38 C200 4 351 64 506 57 C497 55 490 50 486 42 C508 43 524 50 543 54 C555 48 566 40 576 49 C569 65 557 76 548 89 C430 135 185 55 51 17 C82 107 145 198 193 287 C207 278 198 305 211 304 C291 330 378 322 453 354 C410 388 316 373 253 367 C293 422 323 486 373 529 C375 549 382 553 376 569 C361 580 345 575 333 582 C421 609 530 643 621 632 C618 628 609 629 608 622 C639 624 661 632 676 624 C678 630 669 632 678 632 L678 632 Z M523 784 C511 810 476 816 463 787 C462 763 467 751 486 742 C508 746 523 758 523 784 L523 784 Z M421 772 C416 790 406 804 391 812 C377 803 362 792 361 777 C357 736 412 731 421 772 L421 772 Z " />
<glyph glyph-name="Igrave" unicode="&#xcc;" horiz-adv-x="385" d="M701 623 C709 652 682 662 669 678 C617 686 581 684 524 683 C380 665 218 620 89 558 C74 559 45 544 44 526 C54 508 55 496 71 486 C146 544 255 571 354 601 C333 553 301 517 284 466 C256 436 241 394 221 358 C188 306 158 250 131 191 C119 163 109 133 99 103 C97 72 86 36 101 13 C41 -10 -26 -22 -79 -59 C-72 -78 -66 -98 -39 -97 C81 -37 215 4 366 26 C367 44 352 46 346 58 C276 69 197 38 131 26 C134 46 140 58 141 86 C199 227 283 356 346 486 C376 513 387 560 419 586 C421 603 421 608 429 621 C520 630 587 651 671 631 C669 622 655 625 659 611 C673 614 682 624 701 623 L701 623 Z M359 869 C343 850 335 847 332 822 C379 792 427 761 482 752 C486 752 494 758 497 767 C459 809 410 840 359 869 L359 869 Z " />
<glyph glyph-name="Iacute" unicode="&#xcd;" horiz-adv-x="385" d="M701 623 C709 652 682 662 669 678 C617 686 581 684 524 683 C380 665 218 620 89 558 C74 559 45 544 44 526 C54 508 55 496 71 486 C146 544 255 571 354 601 C333 553 301 517 284 466 C256 436 241 394 221 358 C188 306 158 250 131 191 C119 163 109 133 99 103 C97 72 86 36 101 13 C41 -10 -26 -22 -79 -59 C-72 -78 -66 -98 -39 -97 C81 -37 215 4 366 26 C367 44 352 46 346 58 C276 69 197 38 131 26 C134 46 140 58 141 86 C199 227 283 356 346 486 C376 513 387 560 419 586 C421 603 421 608 429 621 C520 630 587 651 671 631 C669 622 655 625 659 611 C673 614 682 624 701 623 L701 623 Z M487 862 C448 834 404 811 365 784 C365 779 364 775 360 774 C368 762 359 759 365 742 C382 733 391 749 402 754 C406 754 408 753 410 752 C443 784 534 802 507 862 L487 862 Z " />
<glyph glyph-name="Icircumflex" unicode="&#xce;" horiz-adv-x="385" d="M701 623 C709 652 682 662 669 678 C617 686 581 684 524 683 C380 665 218 620 89 558 C74 559 45 544 44 526 C54 508 55 496 71 486 C146 544 255 571 354 601 C333 553 301 517 284 466 C256 436 241 394 221 358 C188 306 158 250 131 191 C119 163 109 133 99 103 C97 72 86 36 101 13 C41 -10 -26 -22 -79 -59 C-72 -78 -66 -98 -39 -97 C81 -37 215 4 366 26 C367 44 352 46 346 58 C276 69 197 38 131 26 C134 46 140 58 141 86 C199 227 283 356 346 486 C376 513 387 560 419 586 C421 603 421 608 429 621 C520 630 587 651 671 631 C669 622 655 625 659 611 C673 614 682 624 701 623 L701 623 Z M457 913 C419 851 360 809 324 745 C333 738 334 723 349 723 C390 755 425 807 462 835 C462 791 473 747 512 735 C521 755 505 761 499 778 C498 819 509 858 504 900 C486 906 477 914 457 913 L457 913 Z " />
<glyph glyph-name="Idieresis" unicode="&#xcf;" horiz-adv-x="385" d="M701 623 C709 652 682 662 669 678 C617 686 581 684 524 683 C380 665 218 620 89 558 C74 559 45 544 44 526 C54 508 55 496 71 486 C146 544 255 571 354 601 C333 553 301 517 284 466 C256 436 241 394 221 358 C188 306 158 250 131 191 C119 163 109 133 99 103 C97 72 86 36 101 13 C41 -10 -26 -22 -79 -59 C-72 -78 -66 -98 -39 -97 C81 -37 215 4 366 26 C367 44 352 46 346 58 C276 69 197 38 131 26 C134 46 140 58 141 86 C199 227 283 356 346 486 C376 513 387 560 419 586 C421 603 421 608 429 621 C520 630 587 651 671 631 C669 622 655 625 659 611 C673 614 682 624 701 623 L701 623 Z M521 782 C509 808 474 814 461 785 C460 761 465 749 484 740 C506 744 521 756 521 782 L521 782 Z M419 770 C414 788 404 802 389 810 C375 801 360 790 359 775 C355 734 410 729 419 770 L419 770 Z " />
<glyph glyph-name="Eth" unicode="&#xd0;" horiz-adv-x="586" d="M379 364 C339 370 302 368 266 364 L274 382 C299 442 351 515 339 589 C316 600 298 567 286 544 C262 476 234 416 205 357 C175 354 144 354 114 361 C107 347 99 338 104 316 C119 302 147 300 178 302 C144 229 111 155 91 67 C95 67 94 61 94 57 C102 47 109 35 119 27 C96 23 88 18 59 19 C-10 70 32 173 61 227 C34 194 -10 141 -11 84 C-12 33 35 -25 81 -31 C131 -37 192 -7 226 14 C302 63 352 103 409 162 C506 277 597 401 594 569 C581 656 502 691 404 684 C311 660 234 617 159 564 C128 533 -2 437 31 384 C39 388 41 386 46 382 C63 396 69 394 76 422 C106 446 126 481 156 504 C240 571 329 639 461 652 C471 648 481 645 494 647 C505 636 520 630 531 619 C571 554 546 480 524 412 C467 306 389 221 306 139 C247 103 201 55 131 34 C141 87 165 125 176 174 C189 184 194 201 196 219 C215 245 230 275 244 308 C253 308 261 309 269 309 C307 327 353 322 384 336 C387 351 383 352 379 364 L379 364 Z M124 29 C124 32 123 32 121 32 C120 37 133 36 129 29 L124 29 Z " />
<glyph glyph-name="Ntilde" unicode="&#xd1;" horiz-adv-x="515" d="M597 679 C587 688 566 695 547 689 C455 529 394 326 332 131 C311 66 294 -5 247 -44 C221 45 240 168 255 264 C261 361 284 457 290 549 L265 599 C252 603 246 605 232 604 C187 507 147 409 110 309 C73 208 21 111 7 -9 C20 -21 25 -43 45 -41 C63 -30 61 2 62 31 C109 175 166 330 232 469 C212 315 179 154 192 -4 C209 -43 241 -100 295 -71 C356 1 381 111 407 219 C452 351 494 485 555 601 C559 594 560 600 570 599 C583 620 598 651 597 679 L597 679 Z M324 693 C340 710 352 730 372 743 C377 703 402 683 439 676 C485 697 497 738 502 786 C472 774 456 727 417 716 C419 741 418 774 404 791 C333 812 308 731 272 693 C278 674 317 678 324 693 L324 693 Z M324 693 C323 693 322 695 324 696 L324 693 Z " />
<glyph glyph-name="Ograve" unicode="&#xd2;" horiz-adv-x="555" d="M257 590 C155 446 50 296 5 102 C2 74 4 63 5 35 C14 -2 31 -30 50 -55 C69 -64 84 -77 102 -85 C124 -86 128 -83 147 -83 C167 -75 190 -64 212 -55 C221 -38 241 -34 255 -23 C297 10 333 63 367 110 C404 159 434 210 460 260 C500 336 537 412 532 522 C530 532 526 540 527 555 C508 591 482 621 450 645 C446 653 442 662 437 670 C415 685 398 704 362 695 C336 677 316 652 287 637 C282 640 273 639 267 642 C253 627 243 608 235 587 C245 584 254 594 257 590 L257 590 Z M367 617 C395 625 420 610 450 620 C476 604 481 565 487 537 C487 444 449 359 410 280 C343 141 254 24 117 -45 C90 -52 74 -44 57 -33 C46 -4 46 13 42 45 C64 170 112 264 172 360 C206 423 257 499 310 562 C325 580 348 611 367 617 L367 617 Z M397 861 C381 842 373 839 370 814 C417 784 465 753 520 744 C524 744 532 750 535 759 C497 801 448 832 397 861 L397 861 Z " />
<glyph glyph-name="Oacute" unicode="&#xd3;" horiz-adv-x="555" d="M257 590 C155 446 50 296 5 102 C2 74 4 63 5 35 C14 -2 31 -30 50 -55 C69 -64 84 -77 102 -85 C124 -86 128 -83 147 -83 C167 -75 190 -64 212 -55 C221 -38 241 -34 255 -23 C297 10 333 63 367 110 C404 159 434 210 460 260 C500 336 537 412 532 522 C530 532 526 540 527 555 C508 591 482 621 450 645 C446 653 442 662 437 670 C415 685 398 704 362 695 C336 677 316 652 287 637 C282 640 273 639 267 642 C253 627 243 608 235 587 C245 584 254 594 257 590 L257 590 Z M367 617 C395 625 420 610 450 620 C476 604 481 565 487 537 C487 444 449 359 410 280 C343 141 254 24 117 -45 C90 -52 74 -44 57 -33 C46 -4 46 13 42 45 C64 170 112 264 172 360 C206 423 257 499 310 562 C325 580 348 611 367 617 L367 617 Z M508 863 C469 835 425 812 386 785 C386 780 385 776 381 775 C389 763 380 760 386 743 C403 734 412 750 423 755 C427 755 429 754 431 753 C464 785 555 803 528 863 L508 863 Z " />
<glyph glyph-name="Ocircumflex" unicode="&#xd4;" horiz-adv-x="555" d="M257 590 C155 446 50 296 5 102 C2 74 4 63 5 35 C14 -2 31 -30 50 -55 C69 -64 84 -77 102 -85 C124 -86 128 -83 147 -83 C167 -75 190 -64 212 -55 C221 -38 241 -34 255 -23 C297 10 333 63 367 110 C404 159 434 210 460 260 C500 336 537 412 532 522 C530 532 526 540 527 555 C508 591 482 621 450 645 C446 653 442 662 437 670 C415 685 398 704 362 695 C336 677 316 652 287 637 C282 640 273 639 267 642 C253 627 243 608 235 587 C245 584 254 594 257 590 L257 590 Z M367 617 C395 625 420 610 450 620 C476 604 481 565 487 537 C487 444 449 359 410 280 C343 141 254 24 117 -45 C90 -52 74 -44 57 -33 C46 -4 46 13 42 45 C64 170 112 264 172 360 C206 423 257 499 310 562 C325 580 348 611 367 617 L367 617 Z M469 919 C431 857 372 815 336 751 C345 744 346 729 361 729 C402 761 437 813 474 841 C474 797 485 753 524 741 C533 761 517 767 511 784 C510 825 521 864 516 906 C498 912 489 920 469 919 L469 919 Z " />
<glyph glyph-name="Otilde" unicode="&#xd5;" horiz-adv-x="555" d="M257 590 C155 446 50 296 5 102 C2 74 4 63 5 35 C14 -2 31 -30 50 -55 C69 -64 84 -77 102 -85 C124 -86 128 -83 147 -83 C167 -75 190 -64 212 -55 C221 -38 241 -34 255 -23 C297 10 333 63 367 110 C404 159 434 210 460 260 C500 336 537 412 532 522 C530 532 526 540 527 555 C508 591 482 621 450 645 C446 653 442 662 437 670 C415 685 398 704 362 695 C336 677 316 652 287 637 C282 640 273 639 267 642 C253 627 243 608 235 587 C245 584 254 594 257 590 L257 590 Z M367 617 C395 625 420 610 450 620 C476 604 481 565 487 537 C487 444 449 359 410 280 C343 141 254 24 117 -45 C90 -52 74 -44 57 -33 C46 -4 46 13 42 45 C64 170 112 264 172 360 C206 423 257 499 310 562 C325 580 348 611 367 617 L367 617 Z M398 754 C414 771 426 791 446 804 C451 764 476 744 513 737 C559 758 571 799 576 847 C546 835 530 788 491 777 C493 802 492 835 478 852 C407 873 382 792 346 754 C352 735 391 739 398 754 L398 754 Z M398 754 C397 754 396 756 398 757 L398 754 Z " />
<glyph glyph-name="Odieresis" unicode="&#xd6;" horiz-adv-x="555" d="M257 590 C155 446 50 296 5 102 C2 74 4 63 5 35 C14 -2 31 -30 50 -55 C69 -64 84 -77 102 -85 C124 -86 128 -83 147 -83 C167 -75 190 -64 212 -55 C221 -38 241 -34 255 -23 C297 10 333 63 367 110 C404 159 434 210 460 260 C500 336 537 412 532 522 C530 532 526 540 527 555 C508 591 482 621 450 645 C446 653 442 662 437 670 C415 685 398 704 362 695 C336 677 316 652 287 637 C282 640 273 639 267 642 C253 627 243 608 235 587 C245 584 254 594 257 590 L257 590 Z M367 617 C395 625 420 610 450 620 C476 604 481 565 487 537 C487 444 449 359 410 280 C343 141 254 24 117 -45 C90 -52 74 -44 57 -33 C46 -4 46 13 42 45 C64 170 112 264 172 360 C206 423 257 499 310 562 C325 580 348 611 367 617 L367 617 Z M538 787 C526 813 491 819 478 790 C477 766 482 754 501 745 C523 749 538 761 538 787 L538 787 Z M436 775 C431 793 421 807 406 815 C392 806 377 795 376 780 C372 739 427 734 436 775 L436 775 Z " />
<glyph glyph-name="Oslash" unicode="&#xd8;" horiz-adv-x="555" d="M472 684 C471 681 467 681 465 679 L448 647 C445 655 441 663 437 670 C415 685 398 704 362 695 C336 677 316 652 287 637 C282 640 273 639 267 642 C253 627 243 608 235 587 C245 584 254 594 257 590 C155 446 50 296 5 102 C2 74 4 63 5 35 C14 -2 31 -30 50 -55 L60 -60 C58 -64 56 -68 55 -73 C62 -89 73 -103 85 -108 C88 -99 91 -90 95 -81 C97 -82 99 -84 102 -85 C124 -86 128 -83 147 -83 C167 -75 190 -64 212 -55 C221 -38 241 -34 255 -23 C297 10 333 63 367 110 C404 159 434 210 460 260 C500 336 537 412 532 522 C530 532 526 540 527 555 C515 577 501 596 485 614 C489 637 499 670 480 684 L472 684 Z M108 -47 C203 180 355 377 467 597 C468 597 468 597 469 598 C479 579 483 556 487 537 C487 444 449 359 410 280 C343 141 254 24 117 -45 L108 -47 Z M367 617 C389 623 409 615 431 616 C308 393 161 200 67 -39 L57 -33 C46 -4 46 13 42 45 C64 170 112 264 172 360 C206 423 257 499 310 562 C325 580 348 611 367 617 L367 617 Z " />
<glyph glyph-name="Ugrave" unicode="&#xd9;" horiz-adv-x="586" d="M635 642 C629 657 615 664 602 672 L587 672 C561 614 531 562 500 509 C447 434 404 347 350 272 C278 153 198 42 105 -56 C99 -63 85 -63 77 -68 C61 -26 82 20 77 59 C116 228 176 387 257 544 C269 556 281 568 282 589 C274 609 246 615 230 619 C226 614 223 608 215 607 C139 428 62 261 25 47 C22 -22 35 -79 87 -108 C91 -112 108 -104 115 -111 C221 -67 269 59 320 132 C373 208 416 305 467 372 C451 284 412 165 410 72 C408 20 411 -29 447 -63 C457 -62 463 -76 480 -76 C477 -58 463 -50 457 -33 C439 20 465 91 462 147 C489 275 530 419 587 537 C598 577 624 602 635 642 L635 642 Z M352 784 C336 765 328 762 325 737 C372 707 420 676 475 667 C479 667 487 673 490 682 C452 724 403 755 352 784 L352 784 Z " />
<glyph glyph-name="Uacute" unicode="&#xda;" horiz-adv-x="586" d="M635 642 C629 657 615 664 602 672 L587 672 C561 614 531 562 500 509 C447 434 404 347 350 272 C278 153 198 42 105 -56 C99 -63 85 -63 77 -68 C61 -26 82 20 77 59 C116 228 176 387 257 544 C269 556 281 568 282 589 C274 609 246 615 230 619 C226 614 223 608 215 607 C139 428 62 261 25 47 C22 -22 35 -79 87 -108 C91 -112 108 -104 115 -111 C221 -67 269 59 320 132 C373 208 416 305 467 372 C451 284 412 165 410 72 C408 20 411 -29 447 -63 C457 -62 463 -76 480 -76 C477 -58 463 -50 457 -33 C439 20 465 91 462 147 C489 275 530 419 587 537 C598 577 624 602 635 642 L635 642 Z M481 781 C442 753 398 730 359 703 C359 698 358 694 354 693 C362 681 353 678 359 661 C376 652 385 668 396 673 C400 673 402 672 404 671 C437 703 528 721 501 781 L481 781 Z " />
<glyph glyph-name="Ucircumflex" unicode="&#xdb;" horiz-adv-x="586" d="M635 642 C629 657 615 664 602 672 L587 672 C561 614 531 562 500 509 C447 434 404 347 350 272 C278 153 198 42 105 -56 C99 -63 85 -63 77 -68 C61 -26 82 20 77 59 C116 228 176 387 257 544 C269 556 281 568 282 589 C274 609 246 615 230 619 C226 614 223 608 215 607 C139 428 62 261 25 47 C22 -22 35 -79 87 -108 C91 -112 108 -104 115 -111 C221 -67 269 59 320 132 C373 208 416 305 467 372 C451 284 412 165 410 72 C408 20 411 -29 447 -63 C457 -62 463 -76 480 -76 C477 -58 463 -50 457 -33 C439 20 465 91 462 147 C489 275 530 419 587 537 C598 577 624 602 635 642 L635 642 Z M466 844 C428 782 369 740 333 676 C342 669 343 654 358 654 C399 686 434 738 471 766 C471 722 482 678 521 666 C530 686 514 692 508 709 C507 750 518 789 513 831 C495 837 486 845 466 844 L466 844 Z " />
<glyph glyph-name="Udieresis" unicode="&#xdc;" horiz-adv-x="586" d="M635 642 C629 657 615 664 602 672 L587 672 C561 614 531 562 500 509 C447 434 404 347 350 272 C278 153 198 42 105 -56 C99 -63 85 -63 77 -68 C61 -26 82 20 77 59 C116 228 176 387 257 544 C269 556 281 568 282 589 C274 609 246 615 230 619 C226 614 223 608 215 607 C139 428 62 261 25 47 C22 -22 35 -79 87 -108 C91 -112 108 -104 115 -111 C221 -67 269 59 320 132 C373 208 416 305 467 372 C451 284 412 165 410 72 C408 20 411 -29 447 -63 C457 -62 463 -76 480 -76 C477 -58 463 -50 457 -33 C439 20 465 91 462 147 C489 275 530 419 587 537 C598 577 624 602 635 642 L635 642 Z M511 723 C499 749 464 755 451 726 C450 702 455 690 474 681 C496 685 511 697 511 723 L511 723 Z M409 711 C404 729 394 743 379 751 C365 742 350 731 349 716 C345 675 400 670 409 711 L409 711 Z " />
<glyph glyph-name="Yacute" unicode="&#xdd;" horiz-adv-x="492" d="M481 573 C482 571 480 571 479 570 C401 397 326 222 229 68 C207 35 149 -69 106 -82 C89 -48 82 -2 84 38 C62 22 69 -24 61 -55 C77 -87 93 -120 134 -127 C169 -115 198 -71 226 -32 C342 127 388 275 469 438 C489 479 513 520 534 565 C551 605 567 627 566 673 C556 679 546 684 534 688 C482 657 452 603 416 555 C376 513 342 465 306 418 C231 328 173 221 66 163 C90 316 155 434 214 558 C245 563 244 620 199 610 C171 604 138 515 126 485 C103 429 82 383 66 348 C52 282 -24 160 86 128 C100 130 107 140 126 138 C273 268 377 437 481 575 L481 573 Z M428 796 C389 768 345 745 306 718 C306 713 305 709 301 708 C309 696 300 693 306 676 C323 667 332 683 343 688 C347 688 349 687 351 686 C384 718 475 736 448 796 L428 796 Z " />
<glyph glyph-name="germandbls" unicode="&#xdf;" horiz-adv-x="297" d="M111 288 C150 334 184 385 215 438 C228 458 244 489 259 521 C278 562 306 622 267 645 C249 643 238 648 223 643 C180 615 152 570 125 523 C59 413 2 285 -48 159 C-57 133 -62 104 -79 82 C-78 139 -62 184 -38 224 C-80 185 -113 138 -117 63 C-114 45 -97 43 -94 28 C-101 -4 -115 -31 -116 -69 C-99 -72 -87 -91 -66 -84 C-68 -51 -57 -25 -45 -1 C29 -27 86 28 141 48 C184 90 236 134 237 206 C221 265 168 279 111 288 L111 288 Z M-38 30 C-8 113 26 193 56 276 C79 245 147 274 180 249 C182 244 182 237 188 236 C190 221 185 213 187 198 C144 111 78 48 -38 30 L-38 30 Z M218 566 C188 466 132 387 75 311 C107 403 148 503 218 566 L218 566 Z " />
<glyph glyph-name="agrave" unicode="&#xe0;" horiz-adv-x="279" d="M155 395 C157 408 151 412 148 420 C134 432 112 438 93 438 C18 357 -46 243 -65 123 C-55 96 -41 73 -7 70 C10 81 75 161 83 185 C96 192 101 220 113 220 C108 173 132 135 175 128 C204 138 221 161 243 178 C261 223 291 259 298 303 C244 261 213 197 155 160 C146 260 204 313 218 398 C208 411 192 417 170 418 C160 416 167 396 155 395 L155 395 Z M94 590 C78 571 70 568 67 543 C114 513 162 482 217 473 C221 473 229 479 232 488 C194 530 145 561 94 590 L94 590 Z M-7 153 C12 221 56 286 95 343 C106 341 84 311 105 310 C71 254 31 205 -7 153 L-7 153 Z " />
<glyph glyph-name="aacute" unicode="&#xe1;" horiz-adv-x="279" d="M155 395 C157 408 151 412 148 420 C134 432 112 438 93 438 C18 357 -46 243 -65 123 C-55 96 -41 73 -7 70 C10 81 75 161 83 185 C96 192 101 220 113 220 C108 173 132 135 175 128 C204 138 221 161 243 178 C261 223 291 259 298 303 C244 261 213 197 155 160 C146 260 204 313 218 398 C208 411 192 417 170 418 C160 416 167 396 155 395 L155 395 Z M204 592 C165 564 121 541 82 514 C82 509 81 505 77 504 C85 492 76 489 82 472 C99 463 108 479 119 484 C123 484 125 483 127 482 C160 514 251 532 224 592 L204 592 Z M-7 153 C12 221 56 286 95 343 C106 341 84 311 105 310 C71 254 31 205 -7 153 L-7 153 Z " />
<glyph glyph-name="acircumflex" unicode="&#xe2;" horiz-adv-x="279" d="M155 395 C157 408 151 412 148 420 C134 432 112 438 93 438 C18 357 -46 243 -65 123 C-55 96 -41 73 -7 70 C10 81 75 161 83 185 C96 192 101 220 113 220 C108 173 132 135 175 128 C204 138 221 161 243 178 C261 223 291 259 298 303 C244 261 213 197 155 160 C146 260 204 313 218 398 C208 411 192 417 170 418 C160 416 167 396 155 395 L155 395 Z M176 650 C138 588 79 546 43 482 C52 475 53 460 68 460 C109 492 144 544 181 572 C181 528 192 484 231 472 C240 492 224 498 218 515 C217 556 228 595 223 637 C205 643 196 651 176 650 L176 650 Z M-7 153 C12 221 56 286 95 343 C106 341 84 311 105 310 C71 254 31 205 -7 153 L-7 153 Z " />
<glyph glyph-name="atilde" unicode="&#xe3;" horiz-adv-x="279" d="M155 395 C157 408 151 412 148 420 C134 432 112 438 93 438 C18 357 -46 243 -65 123 C-55 96 -41 73 -7 70 C10 81 75 161 83 185 C96 192 101 220 113 220 C108 173 132 135 175 128 C204 138 221 161 243 178 C261 223 291 259 298 303 C244 261 213 197 155 160 C146 260 204 313 218 398 C208 411 192 417 170 418 C160 416 167 396 155 395 L155 395 Z M92 496 C108 513 120 533 140 546 C145 506 170 486 207 479 C253 500 265 541 270 589 C240 577 224 530 185 519 C187 544 186 577 172 594 C101 615 76 534 40 496 C46 477 85 481 92 496 L92 496 Z M-7 153 C12 221 56 286 95 343 C106 341 84 311 105 310 C71 254 31 205 -7 153 L-7 153 Z M92 496 C91 496 90 498 92 499 L92 496 Z " />
<glyph glyph-name="adieresis" unicode="&#xe4;" horiz-adv-x="279" d="M155 395 C157 408 151 412 148 420 C134 432 112 438 93 438 C18 357 -46 243 -65 123 C-55 96 -41 73 -7 70 C10 81 75 161 83 185 C96 192 101 220 113 220 C108 173 132 135 175 128 C204 138 221 161 243 178 C261 223 291 259 298 303 C244 261 213 197 155 160 C146 260 204 313 218 398 C208 411 192 417 170 418 C160 416 167 396 155 395 L155 395 Z M-7 153 C12 221 56 286 95 343 C106 341 84 311 105 310 C71 254 31 205 -7 153 L-7 153 Z M237 524 C225 550 190 556 177 527 C176 503 181 491 200 482 C222 486 237 498 237 524 L237 524 Z M135 512 C130 530 120 544 105 552 C91 543 76 532 75 517 C71 476 126 471 135 512 L135 512 Z " />
<glyph glyph-name="aring" unicode="&#xe5;" horiz-adv-x="279" d="M155 395 C157 408 151 412 148 420 C134 432 112 438 93 438 C18 357 -46 243 -65 123 C-55 96 -41 73 -7 70 C10 81 75 161 83 185 C96 192 101 220 113 220 C108 173 132 135 175 128 C204 138 221 161 243 178 C261 223 291 259 298 303 C244 261 213 197 155 160 C146 260 204 313 218 398 C208 411 192 417 170 418 C160 416 167 396 155 395 L155 395 Z M155 612 C148 612 144 607 138 605 C106 572 66 480 143 467 C172 482 220 508 225 545 C232 586 195 613 155 612 L155 612 Z M-7 153 C12 221 56 286 95 343 C106 341 84 311 105 310 C71 254 31 205 -7 153 L-7 153 Z M135 507 C146 533 163 553 180 572 C185 541 156 522 135 507 L135 507 Z " />
<glyph glyph-name="ae" unicode="&#xe6;" horiz-adv-x="401" d="M166 205 C166 205 167 205 167 206 C167 206 168 207 168 208 C173 205 178 201 188 203 C258 243 292 309 333 375 C333 387 331 401 335 410 C325 431 302 439 280 448 C261 438 243 423 227 406 C225 409 224 413 223 417 C208 417 200 424 188 427 C176 423 174 410 163 404 C154 425 135 436 111 442 L91 442 C64 416 48 388 28 357 C-12 293 -57 219 -69 137 C-60 115 -50 95 -29 84 C58 112 75 208 136 262 L134 255 L130 243 C126 231 123 220 121 209 L113 177 C113 152 116 123 126 102 C136 90 160 64 174 86 C178 83 183 82 188 80 C294 96 332 197 390 270 C394 297 412 310 410 343 C346 267 281 193 205 130 C192 127 185 116 165 120 C157 132 156 148 157 163 L157 164 L166 205 Z M-14 162 C19 236 67 308 118 372 C129 374 119 354 126 352 C80 287 39 219 -14 162 L-14 162 Z M198 284 C223 328 253 368 288 403 C290 403 292 402 293 400 C272 343 231 307 192 270 L198 284 Z " />
<glyph glyph-name="ccedilla" unicode="&#xe7;" horiz-adv-x="195" d="M1 10 C12 26 37 35 36 60 C38 61 41 61 45 62 C58 77 78 88 92 104 C138 154 216 241 215 314 C140 239 86 144 -13 94 C-6 205 49 296 107 364 C100 352 99 328 102 304 C123 299 137 302 150 314 C149 347 170 370 170 409 C162 436 120 447 90 437 C22 351 -51 252 -55 124 C-48 107 -41 90 -33 74 C-31 72 -29 71 -27 70 C-43 43 -46 5 -19 -18 C-6 -23 8 -26 19 -33 C-10 -56 -41 -78 -84 -88 C-83 -81 -74 -77 -81 -70 C-116 -79 -101 -132 -76 -140 C-16 -127 44 -111 64 -58 C60 -18 23 -12 1 10 L1 10 Z " />
<glyph glyph-name="egrave" unicode="&#xe8;" horiz-adv-x="231" d="M246 343 C182 267 117 193 41 130 C28 127 21 116 1 120 C-14 145 -5 181 4 208 C9 205 14 201 24 203 C94 243 128 309 169 375 C169 387 167 401 171 410 C161 431 138 439 116 448 C50 413 -7 316 -34 243 C-58 175 -39 104 24 80 C130 96 168 197 226 270 C230 297 248 310 246 343 L246 343 Z M75 592 C59 573 51 570 48 545 C95 515 143 484 198 475 C202 475 210 481 213 490 C175 532 126 563 75 592 L75 592 Z M26 268 C52 319 85 364 124 403 C126 403 128 402 129 400 C108 342 66 306 26 268 L26 268 Z " />
<glyph glyph-name="eacute" unicode="&#xe9;" horiz-adv-x="231" d="M246 343 C182 267 117 193 41 130 C28 127 21 116 1 120 C-14 145 -5 181 4 208 C9 205 14 201 24 203 C94 243 128 309 169 375 C169 387 167 401 171 410 C161 431 138 439 116 448 C50 413 -7 316 -34 243 C-58 175 -39 104 24 80 C130 96 168 197 226 270 C230 297 248 310 246 343 L246 343 Z M178 591 C139 563 95 540 56 513 C56 508 55 504 51 503 C59 491 50 488 56 471 C73 462 82 478 93 483 C97 483 99 482 101 481 C134 513 225 531 198 591 L178 591 Z M26 268 C52 319 85 364 124 403 C126 403 128 402 129 400 C108 342 66 306 26 268 L26 268 Z " />
<glyph glyph-name="ecircumflex" unicode="&#xea;" horiz-adv-x="231" d="M246 343 C182 267 117 193 41 130 C28 127 21 116 1 120 C-14 145 -5 181 4 208 C9 205 14 201 24 203 C94 243 128 309 169 375 C169 387 167 401 171 410 C161 431 138 439 116 448 C50 413 -7 316 -34 243 C-58 175 -39 104 24 80 C130 96 168 197 226 270 C230 297 248 310 246 343 L246 343 Z M152 650 C114 588 55 546 19 482 C28 475 29 460 44 460 C85 492 120 544 157 572 C157 528 168 484 207 472 C216 492 200 498 194 515 C193 556 204 595 199 637 C181 643 172 651 152 650 L152 650 Z M26 268 C52 319 85 364 124 403 C126 403 128 402 129 400 C108 342 66 306 26 268 L26 268 Z " />
<glyph glyph-name="edieresis" unicode="&#xeb;" horiz-adv-x="231" d="M246 343 C182 267 117 193 41 130 C28 127 21 116 1 120 C-14 145 -5 181 4 208 C9 205 14 201 24 203 C94 243 128 309 169 375 C169 387 167 401 171 410 C161 431 138 439 116 448 C50 413 -7 316 -34 243 C-58 175 -39 104 24 80 C130 96 168 197 226 270 C230 297 248 310 246 343 L246 343 Z M202 524 C190 550 155 556 142 527 C141 503 146 491 165 482 C187 486 202 498 202 524 L202 524 Z M100 512 C95 530 85 544 70 552 C56 543 41 532 40 517 C36 476 91 471 100 512 L100 512 Z M26 268 C52 319 85 364 124 403 C126 403 128 402 129 400 C108 342 66 306 26 268 L26 268 Z " />
<glyph glyph-name="igrave" unicode="&#xec;" horiz-adv-x="191" d="M213 337 C133 273 79 184 -5 125 C10 210 55 285 88 362 C79 374 91 377 83 390 C73 397 58 400 43 402 C34 397 31 387 20 385 C9 317 -53 229 -55 155 C-56 126 -41 109 -20 90 C-16 101 -10 85 -5 82 C68 82 78 161 128 192 C134 215 152 226 168 240 C171 243 169 251 173 255 C177 254 187 259 180 262 C180 259 175 260 175 262 C185 267 176 276 175 285 C183 281 185 283 190 287 C185 303 211 313 213 337 L213 337 Z M176 479 C174 502 151 515 136 527 C120 539 101 553 81 562 C73 573 60 581 46 587 C23 574 17 568 16 542 C56 520 91 483 144 482 C150 478 155 473 164 472 C168 474 171 478 176 479 L176 479 Z M-22 187 C-21 186 -18 161 -30 165 C-28 155 -25 143 -35 140 C-35 135 -28 138 -27 135 C-31 128 -34 130 -42 125 C-51 165 -37 188 -27 227 C-6 244 -11 288 10 305 C7 298 7 289 10 282 C-3 278 5 252 -7 247 C-9 240 -2 242 0 240 C-11 235 -3 236 -2 225 C-9 223 -7 230 -12 230 C-10 219 -14 217 -10 207 C-23 204 -15 193 -22 187 L-22 187 Z M144 512 C112 520 81 550 51 569 C84 562 112 529 144 512 L144 512 Z M60 162 C73 173 78 192 98 197 C86 184 78 168 60 162 L60 162 Z M115 215 C115 211 118 211 118 207 C116 208 113 207 113 210 C109 208 108 204 108 200 C103 200 100 199 98 197 C99 208 105 213 115 215 L115 215 Z M158 260 C158 266 161 269 168 270 C169 262 166 258 158 260 L158 260 Z M143 250 C149 251 148 245 153 245 C151 241 147 240 143 240 L143 250 Z M173 270 C167 270 167 276 170 280 C176 279 176 273 173 270 L173 270 Z M133 230 C131 232 130 234 130 237 L138 237 L138 230 L133 230 Z M115 215 C115 220 117 223 123 222 C123 217 121 214 115 215 L115 215 Z M53 152 C52 158 55 160 60 160 C59 156 56 154 53 152 L53 152 Z M150 255 L155 255 L155 250 L150 250 L150 255 Z M130 220 L135 220 L135 215 L130 215 L130 220 Z M145 225 C142 225 143 229 143 232 C147 233 147 230 148 227 C146 228 145 226 145 225 L145 225 Z M53 152 C52 149 52 146 48 147 L48 152 L53 152 Z M168 247 C167 244 165 247 163 247 C163 250 168 250 168 247 L168 247 Z M134 487 C133 483 132 487 129 487 C129 490 134 489 134 487 L134 487 Z M109 494 C108 491 107 495 104 494 C104 497 109 497 109 494 L109 494 Z M-27 187 C-27 184 -22 185 -22 187 L-27 187 Z M-42 135 C-40 135 -37 135 -37 137 C-39 137 -42 137 -42 135 L-42 135 Z M-2 167 C-2 165 -5 165 -7 165 C-7 167 -4 167 -2 167 L-2 167 Z M15 312 C15 310 12 310 10 310 C10 312 13 312 15 312 L15 312 Z " />
<glyph glyph-name="iacute" unicode="&#xed;" horiz-adv-x="191" d="M84 390 C67 409 32 407 19 387 C-3 301 -56 234 -56 135 C-37 106 -27 82 21 85 C77 119 185 271 214 337 C195 337 184 315 171 302 C157 288 141 276 131 260 C104 231 73 206 51 172 C29 162 14 132 -6 130 C11 213 54 289 86 365 C81 375 85 376 84 390 L84 390 Z M139 602 C100 574 56 551 17 524 C17 519 16 515 12 514 C20 502 11 499 17 482 C34 473 43 489 54 494 C58 494 60 493 62 492 C95 524 186 542 159 602 L139 602 Z " />
<glyph glyph-name="icircumflex" unicode="&#xee;" horiz-adv-x="191" d="M84 390 C67 409 32 407 19 387 C-3 301 -56 234 -56 135 C-37 106 -27 82 21 85 C77 119 185 271 214 337 C195 337 184 315 171 302 C157 288 141 276 131 260 C104 231 73 206 51 172 C29 162 14 132 -6 130 C11 213 54 289 86 365 C81 375 85 376 84 390 L84 390 Z M132 650 C94 588 35 546 -1 482 C8 475 9 460 24 460 C65 492 100 544 137 572 C137 528 148 484 187 472 C196 492 180 498 174 515 C173 556 184 595 179 637 C161 643 152 651 132 650 L132 650 Z " />
<glyph glyph-name="idieresis" unicode="&#xef;" horiz-adv-x="191" d="M84 390 C67 409 32 407 19 387 C-3 301 -56 234 -56 135 C-37 106 -27 82 21 85 C77 119 185 271 214 337 C195 337 184 315 171 302 C157 288 141 276 131 260 C104 231 73 206 51 172 C29 162 14 132 -6 130 C11 213 54 289 86 365 C81 375 85 376 84 390 L84 390 Z M182 537 C170 563 135 569 122 540 C121 516 126 504 145 495 C167 499 182 511 182 537 L182 537 Z M80 525 C75 543 65 557 50 565 C36 556 21 545 20 530 C16 489 71 484 80 525 L80 525 Z " />
<glyph glyph-name="eth" unicode="&#xf0;" horiz-adv-x="307" d="M251 662 C235 601 218 551 199 504 C172 500 144 499 112 506 C105 492 97 483 102 461 C119 444 146 446 175 451 C165 430 154 410 143 389 C129 404 100 405 78 412 C-3 344 -44 236 -62 104 C-45 38 20 37 58 84 C95 130 119 215 143 259 C133 208 137 138 161 104 C178 93 186 88 198 74 L221 74 C225 84 234 89 233 104 C231 111 222 110 223 119 C210 119 210 106 198 104 C166 179 219 339 238 432 C242 442 246 452 249 463 C285 475 325 472 353 485 C356 500 352 501 348 513 C317 518 290 517 265 514 C278 556 289 600 301 644 C289 658 277 661 251 662 L251 662 Z M-14 89 C-2 198 40 296 101 364 C105 365 105 362 108 362 C113 332 89 306 101 284 C62 219 30 103 -14 89 L-14 89 Z " />
<glyph glyph-name="ntilde" unicode="&#xf1;" horiz-adv-x="272" d="M151 371 C143 281 58 137 161 101 C229 129 250 243 281 304 C262 308 263 276 246 271 C226 236 205 203 181 171 C174 163 165 149 153 146 C160 223 201 299 203 389 C197 403 186 413 173 421 C129 426 124 392 96 381 C97 424 54 420 38 396 C1 307 -51 219 -72 121 C-59 106 -50 87 -24 84 C38 176 74 293 151 371 L151 371 Z M75 493 C91 510 103 530 123 543 C128 503 153 483 190 476 C236 497 248 538 253 586 C223 574 207 527 168 516 C170 541 169 574 155 591 C84 612 59 531 23 493 C29 474 68 478 75 493 L75 493 Z M75 493 C74 493 73 495 75 496 L75 493 Z " />
<glyph glyph-name="ograve" unicode="&#xf2;" horiz-adv-x="247" d="M158 266 C169 316 163 395 128 426 C103 437 72 442 58 424 C8 339 -58 251 -35 126 C-19 110 -6 90 25 89 C83 108 101 167 135 209 C206 227 265 269 268 346 C230 321 203 284 158 266 L158 266 Z M65 595 C49 576 41 573 38 548 C85 518 133 487 188 478 C192 478 200 484 203 493 C165 535 116 566 65 595 L65 595 Z M3 126 C-2 183 19 233 35 276 C50 259 64 240 83 226 C60 189 39 150 3 126 L3 126 Z M78 349 C92 355 95 371 108 379 C124 332 109 290 95 249 C64 259 68 319 78 349 L78 349 Z " />
<glyph glyph-name="oacute" unicode="&#xf3;" horiz-adv-x="247" d="M158 266 C169 316 163 395 128 426 C103 437 72 442 58 424 C8 339 -58 251 -35 126 C-19 110 -6 90 25 89 C83 108 101 167 135 209 C206 227 265 269 268 346 C230 321 203 284 158 266 L158 266 Z M165 592 C126 564 82 541 43 514 C43 509 42 505 38 504 C46 492 37 489 43 472 C60 463 69 479 80 484 C84 484 86 483 88 482 C121 514 212 532 185 592 L165 592 Z M3 126 C-2 183 19 233 35 276 C50 259 64 240 83 226 C60 189 39 150 3 126 L3 126 Z M78 349 C92 355 95 371 108 379 C124 332 109 290 95 249 C64 259 68 319 78 349 L78 349 Z " />
<glyph glyph-name="ocircumflex" unicode="&#xf4;" horiz-adv-x="247" d="M158 266 C169 316 163 395 128 426 C103 437 72 442 58 424 C8 339 -58 251 -35 126 C-19 110 -6 90 25 89 C83 108 101 167 135 209 C206 227 265 269 268 346 C230 321 203 284 158 266 L158 266 Z M160 650 C122 588 63 546 27 482 C36 475 37 460 52 460 C93 492 128 544 165 572 C165 528 176 484 215 472 C224 492 208 498 202 515 C201 556 212 595 207 637 C189 643 180 651 160 650 L160 650 Z M3 126 C-2 183 19 233 35 276 C50 259 64 240 83 226 C60 189 39 150 3 126 L3 126 Z M78 349 C92 355 95 371 108 379 C124 332 109 290 95 249 C64 259 68 319 78 349 L78 349 Z " />
<glyph glyph-name="otilde" unicode="&#xf5;" horiz-adv-x="247" d="M158 266 C169 316 163 395 128 426 C103 437 72 442 58 424 C8 339 -58 251 -35 126 C-19 110 -6 90 25 89 C83 108 101 167 135 209 C206 227 265 269 268 346 C230 321 203 284 158 266 L158 266 Z M63 493 C79 510 91 530 111 543 C116 503 141 483 178 476 C224 497 236 538 241 586 C211 574 195 527 156 516 C158 541 157 574 143 591 C72 612 47 531 11 493 C17 474 56 478 63 493 L63 493 Z M3 126 C-2 183 19 233 35 276 C50 259 64 240 83 226 C60 189 39 150 3 126 L3 126 Z M78 349 C92 355 95 371 108 379 C124 332 109 290 95 249 C64 259 68 319 78 349 L78 349 Z M63 493 C62 493 61 495 63 496 L63 493 Z " />
<glyph glyph-name="odieresis" unicode="&#xf6;" horiz-adv-x="247" d="M158 266 C169 316 163 395 128 426 C103 437 72 442 58 424 C8 339 -58 251 -35 126 C-19 110 -6 90 25 89 C83 108 101 167 135 209 C206 227 265 269 268 346 C230 321 203 284 158 266 L158 266 Z M3 126 C-2 183 19 233 35 276 C50 259 64 240 83 226 C60 189 39 150 3 126 L3 126 Z M78 349 C92 355 95 371 108 379 C124 332 109 290 95 249 C64 259 68 319 78 349 L78 349 Z M202 519 C190 545 155 551 142 522 C141 498 146 486 165 477 C187 481 202 493 202 519 L202 519 Z M100 507 C95 525 85 539 70 547 C56 538 41 527 40 512 C36 471 91 466 100 507 L100 507 Z " />
<glyph glyph-name="divide" unicode="&#xf7;" horiz-adv-x="398" d="M321 264 C325 276 318 283 313 292 C220 306 134 269 51 289 C44 275 36 266 41 244 C77 219 158 232 206 242 C201 242 193 239 196 247 C235 243 265 258 301 254 C292 268 264 250 256 262 C243 262 217 245 213 259 C240 265 283 273 321 264 L321 264 Z M174 171 C134 208 100 119 151 114 C173 119 185 147 174 171 L174 171 Z M177 407 C149 394 160 342 192 342 C203 356 219 374 207 397 C197 400 189 406 177 407 L177 407 Z M158 272 C199 283 231 280 276 282 C239 268 203 274 158 272 L158 272 Z M158 244 C170 253 190 255 208 257 C202 242 172 252 158 244 L158 244 Z M193 244 C193 241 189 242 186 242 C186 245 190 244 193 244 L193 244 Z " />
<glyph glyph-name="oslash" unicode="&#xf8;" horiz-adv-x="239" d="M158 266 C165 300 165 348 153 384 C161 387 159 399 169 401 C173 424 185 447 166 461 L158 461 C157 458 153 458 151 456 L132 422 C130 423 129 425 128 426 C103 437 72 442 58 424 C8 339 -58 251 -35 126 C-31 122 -28 118 -24 115 L-46 66 C-39 50 -30 46 -18 41 C-9 60 -1 77 5 92 C11 90 17 89 25 89 C83 108 101 167 135 209 C206 227 265 269 268 346 C230 321 203 284 158 266 L158 266 Z M5 179 C11 215 24 247 35 276 L46 262 L5 179 Z M32 151 C47 184 57 204 72 234 C76 231 79 228 83 226 C67 200 52 173 32 151 L32 151 Z M113 312 C109 291 102 269 95 249 C90 250 86 253 83 256 L113 312 Z M78 349 C92 355 95 371 108 379 L71 309 C72 324 74 338 78 349 L78 349 Z " />
<glyph glyph-name="ugrave" unicode="&#xf9;" horiz-adv-x="304" d="M167 130 C185 234 232 308 265 395 C263 396 262 398 262 400 C255 411 245 420 227 420 C156 328 80 226 0 150 C31 234 73 308 100 395 C91 415 66 424 42 410 C14 307 -49 226 -58 110 C-45 98 -42 76 -23 70 C41 89 96 210 150 255 C116 197 116 100 180 83 C207 95 220 119 242 135 C264 182 304 224 310 278 C259 234 220 165 167 130 L167 130 Z M95 592 C79 573 71 570 68 545 C115 515 163 484 218 475 C222 475 230 481 233 490 C195 532 146 563 95 592 L95 592 Z " />
<glyph glyph-name="uacute" unicode="&#xfa;" horiz-adv-x="304" d="M167 130 C185 234 232 308 265 395 C263 396 262 398 262 400 C255 411 245 420 227 420 C156 328 80 226 0 150 C31 234 73 308 100 395 C91 415 66 424 42 410 C14 307 -49 226 -58 110 C-45 98 -42 76 -23 70 C41 89 96 210 150 255 C116 197 116 100 180 83 C207 95 220 119 242 135 C264 182 304 224 310 278 C259 234 220 165 167 130 L167 130 Z M225 563 C186 535 142 512 103 485 C103 480 102 476 98 475 C106 463 97 460 103 443 C120 434 129 450 140 455 C144 455 146 454 148 453 C181 485 272 503 245 563 L225 563 Z " />
<glyph glyph-name="ucircumflex" unicode="&#xfb;" horiz-adv-x="304" d="M167 130 C185 234 232 308 265 395 C263 396 262 398 262 400 C255 411 245 420 227 420 C156 328 80 226 0 150 C31 234 73 308 100 395 C91 415 66 424 42 410 C14 307 -49 226 -58 110 C-45 98 -42 76 -23 70 C41 89 96 210 150 255 C116 197 116 100 180 83 C207 95 220 119 242 135 C264 182 304 224 310 278 C259 234 220 165 167 130 L167 130 Z M193 636 C155 574 96 532 60 468 C69 461 70 446 85 446 C126 478 161 530 198 558 C198 514 209 470 248 458 C257 478 241 484 235 501 C234 542 245 581 240 623 C222 629 213 637 193 636 L193 636 Z " />
<glyph glyph-name="udieresis" unicode="&#xfc;" horiz-adv-x="304" d="M167 130 C185 234 232 308 265 395 C263 396 262 398 262 400 C255 411 245 420 227 420 C156 328 80 226 0 150 C31 234 73 308 100 395 C91 415 66 424 42 410 C14 307 -49 226 -58 110 C-45 98 -42 76 -23 70 C41 89 96 210 150 255 C116 197 116 100 180 83 C207 95 220 119 242 135 C264 182 304 224 310 278 C259 234 220 165 167 130 L167 130 Z M245 516 C233 542 198 548 185 519 C184 495 189 483 208 474 C230 478 245 490 245 516 L245 516 Z M143 504 C138 522 128 536 113 544 C99 535 84 524 83 509 C79 468 134 463 143 504 L143 504 Z " />
<glyph glyph-name="yacute" unicode="&#xfd;" horiz-adv-x="265" d="M223 433 C210 433 205 447 188 448 C119 360 76 247 3 163 C14 238 43 295 63 361 C51 376 29 375 13 373 C-20 300 -77 152 5 106 C22 109 29 122 43 128 C80 197 125 271 165 328 C108 138 39 -40 -87 -162 C-99 -169 -110 -177 -125 -182 C-134 -147 -134 -103 -150 -74 C-178 -129 -161 -202 -112 -227 L-87 -227 C62 -129 123 62 190 228 C197 290 238 365 223 433 L223 433 Z M170 583 C131 555 87 532 48 505 C48 500 47 496 43 495 C51 483 42 480 48 463 C65 454 74 470 85 475 C89 475 91 474 93 473 C126 505 217 523 190 583 L170 583 Z " />
<glyph glyph-name="ydieresis" unicode="&#xff;" horiz-adv-x="265" d="M223 433 C210 433 205 447 188 448 C119 360 76 247 3 163 C14 238 43 295 63 361 C51 376 29 375 13 373 C-20 300 -77 152 5 106 C22 109 29 122 43 128 C80 197 125 271 165 328 C108 138 39 -40 -87 -162 C-99 -169 -110 -177 -125 -182 C-134 -147 -134 -103 -150 -74 C-178 -129 -161 -202 -112 -227 L-87 -227 C62 -129 123 62 190 228 C197 290 238 365 223 433 L223 433 Z M219 537 C207 563 172 569 159 540 C158 516 163 504 182 495 C204 499 219 511 219 537 L219 537 Z M117 525 C112 543 102 557 87 565 C73 556 58 545 57 530 C53 489 108 484 117 525 L117 525 Z " />
<glyph glyph-name="Amacron" unicode="&#x100;" horiz-adv-x="508" d="M477 728 C327 536 189 334 55 130 C5 110 -44 87 -98 78 C-107 86 -118 86 -125 85 C-116 66 -96 58 -80 45 C-41 43 -9 61 15 65 C-6 25 -30 -11 -58 -45 C-63 -43 -66 -33 -73 -40 C-74 -43 -75 -45 -78 -47 C-68 -69 -49 -82 -23 -87 C27 -33 60 39 100 103 C174 139 250 164 325 198 C312 130 320 56 325 -10 C331 -28 351 -32 357 -50 C368 -48 369 -53 380 -45 C358 40 360 122 375 215 C410 226 437 230 470 243 C482 233 507 241 522 245 C521 257 508 256 507 268 C479 272 446 276 422 270 C409 267 393 250 382 265 C420 422 461 556 527 703 C519 724 497 723 477 728 L477 728 Z M147 173 C229 308 323 430 412 558 C415 558 417 557 417 555 C375 458 346 347 330 243 C266 222 209 195 147 173 L147 173 Z M607 832 C555 846 497 838 440 832 C432 817 439 800 445 787 C499 785 554 791 605 812 C605 823 611 820 607 832 L607 832 Z " />
<glyph glyph-name="amacron" unicode="&#x101;" horiz-adv-x="279" d="M155 395 C157 408 151 412 148 420 C134 432 112 438 93 438 C18 357 -46 243 -65 123 C-55 96 -41 73 -7 70 C10 81 75 161 83 185 C96 192 101 220 113 220 C108 173 132 135 175 128 C204 138 221 161 243 178 C261 223 291 259 298 303 C244 261 213 197 155 160 C146 260 204 313 218 398 C208 411 192 417 170 418 C160 416 167 396 155 395 L155 395 Z M221 539 C169 553 111 545 54 539 C46 524 53 507 59 494 C113 492 168 498 219 519 C219 530 225 527 221 539 L221 539 Z M-7 153 C12 221 56 286 95 343 C106 341 84 311 105 310 C71 254 31 205 -7 153 L-7 153 Z " />
<glyph glyph-name="Abreve" unicode="&#x102;" horiz-adv-x="508" d="M477 728 C327 536 189 334 55 130 C5 110 -44 87 -98 78 C-107 86 -118 86 -125 85 C-116 66 -96 58 -80 45 C-41 43 -9 61 15 65 C-6 25 -30 -11 -58 -45 C-63 -43 -66 -33 -73 -40 C-74 -43 -75 -45 -78 -47 C-68 -69 -49 -82 -23 -87 C27 -33 60 39 100 103 C174 139 250 164 325 198 C312 130 320 56 325 -10 C331 -28 351 -32 357 -50 C368 -48 369 -53 380 -45 C358 40 360 122 375 215 C410 226 437 230 470 243 C482 233 507 241 522 245 C521 257 508 256 507 268 C479 272 446 276 422 270 C409 267 393 250 382 265 C420 422 461 556 527 703 C519 724 497 723 477 728 L477 728 Z M147 173 C229 308 323 430 412 558 C415 558 417 557 417 555 C375 458 346 347 330 243 C266 222 209 195 147 173 L147 173 Z M625 847 C623 874 630 887 615 905 C588 861 553 825 495 812 C494 834 498 847 505 865 C504 883 492 889 485 900 C474 899 462 905 455 897 C444 840 460 776 525 772 C570 783 600 810 625 842 C622 842 622 847 625 847 L625 847 Z M625 842 C628 843 627 847 625 847 L625 842 Z " />
<glyph glyph-name="Aogonek" unicode="&#x104;" horiz-adv-x="508" d="M385 -35 C382 -30 378 -26 374 -22 C358 54 361 130 375 215 C410 226 437 230 470 243 C482 233 507 241 522 245 C521 257 508 256 507 268 C479 272 446 276 422 270 C409 267 393 250 382 265 C420 422 461 556 527 703 C519 724 497 723 477 728 C327 536 189 334 55 130 C5 110 -44 87 -98 78 C-107 86 -118 86 -125 85 C-116 66 -96 58 -80 45 C-41 43 -9 61 15 65 C-6 25 -30 -11 -58 -45 C-63 -43 -66 -33 -73 -40 C-74 -43 -75 -45 -78 -47 C-68 -69 -49 -82 -23 -87 C27 -33 60 39 100 103 C174 139 250 164 325 198 C312 131 319 59 324 -5 C289 -56 213 -199 328 -225 C362 -210 387 -187 403 -155 C369 -160 345 -189 305 -180 C316 -121 351 -88 378 -46 C378 -46 379 -45 380 -45 C380 -44 379 -44 379 -44 L385 -35 Z M147 173 C229 308 323 430 412 558 C415 558 417 557 417 555 C375 458 346 347 330 243 C266 222 209 195 147 173 L147 173 Z " />
<glyph glyph-name="aogonek" unicode="&#x105;" horiz-adv-x="279" d="M155 395 C157 408 151 412 148 420 C134 432 112 438 93 438 C18 357 -46 243 -65 123 C-55 96 -41 73 -7 70 C10 81 75 161 83 185 C96 192 101 220 113 220 C111 199 114 180 122 165 C85 109 22 -21 131 -46 C165 -31 190 -8 206 24 C172 19 148 -10 108 -1 C118 56 152 89 179 129 C205 140 222 162 243 178 C261 223 291 259 298 303 C247 264 217 205 166 167 C162 171 158 173 154 176 C152 266 205 318 218 398 C208 411 192 417 170 418 C160 416 167 396 155 395 L155 395 Z M-7 153 C12 221 56 286 95 343 C106 341 84 311 105 310 C71 254 31 205 -7 153 L-7 153 Z " />
<glyph glyph-name="Cacute" unicode="&#x106;" horiz-adv-x="496" d="M350 340 C404 411 431 508 458 605 C457 631 451 654 438 673 C418 687 393 695 365 700 C363 693 349 696 340 695 C182 585 83 393 23 200 C15 139 7 88 23 35 C42 -5 76 -31 118 -50 C159 -53 187 -44 220 -35 C253 -11 289 8 320 33 C382 97 444 177 493 253 C499 262 511 276 505 288 C410 191 328 80 215 0 C201 -2 192 -10 180 -15 C154 -16 139 -22 118 -17 C110 -14 108 -7 98 -7 C54 26 55 106 63 168 C94 276 137 371 190 458 C249 539 299 629 403 665 C425 537 335 450 313 350 C328 345 334 345 350 340 L350 340 Z M439 878 C400 850 356 827 317 800 C317 795 316 791 312 790 C320 778 311 775 317 758 C334 749 343 765 354 770 C358 770 360 769 362 768 C395 800 486 818 459 878 L439 878 Z " />
<glyph glyph-name="cacute" unicode="&#x107;" horiz-adv-x="219" d="M150 314 C149 347 170 370 170 409 C162 436 120 447 90 437 C22 351 -51 252 -55 124 C-48 107 -41 90 -33 74 C-19 64 -5 54 17 52 C26 55 33 61 45 62 C58 77 78 88 92 104 C138 154 216 241 215 314 C140 239 86 144 -13 94 C-6 205 49 296 107 364 C100 352 99 328 102 304 C123 299 137 302 150 314 L150 314 Z M169 597 C130 569 86 546 47 519 C47 514 46 510 42 509 C50 497 41 494 47 477 C64 468 73 484 84 489 C88 489 90 488 92 487 C125 519 216 537 189 597 L169 597 Z " />
<glyph glyph-name="Ccircumflex" unicode="&#x108;" horiz-adv-x="496" d="M350 340 C404 411 431 508 458 605 C457 631 451 654 438 673 C418 687 393 695 365 700 C363 693 349 696 340 695 C182 585 83 393 23 200 C15 139 7 88 23 35 C42 -5 76 -31 118 -50 C159 -53 187 -44 220 -35 C253 -11 289 8 320 33 C382 97 444 177 493 253 C499 262 511 276 505 288 C410 191 328 80 215 0 C201 -2 192 -10 180 -15 C154 -16 139 -22 118 -17 C110 -14 108 -7 98 -7 C54 26 55 106 63 168 C94 276 137 371 190 458 C249 539 299 629 403 665 C425 537 335 450 313 350 C328 345 334 345 350 340 L350 340 Z M432 932 C394 870 335 828 299 764 C308 757 309 742 324 742 C365 774 400 826 437 854 C437 810 448 766 487 754 C496 774 480 780 474 797 C473 838 484 877 479 919 C461 925 452 933 432 932 L432 932 Z " />
<glyph glyph-name="ccircumflex" unicode="&#x109;" horiz-adv-x="219" d="M150 314 C149 347 170 370 170 409 C162 436 120 447 90 437 C22 351 -51 252 -55 124 C-48 107 -41 90 -33 74 C-19 64 -5 54 17 52 C26 55 33 61 45 62 C58 77 78 88 92 104 C138 154 216 241 215 314 C140 239 86 144 -13 94 C-6 205 49 296 107 364 C100 352 99 328 102 304 C123 299 137 302 150 314 L150 314 Z M146 650 C108 588 49 546 13 482 C22 475 23 460 38 460 C79 492 114 544 151 572 C151 528 162 484 201 472 C210 492 194 498 188 515 C187 556 198 595 193 637 C175 643 166 651 146 650 L146 650 Z " />
<glyph glyph-name="Cdotaccent" unicode="&#x10a;" horiz-adv-x="496" d="M350 340 C404 411 431 508 458 605 C457 631 451 654 438 673 C418 687 393 695 365 700 C363 693 349 696 340 695 C182 585 83 393 23 200 C15 139 7 88 23 35 C42 -5 76 -31 118 -50 C159 -53 187 -44 220 -35 C253 -11 289 8 320 33 C382 97 444 177 493 253 C499 262 511 276 505 288 C410 191 328 80 215 0 C201 -2 192 -10 180 -15 C154 -16 139 -22 118 -17 C110 -14 108 -7 98 -7 C54 26 55 106 63 168 C94 276 137 371 190 458 C249 539 299 629 403 665 C425 537 335 450 313 350 C328 345 334 345 350 340 L350 340 Z M450 815 C410 852 376 763 427 758 C449 763 461 791 450 815 L450 815 Z " />
<glyph glyph-name="cdotaccent" unicode="&#x10b;" horiz-adv-x="219" d="M150 314 C149 347 170 370 170 409 C162 436 120 447 90 437 C22 351 -51 252 -55 124 C-48 107 -41 90 -33 74 C-19 64 -5 54 17 52 C26 55 33 61 45 62 C58 77 78 88 92 104 C138 154 216 241 215 314 C140 239 86 144 -13 94 C-6 205 49 296 107 364 C100 352 99 328 102 304 C123 299 137 302 150 314 L150 314 Z M141 549 C101 586 67 497 118 492 C140 497 152 525 141 549 L141 549 Z " />
<glyph glyph-name="Ccaron" unicode="&#x10c;" horiz-adv-x="496" d="M350 340 C404 411 431 508 458 605 C457 631 451 654 438 673 C418 687 393 695 365 700 C363 693 349 696 340 695 C182 585 83 393 23 200 C15 139 7 88 23 35 C42 -5 76 -31 118 -50 C159 -53 187 -44 220 -35 C253 -11 289 8 320 33 C382 97 444 177 493 253 C499 262 511 276 505 288 C410 191 328 80 215 0 C201 -2 192 -10 180 -15 C154 -16 139 -22 118 -17 C110 -14 108 -7 98 -7 C54 26 55 106 63 168 C94 276 137 371 190 458 C249 539 299 629 403 665 C425 537 335 450 313 350 C328 345 334 345 350 340 L350 340 Z M536 911 C529 918 519 922 508 926 C461 894 431 845 383 813 C384 847 398 929 333 911 C342 877 343 834 346 793 C357 778 369 763 386 753 C444 797 487 857 536 911 L536 911 Z " />
<glyph glyph-name="ccaron" unicode="&#x10d;" horiz-adv-x="219" d="M150 314 C149 347 170 370 170 409 C162 436 120 447 90 437 C22 351 -51 252 -55 124 C-48 107 -41 90 -33 74 C-19 64 -5 54 17 52 C26 55 33 61 45 62 C58 77 78 88 92 104 C138 154 216 241 215 314 C140 239 86 144 -13 94 C-6 205 49 296 107 364 C100 352 99 328 102 304 C123 299 137 302 150 314 L150 314 Z M279 640 C272 647 262 651 251 655 C204 623 174 574 126 542 C127 576 141 658 76 640 C85 606 86 563 89 522 C100 507 112 492 129 482 C187 526 230 586 279 640 L279 640 Z " />
<glyph glyph-name="Dcaron" unicode="&#x10e;" horiz-adv-x="586" d="M61 227 C34 194 -10 141 -11 84 C-12 33 35 -25 81 -31 C131 -37 192 -7 226 14 C302 63 352 103 409 162 C506 277 597 401 594 569 C581 656 502 691 404 684 C311 660 234 617 159 564 C128 533 -2 437 31 384 C39 388 41 386 46 382 C63 396 69 394 76 422 C106 446 126 481 156 504 C240 571 329 639 461 652 C471 648 481 645 494 647 C505 636 520 630 531 619 C571 554 546 480 524 412 C467 306 389 221 306 139 C247 103 201 55 131 34 C141 87 165 125 176 174 C189 184 194 201 196 219 C229 265 249 322 274 382 C299 442 351 515 339 589 C316 600 298 567 286 544 C227 374 134 251 91 67 C95 67 94 61 94 57 C102 47 109 35 119 27 C96 23 88 18 59 19 C-10 70 32 173 61 227 L61 227 Z M592 895 C585 902 575 906 564 910 C517 878 487 829 439 797 C440 831 454 913 389 895 C398 861 399 818 402 777 C413 762 425 747 442 737 C500 781 543 841 592 895 L592 895 Z M124 29 C124 32 123 32 121 32 C120 37 133 36 129 29 L124 29 Z " />
<glyph glyph-name="dcaron" unicode="&#x10f;" horiz-adv-x="485" d="M251 662 C222 552 191 476 143 389 C129 404 100 405 78 412 C-3 344 -44 236 -62 104 C-45 38 20 37 58 84 C95 130 119 215 143 259 C133 208 137 138 161 104 C178 93 186 88 198 74 L221 74 C225 84 234 89 233 104 C231 111 222 110 223 119 C210 119 210 106 198 104 C166 179 219 339 238 432 C264 498 281 572 301 644 C289 658 277 661 251 662 L251 662 Z M-14 89 C-2 198 40 296 101 364 C105 365 105 362 108 362 C113 332 89 306 101 284 C62 219 30 103 -14 89 L-14 89 Z M356 670 C346 604 318 563 306 505 C310 483 325 460 346 463 C348 534 400 587 404 655 C399 657 395 660 394 665 C377 660 377 674 356 670 L356 670 Z " />
<glyph glyph-name="Dcroat" unicode="&#x110;" horiz-adv-x="586" d="M303 340 C289 344 273 346 258 347 C273 385 287 423 304 458 C322 496 343 525 341 578 C332 579 343 586 334 588 C332 580 330 594 324 590 C300 573 286 560 281 525 L234 428 L196 345 C176 344 157 342 138 342 C128 327 133 311 141 295 C151 294 162 294 174 294 C160 262 146 228 132 193 C115 152 95 120 89 68 C94 62 92 62 91 53 C101 45 108 35 116 25 C95 19 42 6 41 33 C35 32 34 28 31 35 C31 37 29 38 29 40 C32 48 32 59 31 70 C21 70 28 53 21 50 C9 91 22 149 39 183 C39 190 32 177 34 188 C39 192 39 198 44 190 C47 202 60 216 56 225 C25 188 -3 127 -14 90 C-7 25 25 -15 79 -32 C165 -36 230 12 284 55 C279 57 279 59 281 63 C287 63 285 56 291 58 C322 86 358 107 382 143 C377 142 377 145 376 148 C385 151 391 170 399 165 C397 155 387 154 384 145 C395 148 412 167 419 183 L417 183 C415 176 409 185 411 190 C415 190 420 190 419 195 C422 194 424 192 424 188 C446 200 464 229 464 248 C467 247 466 243 467 240 C489 257 501 282 514 308 L516 308 C527 330 540 349 554 368 C548 373 559 393 566 385 C568 393 565 397 564 403 C570 402 575 404 574 410 C576 419 570 421 572 430 C576 441 579 453 584 463 C595 513 592 572 579 613 C548 655 497 691 419 678 C417 678 417 681 417 683 C407 685 414 671 404 673 L404 683 L386 675 C392 675 392 668 386 668 C380 667 388 679 379 675 C337 664 297 651 264 625 L252 625 C161 570 83 502 19 420 C20 412 15 410 17 400 C22 386 33 385 44 380 C49 386 56 390 64 393 C64 405 74 408 74 420 C161 514 259 597 394 643 C448 656 501 648 529 620 C538 598 548 578 552 550 C553 536 546 526 552 515 C545 480 531 450 524 415 C456 289 363 188 256 100 C250 98 247 93 239 93 C239 87 238 82 234 80 C193 76 171 34 126 35 C140 84 159 116 174 175 C186 184 192 199 194 218 C211 242 226 272 239 303 C262 307 283 314 301 320 C300 328 305 331 303 340 L303 340 Z M229 45 C232 65 250 71 262 83 C265 82 264 77 267 75 C275 79 276 91 279 100 C297 97 300 109 304 120 C318 121 335 137 339 155 C389 197 425 252 469 300 C470 293 463 262 451 268 C442 229 394 200 382 165 C364 159 337 129 322 105 L312 105 C287 84 261 51 229 45 L229 45 Z M182 38 C190 40 179 56 196 53 C192 48 198 48 196 40 C175 32 163 14 136 10 C142 28 171 33 182 38 L182 38 Z M229 45 C215 26 196 14 169 8 C188 21 203 39 229 45 L229 45 Z M11 135 C16 126 7 88 -6 80 L11 135 Z M104 5 C115 6 124 9 126 18 C134 19 134 12 134 5 C123 15 109 -15 104 5 L104 5 Z M514 308 C502 312 503 291 496 298 C507 310 509 331 524 338 C521 326 509 321 514 308 L514 308 Z M334 103 C327 94 322 83 306 83 C317 87 324 106 334 103 L334 103 Z M334 103 C335 115 345 118 354 123 C353 111 342 108 334 103 L334 103 Z M97 -12 C101 -12 113 -6 116 -12 C119 -20 94 -20 97 -12 L97 -12 Z M479 298 C463 300 476 317 486 315 C487 304 472 309 479 298 L479 298 Z M124 -12 C126 -5 140 0 144 -2 C144 -12 130 -9 124 -12 L124 -12 Z M426 198 C429 204 431 212 439 213 C439 203 434 199 426 198 L426 198 Z M467 250 C465 260 468 265 477 265 C474 259 474 251 467 250 L467 250 Z M149 -5 C149 3 155 4 161 5 C161 -2 157 -5 149 -5 L149 -5 Z M481 665 C471 671 496 673 492 663 C485 660 484 673 481 665 L481 665 Z M531 345 C524 347 528 352 529 358 L537 358 C535 353 529 353 531 345 L531 345 Z M439 215 C438 222 444 222 449 223 C450 216 446 215 439 215 L439 215 Z M209 50 C210 42 197 40 199 50 L209 50 Z M372 138 C376 134 360 125 364 135 C364 136 369 140 372 138 L372 138 Z M211 58 C214 57 214 59 214 60 L219 60 L219 55 C217 56 217 54 217 53 L211 53 L211 58 Z M489 318 C482 318 483 330 492 328 C490 326 489 322 489 318 L489 318 Z M246 40 C254 44 254 29 246 33 L246 40 Z M492 338 C499 341 499 327 492 330 L492 338 Z M514 655 C512 658 505 656 506 663 C512 663 514 661 514 655 L514 655 Z M581 440 C580 439 576 426 581 425 C578 432 588 438 581 440 L581 440 Z M449 230 C449 232 448 233 446 233 C446 238 458 236 454 230 L449 230 Z M502 665 C504 660 492 660 494 665 C495 668 501 667 502 665 L502 665 Z M263 335 C260 332 256 331 251 330 C251 331 252 333 253 335 L263 335 Z M94 3 C99 4 102 2 101 -2 L94 -2 L94 3 Z M273 335 C274 330 262 331 266 338 C270 338 270 335 273 335 L273 335 Z M119 30 C119 32 122 33 122 35 C125 34 127 32 126 28 C122 27 122 30 119 30 L119 30 Z M302 70 C296 69 297 74 296 78 C300 77 302 74 302 70 L302 70 Z M549 380 C546 381 547 385 546 388 C551 389 551 386 552 383 C549 383 549 382 549 380 L549 380 Z M469 673 L474 673 L474 668 L469 668 L469 673 Z M384 663 L389 663 L389 658 L384 658 L384 663 Z M19 140 C16 141 17 145 17 148 C21 149 21 146 21 143 C19 143 19 142 19 140 L19 140 Z M496 283 C491 282 492 286 492 290 C495 289 497 287 496 283 L496 283 Z M439 668 C438 673 443 672 446 673 C445 670 443 668 439 668 L439 668 Z M424 188 C422 187 419 186 419 183 C423 182 424 185 424 188 L424 188 Z " />
<glyph glyph-name="dcroat" unicode="&#x111;" horiz-adv-x="282" d="M251 662 C235 601 218 551 199 504 C172 500 144 499 112 506 C105 492 97 483 102 461 C119 444 146 446 175 451 C165 430 154 410 143 389 C129 404 100 405 78 412 C-3 344 -44 236 -62 104 C-45 38 20 37 58 84 C95 130 119 215 143 259 C133 208 137 138 161 104 C178 93 186 88 198 74 L221 74 C225 84 234 89 233 104 C231 111 222 110 223 119 C210 119 210 106 198 104 C166 179 219 339 238 432 C242 442 246 452 249 463 C285 475 325 472 353 485 C356 500 352 501 348 513 C317 518 290 517 265 514 C278 556 289 600 301 644 C289 658 277 661 251 662 L251 662 Z M-14 89 C-2 198 40 296 101 364 C105 365 105 362 108 362 C113 332 89 306 101 284 C62 219 30 103 -14 89 L-14 89 Z " />
<glyph glyph-name="Emacron" unicode="&#x112;" horiz-adv-x="500" d="M678 632 C660 700 573 684 523 679 C409 662 299 629 183 589 C180 597 172 591 161 594 C155 578 169 570 171 554 C223 524 287 579 331 577 C277 509 231 420 186 352 C143 339 92 337 61 317 C51 262 105 274 141 284 C101 212 38 131 11 29 C-30 17 -64 -4 -99 -23 C-101 -36 -96 -43 -99 -51 C-62 -88 9 -44 43 -38 C200 4 351 64 506 57 C497 55 490 50 486 42 C508 43 524 50 543 54 C555 48 566 40 576 49 C569 65 557 76 548 89 C430 135 185 55 51 17 C82 107 145 198 193 287 C207 278 198 305 211 304 C291 330 378 322 453 354 C410 388 316 373 253 367 C293 422 323 486 373 529 C375 549 382 553 376 569 C361 580 345 575 333 582 C421 609 530 643 621 632 C618 628 609 629 608 622 C639 624 661 632 676 624 C678 630 669 632 678 632 L678 632 Z M513 784 C461 798 403 790 346 784 C338 769 345 752 351 739 C405 737 460 743 511 764 C511 775 517 772 513 784 L513 784 Z " />
<glyph glyph-name="emacron" unicode="&#x113;" horiz-adv-x="231" d="M246 343 C182 267 117 193 41 130 C28 127 21 116 1 120 C-14 145 -5 181 4 208 C9 205 14 201 24 203 C94 243 128 309 169 375 C169 387 167 401 171 410 C161 431 138 439 116 448 C50 413 -7 316 -34 243 C-58 175 -39 104 24 80 C130 96 168 197 226 270 C230 297 248 310 246 343 L246 343 Z M221 542 C169 556 111 548 54 542 C46 527 53 510 59 497 C113 495 168 501 219 522 C219 533 225 530 221 542 L221 542 Z M26 268 C52 319 85 364 124 403 C126 403 128 402 129 400 C108 342 66 306 26 268 L26 268 Z " />
<glyph glyph-name="Ebreve" unicode="&#x114;" horiz-adv-x="500" d="M678 632 C660 700 573 684 523 679 C409 662 299 629 183 589 C180 597 172 591 161 594 C155 578 169 570 171 554 C223 524 287 579 331 577 C277 509 231 420 186 352 C143 339 92 337 61 317 C51 262 105 274 141 284 C101 212 38 131 11 29 C-30 17 -64 -4 -99 -23 C-101 -36 -96 -43 -99 -51 C-62 -88 9 -44 43 -38 C200 4 351 64 506 57 C497 55 490 50 486 42 C508 43 524 50 543 54 C555 48 566 40 576 49 C569 65 557 76 548 89 C430 135 185 55 51 17 C82 107 145 198 193 287 C207 278 198 305 211 304 C291 330 378 322 453 354 C410 388 316 373 253 367 C293 422 323 486 373 529 C375 549 382 553 376 569 C361 580 345 575 333 582 C421 609 530 643 621 632 C618 628 609 629 608 622 C639 624 661 632 676 624 C678 630 669 632 678 632 L678 632 Z M528 794 C526 821 533 834 518 852 C491 808 456 772 398 759 C397 781 401 794 408 812 C407 830 395 836 388 847 C377 846 365 852 358 844 C347 787 363 723 428 719 C473 730 503 757 528 789 C525 789 525 794 528 794 L528 794 Z M528 789 C531 790 530 794 528 794 L528 789 Z " />
<glyph glyph-name="Edotaccent" unicode="&#x116;" horiz-adv-x="500" d="M678 632 C660 700 573 684 523 679 C409 662 299 629 183 589 C180 597 172 591 161 594 C155 578 169 570 171 554 C223 524 287 579 331 577 C277 509 231 420 186 352 C143 339 92 337 61 317 C51 262 105 274 141 284 C101 212 38 131 11 29 C-30 17 -64 -4 -99 -23 C-101 -36 -96 -43 -99 -51 C-62 -88 9 -44 43 -38 C200 4 351 64 506 57 C497 55 490 50 486 42 C508 43 524 50 543 54 C555 48 566 40 576 49 C569 65 557 76 548 89 C430 135 185 55 51 17 C82 107 145 198 193 287 C207 278 198 305 211 304 C291 330 378 322 453 354 C410 388 316 373 253 367 C293 422 323 486 373 529 C375 549 382 553 376 569 C361 580 345 575 333 582 C421 609 530 643 621 632 C618 628 609 629 608 622 C639 624 661 632 676 624 C678 630 669 632 678 632 L678 632 Z M476 791 C436 828 402 739 453 734 C475 739 487 767 476 791 L476 791 Z " />
<glyph glyph-name="edotaccent" unicode="&#x117;" horiz-adv-x="231" d="M246 343 C182 267 117 193 41 130 C28 127 21 116 1 120 C-14 145 -5 181 4 208 C9 205 14 201 24 203 C94 243 128 309 169 375 C169 387 167 401 171 410 C161 431 138 439 116 448 C50 413 -7 316 -34 243 C-58 175 -39 104 24 80 C130 96 168 197 226 270 C230 297 248 310 246 343 L246 343 Z M160 549 C120 586 86 497 137 492 C159 497 171 525 160 549 L160 549 Z M26 268 C52 319 85 364 124 403 C126 403 128 402 129 400 C108 342 66 306 26 268 L26 268 Z " />
<glyph glyph-name="Eogonek" unicode="&#x118;" horiz-adv-x="500" d="M678 632 C660 700 573 684 523 679 C409 662 299 629 183 589 C180 597 172 591 161 594 C155 578 169 570 171 554 C223 524 287 579 331 577 C277 509 231 420 186 352 C143 339 92 337 61 317 C51 262 105 274 141 284 C101 212 38 131 11 29 C-30 17 -64 -4 -99 -23 C-101 -36 -96 -43 -99 -51 C-62 -88 9 -44 43 -38 C142 -11 239 22 335 41 C303 -21 279 -111 367 -131 C401 -116 426 -93 442 -61 C408 -66 384 -95 344 -86 C355 -24 394 10 421 54 C449 57 477 58 506 57 C497 55 490 50 486 42 C508 43 524 50 543 54 C555 48 566 40 576 49 C569 65 557 76 548 89 C430 135 185 55 51 17 C82 107 145 198 193 287 C207 278 198 305 211 304 C291 330 378 322 453 354 C410 388 316 373 253 367 C293 422 323 486 373 529 C375 549 382 553 376 569 C361 580 345 575 333 582 C421 609 530 643 621 632 C618 628 609 629 608 622 C639 624 661 632 676 624 C678 630 669 632 678 632 L678 632 Z " />
<glyph glyph-name="eogonek" unicode="&#x119;" horiz-adv-x="231" d="M171 20 C164 22 158 10 153 18 C170 23 178 36 191 45 C157 40 133 11 93 20 C104 81 156 161 184 209 C185 209 185 209 186 210 C200 233 218 252 228 278 C227 281 223 281 223 285 C232 289 236 296 238 305 C224 300 218 283 216 273 C211 273 211 276 206 276 C197 259 181 242 171 241 C189 280 244 295 246 343 C233 328 225 296 206 295 C201 294 201 292 203 288 C173 263 144 228 114 196 L113 196 L111 193 C89 170 66 147 41 130 C32 124 19 119 1 121 C-15 146 -6 181 3 208 C11 208 10 200 21 203 C93 238 123 308 166 368 C169 381 167 399 171 411 C161 431 138 439 116 448 C56 414 18 357 -9 291 L-7 291 C-2 302 2 313 11 320 C0 296 -10 270 -24 248 C-24 254 -20 255 -22 263 L-24 263 C-25 254 -31 252 -32 243 C-26 242 -28 248 -24 248 C-63 188 -35 95 26 80 C38 81 49 84 59 88 L53 68 C53 16 70 -19 116 -25 C148 -12 152 -1 171 20 L171 20 Z M128 393 C135 396 137 403 136 413 C147 406 134 386 126 383 L126 388 C107 343 60 305 28 266 C47 319 88 373 133 408 C134 400 126 402 128 393 L128 393 Z M211 260 C197 234 174 212 151 188 C149 190 147 192 145 193 C166 216 188 239 211 260 L211 260 Z M46 371 C35 353 23 336 11 320 C19 340 30 358 46 371 L46 371 Z M3 256 C2 258 -2 258 -2 263 C18 256 -8 247 -9 238 C-17 243 -5 249 -7 256 C-2 256 -2 253 -2 251 C1 251 0 255 3 256 L3 256 Z M-19 268 C-14 274 -10 280 -9 291 L-12 291 C-14 283 -24 275 -19 268 L-19 268 Z M16 266 C4 270 6 293 18 293 C14 283 8 276 16 266 L16 266 Z M43 373 C45 381 49 387 58 388 C53 384 53 374 43 373 L43 373 Z M158 223 C152 228 160 239 168 238 C167 231 160 230 158 223 L158 223 Z M180 210 C173 199 162 178 158 182 C167 190 175 197 176 213 L180 210 Z M148 225 C156 229 156 214 148 218 L148 225 Z M26 305 C20 306 25 314 26 316 C32 315 26 307 26 305 L26 305 Z M-27 190 C-34 193 -25 199 -27 203 C-19 201 -28 195 -27 190 L-27 190 Z M131 371 C132 374 134 377 136 380 C141 380 136 369 131 371 L131 371 Z M66 398 C67 401 70 402 71 406 C77 404 71 396 66 398 L66 398 Z M58 390 C59 394 61 396 66 396 C65 392 63 390 58 390 L58 390 Z M141 210 C140 216 144 215 148 216 C147 212 145 210 141 210 L141 210 Z M143 383 C140 383 141 387 141 390 C145 391 145 389 146 386 C144 386 143 385 143 383 L143 383 Z M-27 213 C-31 215 -27 218 -27 220 C-22 219 -26 216 -27 213 L-27 213 Z M-19 216 C-24 217 -20 220 -19 223 C-15 221 -19 218 -19 216 L-19 216 Z M128 393 C128 391 128 388 126 388 C126 390 126 393 128 393 L128 393 Z M-19 268 C-22 268 -21 265 -22 263 C-19 263 -20 266 -19 268 L-19 268 Z M208 298 C210 298 211 299 211 301 C209 301 208 299 208 298 L208 298 Z M211 301 C213 300 213 301 213 303 C211 304 211 302 211 301 L211 301 Z M206 295 C208 295 208 297 208 298 C206 298 206 297 206 295 L206 295 Z " />
<glyph glyph-name="ecaron" unicode="&#x11b;" horiz-adv-x="231" d="M246 343 C182 267 117 193 41 130 C28 127 21 116 1 120 C-14 145 -5 181 4 208 C9 205 14 201 24 203 C94 243 128 309 169 375 C169 387 167 401 171 410 C161 431 138 439 116 448 C50 413 -7 316 -34 243 C-58 175 -39 104 24 80 C130 96 168 197 226 270 C230 297 248 310 246 343 L246 343 Z M275 640 C268 647 258 651 247 655 C200 623 170 574 122 542 C123 576 137 658 72 640 C81 606 82 563 85 522 C96 507 108 492 125 482 C183 526 226 586 275 640 L275 640 Z M26 268 C52 319 85 364 124 403 C126 403 128 402 129 400 C108 342 66 306 26 268 L26 268 Z " />
<glyph glyph-name="gcircumflex" unicode="&#x11d;" horiz-adv-x="281" d="M192 347 C189 347 190 342 190 339 C188 323 178 314 180 294 C122 142 68 -32 -33 -156 C-56 -162 -70 -198 -108 -198 C-128 -170 -119 -107 -130 -78 C-144 -102 -153 -135 -148 -173 C-132 -208 -106 -244 -70 -243 C-38 -234 -18 -212 5 -193 C129 -34 191 173 252 379 C252 416 264 415 240 452 C229 454 220 457 207 457 C185 435 171 405 147 384 C139 421 104 431 67 427 C32 385 -6 319 -33 259 C-48 225 -66 169 -55 132 C-45 120 -26 101 -13 97 C65 130 94 232 150 294 L150 307 C166 319 180 346 192 354 L192 347 Z M196 671 C158 609 99 567 63 503 C72 496 73 481 88 481 C129 513 164 565 201 593 C201 549 212 505 251 493 C260 513 244 519 238 536 C237 577 248 616 243 658 C225 664 216 672 196 671 L196 671 Z M52 317 C67 331 77 349 87 367 C90 367 92 366 92 364 C93 346 81 339 85 317 C94 311 96 320 107 319 C71 260 32 203 -13 152 C-19 187 15 225 22 262 C36 276 47 294 52 317 L52 317 Z M192 347 C194 347 195 345 192 344 L192 347 Z " />
<glyph glyph-name="Gbreve" unicode="&#x11e;" horiz-adv-x="586" d="M377 -55 C356 56 405 157 445 242 C491 266 567 256 595 302 C522 309 478 270 410 292 C384 247 319 268 272 267 C269 247 292 236 300 225 C314 229 351 235 365 225 C362 216 355 213 350 207 C320 156 280 107 240 65 C199 23 156 -25 87 -35 C50 -14 57 50 52 80 C88 238 166 359 252 482 C321 550 379 642 482 667 C476 626 453 584 450 540 C463 530 474 532 487 532 C489 538 493 541 497 545 C496 586 531 621 527 672 C510 694 486 709 452 715 C336 670 252 557 180 457 C145 410 112 354 85 297 C51 228 18 162 15 80 C22 9 49 -70 135 -63 C236 -34 281 50 345 117 C330 62 310 -43 377 -55 L377 -55 Z M535 841 C533 868 540 881 525 899 C498 855 463 819 405 806 C404 828 408 841 415 859 C414 877 402 883 395 894 C384 893 372 899 365 891 C354 834 370 770 435 766 C480 777 510 804 535 836 C532 836 532 841 535 841 L535 841 Z M535 836 C538 837 537 841 535 841 L535 836 Z " />
<glyph glyph-name="gbreve" unicode="&#x11f;" horiz-adv-x="281" d="M192 347 C189 347 190 342 190 339 C188 323 178 314 180 294 C122 142 68 -32 -33 -156 C-56 -162 -70 -198 -108 -198 C-128 -170 -119 -107 -130 -78 C-144 -102 -153 -135 -148 -173 C-132 -208 -106 -244 -70 -243 C-38 -234 -18 -212 5 -193 C129 -34 191 173 252 379 C252 416 264 415 240 452 C229 454 220 457 207 457 C185 435 171 405 147 384 C139 421 104 431 67 427 C32 385 -6 319 -33 259 C-48 225 -66 169 -55 132 C-45 120 -26 101 -13 97 C65 130 94 232 150 294 L150 307 C166 319 180 346 192 354 L192 347 Z M245 572 C243 599 250 612 235 630 C208 586 173 550 115 537 C114 559 118 572 125 590 C124 608 112 614 105 625 C94 624 82 630 75 622 C64 565 80 501 145 497 C190 508 220 535 245 567 C242 567 242 572 245 572 L245 572 Z M52 317 C67 331 77 349 87 367 C90 367 92 366 92 364 C93 346 81 339 85 317 C94 311 96 320 107 319 C71 260 32 203 -13 152 C-19 187 15 225 22 262 C36 276 47 294 52 317 L52 317 Z M245 567 C248 568 247 572 245 572 L245 567 Z M192 347 C194 347 195 345 192 344 L192 347 Z " />
<glyph glyph-name="Gcommaaccent" unicode="&#x122;" horiz-adv-x="586" d="M377 -55 C356 56 405 157 445 242 C491 266 567 256 595 302 C522 309 478 270 410 292 C384 247 319 268 272 267 C269 247 292 236 300 225 C314 229 351 235 365 225 C362 216 355 213 350 207 C320 156 280 107 240 65 C199 23 156 -25 87 -35 C50 -14 57 50 52 80 C88 238 166 359 252 482 C321 550 379 642 482 667 C476 626 453 584 450 540 C463 530 474 532 487 532 C489 538 493 541 497 545 C496 586 531 621 527 672 C510 694 486 709 452 715 C336 670 252 557 180 457 C145 410 112 354 85 297 C51 228 18 162 15 80 C22 9 49 -70 135 -63 C236 -34 281 50 345 117 C330 62 310 -43 377 -55 L377 -55 Z M87 -285 C110 -285 115 -250 137 -243 C151 -200 247 -133 167 -103 C135 -160 80 -207 87 -285 L87 -285 Z " />
<glyph glyph-name="gcommaaccent" unicode="&#x123;" horiz-adv-x="281" d="M192 347 C189 347 190 342 190 339 C188 323 178 314 180 294 C122 142 68 -32 -33 -156 C-56 -162 -70 -198 -108 -198 C-128 -170 -119 -107 -130 -78 C-144 -102 -153 -135 -148 -173 C-132 -208 -106 -244 -70 -243 C-38 -234 -18 -212 5 -193 C129 -34 191 173 252 379 C252 416 264 415 240 452 C229 454 220 457 207 457 C185 435 171 405 147 384 C139 421 104 431 67 427 C32 385 -6 319 -33 259 C-48 225 -66 169 -55 132 C-45 120 -26 101 -13 97 C65 130 94 232 150 294 L150 307 C166 319 180 346 192 354 L192 347 Z M169 685 C159 619 131 578 119 520 C123 498 138 475 159 478 C161 549 213 602 217 670 C212 672 208 675 207 680 C190 675 190 689 169 685 L169 685 Z M52 317 C67 331 77 349 87 367 C90 367 92 366 92 364 C93 346 81 339 85 317 C94 311 96 320 107 319 C71 260 32 203 -13 152 C-19 187 15 225 22 262 C36 276 47 294 52 317 L52 317 Z M192 347 C194 347 195 345 192 344 L192 347 Z " />
<glyph glyph-name="Itilde" unicode="&#x128;" horiz-adv-x="385" d="M701 623 C709 652 682 662 669 678 C617 686 581 684 524 683 C380 665 218 620 89 558 C74 559 45 544 44 526 C54 508 55 496 71 486 C146 544 255 571 354 601 C333 553 301 517 284 466 C256 436 241 394 221 358 C188 306 158 250 131 191 C119 163 109 133 99 103 C97 72 86 36 101 13 C41 -10 -26 -22 -79 -59 C-72 -78 -66 -98 -39 -97 C81 -37 215 4 366 26 C367 44 352 46 346 58 C276 69 197 38 131 26 C134 46 140 58 141 86 C199 227 283 356 346 486 C376 513 387 560 419 586 C421 603 421 608 429 621 C520 630 587 651 671 631 C669 622 655 625 659 611 C673 614 682 624 701 623 L701 623 Z M363 744 C379 761 391 781 411 794 C416 754 441 734 478 727 C524 748 536 789 541 837 C511 825 495 778 456 767 C458 792 457 825 443 842 C372 863 347 782 311 744 C317 725 356 729 363 744 L363 744 Z M363 744 C362 744 361 746 363 747 L363 744 Z " />
<glyph glyph-name="itilde" unicode="&#x129;" horiz-adv-x="191" d="M84 390 C67 409 32 407 19 387 C-3 301 -56 234 -56 135 C-37 106 -27 82 21 85 C77 119 185 271 214 337 C195 337 184 315 171 302 C157 288 141 276 131 260 C104 231 73 206 51 172 C29 162 14 132 -6 130 C11 213 54 289 86 365 C81 375 85 376 84 390 L84 390 Z M22 480 C38 497 50 517 70 530 C75 490 100 470 137 463 C183 484 195 525 200 573 C170 561 154 514 115 503 C117 528 116 561 102 578 C31 599 6 518 -30 480 C-24 461 15 465 22 480 L22 480 Z M22 480 C21 480 20 482 22 483 L22 480 Z " />
<glyph glyph-name="Imacron" unicode="&#x12a;" horiz-adv-x="385" d="M701 623 C709 652 682 662 669 678 C617 686 581 684 524 683 C380 665 218 620 89 558 C74 559 45 544 44 526 C54 508 55 496 71 486 C146 544 255 571 354 601 C333 553 301 517 284 466 C256 436 241 394 221 358 C188 306 158 250 131 191 C119 163 109 133 99 103 C97 72 86 36 101 13 C41 -10 -26 -22 -79 -59 C-72 -78 -66 -98 -39 -97 C81 -37 215 4 366 26 C367 44 352 46 346 58 C276 69 197 38 131 26 C134 46 140 58 141 86 C199 227 283 356 346 486 C376 513 387 560 419 586 C421 603 421 608 429 621 C520 630 587 651 671 631 C669 622 655 625 659 611 C673 614 682 624 701 623 L701 623 Z M514 774 C462 788 404 780 347 774 C339 759 346 742 352 729 C406 727 461 733 512 754 C512 765 518 762 514 774 L514 774 Z " />
<glyph glyph-name="imacron" unicode="&#x12b;" horiz-adv-x="191" d="M84 390 C67 409 32 407 19 387 C-3 301 -56 234 -56 135 C-37 106 -27 82 21 85 C77 119 185 271 214 337 C195 337 184 315 171 302 C157 288 141 276 131 260 C104 231 73 206 51 172 C29 162 14 132 -6 130 C11 213 54 289 86 365 C81 375 85 376 84 390 L84 390 Z M164 532 C112 546 54 538 -3 532 C-11 517 -4 500 2 487 C56 485 111 491 162 512 C162 523 168 520 164 532 L164 532 Z " />
<glyph glyph-name="Iogonek" unicode="&#x12e;" horiz-adv-x="385" d="M701 623 C709 652 682 662 669 678 C617 686 581 684 524 683 C380 665 218 620 89 558 C74 559 45 544 44 526 C54 508 55 496 71 486 C146 544 255 571 354 601 C333 553 301 517 284 466 C256 436 241 394 221 358 C188 306 158 250 131 191 C119 163 109 133 99 103 C97 73 86 38 99 15 C97 14 94 13 92 13 L89 8 C32 -12 -29 -24 -79 -59 C-72 -78 -66 -98 -39 -97 C-9 -82 22 -68 54 -55 C27 -116 16 -189 95 -207 C129 -192 154 -169 170 -137 C136 -142 112 -171 72 -162 C83 -100 122 -66 149 -22 C217 -1 289 15 366 26 C367 44 352 46 346 58 C276 69 197 38 131 26 C134 46 140 58 141 86 C199 227 283 356 346 486 C376 513 387 560 419 586 C421 603 421 608 429 621 C520 630 587 651 671 631 C669 622 655 625 659 611 C673 614 682 624 701 623 L701 623 Z " />
<glyph glyph-name="iogonek" unicode="&#x12f;" horiz-adv-x="179" d="M84 390 C67 409 32 407 19 387 C-3 301 -56 234 -56 135 C-50 126 -45 117 -39 110 C-76 52 -136 -74 -29 -99 C5 -84 30 -61 46 -29 C12 -34 -12 -63 -52 -54 C-40 9 0 43 27 89 C84 129 186 273 214 337 C195 337 184 315 171 302 C157 288 141 276 131 260 C104 231 73 206 51 172 C29 162 14 132 -6 130 C11 213 54 289 86 365 C81 375 85 376 84 390 L84 390 Z M101 567 C85 559 69 549 69 525 C76 516 81 503 94 500 C125 504 140 560 101 567 L101 567 Z " />
<glyph glyph-name="Idotaccent" unicode="&#x130;" horiz-adv-x="385" d="M701 623 C709 652 682 662 669 678 C617 686 581 684 524 683 C380 665 218 620 89 558 C74 559 45 544 44 526 C54 508 55 496 71 486 C146 544 255 571 354 601 C333 553 301 517 284 466 C256 436 241 394 221 358 C188 306 158 250 131 191 C119 163 109 133 99 103 C97 72 86 36 101 13 C41 -10 -26 -22 -79 -59 C-72 -78 -66 -98 -39 -97 C81 -37 215 4 366 26 C367 44 352 46 346 58 C276 69 197 38 131 26 C134 46 140 58 141 86 C199 227 283 356 346 486 C376 513 387 560 419 586 C421 603 421 608 429 621 C520 630 587 651 671 631 C669 622 655 625 659 611 C673 614 682 624 701 623 L701 623 Z M440 791 C400 828 366 739 417 734 C439 739 451 767 440 791 L440 791 Z " />
<glyph glyph-name="dotlessi" unicode="&#x131;" horiz-adv-x="191" d="M84 390 C67 409 32 407 19 387 C-3 301 -56 234 -56 135 C-37 106 -27 82 21 85 C77 119 185 271 214 337 C195 337 184 315 171 302 C157 288 141 276 131 260 C104 231 73 206 51 172 C29 162 14 132 -6 130 C11 213 54 289 86 365 C81 375 85 376 84 390 L84 390 Z " />
<glyph glyph-name="Kcommaaccent" unicode="&#x136;" horiz-adv-x="468" d="M338 666 C329 679 319 691 295 689 C296 685 294 683 293 681 C279 657 262 637 250 611 C238 593 210 563 213 546 C227 553 227 573 245 576 C186 429 120 305 60 151 C41 133 19 118 0 99 C3 81 19 77 23 61 C3 9 -31 -60 -20 -129 C-6 -139 7 -152 23 -146 C16 -75 50 2 80 64 C173 81 286 139 370 79 C375 62 369 51 370 34 C388 40 395 56 395 79 C341 166 190 140 98 114 C235 245 401 386 523 544 C551 580 607 627 548 656 C540 652 538 643 528 641 C442 491 304 386 193 266 C170 265 164 235 148 236 C158 254 161 278 175 291 C212 387 256 474 298 566 C312 597 333 629 338 666 L338 666 Z M94 -254 C117 -254 122 -219 144 -212 C158 -169 254 -102 174 -72 C142 -129 87 -176 94 -254 L94 -254 Z " />
<glyph glyph-name="kcommaaccent" unicode="&#x137;" horiz-adv-x="273" d="M56 294 C86 396 126 492 169 574 C164 607 141 618 114 609 C78 512 42 408 9 304 C-33 208 -76 103 -66 -21 C-55 -31 -50 -48 -31 -51 C-14 7 -14 82 9 134 C14 125 22 118 29 109 C46 104 65 101 86 99 C189 131 255 200 289 302 C267 290 252 274 241 252 C182 212 133 135 41 144 C86 236 150 342 244 402 C247 414 256 427 251 439 C231 455 199 459 179 442 C135 406 89 327 56 294 L56 294 Z M7 -188 C30 -188 35 -153 57 -146 C71 -103 167 -36 87 -6 C55 -63 0 -110 7 -188 L7 -188 Z M51 289 C51 291 51 292 54 292 C54 289 52 285 51 289 L51 289 Z M56 294 C54 295 54 293 54 292 C56 291 56 293 56 294 L56 294 Z " />
<glyph glyph-name="Lacute" unicode="&#x139;" horiz-adv-x="375" d="M326 509 C340 535 353 563 374 594 C391 620 436 662 421 689 C415 696 403 697 391 699 C386 699 388 692 381 694 C319 581 248 475 184 364 C120 253 54 139 19 7 C26 -41 38 -38 69 -71 C202 -97 291 3 421 9 C434 11 430 -5 441 2 C463 20 430 34 409 39 C269 38 204 -38 76 -43 C75 -40 62 -29 59 -18 C82 87 133 175 179 259 C226 345 276 426 326 509 L326 509 Z M545 881 C506 853 462 830 423 803 C423 798 422 794 418 793 C426 781 417 778 423 761 C440 752 449 768 460 773 C464 773 466 772 468 771 C501 803 592 821 565 881 L545 881 Z " />
<glyph glyph-name="lacute" unicode="&#x13a;" horiz-adv-x="198" d="M168 652 C158 648 153 658 140 652 C100 618 87 553 65 515 C16 398 -30 285 -50 152 C-45 110 -35 63 13 50 C59 47 127 155 150 205 C169 249 217 287 215 335 C135 262 93 150 3 87 C-8 98 -1 127 -7 142 C4 172 6 199 15 230 C37 298 65 368 95 440 C112 478 134 528 155 567 C172 598 190 619 168 652 L168 652 Z M249 850 C210 822 166 799 127 772 C127 767 126 763 122 762 C130 750 121 747 127 730 C144 721 153 737 164 742 C168 742 170 741 172 740 C205 772 296 790 269 850 L249 850 Z " />
<glyph glyph-name="Lcommaaccent" unicode="&#x13b;" horiz-adv-x="375" d="M326 509 C340 535 353 563 374 594 C391 620 436 662 421 689 C415 696 403 697 391 699 C386 699 388 692 381 694 C319 581 248 475 184 364 C120 253 54 139 19 7 C26 -41 38 -38 69 -71 C202 -97 291 3 421 9 C434 11 430 -5 441 2 C463 20 430 34 409 39 C269 38 204 -38 76 -43 C75 -40 62 -29 59 -18 C82 87 133 175 179 259 C226 345 276 426 326 509 L326 509 Z M116 -307 C139 -307 144 -272 166 -265 C180 -222 276 -155 196 -125 C164 -182 109 -229 116 -307 L116 -307 Z " />
<glyph glyph-name="lcommaaccent" unicode="&#x13c;" horiz-adv-x="198" d="M168 652 C158 648 153 658 140 652 C100 618 87 553 65 515 C16 398 -30 285 -50 152 C-45 110 -35 63 13 50 C59 47 127 155 150 205 C169 249 217 287 215 335 C135 262 93 150 3 87 C-8 98 -1 127 -7 142 C4 172 6 199 15 230 C37 298 65 368 95 440 C112 478 134 528 155 567 C172 598 190 619 168 652 L168 652 Z M-73 -177 C-50 -177 -45 -142 -23 -135 C-9 -92 87 -25 7 5 C-25 -52 -80 -99 -73 -177 L-73 -177 Z " />
<glyph glyph-name="Lcaron" unicode="&#x13d;" horiz-adv-x="375" d="M326 509 C340 535 353 563 374 594 C391 620 436 662 421 689 C415 696 403 697 391 699 C386 699 388 692 381 694 C319 581 248 475 184 364 C120 253 54 139 19 7 C26 -41 38 -38 69 -71 C202 -97 291 3 421 9 C434 11 430 -5 441 2 C463 20 430 34 409 39 C269 38 204 -38 76 -43 C75 -40 62 -29 59 -18 C82 87 133 175 179 259 C226 345 276 426 326 509 L326 509 Z M493 691 C483 625 455 584 443 526 C447 504 462 481 483 484 C485 555 537 608 541 676 C536 678 532 681 531 686 C514 681 514 695 493 691 L493 691 Z " />
<glyph glyph-name="lcaron" unicode="&#x13e;" horiz-adv-x="401" d="M168 652 C158 648 153 658 140 652 C100 618 87 553 65 515 C16 398 -30 285 -50 152 C-45 110 -35 63 13 50 C59 47 127 155 150 205 C169 249 217 287 215 335 C135 262 93 150 3 87 C-8 98 -1 127 -7 142 C4 172 6 199 15 230 C37 298 65 368 95 440 C112 478 134 528 155 567 C172 598 190 619 168 652 L168 652 Z M235 670 C225 604 197 563 185 505 C189 483 204 460 225 463 C227 534 279 587 283 655 C278 657 274 660 273 665 C256 660 256 674 235 670 L235 670 Z " />
<glyph glyph-name="Lslash" unicode="&#x141;" horiz-adv-x="375" d="M326 509 C340 535 353 563 374 594 C391 620 436 662 421 689 C415 696 403 697 391 699 C386 699 388 692 381 694 C319 581 248 475 184 364 L162 326 C107 310 56 290 15 265 C10 253 13 243 18 230 C54 239 90 249 125 260 C82 181 43 98 19 7 C26 -41 38 -38 69 -71 C202 -97 291 3 421 9 C434 11 430 -5 441 2 C463 20 430 34 409 39 C269 38 204 -38 76 -43 C75 -40 62 -29 59 -18 C82 87 133 175 179 259 L190 280 L351 330 C356 342 371 349 372 363 C370 370 369 377 366 382 C324 369 276 358 227 345 C259 400 293 454 326 509 L326 509 Z " />
<glyph glyph-name="lslash" unicode="&#x142;" horiz-adv-x="198" d="M168 652 C158 648 153 658 140 652 C100 618 87 553 65 515 C48 475 31 435 16 395 C-17 382 -50 366 -86 341 C-90 328 -85 317 -78 306 C-49 315 -26 321 -7 328 C-25 272 -40 214 -50 152 C-45 110 -35 63 13 50 C59 47 127 155 150 205 C169 249 217 287 215 335 C135 262 93 150 3 87 C-8 98 -1 127 -7 142 C4 172 6 199 15 230 C28 270 43 311 59 353 C89 365 120 377 171 396 C176 409 190 416 190 431 C186 437 184 444 180 449 C145 436 114 427 86 418 L95 440 C112 478 134 528 155 567 C172 598 190 619 168 652 L168 652 Z " />
<glyph glyph-name="Nacute" unicode="&#x143;" horiz-adv-x="515" d="M597 679 C587 688 566 695 547 689 C455 529 394 326 332 131 C311 66 294 -5 247 -44 C221 45 240 168 255 264 C261 361 284 457 290 549 L265 599 C252 603 246 605 232 604 C187 507 147 409 110 309 C73 208 21 111 7 -9 C20 -21 25 -43 45 -41 C63 -30 61 2 62 31 C109 175 166 330 232 469 C212 315 179 154 192 -4 C209 -43 241 -100 295 -71 C356 1 381 111 407 219 C452 351 494 485 555 601 C559 594 560 600 570 599 C583 620 598 651 597 679 L597 679 Z M457 791 C418 763 374 740 335 713 C335 708 334 704 330 703 C338 691 329 688 335 671 C352 662 361 678 372 683 C376 683 378 682 380 681 C413 713 504 731 477 791 L457 791 Z " />
<glyph glyph-name="nacute" unicode="&#x144;" horiz-adv-x="272" d="M151 371 C143 281 58 137 161 101 C229 129 250 243 281 304 C262 308 263 276 246 271 C226 236 205 203 181 171 C174 163 165 149 153 146 C160 223 201 299 203 389 C197 403 186 413 173 421 C129 426 124 392 96 381 C97 424 54 420 38 396 C1 307 -51 219 -72 121 C-59 106 -50 87 -24 84 C38 176 74 293 151 371 L151 371 Z M193 583 C154 555 110 532 71 505 C71 500 70 496 66 495 C74 483 65 480 71 463 C88 454 97 470 108 475 C112 475 114 474 116 473 C149 505 240 523 213 583 L193 583 Z " />
<glyph glyph-name="Ncommaaccent" unicode="&#x145;" horiz-adv-x="515" d="M597 679 C587 688 566 695 547 689 C455 529 394 326 332 131 C311 66 294 -5 247 -44 C221 45 240 168 255 264 C261 361 284 457 290 549 L265 599 C252 603 246 605 232 604 C187 507 147 409 110 309 C73 208 21 111 7 -9 C20 -21 25 -43 45 -41 C63 -30 61 2 62 31 C109 175 166 330 232 469 C212 315 179 154 192 -4 C209 -43 241 -100 295 -71 C356 1 381 111 407 219 C452 351 494 485 555 601 C559 594 560 600 570 599 C583 620 598 651 597 679 L597 679 Z M58 -302 C81 -302 86 -267 108 -260 C122 -217 218 -150 138 -120 C106 -177 51 -224 58 -302 L58 -302 Z " />
<glyph glyph-name="ncommaaccent" unicode="&#x146;" horiz-adv-x="272" d="M151 371 C143 281 58 137 161 101 C229 129 250 243 281 304 C262 308 263 276 246 271 C226 236 205 203 181 171 C174 163 165 149 153 146 C160 223 201 299 203 389 C197 403 186 413 173 421 C129 426 124 392 96 381 C97 424 54 420 38 396 C1 307 -51 219 -72 121 C-59 106 -50 87 -24 84 C38 176 74 293 151 371 L151 371 Z M-22 -122 C1 -122 6 -87 28 -80 C42 -37 138 30 58 60 C26 3 -29 -44 -22 -122 L-22 -122 Z " />
<glyph glyph-name="Ncaron" unicode="&#x147;" horiz-adv-x="515" d="M597 679 C587 688 566 695 547 689 C455 529 394 326 332 131 C311 66 294 -5 247 -44 C221 45 240 168 255 264 C261 361 284 457 290 549 L265 599 C252 603 246 605 232 604 C187 507 147 409 110 309 C73 208 21 111 7 -9 C20 -21 25 -43 45 -41 C63 -30 61 2 62 31 C109 175 166 330 232 469 C212 315 179 154 192 -4 C209 -43 241 -100 295 -71 C356 1 381 111 407 219 C452 351 494 485 555 601 C559 594 560 600 570 599 C583 620 598 651 597 679 L597 679 Z M527 816 C520 823 510 827 499 831 C452 799 422 750 374 718 C375 752 389 834 324 816 C333 782 334 739 337 698 C348 683 360 668 377 658 C435 702 478 762 527 816 L527 816 Z " />
<glyph glyph-name="ncaron" unicode="&#x148;" horiz-adv-x="272" d="M151 371 C143 281 58 137 161 101 C229 129 250 243 281 304 C262 308 263 276 246 271 C226 236 205 203 181 171 C174 163 165 149 153 146 C160 223 201 299 203 389 C197 403 186 413 173 421 C129 426 124 392 96 381 C97 424 54 420 38 396 C1 307 -51 219 -72 121 C-59 106 -50 87 -24 84 C38 176 74 293 151 371 L151 371 Z M286 627 C279 634 269 638 258 642 C211 610 181 561 133 529 C134 563 148 645 83 627 C92 593 93 550 96 509 C107 494 119 479 136 469 C194 513 237 573 286 627 L286 627 Z " />
<glyph glyph-name="Omacron" unicode="&#x14c;" horiz-adv-x="555" d="M257 590 C155 446 50 296 5 102 C2 74 4 63 5 35 C14 -2 31 -30 50 -55 C69 -64 84 -77 102 -85 C124 -86 128 -83 147 -83 C167 -75 190 -64 212 -55 C221 -38 241 -34 255 -23 C297 10 333 63 367 110 C404 159 434 210 460 260 C500 336 537 412 532 522 C530 532 526 540 527 555 C508 591 482 621 450 645 C446 653 442 662 437 670 C415 685 398 704 362 695 C336 677 316 652 287 637 C282 640 273 639 267 642 C253 627 243 608 235 587 C245 584 254 594 257 590 L257 590 Z M367 617 C395 625 420 610 450 620 C476 604 481 565 487 537 C487 444 449 359 410 280 C343 141 254 24 117 -45 C90 -52 74 -44 57 -33 C46 -4 46 13 42 45 C64 170 112 264 172 360 C206 423 257 499 310 562 C325 580 348 611 367 617 L367 617 Z M533 790 C481 804 423 796 366 790 C358 775 365 758 371 745 C425 743 480 749 531 770 C531 781 537 778 533 790 L533 790 Z " />
<glyph glyph-name="omacron" unicode="&#x14d;" horiz-adv-x="247" d="M158 266 C169 316 163 395 128 426 C103 437 72 442 58 424 C8 339 -58 251 -35 126 C-19 110 -6 90 25 89 C83 108 101 167 135 209 C206 227 265 269 268 346 C230 321 203 284 158 266 L158 266 Z M195 534 C143 548 85 540 28 534 C20 519 27 502 33 489 C87 487 142 493 193 514 C193 525 199 522 195 534 L195 534 Z M3 126 C-2 183 19 233 35 276 C50 259 64 240 83 226 C60 189 39 150 3 126 L3 126 Z M78 349 C92 355 95 371 108 379 C124 332 109 290 95 249 C64 259 68 319 78 349 L78 349 Z " />
<glyph glyph-name="Ohungarumlaut" unicode="&#x150;" horiz-adv-x="555" d="M257 590 C155 446 50 296 5 102 C2 74 4 63 5 35 C14 -2 31 -30 50 -55 C69 -64 84 -77 102 -85 C124 -86 128 -83 147 -83 C167 -75 190 -64 212 -55 C221 -38 241 -34 255 -23 C297 10 333 63 367 110 C404 159 434 210 460 260 C500 336 537 412 532 522 C530 532 526 540 527 555 C508 591 482 621 450 645 C446 653 442 662 437 670 C415 685 398 704 362 695 C336 677 316 652 287 637 C282 640 273 639 267 642 C253 627 243 608 235 587 C245 584 254 594 257 590 L257 590 Z M367 617 C395 625 420 610 450 620 C476 604 481 565 487 537 C487 444 449 359 410 280 C343 141 254 24 117 -45 C90 -52 74 -44 57 -33 C46 -4 46 13 42 45 C64 170 112 264 172 360 C206 423 257 499 310 562 C325 580 348 611 367 617 L367 617 Z M388 787 C371 775 373 750 396 744 C443 771 495 809 531 849 C523 863 521 883 503 887 C464 855 430 819 391 787 C391 790 388 788 388 787 L388 787 Z M586 857 C543 816 475 786 456 729 C470 707 510 734 528 747 C554 765 580 790 596 802 C610 815 603 852 586 857 L586 857 Z M391 787 C391 785 389 784 388 787 L391 787 Z " />
<glyph glyph-name="ohungarumlaut" unicode="&#x151;" horiz-adv-x="247" d="M158 266 C169 316 163 395 128 426 C103 437 72 442 58 424 C8 339 -58 251 -35 126 C-19 110 -6 90 25 89 C83 108 101 167 135 209 C206 227 265 269 268 346 C230 321 203 284 158 266 L158 266 Z M22 546 C5 534 7 509 30 503 C77 530 129 568 165 608 C157 622 155 642 137 646 C98 614 64 578 25 546 C25 549 22 547 22 546 L22 546 Z M220 616 C177 575 109 545 90 488 C104 466 144 493 162 506 C188 524 214 549 230 561 C244 574 237 611 220 616 L220 616 Z M3 126 C-2 183 19 233 35 276 C50 259 64 240 83 226 C60 189 39 150 3 126 L3 126 Z M78 349 C92 355 95 371 108 379 C124 332 109 290 95 249 C64 259 68 319 78 349 L78 349 Z M25 546 C25 544 23 543 22 546 L25 546 Z " />
<glyph glyph-name="OE" unicode="&#x152;" horiz-adv-x="771" d="M942 632 C924 700 837 684 787 679 C688 664 592 638 493 605 C480 620 466 633 450 645 C446 653 442 662 437 670 C415 685 398 704 362 695 C336 677 316 652 287 637 C282 640 273 639 267 642 C253 627 243 608 235 587 C245 584 254 594 257 590 C155 446 50 296 5 102 C2 74 4 63 5 35 C14 -2 31 -30 50 -55 C69 -64 84 -77 102 -85 C124 -86 128 -83 147 -83 L190 -64 C228 -72 279 -43 307 -38 C464 4 615 64 770 57 C761 55 754 50 750 42 C772 43 788 50 807 54 C819 48 830 40 840 49 C833 65 821 76 812 89 C694 135 449 55 315 17 C320 32 326 48 333 64 C345 79 356 95 367 110 C404 159 434 210 460 260 L484 307 C561 329 645 323 717 354 C674 388 580 373 517 367 C557 422 587 486 637 529 C639 549 646 553 640 569 C625 580 609 575 597 582 C685 609 794 643 885 632 C882 628 873 629 872 622 C903 624 925 632 940 624 C942 630 933 632 942 632 L942 632 Z M367 617 C395 625 420 610 450 620 C459 614 465 606 470 597 L447 589 C444 597 436 591 425 594 C419 578 433 570 435 554 C451 545 468 543 485 546 C485 543 486 540 487 537 C487 470 468 408 442 349 C401 338 354 336 325 317 C315 262 369 274 405 284 C376 231 334 174 303 107 C253 45 192 -7 117 -45 C90 -52 74 -44 57 -33 C46 -4 46 13 42 45 C64 170 112 264 172 360 C206 423 257 499 310 562 C325 580 348 611 367 617 L367 617 Z M525 557 C551 567 575 578 595 577 C573 549 552 518 532 486 L532 522 C530 532 526 540 527 555 L525 557 Z " />
<glyph glyph-name="oe" unicode="&#x153;" horiz-adv-x="377" d="M381 343 C317 267 252 193 176 130 C163 127 156 116 136 120 C121 145 130 181 139 208 C144 205 149 201 159 203 C178 214 195 227 209 241 C232 257 250 278 260 304 C275 327 289 351 304 375 C304 387 302 401 306 410 C296 431 273 439 251 448 C217 430 185 396 159 357 C154 385 144 411 128 426 C103 437 72 442 58 424 C8 339 -58 251 -35 126 C-19 110 -6 90 25 89 C58 100 78 123 96 150 C105 118 126 92 159 80 C265 96 303 197 361 270 C365 297 383 310 381 343 L381 343 Z M3 126 C-2 183 19 233 35 276 C50 259 64 240 83 226 C60 189 39 150 3 126 L3 126 Z M78 349 C92 355 95 371 108 379 C124 332 109 290 95 249 C64 259 68 319 78 349 L78 349 Z M161 268 C187 319 220 364 259 403 C261 403 263 402 264 400 C243 342 201 306 161 268 L161 268 Z " />
<glyph glyph-name="Racute" unicode="&#x154;" horiz-adv-x="596" d="M242 142 C367 247 513 331 605 469 C615 506 624 538 617 582 C589 642 546 692 457 684 C282 668 133 555 27 472 C22 453 26 424 47 422 C58 421 75 438 85 447 C164 518 276 575 370 614 C446 640 573 659 597 569 C599 546 587 533 585 512 C514 416 416 347 325 272 C274 241 230 204 167 184 L145 169 C202 268 259 376 335 457 C353 476 379 492 385 519 C376 531 359 540 340 534 C212 420 135 254 50 97 C42 68 22 24 20 -8 C24 -52 26 -97 65 -106 C49 -20 83 54 117 114 C250 58 389 73 507 -8 C517 -22 533 -40 547 -41 C569 -13 534 15 520 32 C447 71 376 111 287 122 C275 131 254 131 242 142 L242 142 Z M499 863 C460 835 416 812 377 785 C377 780 376 776 372 775 C380 763 371 760 377 743 C394 734 403 750 414 755 C418 755 420 754 422 753 C455 785 546 803 519 863 L499 863 Z " />
<glyph glyph-name="racute" unicode="&#x155;" horiz-adv-x="211" d="M231 429 C141 479 91 364 51 324 C64 347 72 375 83 399 C74 455 49 422 26 424 C-11 312 -59 211 -77 92 C-63 83 -55 68 -39 62 C-2 91 12 140 31 182 C64 254 129 382 206 417 C215 412 214 396 226 392 C239 397 236 417 231 429 L231 429 Z M194 605 C155 577 111 554 72 527 C72 522 71 518 67 517 C75 505 66 502 72 485 C89 476 98 492 109 497 C113 497 115 496 117 495 C150 527 241 545 214 605 L194 605 Z " />
<glyph glyph-name="Rcommaaccent" unicode="&#x156;" horiz-adv-x="596" d="M242 142 C367 247 513 331 605 469 C615 506 624 538 617 582 C589 642 546 692 457 684 C282 668 133 555 27 472 C22 453 26 424 47 422 C58 421 75 438 85 447 C164 518 276 575 370 614 C446 640 573 659 597 569 C599 546 587 533 585 512 C514 416 416 347 325 272 C274 241 230 204 167 184 L145 169 C202 268 259 376 335 457 C353 476 379 492 385 519 C376 531 359 540 340 534 C212 420 135 254 50 97 C42 68 22 24 20 -8 C24 -52 26 -97 65 -106 C49 -20 83 54 117 114 C250 58 389 73 507 -8 C517 -22 533 -40 547 -41 C569 -13 534 15 520 32 C447 71 376 111 287 122 C275 131 254 131 242 142 L242 142 Z M158 -248 C181 -248 186 -213 208 -206 C222 -163 318 -96 238 -66 C206 -123 151 -170 158 -248 L158 -248 Z " />
<glyph glyph-name="rcommaaccent" unicode="&#x157;" horiz-adv-x="211" d="M231 429 C141 479 91 364 51 324 C64 347 72 375 83 399 C74 455 49 422 26 424 C-11 312 -59 211 -77 92 C-63 83 -55 68 -39 62 C-2 91 12 140 31 182 C64 254 129 382 206 417 C215 412 214 396 226 392 C239 397 236 417 231 429 L231 429 Z M-140 -174 C-117 -174 -112 -139 -90 -132 C-76 -89 20 -22 -60 8 C-92 -49 -147 -96 -140 -174 L-140 -174 Z " />
<glyph glyph-name="Rcaron" unicode="&#x158;" horiz-adv-x="596" d="M242 142 C367 247 513 331 605 469 C615 506 624 538 617 582 C589 642 546 692 457 684 C282 668 133 555 27 472 C22 453 26 424 47 422 C58 421 75 438 85 447 C164 518 276 575 370 614 C446 640 573 659 597 569 C599 546 587 533 585 512 C514 416 416 347 325 272 C274 241 230 204 167 184 L145 169 C202 268 259 376 335 457 C353 476 379 492 385 519 C376 531 359 540 340 534 C212 420 135 254 50 97 C42 68 22 24 20 -8 C24 -52 26 -97 65 -106 C49 -20 83 54 117 114 C250 58 389 73 507 -8 C517 -22 533 -40 547 -41 C569 -13 534 15 520 32 C447 71 376 111 287 122 C275 131 254 131 242 142 L242 142 Z M579 887 C572 894 562 898 551 902 C504 870 474 821 426 789 C427 823 441 905 376 887 C385 853 386 810 389 769 C400 754 412 739 429 729 C487 773 530 833 579 887 L579 887 Z " />
<glyph glyph-name="rcaron" unicode="&#x159;" horiz-adv-x="211" d="M231 429 C141 479 91 364 51 324 C64 347 72 375 83 399 C74 455 49 422 26 424 C-11 312 -59 211 -77 92 C-63 83 -55 68 -39 62 C-2 91 12 140 31 182 C64 254 129 382 206 417 C215 412 214 396 226 392 C239 397 236 417 231 429 L231 429 Z M254 635 C247 642 237 646 226 650 C179 618 149 569 101 537 C102 571 116 653 51 635 C60 601 61 558 64 517 C75 502 87 487 104 477 C162 521 205 581 254 635 L254 635 Z " />
<glyph glyph-name="Sacute" unicode="&#x15a;" horiz-adv-x="496" d="M386 350 C398 355 400 370 403 385 C463 480 553 545 591 657 C584 687 569 692 536 710 C349 663 179 530 78 367 C56 267 87 233 108 210 C169 165 261 139 341 122 C347 108 372 112 373 92 C257 39 123 -30 -4 -10 C-6 -2 -18 -4 -19 5 C-23 33 -24 54 -17 77 C-32 76 -27 56 -42 55 C-37 42 -45 45 -47 10 C-38 -58 15 -72 78 -68 C171 -62 263 -26 346 15 C384 33 406 31 411 82 C408 90 402 95 401 105 C339 186 187 176 113 245 C99 253 102 279 98 297 C153 450 369 587 518 635 C476 563 361 454 343 377 C356 366 365 352 386 350 L386 350 Z M526 884 C487 856 443 833 404 806 C404 801 403 797 399 796 C407 784 398 781 404 764 C421 755 430 771 441 776 C445 776 447 775 449 774 C482 806 573 824 546 884 L526 884 Z " />
<glyph glyph-name="sacute" unicode="&#x15b;" horiz-adv-x="235" d="M208 446 C197 454 188 463 176 471 C101 473 83 416 38 388 C19 356 0 344 -4 303 C8 279 9 243 28 226 C57 212 80 194 103 176 C68 144 -5 117 -54 123 C-54 171 0 187 13 231 C-30 217 -53 184 -89 163 C-99 131 -84 113 -82 83 C-14 35 84 92 141 123 L153 146 C152 160 152 159 153 173 C128 218 74 236 33 266 C35 274 29 275 31 283 C48 319 83 351 111 368 C112 357 112 341 111 328 C123 318 130 302 148 298 C154 360 208 386 208 446 L208 446 Z M204 639 C165 611 121 588 82 561 C82 556 81 552 77 551 C85 539 76 536 82 519 C99 510 108 526 119 531 C123 531 125 530 127 529 C160 561 251 579 224 639 L204 639 Z " />
<glyph glyph-name="Scircumflex" unicode="&#x15c;" horiz-adv-x="496" d="M386 350 C398 355 400 370 403 385 C463 480 553 545 591 657 C584 687 569 692 536 710 C349 663 179 530 78 367 C56 267 87 233 108 210 C169 165 261 139 341 122 C347 108 372 112 373 92 C257 39 123 -30 -4 -10 C-6 -2 -18 -4 -19 5 C-23 33 -24 54 -17 77 C-32 76 -27 56 -42 55 C-37 42 -45 45 -47 10 C-38 -58 15 -72 78 -68 C171 -62 263 -26 346 15 C384 33 406 31 411 82 C408 90 402 95 401 105 C339 186 187 176 113 245 C99 253 102 279 98 297 C153 450 369 587 518 635 C476 563 361 454 343 377 C356 366 365 352 386 350 L386 350 Z M537 932 C499 870 440 828 404 764 C413 757 414 742 429 742 C470 774 505 826 542 854 C542 810 553 766 592 754 C601 774 585 780 579 797 C578 838 589 877 584 919 C566 925 557 933 537 932 L537 932 Z " />
<glyph glyph-name="scircumflex" unicode="&#x15d;" horiz-adv-x="235" d="M208 446 C197 454 188 463 176 471 C101 473 83 416 38 388 C19 356 0 344 -4 303 C8 279 9 243 28 226 C57 212 80 194 103 176 C68 144 -5 117 -54 123 C-54 171 0 187 13 231 C-30 217 -53 184 -89 163 C-99 131 -84 113 -82 83 C-14 35 84 92 141 123 L153 146 C152 160 152 159 153 173 C128 218 74 236 33 266 C35 274 29 275 31 283 C48 319 83 351 111 368 C112 357 112 341 111 328 C123 318 130 302 148 298 C154 360 208 386 208 446 L208 446 Z M191 684 C153 622 94 580 58 516 C67 509 68 494 83 494 C124 526 159 578 196 606 C196 562 207 518 246 506 C255 526 239 532 233 549 C232 590 243 629 238 671 C220 677 211 685 191 684 L191 684 Z " />
<glyph glyph-name="Scedilla" unicode="&#x15e;" horiz-adv-x="496" d="M386 350 C398 355 400 370 403 385 C463 480 553 545 591 657 C584 687 569 692 536 710 C349 663 179 530 78 367 C56 267 87 233 108 210 C169 165 261 139 341 122 C347 108 372 112 373 92 C257 39 123 -30 -4 -10 C-6 -2 -18 -4 -19 5 C-23 33 -24 54 -17 77 C-32 76 -27 56 -42 55 C-37 42 -45 45 -47 10 C-38 -58 15 -72 78 -68 C171 -62 263 -26 346 15 C384 33 406 31 411 82 C408 90 402 95 401 105 C339 186 187 176 113 245 C99 253 102 279 98 297 C153 450 369 587 518 635 C476 563 361 454 343 377 C356 366 365 352 386 350 L386 350 Z M133 -203 C146 -184 176 -175 166 -141 C154 -135 143 -112 131 -118 C97 -134 74 -198 113 -231 C126 -236 140 -239 151 -246 C122 -269 91 -291 48 -301 C49 -294 58 -290 51 -283 C16 -292 31 -345 56 -353 C116 -340 176 -324 196 -271 C192 -231 155 -225 133 -203 L133 -203 Z " />
<glyph glyph-name="scedilla" unicode="&#x15f;" horiz-adv-x="235" d="M7 30 C17 45 40 55 42 76 C79 89 114 108 141 123 L153 146 C152 160 152 159 153 173 C128 218 74 236 33 266 C35 274 29 275 31 283 C48 319 83 351 111 368 C112 357 112 341 111 328 C123 318 130 302 148 298 C154 360 208 386 208 446 C197 454 188 463 176 471 C101 473 83 416 38 388 C19 356 0 344 -4 303 C8 279 9 243 28 226 C57 212 80 194 103 176 C68 144 -5 117 -54 123 C-54 171 0 187 13 231 C-30 217 -53 184 -89 163 C-99 131 -84 113 -82 83 C-66 72 -49 66 -31 65 C-36 43 -32 18 -13 2 C0 -3 14 -6 25 -13 C-4 -36 -35 -58 -78 -68 C-77 -61 -68 -57 -75 -50 C-110 -59 -95 -112 -70 -120 C-10 -107 50 -91 70 -38 C66 2 29 8 7 30 L7 30 Z " />
<glyph glyph-name="Scaron" unicode="&#x160;" horiz-adv-x="496" d="M386 350 C398 355 400 370 403 385 C463 480 553 545 591 657 C584 687 569 692 536 710 C349 663 179 530 78 367 C56 267 87 233 108 210 C169 165 261 139 341 122 C347 108 372 112 373 92 C257 39 123 -30 -4 -10 C-6 -2 -18 -4 -19 5 C-23 33 -24 54 -17 77 C-32 76 -27 56 -42 55 C-37 42 -45 45 -47 10 C-38 -58 15 -72 78 -68 C171 -62 263 -26 346 15 C384 33 406 31 411 82 C408 90 402 95 401 105 C339 186 187 176 113 245 C99 253 102 279 98 297 C153 450 369 587 518 635 C476 563 361 454 343 377 C356 366 365 352 386 350 L386 350 Z M562 914 C555 921 545 925 534 929 C487 897 457 848 409 816 C410 850 424 932 359 914 C368 880 369 837 372 796 C383 781 395 766 412 756 C470 800 513 860 562 914 L562 914 Z " />
<glyph glyph-name="scaron" unicode="&#x161;" horiz-adv-x="235" d="M208 446 C197 454 188 463 176 471 C101 473 83 416 38 388 C19 356 0 344 -4 303 C8 279 9 243 28 226 C57 212 80 194 103 176 C68 144 -5 117 -54 123 C-54 171 0 187 13 231 C-30 217 -53 184 -89 163 C-99 131 -84 113 -82 83 C-14 35 84 92 141 123 L153 146 C152 160 152 159 153 173 C128 218 74 236 33 266 C35 274 29 275 31 283 C48 319 83 351 111 368 C112 357 112 341 111 328 C123 318 130 302 148 298 C154 360 208 386 208 446 L208 446 Z M269 672 C262 679 252 683 241 687 C194 655 164 606 116 574 C117 608 131 690 66 672 C75 638 76 595 79 554 C90 539 102 524 119 514 C177 558 220 618 269 672 L269 672 Z " />
<glyph glyph-name="Tcommaaccent" unicode="&#x162;" horiz-adv-x="297" d="M396 718 C377 727 354 738 336 738 C301 705 284 658 261 615 C122 570 8 521 -116 463 C-114 440 -104 426 -91 415 C11 455 126 514 235 550 C202 461 161 368 130 271 C103 227 93 168 70 121 C62 75 33 28 37 -26 C43 -51 57 -66 70 -84 C85 -87 85 -81 97 -78 C100 -58 95 -16 104 0 C96 6 94 -20 85 -13 C146 181 224 383 307 572 C366 596 426 602 487 603 L577 607 C585 603 571 594 583 594 C589 595 594 598 598 602 C594 624 566 642 538 647 C461 653 401 641 340 642 C357 663 361 696 395 701 C393 709 396 712 396 718 L396 718 Z M-77 -343 C-54 -343 -49 -308 -27 -301 C-13 -258 83 -191 3 -161 C-29 -218 -84 -265 -77 -343 L-77 -343 Z " />
<glyph glyph-name="tcommaaccent" unicode="&#x163;" horiz-adv-x="194" d="M171 608 C175 638 207 655 206 683 C204 725 149 722 138 693 C126 659 112 609 93 588 C11 566 -55 548 -124 536 C-126 547 -114 544 -117 556 C-133 555 -156 554 -177 551 C-174 534 -172 519 -167 501 C-160 494 -152 489 -142 486 C-70 492 0 516 76 533 C23 409 -40 278 -62 138 L-54 93 C-31 52 18 29 53 68 C84 109 117 147 146 188 C166 236 207 275 213 328 C182 303 146 261 121 221 C91 200 25 94 -12 86 C-13 121 -3 144 -2 176 C42 307 95 438 146 553 C267 587 425 607 558 598 C578 587 593 590 611 591 C610 610 592 612 583 623 C458 662 284 625 171 608 L171 608 Z M-92 -188 C-69 -188 -64 -153 -42 -146 C-28 -103 68 -36 -12 -6 C-44 -63 -99 -110 -92 -188 L-92 -188 Z " />
<glyph glyph-name="Tcaron" unicode="&#x164;" horiz-adv-x="297" d="M396 718 C377 727 354 738 336 738 C301 705 284 658 261 615 C122 570 8 521 -116 463 C-114 440 -104 426 -91 415 C11 455 126 514 235 550 C202 461 161 368 130 271 C103 227 93 168 70 121 C62 75 33 28 37 -26 C43 -51 57 -66 70 -84 C85 -87 85 -81 97 -78 C100 -58 95 -16 104 0 C96 6 94 -20 85 -13 C146 181 224 383 307 572 C366 596 426 602 487 603 L577 607 C585 603 571 594 583 594 C589 595 594 598 598 602 C594 624 566 642 538 647 C461 653 401 641 340 642 C357 663 361 696 395 701 C393 709 396 712 396 718 L396 718 Z M569 938 C562 945 552 949 541 953 C494 921 464 872 416 840 C417 874 431 956 366 938 C375 904 376 861 379 820 C390 805 402 790 419 780 C477 824 520 884 569 938 L569 938 Z " />
<glyph glyph-name="tcaron" unicode="&#x165;" horiz-adv-x="397" d="M287 686 C283 663 278 643 271 624 C235 618 201 612 171 608 C175 638 207 655 206 683 C204 725 149 722 138 693 C126 659 112 609 93 588 C11 566 -55 548 -124 536 C-126 547 -114 544 -117 556 C-133 555 -156 554 -177 551 C-174 534 -172 519 -167 501 C-160 494 -152 489 -142 486 C-70 492 0 516 76 533 C23 409 -40 278 -62 138 L-54 93 C-31 52 18 29 53 68 C84 109 117 147 146 188 C166 236 207 275 213 328 C182 303 146 261 121 221 C91 200 25 94 -12 86 C-13 121 -3 144 -2 176 C42 307 95 438 146 553 C179 562 216 571 254 578 C247 560 241 541 237 521 C241 499 256 476 277 479 C278 518 295 552 310 586 C393 598 480 603 558 598 C578 587 593 590 611 591 C610 610 592 612 583 623 C507 646 414 642 327 632 C331 644 334 657 335 671 C330 673 326 676 325 681 C308 676 308 690 287 686 L287 686 Z " />
<glyph glyph-name="Utilde" unicode="&#x168;" horiz-adv-x="586" d="M635 642 C629 657 615 664 602 672 L587 672 C561 614 531 562 500 509 C447 434 404 347 350 272 C278 153 198 42 105 -56 C99 -63 85 -63 77 -68 C61 -26 82 20 77 59 C116 228 176 387 257 544 C269 556 281 568 282 589 C274 609 246 615 230 619 C226 614 223 608 215 607 C139 428 62 261 25 47 C22 -22 35 -79 87 -108 C91 -112 108 -104 115 -111 C221 -67 269 59 320 132 C373 208 416 305 467 372 C451 284 412 165 410 72 C408 20 411 -29 447 -63 C457 -62 463 -76 480 -76 C477 -58 463 -50 457 -33 C439 20 465 91 462 147 C489 275 530 419 587 537 C598 577 624 602 635 642 L635 642 Z M372 690 C388 707 400 727 420 740 C425 700 450 680 487 673 C533 694 545 735 550 783 C520 771 504 724 465 713 C467 738 466 771 452 788 C381 809 356 728 320 690 C326 671 365 675 372 690 L372 690 Z M372 690 C371 690 370 692 372 693 L372 690 Z " />
<glyph glyph-name="utilde" unicode="&#x169;" horiz-adv-x="304" d="M167 130 C185 234 232 308 265 395 C263 396 262 398 262 400 C255 411 245 420 227 420 C156 328 80 226 0 150 C31 234 73 308 100 395 C91 415 66 424 42 410 C14 307 -49 226 -58 110 C-45 98 -42 76 -23 70 C41 89 96 210 150 255 C116 197 116 100 180 83 C207 95 220 119 242 135 C264 182 304 224 310 278 C259 234 220 165 167 130 L167 130 Z M109 485 C125 502 137 522 157 535 C162 495 187 475 224 468 C270 489 282 530 287 578 C257 566 241 519 202 508 C204 533 203 566 189 583 C118 604 93 523 57 485 C63 466 102 470 109 485 L109 485 Z M109 485 C108 485 107 487 109 488 L109 485 Z " />
<glyph glyph-name="Umacron" unicode="&#x16a;" horiz-adv-x="586" d="M635 642 C629 657 615 664 602 672 L587 672 C561 614 531 562 500 509 C447 434 404 347 350 272 C278 153 198 42 105 -56 C99 -63 85 -63 77 -68 C61 -26 82 20 77 59 C116 228 176 387 257 544 C269 556 281 568 282 589 C274 609 246 615 230 619 C226 614 223 608 215 607 C139 428 62 261 25 47 C22 -22 35 -79 87 -108 C91 -112 108 -104 115 -111 C221 -67 269 59 320 132 C373 208 416 305 467 372 C451 284 412 165 410 72 C408 20 411 -29 447 -63 C457 -62 463 -76 480 -76 C477 -58 463 -50 457 -33 C439 20 465 91 462 147 C489 275 530 419 587 537 C598 577 624 602 635 642 L635 642 Z M501 721 C449 735 391 727 334 721 C326 706 333 689 339 676 C393 674 448 680 499 701 C499 712 505 709 501 721 L501 721 Z " />
<glyph glyph-name="umacron" unicode="&#x16b;" horiz-adv-x="304" d="M167 130 C185 234 232 308 265 395 C263 396 262 398 262 400 C255 411 245 420 227 420 C156 328 80 226 0 150 C31 234 73 308 100 395 C91 415 66 424 42 410 C14 307 -49 226 -58 110 C-45 98 -42 76 -23 70 C41 89 96 210 150 255 C116 197 116 100 180 83 C207 95 220 119 242 135 C264 182 304 224 310 278 C259 234 220 165 167 130 L167 130 Z M250 529 C198 543 140 535 83 529 C75 514 82 497 88 484 C142 482 197 488 248 509 C248 520 254 517 250 529 L250 529 Z " />
<glyph glyph-name="Ubreve" unicode="&#x16c;" horiz-adv-x="586" d="M635 642 C629 657 615 664 602 672 L587 672 C561 614 531 562 500 509 C447 434 404 347 350 272 C278 153 198 42 105 -56 C99 -63 85 -63 77 -68 C61 -26 82 20 77 59 C116 228 176 387 257 544 C269 556 281 568 282 589 C274 609 246 615 230 619 C226 614 223 608 215 607 C139 428 62 261 25 47 C22 -22 35 -79 87 -108 C91 -112 108 -104 115 -111 C221 -67 269 59 320 132 C373 208 416 305 467 372 C451 284 412 165 410 72 C408 20 411 -29 447 -63 C457 -62 463 -76 480 -76 C477 -58 463 -50 457 -33 C439 20 465 91 462 147 C489 275 530 419 587 537 C598 577 624 602 635 642 L635 642 Z M542 740 C540 767 547 780 532 798 C505 754 470 718 412 705 C411 727 415 740 422 758 C421 776 409 782 402 793 C391 792 379 798 372 790 C361 733 377 669 442 665 C487 676 517 703 542 735 C539 735 539 740 542 740 L542 740 Z M542 735 C545 736 544 740 542 740 L542 735 Z " />
<glyph glyph-name="ubreve" unicode="&#x16d;" horiz-adv-x="304" d="M167 130 C185 234 232 308 265 395 C263 396 262 398 262 400 C255 411 245 420 227 420 C156 328 80 226 0 150 C31 234 73 308 100 395 C91 415 66 424 42 410 C14 307 -49 226 -58 110 C-45 98 -42 76 -23 70 C41 89 96 210 150 255 C116 197 116 100 180 83 C207 95 220 119 242 135 C264 182 304 224 310 278 C259 234 220 165 167 130 L167 130 Z M262 549 C260 576 267 589 252 607 C225 563 190 527 132 514 C131 536 135 549 142 567 C141 585 129 591 122 602 C111 601 99 607 92 599 C81 542 97 478 162 474 C207 485 237 512 262 544 C259 544 259 549 262 549 L262 549 Z M262 544 C265 545 264 549 262 549 L262 544 Z " />
<glyph glyph-name="Uring" unicode="&#x16e;" horiz-adv-x="586" d="M635 642 C629 657 615 664 602 672 L587 672 C561 614 531 562 500 509 C447 434 404 347 350 272 C278 153 198 42 105 -56 C99 -63 85 -63 77 -68 C61 -26 82 20 77 59 C116 228 176 387 257 544 C269 556 281 568 282 589 C274 609 246 615 230 619 C226 614 223 608 215 607 C139 428 62 261 25 47 C22 -22 35 -79 87 -108 C91 -112 108 -104 115 -111 C221 -67 269 59 320 132 C373 208 416 305 467 372 C451 284 412 165 410 72 C408 20 411 -29 447 -63 C457 -62 463 -76 480 -76 C477 -58 463 -50 457 -33 C439 20 465 91 462 147 C489 275 530 419 587 537 C598 577 624 602 635 642 L635 642 Z M405 799 C398 799 394 794 388 792 C356 759 316 667 393 654 C422 669 470 695 475 732 C482 773 445 800 405 799 L405 799 Z M385 694 C396 720 413 740 430 759 C435 728 406 709 385 694 L385 694 Z " />
<glyph glyph-name="uring" unicode="&#x16f;" horiz-adv-x="304" d="M167 130 C185 234 232 308 265 395 C263 396 262 398 262 400 C255 411 245 420 227 420 C156 328 80 226 0 150 C31 234 73 308 100 395 C91 415 66 424 42 410 C14 307 -49 226 -58 110 C-45 98 -42 76 -23 70 C41 89 96 210 150 255 C116 197 116 100 180 83 C207 95 220 119 242 135 C264 182 304 224 310 278 C259 234 220 165 167 130 L167 130 Z M164 594 C157 594 153 589 147 587 C115 554 75 462 152 449 C181 464 229 490 234 527 C241 568 204 595 164 594 L164 594 Z M144 489 C155 515 172 535 189 554 C194 523 165 504 144 489 L144 489 Z " />
<glyph glyph-name="Uhungarumlaut" unicode="&#x170;" horiz-adv-x="586" d="M635 642 C629 657 615 664 602 672 L587 672 C561 614 531 562 500 509 C447 434 404 347 350 272 C278 153 198 42 105 -56 C99 -63 85 -63 77 -68 C61 -26 82 20 77 59 C116 228 176 387 257 544 C269 556 281 568 282 589 C274 609 246 615 230 619 C226 614 223 608 215 607 C139 428 62 261 25 47 C22 -22 35 -79 87 -108 C91 -112 108 -104 115 -111 C221 -67 269 59 320 132 C373 208 416 305 467 372 C451 284 412 165 410 72 C408 20 411 -29 447 -63 C457 -62 463 -76 480 -76 C477 -58 463 -50 457 -33 C439 20 465 91 462 147 C489 275 530 419 587 537 C598 577 624 602 635 642 L635 642 Z M323 732 C306 720 308 695 331 689 C378 716 430 754 466 794 C458 808 456 828 438 832 C399 800 365 764 326 732 C326 735 323 733 323 732 L323 732 Z M521 802 C478 761 410 731 391 674 C405 652 445 679 463 692 C489 710 515 735 531 747 C545 760 538 797 521 802 L521 802 Z M326 732 C326 730 324 729 323 732 L326 732 Z " />
<glyph glyph-name="uhungarumlaut" unicode="&#x171;" horiz-adv-x="304" d="M167 130 C185 234 232 308 265 395 C263 396 262 398 262 400 C255 411 245 420 227 420 C156 328 80 226 0 150 C31 234 73 308 100 395 C91 415 66 424 42 410 C14 307 -49 226 -58 110 C-45 98 -42 76 -23 70 C41 89 96 210 150 255 C116 197 116 100 180 83 C207 95 220 119 242 135 C264 182 304 224 310 278 C259 234 220 165 167 130 L167 130 Z M81 530 C64 518 66 493 89 487 C136 514 188 552 224 592 C216 606 214 626 196 630 C157 598 123 562 84 530 C84 533 81 531 81 530 L81 530 Z M279 600 C236 559 168 529 149 472 C163 450 203 477 221 490 C247 508 273 533 289 545 C303 558 296 595 279 600 L279 600 Z M84 530 C84 528 82 527 81 530 L84 530 Z " />
<glyph glyph-name="Uogonek" unicode="&#x172;" horiz-adv-x="586" d="M635 642 C629 657 615 664 602 672 L587 672 C561 614 531 562 500 509 C447 434 404 347 350 272 C278 153 198 42 105 -56 C99 -63 85 -63 77 -68 C61 -26 82 20 77 59 C116 228 176 387 257 544 C269 556 281 568 282 589 C274 609 246 615 230 619 C226 614 223 608 215 607 C139 428 62 261 25 47 C22 -22 35 -79 87 -108 C91 -112 108 -104 115 -111 C221 -67 269 59 320 132 C373 208 416 305 467 372 C451 284 412 165 410 72 C408 38 409 5 420 -22 L409 -26 C374 -76 297 -220 412 -246 C446 -231 471 -208 487 -176 C453 -181 429 -210 389 -201 C400 -143 434 -110 461 -69 C466 -73 471 -76 480 -76 C477 -58 463 -50 457 -33 C439 20 465 91 462 147 C489 275 530 419 587 537 C598 577 624 602 635 642 L635 642 Z " />
<glyph glyph-name="uogonek" unicode="&#x173;" horiz-adv-x="304" d="M258 194 C264 202 264 211 266 216 C269 216 267 212 271 212 C279 235 305 256 311 279 C270 237 230 194 195 148 L187 154 C181 154 176 152 172 151 C176 187 192 223 206 251 C218 310 256 341 263 404 C260 409 249 408 248 417 C242 418 243 411 238 411 C237 417 234 420 228 421 C180 352 123 291 73 224 C77 224 83 225 83 222 C82 218 79 215 76 214 C76 219 73 220 73 224 C63 217 56 207 48 196 C55 193 56 206 58 199 C56 193 52 188 46 187 C45 191 49 192 48 196 C28 184 22 158 1 146 C29 235 72 307 101 394 C103 399 88 405 93 411 C80 411 82 415 71 419 C31 414 22 350 13 314 C3 309 -12 280 0 279 C-6 277 -2 267 -7 264 C-10 264 -11 265 -12 266 C-14 266 -14 264 -17 264 C-15 256 -18 252 -19 247 C-7 239 -28 224 -29 222 C-27 221 -27 219 -24 219 L-24 216 C-21 216 -22 212 -22 209 C-26 208 -26 211 -29 212 C-36 199 -39 160 -52 169 C-50 159 -55 156 -54 146 C-49 147 -46 146 -47 142 C-52 136 -49 142 -54 144 C-56 129 -56 124 -57 111 C-40 97 -44 73 -12 72 C31 103 63 145 91 191 C93 190 95 189 98 189 C98 195 94 198 96 206 C119 219 127 246 148 259 C149 266 146 276 153 276 C148 234 135 201 123 164 C128 145 136 129 144 113 C128 85 113 56 104 22 C104 -30 121 -65 167 -71 C199 -58 203 -47 222 -26 C215 -24 209 -36 204 -28 C221 -23 229 -10 242 -1 C208 -6 184 -35 144 -26 C156 38 197 72 224 119 C231 127 237 136 243 144 C244 152 236 138 236 146 C240 155 252 156 258 161 C259 181 284 191 286 212 C258 194 246 161 218 144 C225 165 245 174 253 194 C252 193 244 188 243 194 C247 195 248 198 251 199 C251 196 253 196 253 194 L258 194 Z M188 299 C199 303 190 312 198 319 C202 316 203 306 203 319 C217 304 187 278 188 247 C162 223 169 166 141 144 L141 154 C127 177 170 296 187 299 C186 298 186 295 186 294 C188 294 188 297 188 299 L188 299 Z M151 304 C161 323 175 338 191 351 C186 341 174 328 178 316 C125 260 83 192 23 142 C56 185 93 224 126 266 C124 266 121 266 121 264 C116 265 120 276 126 274 L126 266 C135 268 133 281 143 282 C136 287 139 312 151 304 L151 304 Z M-12 219 C-23 229 -5 242 -4 256 C7 249 -12 232 -12 219 L-12 219 Z M151 299 C163 303 168 314 173 324 C166 327 162 305 151 304 L151 299 Z M-29 187 C-31 196 -24 198 -17 199 C-16 190 -19 184 -29 187 L-29 187 Z M-2 164 C-13 170 1 182 1 191 C14 187 -7 177 -2 164 L-2 164 Z M-37 152 C-29 159 -40 169 -27 171 C-31 166 -25 150 -37 152 L-37 152 Z M151 177 C152 169 138 176 141 167 C147 166 150 167 153 169 C153 172 154 176 151 177 L151 177 Z M93 239 C91 247 100 244 98 251 C108 250 101 238 93 239 L93 239 Z M213 334 C205 335 212 322 203 324 C202 331 209 342 213 334 L213 334 Z M151 136 C149 144 154 143 153 149 C157 149 158 133 151 136 L151 136 Z M151 299 C143 301 147 291 143 289 C150 288 151 293 151 299 L151 299 Z M-44 149 C-48 150 -50 153 -49 159 C-45 160 -45 157 -42 156 C-43 154 -44 152 -44 149 L-44 149 Z M221 169 C218 177 226 173 231 174 C230 170 227 168 221 169 L221 169 Z M-39 196 C-38 201 -28 209 -34 212 C-36 207 -41 205 -39 196 L-39 196 Z M-42 196 C-43 195 -47 185 -42 184 C-43 190 -37 189 -39 196 L-42 196 Z M133 279 C126 279 129 290 136 289 C136 284 133 284 133 279 L133 279 Z M-22 171 C-27 174 -29 182 -19 181 C-19 177 -22 176 -22 171 L-22 171 Z M166 239 C167 241 172 249 166 249 C164 247 163 243 163 239 L166 239 Z M146 191 C143 188 143 182 146 179 L148 179 L148 191 L146 191 Z M176 276 C175 275 170 267 176 266 C178 269 179 272 178 276 L176 276 Z M213 334 C216 335 217 337 218 339 C227 338 214 326 213 334 L213 334 Z M86 237 C88 236 88 237 88 239 C93 240 92 228 86 231 L86 237 Z M163 239 C161 238 155 230 161 229 C163 231 164 235 163 239 L163 239 Z M-12 152 C-11 154 -13 154 -14 154 C-15 159 -3 158 -7 152 L-12 152 Z M-9 266 C-7 269 -5 273 -9 274 C-11 272 -12 270 -12 266 L-9 266 Z M211 142 L216 142 L216 136 L211 136 L211 142 Z M156 219 C155 217 150 209 156 209 C153 214 163 217 156 219 L156 219 Z M51 159 L56 159 L56 154 L51 154 L51 159 Z M-24 219 C-24 222 -20 222 -19 219 L-24 219 Z M141 154 C143 154 143 157 143 159 C141 159 141 156 141 154 L141 154 Z M166 164 C166 161 163 162 161 161 C161 164 164 163 166 164 L166 164 Z M38 177 C38 174 35 175 33 174 C33 176 36 176 38 177 L38 177 Z M11 206 C11 204 8 205 6 204 C6 206 9 206 11 206 L11 206 Z M16 214 C16 212 13 212 11 212 C11 214 14 213 16 214 L16 214 Z " />
<glyph glyph-name="Wcircumflex" unicode="&#x174;" horiz-adv-x="604" d="M311 -73 C321 -73 337 -75 353 -70 C421 4 434 119 481 215 C534 388 601 509 691 670 C712 691 726 718 743 742 C737 744 733 747 733 755 C722 752 725 755 716 757 C704 755 691 757 681 750 C671 743 670 730 663 720 C647 694 616 664 611 635 C487 448 413 163 303 -45 C270 50 323 161 341 262 C360 310 394 417 388 472 C374 485 362 486 338 490 C209 364 133 185 48 15 C96 230 178 416 261 620 C257 631 263 635 266 645 C258 662 244 672 226 672 C217 667 215 656 208 650 C210 639 205 635 206 625 C154 496 109 361 56 235 C39 155 -1 82 -2 -13 C10 -36 30 -49 58 -58 C70 -49 76 -36 91 -30 C161 115 224 269 321 387 C299 285 242 152 241 35 C240 4 252 -28 271 -53 C288 -55 293 -70 311 -73 L311 -73 Z M486 879 C448 817 389 775 353 711 C362 704 363 689 378 689 C419 721 454 773 491 801 C491 757 502 713 541 701 C550 721 534 727 528 744 C527 785 538 824 533 866 C515 872 506 880 486 879 L486 879 Z " />
<glyph glyph-name="Ydieresis" unicode="&#x178;" horiz-adv-x="492" d="M481 573 C482 571 480 571 479 570 C401 397 326 222 229 68 C207 35 149 -69 106 -82 C89 -48 82 -2 84 38 C62 22 69 -24 61 -55 C77 -87 93 -120 134 -127 C169 -115 198 -71 226 -32 C342 127 388 275 469 438 C489 479 513 520 534 565 C551 605 567 627 566 673 C556 679 546 684 534 688 C482 657 452 603 416 555 C376 513 342 465 306 418 C231 328 173 221 66 163 C90 316 155 434 214 558 C245 563 244 620 199 610 C171 604 138 515 126 485 C103 429 82 383 66 348 C52 282 -24 160 86 128 C100 130 107 140 126 138 C273 268 377 437 481 575 L481 573 Z M459 740 C447 766 412 772 399 743 C398 719 403 707 422 698 C444 702 459 714 459 740 L459 740 Z M357 728 C352 746 342 760 327 768 C313 759 298 748 297 733 C293 692 348 687 357 728 L357 728 Z " />
<glyph glyph-name="Zacute" unicode="&#x179;" horiz-adv-x="457" d="M-16 -10 C162 182 342 369 531 548 C555 581 588 619 554 660 C501 679 447 649 404 635 C294 593 179 556 94 490 C95 469 108 458 126 453 C249 513 372 576 504 608 C313 401 123 219 -66 10 C-76 -11 -65 -50 -46 -67 C108 -61 247 21 404 -20 C412 -29 418 -37 421 -45 C443 -32 419 -14 419 5 C401 22 376 33 351 43 C207 56 105 13 -16 -10 L-16 -10 Z M406 813 C367 785 323 762 284 735 C284 730 283 726 279 725 C287 713 278 710 284 693 C301 684 310 700 321 705 C325 705 327 704 329 703 C362 735 453 753 426 813 L406 813 Z " />
<glyph glyph-name="zacute" unicode="&#x17a;" horiz-adv-x="305" d="M218 407 C165 316 84 253 18 175 C-10 154 -34 130 -47 95 C-41 81 -38 65 -34 50 C24 62 71 118 126 135 C166 144 220 164 258 177 C255 191 247 199 236 205 C169 207 123 173 78 162 C102 193 137 211 156 247 C204 284 238 335 271 387 C271 402 277 413 276 430 C272 432 272 438 271 442 C259 451 240 457 231 460 C168 449 131 413 83 387 C51 354 4 335 -14 287 C-14 267 -8 252 13 252 C44 272 61 304 88 327 C115 350 146 367 173 390 C191 394 200 406 218 410 L218 407 Z M217 602 C178 574 134 551 95 524 C95 519 94 515 90 514 C98 502 89 499 95 482 C112 473 121 489 132 494 C136 494 138 493 140 492 C173 524 264 542 237 602 L217 602 Z " />
<glyph glyph-name="Zdotaccent" unicode="&#x17b;" horiz-adv-x="457" d="M-16 -10 C162 182 342 369 531 548 C555 581 588 619 554 660 C501 679 447 649 404 635 C294 593 179 556 94 490 C95 469 108 458 126 453 C249 513 372 576 504 608 C313 401 123 219 -66 10 C-76 -11 -65 -50 -46 -67 C108 -61 247 21 404 -20 C412 -29 418 -37 421 -45 C443 -32 419 -14 419 5 C401 22 376 33 351 43 C207 56 105 13 -16 -10 L-16 -10 Z M358 741 C318 778 284 689 335 684 C357 689 369 717 358 741 L358 741 Z " />
<glyph glyph-name="zdotaccent" unicode="&#x17c;" horiz-adv-x="305" d="M218 407 C165 316 84 253 18 175 C-10 154 -34 130 -47 95 C-41 81 -38 65 -34 50 C24 62 71 118 126 135 C166 144 220 164 258 177 C255 191 247 199 236 205 C169 207 123 173 78 162 C102 193 137 211 156 247 C204 284 238 335 271 387 C271 402 277 413 276 430 C272 432 272 438 271 442 C259 451 240 457 231 460 C168 449 131 413 83 387 C51 354 4 335 -14 287 C-14 267 -8 252 13 252 C44 272 61 304 88 327 C115 350 146 367 173 390 C191 394 200 406 218 410 L218 407 Z M174 554 C134 591 100 502 151 497 C173 502 185 530 174 554 L174 554 Z " />
<glyph glyph-name="Zcaron" unicode="&#x17d;" horiz-adv-x="457" d="M-16 -10 C162 182 342 369 531 548 C555 581 588 619 554 660 C501 679 447 649 404 635 C294 593 179 556 94 490 C95 469 108 458 126 453 C249 513 372 576 504 608 C313 401 123 219 -66 10 C-76 -11 -65 -50 -46 -67 C108 -61 247 21 404 -20 C412 -29 418 -37 421 -45 C443 -32 419 -14 419 5 C401 22 376 33 351 43 C207 56 105 13 -16 -10 L-16 -10 Z M509 837 C502 844 492 848 481 852 C434 820 404 771 356 739 C357 773 371 855 306 837 C315 803 316 760 319 719 C330 704 342 689 359 679 C417 723 460 783 509 837 L509 837 Z " />
<glyph glyph-name="zcaron" unicode="&#x17e;" horiz-adv-x="305" d="M218 407 C165 316 84 253 18 175 C-10 154 -34 130 -47 95 C-41 81 -38 65 -34 50 C24 62 71 118 126 135 C166 144 220 164 258 177 C255 191 247 199 236 205 C169 207 123 173 78 162 C102 193 137 211 156 247 C204 284 238 335 271 387 C271 402 277 413 276 430 C272 432 272 438 271 442 C259 451 240 457 231 460 C168 449 131 413 83 387 C51 354 4 335 -14 287 C-14 267 -8 252 13 252 C44 272 61 304 88 327 C115 350 146 367 173 390 C191 394 200 406 218 410 L218 407 Z M293 648 C286 655 276 659 265 663 C218 631 188 582 140 550 C141 584 155 666 90 648 C99 614 100 571 103 530 C114 515 126 500 143 490 C201 534 244 594 293 648 L293 648 Z " />
<glyph glyph-name="Scommaaccent" unicode="&#x218;" horiz-adv-x="496" d="M386 350 C398 355 400 370 403 385 C463 480 553 545 591 657 C584 687 569 692 536 710 C349 663 179 530 78 367 C56 267 87 233 108 210 C169 165 261 139 341 122 C347 108 372 112 373 92 C257 39 123 -30 -4 -10 C-6 -2 -18 -4 -19 5 C-23 33 -24 54 -17 77 C-32 76 -27 56 -42 55 C-37 42 -45 45 -47 10 C-38 -58 15 -72 78 -68 C171 -62 263 -26 346 15 C384 33 406 31 411 82 C408 90 402 95 401 105 C339 186 187 176 113 245 C99 253 102 279 98 297 C153 450 369 587 518 635 C476 563 361 454 343 377 C356 366 365 352 386 350 L386 350 Z M59 -301 C76 -301 79 -287 84 -276 C109 -260 122 -238 142 -208 C165 -172 200 -131 137 -121 C109 -176 51 -226 59 -301 L59 -301 Z M84 -241 C81 -224 99 -206 107 -191 C110 -209 88 -222 84 -241 L84 -241 Z M69 -273 C62 -267 77 -261 74 -251 C86 -254 72 -269 69 -273 L69 -273 Z M114 -211 C108 -207 117 -197 119 -193 C125 -197 115 -205 114 -211 L114 -211 Z M114 -186 C108 -185 114 -176 119 -178 C118 -181 115 -182 114 -186 L114 -186 Z M104 -218 C105 -216 107 -216 107 -213 L112 -213 C113 -218 108 -218 104 -218 L104 -218 Z M99 -226 C100 -224 102 -223 102 -221 C104 -221 104 -223 107 -223 C106 -225 104 -226 104 -228 C102 -228 102 -226 99 -226 L99 -226 Z M119 -171 L124 -171 L124 -176 L119 -176 L119 -171 Z " />
<glyph glyph-name="scommaaccent" unicode="&#x219;" horiz-adv-x="235" d="M208 446 C197 454 188 463 176 471 C101 473 83 416 38 388 C19 356 0 344 -4 303 C8 279 9 243 28 226 C57 212 80 194 103 176 C68 144 -5 117 -54 123 C-54 171 0 187 13 231 C-30 217 -53 184 -89 163 C-99 131 -84 113 -82 83 C-14 35 84 92 141 123 L153 146 C152 160 152 159 153 173 C128 218 74 236 33 266 C35 274 29 275 31 283 C48 319 83 351 111 368 C112 357 112 341 111 328 C123 318 130 302 148 298 C154 360 208 386 208 446 L208 446 Z M-64 -152 C-41 -152 -36 -117 -14 -110 C0 -67 96 0 16 30 C-16 -27 -71 -74 -64 -152 L-64 -152 Z " />
<glyph glyph-name="circumflex" unicode="&#x2c6;" horiz-adv-x="325" d="M190 650 C152 588 93 546 57 482 C66 475 67 460 82 460 C123 492 158 544 195 572 C195 528 206 484 245 472 C254 492 238 498 232 515 C231 556 242 595 237 637 C219 643 210 651 190 650 L190 650 Z " />
<glyph glyph-name="caron" unicode="&#x2c7;" horiz-adv-x="311" d="M265 632 C258 639 248 643 237 647 C190 615 160 566 112 534 C113 568 127 650 62 632 C71 598 72 555 75 514 C86 499 98 484 115 474 C173 518 216 578 265 632 L265 632 Z " />
<glyph glyph-name="breve" unicode="&#x2d8;" horiz-adv-x="335" d="M262 546 L262 541 C265 542 264 546 262 546 C260 573 267 586 252 604 C225 560 190 524 132 511 C131 533 135 546 142 564 C141 582 129 588 122 599 C111 598 99 604 92 596 C81 539 97 475 162 471 C207 482 237 509 262 541 C259 541 259 546 262 546 L262 546 Z " />
<glyph glyph-name="dotaccent" unicode="&#x2d9;" horiz-adv-x="206" d="M127 549 C87 586 53 497 104 492 C126 497 138 525 127 549 L127 549 Z " />
<glyph glyph-name="ring" unicode="&#x2da;" horiz-adv-x="282" d="M136 604 L136 604 C129 604 125 599 119 597 C87 564 47 472 124 459 C153 474 201 500 206 537 C213 578 176 605 136 604 L136 604 Z M116 499 C127 525 144 545 161 564 C166 533 137 514 116 499 L116 499 Z " />
<glyph glyph-name="ogonek" unicode="&#x2db;" horiz-adv-x="330" d="M223 68 C213 82 199 93 186 103 C177 103 171 100 163 98 C128 48 51 -96 166 -122 C200 -107 225 -84 241 -52 C207 -57 183 -86 143 -77 C155 -13 196 21 223 68 L223 68 Z " />
<glyph glyph-name="tilde" unicode="&#x2dc;" horiz-adv-x="338" d="M106 493 C122 510 134 530 154 543 C159 503 184 483 221 476 C267 497 279 538 284 586 C254 574 238 527 199 516 C201 541 200 574 186 591 C115 612 90 531 54 493 C60 474 99 478 106 493 C105 493 104 495 106 496 L106 493 L106 493 Z " />
<glyph glyph-name="hungarumlaut" unicode="&#x2dd;" horiz-adv-x="351" d="M76 527 L76 527 C59 515 61 490 84 484 C131 511 183 549 219 589 C211 603 209 623 191 627 C152 595 118 559 79 527 C79 525 77 524 76 527 L76 527 Z M274 597 L274 597 C231 556 163 526 144 469 C158 447 198 474 216 487 C242 505 268 530 284 542 C298 555 291 592 274 597 L274 597 Z M76 527 L79 527 C79 530 76 528 76 527 L76 527 Z " />
<glyph glyph-name="Wacute" unicode="&#x1e82;" horiz-adv-x="604" d="M311 -73 C321 -73 337 -75 353 -70 C421 4 434 119 481 215 C534 388 601 509 691 670 C712 691 726 718 743 742 C737 744 733 747 733 755 C722 752 725 755 716 757 C704 755 691 757 681 750 C671 743 670 730 663 720 C647 694 616 664 611 635 C487 448 413 163 303 -45 C270 50 323 161 341 262 C360 310 394 417 388 472 C374 485 362 486 338 490 C209 364 133 185 48 15 C96 230 178 416 261 620 C257 631 263 635 266 645 C258 662 244 672 226 672 C217 667 215 656 208 650 C210 639 205 635 206 625 C154 496 109 361 56 235 C39 155 -1 82 -2 -13 C10 -36 30 -49 58 -58 C70 -49 76 -36 91 -30 C161 115 224 269 321 387 C299 285 242 152 241 35 C240 4 252 -28 271 -53 C288 -55 293 -70 311 -73 L311 -73 Z M506 815 C467 787 423 764 384 737 C384 732 383 728 379 727 C387 715 378 712 384 695 C401 686 410 702 421 707 C425 707 427 706 429 705 C462 737 553 755 526 815 L506 815 Z " />
<glyph glyph-name="endash" unicode="&#x2013;" horiz-adv-x="504" d="M403 291 C294 287 144 302 48 271 C42 260 44 249 48 236 C161 235 265 240 383 244 C390 255 405 257 408 271 C406 278 406 285 403 291 L403 291 Z " />
<glyph glyph-name="emdash" unicode="&#x2014;" horiz-adv-x="752" d="M623 300 C444 316 229 309 58 270 C55 254 48 249 56 233 C83 226 114 237 141 240 C288 255 454 259 608 253 C618 262 631 280 623 300 L623 300 Z " />
<glyph glyph-name="quoteleft" unicode="&#x2018;" horiz-adv-x="195" d="M93 686 C83 620 55 579 43 521 C47 499 62 476 83 479 C85 550 137 603 141 671 C136 673 132 676 131 681 C114 676 114 690 93 686 L93 686 Z " />
<glyph glyph-name="quoteright" unicode="&#x2019;" horiz-adv-x="203" d="M93 686 C83 620 55 579 43 521 C47 499 62 476 83 479 C85 550 137 603 141 671 C136 673 132 676 131 681 C114 676 114 690 93 686 L93 686 Z " />
<glyph glyph-name="quotedblleft" unicode="&#x201c;" horiz-adv-x="218" d="M177 710 L177 710 C155 622 104 549 110 452 C125 445 138 410 157 430 C138 457 160 504 170 532 C183 584 203 629 217 680 C205 691 190 699 177 710 L177 710 Z M60 655 C49 589 24 553 10 490 C14 468 29 444 50 447 C51 518 103 572 107 640 C102 641 99 645 97 650 C81 645 81 659 60 655 L60 655 Z " />
<glyph glyph-name="quotedblright" unicode="&#x201d;" horiz-adv-x="218" d="M177 710 L177 710 C155 622 104 549 110 452 C125 445 138 410 157 430 C138 457 160 504 170 532 C183 584 203 629 217 680 C205 691 190 699 177 710 L177 710 Z M60 655 C49 589 24 553 10 490 C14 468 29 444 50 447 C51 518 103 572 107 640 C102 641 99 645 97 650 C81 645 81 659 60 655 L60 655 Z " />
<glyph glyph-name="bullet" unicode="&#x2022;" horiz-adv-x="187" d="M123 329 C71 376 27 261 93 255 C121 261 137 298 123 329 L123 329 Z " />
<glyph glyph-name="guilsinglleft" unicode="&#x2039;" horiz-adv-x="484" d="M449 496 C448 498 447 499 444 499 C307 430 171 362 51 276 C52 267 46 265 41 261 C42 240 35 229 41 204 C81 178 130 162 186 154 C196 146 214 146 224 139 C261 135 285 118 314 106 C326 96 342 79 356 79 C360 94 348 104 349 121 C282 180 183 207 86 236 C121 270 161 299 211 316 C284 365 367 403 454 439 C462 451 468 491 449 496 L449 496 Z " />
<glyph glyph-name="guilsinglright" unicode="&#x203a;" horiz-adv-x="419" d="M1 50 C85 168 251 204 376 283 C376 287 377 291 381 293 C383 313 379 327 373 340 C291 395 175 415 86 463 C85 467 82 462 78 463 L73 463 C69 445 74 432 78 413 C149 365 247 351 333 318 C222 253 31 207 -9 83 C-3 70 -9 60 1 50 L1 50 Z " />
<glyph glyph-name="fraction" unicode="&#x2044;" horiz-adv-x="282" d="M352 684 L344 684 C343 681 339 681 337 679 C203 418 28 205 -73 -73 C-66 -89 -55 -103 -43 -108 C48 145 217 358 339 597 C349 599 347 612 357 614 C361 637 371 670 352 684 L352 684 Z " />
</font>
</svg>
