<svg width="119" height="122" viewBox="0 0 119 122" fill="none" xmlns="http://www.w3.org/2000/svg">
<path d="M78.4843 0.365936C75.3463 1.21654 73.064 2.68576 69.8222 5.9335C61.212 14.5684 51.5384 32.7145 43.9137 54.5724C42.617 58.3099 42.3576 58.8254 41.6833 59.1605C41.2684 59.3667 40.1272 60.372 39.1677 61.403L37.4041 63.2588L39.3233 59.3925C43.2653 51.4793 45.755 44.1074 45.8328 40.1122C45.8588 38.3852 45.781 38.0244 45.366 37.715C44.6917 37.2253 43.7062 37.2511 42.6429 37.8181C39.7382 39.2874 35.07 53.0259 34.6551 61.3257C34.5254 64.2125 34.4735 64.3414 33.4621 66.0942C31.6467 69.2388 28.1455 74.4455 25.7595 77.5386C20.4948 84.395 15.6192 88.9573 11.3918 90.9936C7.34607 92.9525 4.62295 92.0246 2.80753 88.0809C1.66642 85.5807 1.30334 82.9258 1.45894 77.951C1.9517 60.8875 11.5475 40.0349 22.7252 31.6577C27.964 27.7398 32.9953 26.4253 37.5079 27.8171C40.9831 28.874 43.395 31.2711 46.8702 37.0191C48.0632 38.9781 47.9595 37.8181 46.7405 35.6014C43.4469 29.5957 40.5681 27.0439 36.0815 26.1159C31.8801 25.2396 26.6154 26.8119 21.8175 30.3947C19.6131 32.0444 15.697 36.1685 13.7519 38.8492C11.3918 42.1227 8.59092 47.0717 6.72364 51.2731C-2.19782 71.3782 -2.24969 91.5864 6.6199 93.5196C12.922 94.9115 23.4514 85.6322 33.4362 69.8832C35.4331 66.687 35.5368 66.5839 36.0815 66.9448C36.8595 67.4603 37.5857 67.151 39.3233 65.5013C40.5941 64.2899 40.7756 64.161 40.5422 64.7796C40.0754 66.0426 37.7413 74.2135 36.4186 79.3687C33.1768 91.9215 30.3499 106.949 29.3644 116.718C29.131 119.295 29.131 119.759 29.52 120.584C29.7535 121.125 30.1684 121.667 30.4278 121.847C30.8686 122.105 30.9983 122.053 31.3355 121.564C31.5429 121.229 32.71 117.079 33.903 112.336C35.096 107.593 37.3004 99.3192 38.8046 93.932C44.0952 75.0126 45.7291 67.6407 45.8069 62.6144C45.8069 61.2741 45.7032 59.9338 45.5476 59.6502C45.2363 59.0574 46.6368 54.9848 50.0342 46.5046C59.1891 23.7703 70.0038 7.60893 78.3547 4.20653C80.9481 3.14972 83.2822 3.56213 83.9824 5.21178C85.6682 9.2328 83.7231 18.5379 78.8993 29.5183C74.1014 40.4215 60.7711 62.8464 54.858 69.9348C52.3164 73.0021 50.6566 75.425 50.6566 76.0952C50.6566 76.8169 51.4606 78.0541 52.0571 78.2346C52.7314 78.4665 53.7169 77.384 56.6994 73.1052C61.6269 66.0684 71.0152 58.1552 79.0549 54.2115C85.4088 51.1185 89.299 50.5256 94.2525 51.8917C95.627 52.2526 97.3387 52.5619 98.0389 52.5619C102.007 52.5619 107.505 49.5977 112.303 44.9065C115.208 42.0712 119.176 37.5862 118.994 37.4057C118.864 37.2511 118.527 37.4831 113.937 40.7824C110.176 43.4888 104.626 46.9686 102.085 48.2316C99.3097 49.5977 98.1945 49.7008 94.8231 48.8502C92.9039 48.3604 91.5294 48.18 89.7399 48.18C83.6194 48.18 75.9168 51.4278 68.1883 57.2531C67.0732 58.1037 66.2173 58.7223 66.2692 58.5934C66.347 58.4645 67.6437 56.3252 69.1479 53.8507C78.4325 38.4368 83.8009 27.0696 86.3944 17.2491C87.2761 13.9498 87.3021 13.5374 87.328 9.38746C87.3539 5.34066 87.3021 4.90247 86.7574 3.69101C85.3051 0.494815 82.3745 -0.665095 78.4843 0.365936ZM43.2653 43.463C42.4354 47.1232 39.816 54.16 38.0006 57.5882C37.2485 58.9801 37.2745 58.3099 38.1044 54.6755C39.3492 49.1853 41.2165 43.8239 42.6688 41.6072C43.4209 40.4473 43.5247 40.3957 43.6025 40.9112C43.6543 41.2463 43.4987 42.4062 43.2653 43.463ZM42.5392 68.3367C42.4613 68.5429 42.3835 68.4656 42.3835 68.182C42.3576 67.8985 42.4354 67.7438 42.5132 67.8469C42.591 67.9243 42.617 68.1562 42.5392 68.3367ZM41.4499 73.5692C39.9198 80.2451 35.5628 96.3807 35.4072 95.9168C35.3034 95.6074 37.1448 87.3592 38.4674 82.204C40.1532 75.7343 42.202 68.646 42.3057 69.0842C42.3576 69.3162 41.9686 71.3524 41.4499 73.5692ZM35.2775 96.9478C35.1997 97.154 35.1219 97.0767 35.1219 96.7931C35.096 96.5096 35.1738 96.3549 35.2516 96.458C35.3294 96.5354 35.3553 96.7674 35.2775 96.9478Z" fill="black"/>
</svg>
