<svg width="800" height="600" viewBox="0 0 800 600" fill="none" xmlns="http://www.w3.org/2000/svg">
<rect width="800" height="600" fill="white"/>
<rect x="20.9375" y="20.9375" width="758.125" height="558.125" stroke="#F8F9F9" stroke-width="1.875"/>
<path fill-rule="evenodd" clip-rule="evenodd" d="M319.877 239.715C291.593 236.198 262.219 238.522 231.753 246.685L78.75 287.682L162.435 600H408.22C410.546 598.388 412.833 596.731 415.083 595.03C437.82 577.843 456.078 557.894 469.859 535.181C483.641 512.469 492.616 487.974 496.787 461.695C500.958 435.415 499.769 410.059 492.736 383.81C485.703 357.561 474.053 335.008 457.302 314.335C440.551 293.662 420.53 276.936 397.239 264.157C373.948 251.378 348.161 243.231 319.877 239.715ZM208.547 485.411L303.045 304.193L294.972 411.348L378.869 388.868L280.557 571.108L292.444 462.931L208.547 485.411Z" fill="#F8F9F9"/>
<path fill-rule="evenodd" clip-rule="evenodd" d="M325.661 60.9042C324.177 60.3014 322.549 60 320.776 60H311.875V82.5H320.776C322.549 82.5 324.177 82.1986 325.661 81.5958C327.145 80.993 328.427 80.1749 329.505 79.1414C330.583 78.108 331.427 76.9078 332.035 75.5407C332.644 74.1736 332.948 72.7786 332.948 71.25C332.948 69.7214 332.644 68.3264 332.035 66.9593C331.427 65.5922 330.583 64.392 329.505 63.3586C328.427 62.3251 327.145 61.507 325.661 60.9042ZM316.045 72.633L323.81 64.1625L321.813 69.8671H326.694L318.707 78.3375L320.926 72.633H316.045Z" fill="#2E3136"/>
<path d="M466.825 66.4666C467.124 66.7452 467.498 66.8845 467.946 66.8845C468.395 66.8845 468.768 66.7452 469.067 66.4666C469.366 66.1781 469.516 65.8099 469.516 65.3622C469.516 64.9144 469.366 64.5463 469.067 64.2578C468.768 63.9692 468.395 63.825 467.946 63.825C467.498 63.825 467.124 63.9692 466.825 64.2578C466.526 64.5463 466.377 64.9144 466.377 65.3622C466.377 65.8099 466.526 66.1781 466.825 66.4666Z" fill="#2E3136"/>
<path d="M469.187 67.9441H466.691V75.8094H469.187V67.9441Z" fill="#2E3136"/>
<path d="M399.174 67.974C398.805 67.8247 398.387 67.7501 397.918 67.7501C397.48 67.7501 397.081 67.8148 396.723 67.9441C396.374 68.0635 396.065 68.2327 395.796 68.4516V64.8995H393.3V75.8094H395.796V71.2126C395.796 70.8544 395.925 70.556 396.185 70.3172C396.454 70.0784 396.777 69.959 397.156 69.959C397.535 69.959 397.849 70.0784 398.098 70.3172C398.357 70.546 398.486 70.8743 398.486 71.3022V75.8094H400.983V70.8097C400.983 70.3619 400.908 69.949 400.758 69.5709C400.619 69.1928 400.415 68.8695 400.146 68.6008C399.877 68.3322 399.553 68.1232 399.174 67.974Z" fill="#2E3136"/>
<path d="M346.044 76.0034C345.028 76.0034 344.156 75.7696 343.429 75.302C342.711 74.8244 342.223 74.1478 341.964 73.2722L344.325 72.3618C344.455 72.8494 344.689 73.2225 345.028 73.4812C345.377 73.7299 345.795 73.8543 346.284 73.8543C346.712 73.8543 347.036 73.7747 347.255 73.6155C347.474 73.4563 347.584 73.2324 347.584 72.9439C347.584 72.6355 347.454 72.3967 347.195 72.2275C346.946 72.0484 346.627 71.8942 346.239 71.7649C345.86 71.6256 345.446 71.4912 344.998 71.3619C344.55 71.2226 344.131 71.0385 343.742 70.8097C343.364 70.5709 343.045 70.2624 342.786 69.8843C342.537 69.4963 342.412 68.9938 342.412 68.377C342.412 67.9193 342.492 67.5014 342.651 67.1233C342.821 66.7353 343.065 66.4019 343.384 66.1233C343.713 65.8447 344.111 65.6308 344.58 65.4816C345.048 65.3224 345.586 65.2428 346.194 65.2428C347.19 65.2428 348.017 65.4716 348.675 65.9293C349.333 66.3771 349.756 66.9591 349.946 67.6755L347.599 68.5859C347.489 68.168 347.3 67.8596 347.031 67.6606C346.772 67.4616 346.453 67.3621 346.074 67.3621C345.686 67.3621 345.392 67.4417 345.192 67.6009C345.003 67.7501 344.908 67.9441 344.908 68.1829C344.908 68.4814 345.038 68.7153 345.297 68.8844C345.556 69.0436 345.875 69.1879 346.254 69.3172L347.509 69.7351C347.958 69.8744 348.371 70.0684 348.75 70.3172C349.138 70.5659 349.462 70.8942 349.721 71.3022C349.981 71.7002 350.11 72.2275 350.11 72.8842C350.11 73.3419 350.015 73.7648 349.826 74.1528C349.647 74.5309 349.383 74.8592 349.034 75.1378C348.685 75.4065 348.257 75.6204 347.748 75.7796C347.25 75.9288 346.682 76.0034 346.044 76.0034Z" fill="#2E3136"/>
<path d="M358.9 67.9441V75.8094H356.568V75.1527C356.289 75.4114 355.96 75.6204 355.581 75.7796C355.213 75.9288 354.809 76.0034 354.371 76.0034C353.862 76.0034 353.419 75.9238 353.04 75.7646C352.662 75.6055 352.343 75.3866 352.084 75.108C351.835 74.8194 351.645 74.4861 351.516 74.108C351.396 73.72 351.336 73.3021 351.336 72.8543V67.9441H353.833V72.526C353.833 72.8941 353.942 73.1976 354.161 73.4364C354.391 73.6752 354.709 73.7946 355.118 73.7946C355.517 73.7946 355.83 73.6802 356.06 73.4513C356.299 73.2125 356.418 72.9041 356.418 72.526V67.9441H358.9Z" fill="#2E3136"/>
<path fill-rule="evenodd" clip-rule="evenodd" d="M366.643 68.0785C366.174 67.8695 365.656 67.7651 365.088 67.7651C364.61 67.7651 364.171 67.8446 363.773 68.0038C363.384 68.1531 363.045 68.372 362.756 68.6605V67.9441H360.454V78.4809H362.951V75.3169C363.22 75.5358 363.529 75.705 363.877 75.8243C364.226 75.9437 364.61 76.0034 365.028 76.0034C365.596 76.0034 366.119 75.899 366.598 75.69C367.076 75.4811 367.49 75.1925 367.838 74.8244C368.187 74.4563 368.456 74.0234 368.646 73.526C368.845 73.0185 368.944 72.4713 368.944 71.8842C368.944 71.2972 368.85 70.755 368.66 70.2575C368.471 69.75 368.207 69.3122 367.868 68.9441C367.529 68.576 367.121 68.2874 366.643 68.0785ZM365.97 73.2722C365.631 73.6304 365.198 73.8095 364.67 73.8095C364.112 73.8095 363.663 73.6354 363.324 73.2872C362.995 72.929 362.831 72.4613 362.831 71.8842C362.831 71.3072 363 70.8395 363.339 70.4813C363.678 70.1231 364.121 69.944 364.67 69.944C365.198 69.944 365.631 70.1281 365.97 70.4963C366.309 70.8544 366.478 71.3171 366.478 71.8842C366.478 72.4514 366.309 72.914 365.97 73.2722Z" fill="#2E3136"/>
<path fill-rule="evenodd" clip-rule="evenodd" d="M372.232 72.6156C372.361 73.0633 372.591 73.4016 372.92 73.6304C373.248 73.8593 373.652 73.9737 374.13 73.9737C374.579 73.9737 374.922 73.904 375.162 73.7647C375.401 73.6155 375.6 73.4115 375.76 73.1528L377.628 74.3916C377.469 74.6005 377.284 74.8045 377.075 75.0035C376.866 75.1925 376.617 75.3617 376.328 75.5109C376.049 75.6602 375.72 75.7796 375.341 75.8691C374.972 75.9587 374.544 76.0034 374.056 76.0034C373.408 76.0034 372.82 75.899 372.292 75.69C371.774 75.4811 371.33 75.1925 370.961 74.8244C370.593 74.4563 370.309 74.0234 370.109 73.526C369.91 73.0185 369.81 72.4713 369.81 71.8842C369.81 71.3171 369.915 70.7848 370.124 70.2873C370.344 69.7799 370.638 69.3421 371.006 68.9739C371.375 68.5959 371.808 68.2974 372.307 68.0785C372.805 67.8596 373.338 67.7501 373.906 67.7501C374.554 67.7501 375.127 67.8695 375.625 68.1083C376.133 68.3372 376.562 68.6406 376.91 69.0187C377.269 69.3869 377.538 69.8097 377.718 70.2873C377.907 70.755 378.002 71.2325 378.002 71.7201C378.002 71.9191 377.997 72.0932 377.987 72.2424C377.977 72.3817 377.962 72.5061 377.942 72.6156H372.232ZM375.685 71.0634C375.575 70.6157 375.376 70.2624 375.087 70.0037C374.798 69.7451 374.424 69.6157 373.966 69.6157C373.507 69.6157 373.124 69.7401 372.815 69.9888C372.516 70.2276 372.312 70.5858 372.202 71.0634H375.685Z" fill="#2E3136"/>
<path d="M382.487 67.9889C382.118 68.1481 381.799 68.3571 381.53 68.6158V67.9441H379.183V75.8094H381.68V71.6007C381.68 71.0833 381.854 70.7002 382.203 70.4515C382.552 70.2027 383.055 70.0784 383.712 70.0784V67.7501C383.264 67.7501 382.855 67.8297 382.487 67.9889Z" fill="#2E3136"/>
<path d="M388.419 76.0034C387.821 76.0034 387.263 75.899 386.745 75.69C386.237 75.4811 385.794 75.1925 385.415 74.8244C385.046 74.4563 384.752 74.0234 384.533 73.526C384.324 73.0185 384.219 72.4763 384.219 71.8992C384.219 71.3221 384.324 70.7848 384.533 70.2873C384.742 69.7799 385.031 69.3421 385.4 68.9739C385.779 68.5959 386.222 68.3023 386.73 68.0934C387.248 67.8745 387.806 67.7651 388.404 67.7651C388.962 67.7651 389.461 67.8496 389.899 68.0188C390.347 68.178 390.731 68.3869 391.05 68.6456C391.369 68.8943 391.628 69.1729 391.827 69.4814C392.037 69.7898 392.181 70.0883 392.261 70.3769L390.049 71.2574C389.949 70.8793 389.765 70.5709 389.495 70.3321C389.226 70.0933 388.883 69.9739 388.464 69.9739C387.976 69.9739 387.562 70.143 387.223 70.4813C386.895 70.8196 386.73 71.2873 386.73 71.8842C386.73 72.4812 386.895 72.9489 387.223 73.2872C387.562 73.6255 387.976 73.7946 388.464 73.7946C388.893 73.7946 389.246 73.6752 389.525 73.4364C389.804 73.1976 389.994 72.8991 390.093 72.5409L392.306 73.4215C392.226 73.7001 392.081 73.9936 391.872 74.302C391.673 74.6005 391.409 74.8791 391.08 75.1378C390.761 75.3866 390.377 75.5955 389.929 75.7646C389.481 75.9238 388.977 76.0034 388.419 76.0034Z" fill="#2E3136"/>
<path fill-rule="evenodd" clip-rule="evenodd" d="M410.651 67.9441V75.8094H408.349V75.093C408.07 75.3816 407.741 75.6055 407.362 75.7646C406.993 75.9238 406.565 76.0034 406.077 76.0034C405.509 76.0034 404.981 75.899 404.492 75.69C404.014 75.4811 403.6 75.1925 403.252 74.8244C402.903 74.4563 402.629 74.0234 402.43 73.526C402.24 73.0185 402.146 72.4713 402.146 71.8842C402.146 71.2972 402.24 70.7599 402.43 70.2724C402.629 69.7849 402.903 69.367 403.252 69.0187C403.6 68.6705 404.014 68.4018 404.492 68.2128C404.981 68.0138 405.509 67.9143 406.077 67.9143C407.023 67.9143 407.781 68.1979 408.349 68.765V67.9441H410.651ZM406.435 73.8095C406.984 73.8095 407.422 73.6304 407.751 73.2722C408.09 72.914 408.259 72.4514 408.259 71.8842C408.259 71.3072 408.09 70.8395 407.751 70.4813C407.422 70.1231 406.984 69.944 406.435 69.944C405.907 69.944 405.474 70.1281 405.135 70.4963C404.796 70.8544 404.627 71.3171 404.627 71.8842C404.627 72.4514 404.791 72.914 405.12 73.2722C405.459 73.6304 405.897 73.8095 406.435 73.8095Z" fill="#2E3136"/>
<path d="M415.493 67.9889C415.124 68.1481 414.805 68.3571 414.536 68.6158V67.9441H412.189V75.8094H414.685V71.6007C414.685 71.0833 414.86 70.7002 415.209 70.4515C415.557 70.2027 416.061 70.0784 416.718 70.0784V67.7501C416.27 67.7501 415.861 67.8297 415.493 67.9889Z" fill="#2E3136"/>
<path fill-rule="evenodd" clip-rule="evenodd" d="M425.745 74.5707C425.745 75.1776 425.645 75.7298 425.446 76.2273C425.256 76.7348 424.972 77.1676 424.594 77.5258C424.225 77.8939 423.767 78.1775 423.218 78.3765C422.67 78.5755 422.048 78.6749 421.35 78.6749C420.224 78.6749 419.337 78.461 418.689 78.0332C418.052 77.6054 417.603 77.0581 417.344 76.3915L419.452 75.5706C419.611 75.9288 419.855 76.1875 420.184 76.3467C420.523 76.5159 420.917 76.6004 421.365 76.6004C422.023 76.6004 422.531 76.4363 422.89 76.1079C423.258 75.7796 423.443 75.3468 423.443 74.8095V74.5856C423.164 74.8741 422.835 75.098 422.456 75.2572C422.087 75.4065 421.659 75.4811 421.171 75.4811C420.603 75.4811 420.075 75.3816 419.586 75.1826C419.108 74.9836 418.694 74.71 418.346 74.3617C418.007 74.0135 417.738 73.6056 417.538 73.1379C417.349 72.6703 417.254 72.1728 417.254 71.6455C417.254 71.1181 417.349 70.6206 417.538 70.153C417.738 69.6754 418.012 69.2625 418.361 68.9142C418.709 68.5561 419.123 68.2775 419.601 68.0785C420.08 67.8695 420.603 67.7651 421.171 67.7651C421.659 67.7651 422.087 67.8446 422.456 68.0038C422.835 68.1531 423.164 68.372 423.443 68.6605V67.9441H425.745V74.5707ZM421.5 73.5857C422.038 73.5857 422.471 73.4115 422.8 73.0633C423.129 72.7151 423.293 72.2822 423.293 71.7649C423.293 71.2475 423.129 70.8147 422.8 70.4664C422.471 70.1182 422.038 69.944 421.5 69.944C421.25 69.944 421.016 69.9938 420.797 70.0933C420.578 70.1828 420.388 70.3122 420.229 70.4813C420.07 70.6405 419.945 70.8296 419.855 71.0485C419.766 71.2674 419.721 71.5062 419.721 71.7649C419.721 72.0136 419.766 72.2524 419.855 72.4812C419.945 72.7001 420.07 72.8941 420.229 73.0633C420.388 73.2225 420.578 73.3518 420.797 73.4513C421.016 73.5409 421.25 73.5857 421.5 73.5857Z" fill="#2E3136"/>
<path fill-rule="evenodd" clip-rule="evenodd" d="M430.034 73.6304C429.705 73.4016 429.476 73.0633 429.346 72.6156H435.056C435.076 72.5061 435.091 72.3817 435.101 72.2424C435.111 72.0932 435.116 71.9191 435.116 71.7201C435.116 71.2325 435.021 70.755 434.832 70.2873C434.653 69.8097 434.384 69.3869 434.025 69.0187C433.676 68.6406 433.248 68.3372 432.739 68.1083C432.241 67.8695 431.668 67.7501 431.02 67.7501C430.452 67.7501 429.919 67.8596 429.421 68.0785C428.923 68.2974 428.489 68.5959 428.121 68.9739C427.752 69.3421 427.458 69.7799 427.239 70.2873C427.029 70.7848 426.925 71.3171 426.925 71.8842C426.925 72.4713 427.024 73.0185 427.224 73.526C427.423 74.0234 427.707 74.4563 428.076 74.8244C428.444 75.1925 428.888 75.4811 429.406 75.69C429.934 75.899 430.522 76.0034 431.17 76.0034C431.658 76.0034 432.087 75.9587 432.455 75.8691C432.834 75.7796 433.163 75.6602 433.442 75.5109C433.731 75.3617 433.98 75.1925 434.189 75.0035C434.398 74.8045 434.583 74.6005 434.742 74.3916L432.874 73.1528C432.714 73.4115 432.515 73.6155 432.276 73.7647C432.037 73.904 431.693 73.9737 431.245 73.9737C430.766 73.9737 430.363 73.8593 430.034 73.6304ZM432.201 70.0037C432.49 70.2624 432.69 70.6157 432.799 71.0634H429.316C429.426 70.5858 429.63 70.2276 429.929 69.9888C430.238 69.7401 430.622 69.6157 431.08 69.6157C431.539 69.6157 431.912 69.7451 432.201 70.0037Z" fill="#2E3136"/>
<path fill-rule="evenodd" clip-rule="evenodd" d="M443.5 65.4368C444.297 65.4368 445.02 65.5612 445.668 65.8099C446.325 66.0487 446.888 66.392 447.357 66.8397C447.835 67.2875 448.204 67.8297 448.463 68.4665C448.722 69.1033 448.851 69.8197 448.851 70.6157C448.851 71.4116 448.722 72.133 448.463 72.7797C448.204 73.4165 447.835 73.9588 447.357 74.4065C446.888 74.8542 446.325 75.2025 445.668 75.4512C445.02 75.69 444.297 75.8094 443.5 75.8094H439.375V65.4368H443.5ZM443.425 73.6006C444.302 73.6006 445.005 73.3518 445.533 72.8543C446.061 72.3469 446.325 71.6106 446.325 70.6455C446.325 69.6605 446.061 68.9142 445.533 68.4068C445.005 67.8994 444.302 67.6457 443.425 67.6457H441.871V73.6006H443.425Z" fill="#2E3136"/>
<path fill-rule="evenodd" clip-rule="evenodd" d="M452.916 73.6304C452.587 73.4016 452.358 73.0633 452.229 72.6156H457.938C457.958 72.5061 457.973 72.3817 457.983 72.2424C457.993 72.0932 457.998 71.9191 457.998 71.7201C457.998 71.2325 457.904 70.755 457.714 70.2873C457.535 69.8097 457.266 69.3869 456.907 69.0187C456.558 68.6406 456.13 68.3372 455.622 68.1083C455.123 67.8695 454.55 67.7501 453.903 67.7501C453.335 67.7501 452.802 67.8596 452.303 68.0785C451.805 68.2974 451.372 68.5959 451.003 68.9739C450.634 69.3421 450.34 69.7799 450.121 70.2873C449.912 70.7848 449.807 71.3171 449.807 71.8842C449.807 72.4713 449.907 73.0185 450.106 73.526C450.305 74.0234 450.589 74.4563 450.958 74.8244C451.327 75.1925 451.77 75.4811 452.288 75.69C452.817 75.899 453.404 76.0034 454.052 76.0034C454.54 76.0034 454.969 75.9587 455.338 75.8691C455.716 75.7796 456.045 75.6602 456.324 75.5109C456.613 75.3617 456.862 75.1925 457.072 75.0035C457.281 74.8045 457.465 74.6005 457.625 74.3916L455.756 73.1528C455.597 73.4115 455.397 73.6155 455.158 73.7647C454.919 73.904 454.575 73.9737 454.127 73.9737C453.649 73.9737 453.245 73.8593 452.916 73.6304ZM455.084 70.0037C455.373 70.2624 455.572 70.6157 455.681 71.0634H452.199C452.308 70.5858 452.513 70.2276 452.812 69.9888C453.12 69.7401 453.504 69.6157 453.962 69.6157C454.421 69.6157 454.795 69.7451 455.084 70.0037Z" fill="#2E3136"/>
<path d="M462.112 76.0034C461.215 76.0034 460.463 75.8243 459.855 75.4662C459.247 75.108 458.828 74.5856 458.599 73.8991L460.662 73.1081C460.772 73.4364 460.951 73.6901 461.2 73.8692C461.459 74.0483 461.793 74.1379 462.202 74.1379C462.49 74.1379 462.705 74.0881 462.844 73.9886C462.994 73.8792 463.068 73.7349 463.068 73.5558C463.068 73.3469 462.964 73.1827 462.755 73.0633C462.555 72.9439 462.301 72.8344 461.992 72.735C461.693 72.6355 461.364 72.536 461.006 72.4365C460.657 72.327 460.328 72.1827 460.019 72.0036C459.72 71.8245 459.466 71.5957 459.257 71.3171C459.058 71.0286 458.958 70.6604 458.958 70.2127C458.958 69.4466 459.247 68.8496 459.825 68.4217C460.413 67.9839 461.205 67.7651 462.202 67.7651C463.009 67.7651 463.686 67.9193 464.234 68.2277C464.782 68.5262 465.136 68.954 465.296 69.5112L463.233 70.3172C463.053 69.8197 462.695 69.5709 462.157 69.5709C461.648 69.5709 461.394 69.7451 461.394 70.0933C461.394 70.2823 461.494 70.4266 461.693 70.5261C461.903 70.6256 462.157 70.7201 462.456 70.8097C462.765 70.8893 463.093 70.9788 463.442 71.0783C463.801 71.1778 464.13 71.3171 464.429 71.4962C464.738 71.6753 464.992 71.9141 465.191 72.2126C465.4 72.5111 465.505 72.9041 465.505 73.3916C465.505 74.2075 465.201 74.8493 464.593 75.3169C463.985 75.7746 463.158 76.0034 462.112 76.0034Z" fill="#2E3136"/>
<path fill-rule="evenodd" clip-rule="evenodd" d="M478.903 74.5707C478.903 75.1776 478.803 75.7298 478.604 76.2273C478.415 76.7348 478.131 77.1676 477.752 77.5258C477.383 77.8939 476.925 78.1775 476.377 78.3765C475.829 78.5755 475.206 78.6749 474.509 78.6749C473.383 78.6749 472.496 78.461 471.848 78.0332C471.21 77.6054 470.762 77.0581 470.503 76.3915L472.61 75.5706C472.77 75.9288 473.014 76.1875 473.343 76.3467C473.682 76.5159 474.075 76.6004 474.524 76.6004C475.181 76.6004 475.689 76.4363 476.048 76.1079C476.417 75.7796 476.601 75.3468 476.601 74.8095V74.5856C476.322 74.8741 475.993 75.098 475.615 75.2572C475.246 75.4065 474.818 75.4811 474.329 75.4811C473.761 75.4811 473.233 75.3816 472.745 75.1826C472.266 74.9836 471.853 74.71 471.504 74.3617C471.165 74.0135 470.896 73.6056 470.697 73.1379C470.508 72.6703 470.413 72.1728 470.413 71.6455C470.413 71.1181 470.508 70.6206 470.697 70.153C470.896 69.6754 471.17 69.2625 471.519 68.9142C471.868 68.5561 472.281 68.2775 472.76 68.0785C473.238 67.8695 473.761 67.7651 474.329 67.7651C474.818 67.7651 475.246 67.8446 475.615 68.0038C475.993 68.1531 476.322 68.372 476.601 68.6605V67.9441H478.903V74.5707ZM474.658 73.5857C475.196 73.5857 475.63 73.4115 475.958 73.0633C476.287 72.7151 476.452 72.2822 476.452 71.7649C476.452 71.2475 476.287 70.8147 475.958 70.4664C475.63 70.1182 475.196 69.944 474.658 69.944C474.409 69.944 474.175 69.9938 473.956 70.0933C473.736 70.1828 473.547 70.3122 473.388 70.4813C473.228 70.6405 473.104 70.8296 473.014 71.0485C472.924 71.2674 472.879 71.5062 472.879 71.7649C472.879 72.0136 472.924 72.2524 473.014 72.4812C473.104 72.7001 473.228 72.8941 473.388 73.0633C473.547 73.2225 473.736 73.3518 473.956 73.4513C474.175 73.5409 474.409 73.5857 474.658 73.5857Z" fill="#2E3136"/>
<path d="M486.316 67.974C485.948 67.8247 485.529 67.7501 485.061 67.7501C484.582 67.7501 484.149 67.8247 483.76 67.974C483.382 68.1232 483.058 68.3222 482.789 68.571V67.9441H480.442V75.8094H482.938V71.2126C482.938 70.8544 483.068 70.556 483.327 70.3172C483.596 70.0784 483.92 69.959 484.298 69.959C484.677 69.959 484.991 70.0784 485.24 70.3172C485.499 70.546 485.629 70.8743 485.629 71.3022V75.8094H488.125V70.8097C488.125 70.3619 488.05 69.949 487.901 69.5709C487.761 69.1928 487.557 68.8695 487.288 68.6008C487.019 68.3322 486.695 68.1232 486.316 67.974Z" fill="#2E3136"/>
<path d="M246.77 124.76C242.69 124.76 239.57 121.74 239.57 117.56C239.57 113.36 242.69 110.34 246.81 110.34C250.45 110.34 252.71 112.62 253.39 114.92L250.19 116.22C249.77 114.58 248.65 113.5 246.73 113.5C244.51 113.5 242.97 115.12 242.97 117.56C242.97 120 244.51 121.6 246.71 121.6C248.65 121.6 249.77 120.52 250.19 118.88L253.39 120.18C252.67 122.56 250.39 124.76 246.77 124.76Z" fill="#DF574F"/>
<path d="M259.758 121.6H266.038V124.5H256.418V110.6H265.938V113.5H259.758V116H265.178V118.9H259.758V121.6Z" fill="#DF574F"/>
<path d="M276.882 124.5L273.202 118.96H272.842V124.5H269.522V110.6H275.362C278.402 110.6 280.302 112.36 280.302 114.78C280.302 116.8 278.922 118.4 276.682 118.84L280.602 124.5H276.882ZM272.842 113.52V116.6H275.262C276.382 116.6 277.042 116.02 277.042 115.06C277.042 114.12 276.382 113.52 275.262 113.52H272.842Z" fill="#DF574F"/>
<path d="M293.946 110.6V113.58H289.906V124.5H286.566V113.58H282.526V110.6H293.946Z" fill="#DF574F"/>
<path d="M296.96 124.5V110.6H300.3V124.5H296.96Z" fill="#DF574F"/>
<path d="M313.683 113.5H307.603V116.16H312.923V119.06H307.603V124.5H304.263V110.6H313.683V113.5Z" fill="#DF574F"/>
<path d="M316.918 124.5V110.6H320.258V124.5H316.918Z" fill="#DF574F"/>
<path d="M330.861 124.76C326.781 124.76 323.661 121.74 323.661 117.56C323.661 113.36 326.781 110.34 330.901 110.34C334.541 110.34 336.801 112.62 337.481 114.92L334.281 116.22C333.861 114.58 332.741 113.5 330.821 113.5C328.601 113.5 327.061 115.12 327.061 117.56C327.061 120 328.601 121.6 330.801 121.6C332.741 121.6 333.861 120.52 334.281 118.88L337.481 120.18C336.761 122.56 334.481 124.76 330.861 124.76Z" fill="#DF574F"/>
<path d="M349.054 124.5L348.194 121.82H343.274L342.414 124.5H339.114L343.694 110.6H347.774L352.334 124.5H349.054ZM344.134 119.1H347.314L345.734 114.14L344.134 119.1Z" fill="#DF574F"/>
<path d="M364.014 110.6V113.58H359.974V124.5H356.634V113.58H352.594V110.6H364.014Z" fill="#DF574F"/>
<path d="M370.369 121.6H376.649V124.5H367.029V110.6H376.549V113.5H370.369V116H375.789V118.9H370.369V121.6Z" fill="#DF574F"/>
<path d="M392.223 124.76C388.103 124.76 384.883 121.62 384.883 117.56C384.883 113.46 388.103 110.34 392.223 110.34C396.323 110.34 399.523 113.46 399.523 117.56C399.523 121.62 396.323 124.76 392.223 124.76ZM392.223 121.6C394.583 121.6 396.123 119.92 396.123 117.54C396.123 115.2 394.623 113.5 392.223 113.5C389.803 113.5 388.283 115.2 388.283 117.54C388.283 119.92 389.863 121.6 392.223 121.6Z" fill="#DF574F"/>
<path d="M412.343 113.5H406.263V116.16H411.583V119.06H406.263V124.5H402.923V110.6H412.343V113.5Z" fill="#DF574F"/>
<path d="M434.357 116.96C434.357 122.02 431.257 124.76 427.257 124.76C423.057 124.76 419.977 121.7 419.977 117.56C419.977 113.38 423.097 110.34 427.257 110.34C430.717 110.34 432.997 112.38 433.817 114.56L430.617 115.86C430.137 114.42 428.937 113.5 427.197 113.5C424.857 113.5 423.377 115.16 423.377 117.62C423.377 120.12 424.897 121.76 427.557 121.76C429.257 121.76 430.477 121.08 431.037 119.48H427.177V116.96H434.357Z" fill="#DF574F"/>
<path d="M445.024 124.5L441.344 118.96H440.984V124.5H437.664V110.6H443.504C446.544 110.6 448.444 112.36 448.444 114.78C448.444 116.8 447.064 118.4 444.824 118.84L448.744 124.5H445.024ZM440.984 113.52V116.6H443.404C444.524 116.6 445.184 116.02 445.184 115.06C445.184 114.12 444.524 113.52 443.404 113.52H440.984Z" fill="#DF574F"/>
<path d="M460.563 124.5L459.703 121.82H454.783L453.923 124.5H450.623L455.203 110.6H459.283L463.843 124.5H460.563ZM455.643 119.1H458.823L457.243 114.14L455.643 119.1Z" fill="#DF574F"/>
<path d="M472.165 110.6C476.405 110.6 479.325 113.28 479.325 117.54C479.325 121.8 476.405 124.5 472.165 124.5H466.645V110.6H472.165ZM472.065 121.54C474.385 121.54 475.945 120.14 475.945 117.58C475.945 114.96 474.385 113.56 472.065 113.56H469.985V121.54H472.065Z" fill="#DF574F"/>
<path d="M490.697 110.6H494.037V119.04C494.037 122.16 492.157 124.76 488.337 124.76C484.497 124.76 482.597 122.16 482.597 119.04V110.6H485.957V119.02C485.957 120.56 486.737 121.6 488.337 121.6C489.917 121.6 490.697 120.56 490.697 119.02V110.6Z" fill="#DF574F"/>
<path d="M506.125 124.5L505.265 121.82H500.345L499.485 124.5H496.185L500.765 110.6H504.845L509.405 124.5H506.125ZM501.205 119.1H504.385L502.805 114.14L501.205 119.1Z" fill="#DF574F"/>
<path d="M521.085 110.6V113.58H517.045V124.5H513.705V113.58H509.665V110.6H521.085Z" fill="#DF574F"/>
<path d="M524.1 124.5V110.6H527.44V124.5H524.1Z" fill="#DF574F"/>
<path d="M538.163 124.76C534.043 124.76 530.823 121.62 530.823 117.56C530.823 113.46 534.043 110.34 538.163 110.34C542.263 110.34 545.463 113.46 545.463 117.56C545.463 121.62 542.263 124.76 538.163 124.76ZM538.163 121.6C540.523 121.6 542.063 119.92 542.063 117.54C542.063 115.2 540.563 113.5 538.163 113.5C535.743 113.5 534.223 115.2 534.223 117.54C534.223 119.92 535.803 121.6 538.163 121.6Z" fill="#DF574F"/>
<path d="M557.022 110.6H560.362V124.5H557.602L552.202 116.38V124.5H548.862V110.6H551.642L557.022 118.78V110.6Z" fill="#DF574F"/>
<path d="M325.63 149.085C328.255 149.085 330.145 151.15 330.145 153.898C330.145 156.645 328.22 158.693 325.595 158.693C324.16 158.693 322.988 158.063 322.253 156.995V161.633H320.765V149.278H322.148V150.975C322.883 149.803 324.108 149.085 325.63 149.085ZM325.438 157.38C327.275 157.38 328.658 155.893 328.658 153.898C328.658 151.885 327.293 150.398 325.438 150.398C323.53 150.398 322.183 151.85 322.183 153.898C322.183 155.945 323.513 157.38 325.438 157.38Z" fill="#A6ACB7"/>
<path d="M333.479 150.625C334.074 149.768 335.124 149.085 336.419 149.085V150.468C334.739 150.485 333.566 151.623 333.566 152.935V158.5H332.079V149.278H333.479V150.625Z" fill="#A6ACB7"/>
<path d="M341.731 158.693C338.931 158.693 336.936 156.645 336.936 153.898C336.936 151.133 338.931 149.085 341.731 149.085C344.531 149.085 346.526 151.133 346.526 153.898C346.526 156.645 344.531 158.693 341.731 158.693ZM341.748 157.363C343.691 157.363 345.038 155.91 345.038 153.898C345.038 151.868 343.708 150.415 341.748 150.415C339.788 150.415 338.441 151.868 338.441 153.898C338.441 155.91 339.788 157.363 341.748 157.363Z" fill="#A6ACB7"/>
<path d="M355.013 149.278H356.501V158.5H355.083V157.188C354.471 158.045 353.368 158.693 352.003 158.693C349.641 158.693 348.328 157.153 348.328 154.965V149.278H349.816V154.79C349.816 156.348 350.813 157.38 352.388 157.363C353.946 157.363 354.996 156.243 355.013 155.07V149.278Z" fill="#A6ACB7"/>
<path d="M366.294 145.708H367.781V158.5H366.399V156.803C365.681 157.975 364.456 158.693 362.934 158.693C360.309 158.693 358.401 156.645 358.401 153.88C358.401 151.15 360.291 149.085 362.899 149.085C364.369 149.085 365.559 149.733 366.294 150.835V145.708ZM363.109 157.38C365.016 157.38 366.346 155.945 366.346 153.88C366.346 151.833 365.034 150.398 363.109 150.398C361.254 150.398 359.871 151.903 359.871 153.88C359.871 155.893 361.254 157.38 363.109 157.38Z" fill="#A6ACB7"/>
<path d="M370.275 158.5V145.708H371.762V158.5H370.275Z" fill="#A6ACB7"/>
<path d="M380.785 149.278H382.342L377.302 161.633H375.832L377.145 158.5H376.742L373.137 149.278H374.695L377.67 157.24L380.785 149.278Z" fill="#A6ACB7"/>
<path d="M394.665 149.278H396.048V158.5H394.665V156.733C393.965 157.958 392.758 158.693 391.2 158.693C388.575 158.693 386.668 156.645 386.668 153.88C386.668 151.15 388.593 149.173 391.2 149.173C392.758 149.173 393.965 149.873 394.665 151.063V149.278ZM391.375 157.38C393.283 157.38 394.613 155.945 394.613 153.88C394.613 151.833 393.3 150.398 391.375 150.398C389.52 150.398 388.138 151.903 388.138 153.88C388.138 155.893 389.52 157.38 391.375 157.38Z" fill="#A6ACB7"/>
<path d="M409.111 149.278H410.669L408.149 158.5H406.399L404.106 150.958L401.849 158.5H400.081L397.561 149.278H399.101L401.044 157.013L403.284 149.278H404.946L407.186 156.978L409.111 149.278Z" fill="#A6ACB7"/>
<path d="M419.463 149.278H420.845V158.5H419.463V156.733C418.763 157.958 417.555 158.693 415.998 158.693C413.373 158.693 411.465 156.645 411.465 153.88C411.465 151.15 413.39 149.173 415.998 149.173C417.555 149.173 418.763 149.873 419.463 151.063V149.278ZM416.173 157.38C418.08 157.38 419.41 155.945 419.41 153.88C419.41 151.833 418.098 150.398 416.173 150.398C414.318 150.398 412.935 151.903 412.935 153.88C412.935 155.893 414.318 157.38 416.173 157.38Z" fill="#A6ACB7"/>
<path d="M424.739 150.625C425.334 149.768 426.384 149.085 427.679 149.085V150.468C425.999 150.485 424.826 151.623 424.826 152.935V158.5H423.339V149.278H424.739V150.625Z" fill="#A6ACB7"/>
<path d="M436.106 145.708H437.593V158.5H436.211V156.803C435.493 157.975 434.268 158.693 432.746 158.693C430.121 158.693 428.213 156.645 428.213 153.88C428.213 151.15 430.103 149.085 432.711 149.085C434.181 149.085 435.371 149.733 436.106 150.835V145.708ZM432.921 157.38C434.828 157.38 436.158 155.945 436.158 153.88C436.158 151.833 434.846 150.398 432.921 150.398C431.066 150.398 429.683 151.903 429.683 153.88C429.683 155.893 431.066 157.38 432.921 157.38Z" fill="#A6ACB7"/>
<path d="M440.944 154.44C441.207 156.155 442.554 157.31 444.252 157.31C445.757 157.31 446.597 156.733 447.052 155.665L448.347 156.453C447.664 157.765 446.387 158.71 444.199 158.71C441.364 158.71 439.439 156.645 439.439 153.898C439.439 151.22 441.487 149.068 444.094 149.068C446.877 149.068 448.644 151.255 448.644 153.688C448.644 153.95 448.627 154.265 448.609 154.44H440.944ZM440.962 153.145H447.122C446.894 151.413 445.687 150.363 444.147 150.363C442.589 150.363 441.242 151.395 440.962 153.145Z" fill="#A6ACB7"/>
<path d="M457.81 145.708H459.297V158.5H457.915V156.803C457.197 157.975 455.972 158.693 454.45 158.693C451.825 158.693 449.917 156.645 449.917 153.88C449.917 151.15 451.807 149.085 454.415 149.085C455.885 149.085 457.075 149.733 457.81 150.835V145.708ZM454.625 157.38C456.532 157.38 457.862 155.945 457.862 153.88C457.862 151.833 456.55 150.398 454.625 150.398C452.77 150.398 451.387 151.903 451.387 153.88C451.387 155.893 452.77 157.38 454.625 157.38Z" fill="#A6ACB7"/>
<path d="M469.038 158.5C467.043 158.5 465.976 157.31 465.976 155.403V150.555H464.296V149.278H465.258C465.818 149.278 466.081 148.998 466.081 148.438V146.915H467.516V149.278H470.246V150.555H467.463V155.245C467.463 156.488 468.111 157.188 469.301 157.188H470.386V158.5H469.038Z" fill="#A6ACB7"/>
<path d="M475.749 158.693C472.949 158.693 470.954 156.645 470.954 153.898C470.954 151.133 472.949 149.085 475.749 149.085C478.549 149.085 480.544 151.133 480.544 153.898C480.544 156.645 478.549 158.693 475.749 158.693ZM475.767 157.363C477.709 157.363 479.057 155.91 479.057 153.898C479.057 151.868 477.727 150.415 475.767 150.415C473.807 150.415 472.459 151.868 472.459 153.898C472.459 155.91 473.807 157.363 475.767 157.363Z" fill="#A6ACB7"/>
<path d="M334.087 401.705C332.915 401.705 332.197 402.44 332.197 403.753V404.278H334.612V405.555H332.197V413.5H330.71V405.555H329.03V404.278H330.71V403.893C330.71 401.775 331.917 400.515 334.035 400.515H334.647V401.705H334.087Z" fill="#A6ACB7"/>
<path d="M339.918 413.693C337.118 413.693 335.123 411.645 335.123 408.898C335.123 406.133 337.118 404.085 339.918 404.085C342.718 404.085 344.713 406.133 344.713 408.898C344.713 411.645 342.718 413.693 339.918 413.693ZM339.936 412.363C341.878 412.363 343.226 410.91 343.226 408.898C343.226 406.868 341.896 405.415 339.936 405.415C337.976 405.415 336.628 406.868 336.628 408.898C336.628 410.91 337.976 412.363 339.936 412.363Z" fill="#A6ACB7"/>
<path d="M348.038 405.625C348.633 404.768 349.683 404.085 350.978 404.085V405.468C349.298 405.485 348.126 406.623 348.126 407.935V413.5H346.638V404.278H348.038V405.625Z" fill="#A6ACB7"/>
<path d="M360.168 413.693C357.438 413.693 355.426 411.663 355.426 408.898C355.426 406.168 357.421 404.103 360.151 404.103C362.373 404.103 363.878 405.433 364.351 406.973L363.021 407.498C362.636 406.22 361.586 405.433 360.186 405.433C358.331 405.433 356.931 406.85 356.931 408.898C356.931 410.945 358.331 412.363 360.203 412.363C361.621 412.363 362.688 411.575 363.073 410.298L364.403 410.84C363.931 412.345 362.408 413.693 360.168 413.693Z" fill="#A6ACB7"/>
<path d="M370.27 413.693C367.47 413.693 365.475 411.645 365.475 408.898C365.475 406.133 367.47 404.085 370.27 404.085C373.07 404.085 375.065 406.133 375.065 408.898C375.065 411.645 373.07 413.693 370.27 413.693ZM370.287 412.363C372.23 412.363 373.577 410.91 373.577 408.898C373.577 406.868 372.247 405.415 370.287 405.415C368.327 405.415 366.98 406.868 366.98 408.898C366.98 410.91 368.327 412.363 370.287 412.363Z" fill="#A6ACB7"/>
<path d="M387.857 404.085C390.167 404.085 391.48 405.66 391.48 407.813V413.5H389.992V408.075C389.992 406.518 389.065 405.398 387.525 405.415C385.967 405.415 385.005 406.623 384.97 407.69V413.5H383.482V408.075C383.482 406.5 382.555 405.398 381.015 405.415C379.475 405.415 378.495 406.623 378.477 407.69V413.5H376.99V404.278H378.39V405.643C378.95 404.785 380.017 404.085 381.435 404.085C383.027 404.085 384.077 404.768 384.585 405.958C385.057 404.96 386.195 404.085 387.857 404.085Z" fill="#A6ACB7"/>
<path d="M398.705 404.085C401.33 404.085 403.22 406.15 403.22 408.898C403.22 411.645 401.295 413.693 398.67 413.693C397.235 413.693 396.063 413.063 395.328 411.995V416.633H393.84V404.278H395.223V405.975C395.958 404.803 397.183 404.085 398.705 404.085ZM398.513 412.38C400.35 412.38 401.733 410.893 401.733 408.898C401.733 406.885 400.368 405.398 398.513 405.398C396.605 405.398 395.258 406.85 395.258 408.898C395.258 410.945 396.588 412.38 398.513 412.38Z" fill="#A6ACB7"/>
<path d="M405.154 413.5V400.708H406.641V413.5H405.154Z" fill="#A6ACB7"/>
<path d="M409.959 409.44C410.222 411.155 411.569 412.31 413.267 412.31C414.772 412.31 415.612 411.733 416.067 410.665L417.362 411.453C416.679 412.765 415.402 413.71 413.214 413.71C410.379 413.71 408.454 411.645 408.454 408.898C408.454 406.22 410.502 404.068 413.109 404.068C415.892 404.068 417.659 406.255 417.659 408.688C417.659 408.95 417.642 409.265 417.624 409.44H409.959ZM409.977 408.145H416.137C415.909 406.413 414.702 405.363 413.162 405.363C411.604 405.363 410.257 406.395 409.977 408.145Z" fill="#A6ACB7"/>
<path d="M423.014 413.5C421.019 413.5 419.952 412.31 419.952 410.403V405.555H418.272V404.278H419.234C419.794 404.278 420.057 403.998 420.057 403.438V401.915H421.492V404.278H424.222V405.555H421.439V410.245C421.439 411.488 422.087 412.188 423.277 412.188H424.362V413.5H423.014Z" fill="#A6ACB7"/>
<path d="M426.482 402.58C425.817 402.58 425.31 402.108 425.31 401.443C425.31 400.76 425.817 400.27 426.482 400.27C427.147 400.27 427.655 400.76 427.655 401.443C427.655 402.108 427.147 402.58 426.482 402.58ZM425.747 413.5V404.278H427.235V413.5H425.747Z" fill="#A6ACB7"/>
<path d="M433.912 413.693C431.112 413.693 429.117 411.645 429.117 408.898C429.117 406.133 431.112 404.085 433.912 404.085C436.712 404.085 438.707 406.133 438.707 408.898C438.707 411.645 436.712 413.693 433.912 413.693ZM433.93 412.363C435.872 412.363 437.22 410.91 437.22 408.898C437.22 406.868 435.89 405.415 433.93 405.415C431.97 405.415 430.622 406.868 430.622 408.898C430.622 410.91 431.97 412.363 433.93 412.363Z" fill="#A6ACB7"/>
<path d="M445.217 404.085C447.58 404.085 448.962 405.573 448.962 407.865V413.5H447.475V408.128C447.475 406.413 446.477 405.398 444.832 405.415C443.257 405.415 442.137 406.553 442.12 407.795V413.5H440.632V404.278H442.032V405.625C442.627 404.75 443.747 404.085 445.217 404.085Z" fill="#A6ACB7"/>
<path d="M459.479 413.693C456.679 413.693 454.684 411.645 454.684 408.898C454.684 406.133 456.679 404.085 459.479 404.085C462.279 404.085 464.274 406.133 464.274 408.898C464.274 411.645 462.279 413.693 459.479 413.693ZM459.496 412.363C461.439 412.363 462.786 410.91 462.786 408.898C462.786 406.868 461.456 405.415 459.496 405.415C457.536 405.415 456.189 406.868 456.189 408.898C456.189 410.91 457.536 412.363 459.496 412.363Z" fill="#A6ACB7"/>
<path d="M470.02 401.705C468.847 401.705 468.13 402.44 468.13 403.753V404.278H470.545V405.555H468.13V413.5H466.642V405.555H464.962V404.278H466.642V403.893C466.642 401.775 467.85 400.515 469.967 400.515H470.58V401.705H470.02Z" fill="#A6ACB7"/>
<path fill-rule="evenodd" clip-rule="evenodd" d="M699.337 482.921C694.66 484.842 685.854 498.873 680.919 512.265C679.71 515.542 678.075 518.895 677.283 519.714C676.297 520.736 676.451 519.789 677.776 516.695C680.851 509.515 681.433 505.808 679.487 505.808C677.588 505.808 675.412 510.506 673.856 517.962C672.438 524.759 669.198 530.253 663.564 535.416C655.734 542.59 652.445 540.678 653.195 529.389C654.498 509.803 668.759 494.175 678.459 501.701C680.458 503.251 680.458 503.251 678.459 501.156C669.455 491.721 652.072 511.297 652 530.955C651.95 544.553 661.43 543.603 670.67 529.085C673.109 525.253 675.634 523.032 676.535 523.927C676.694 524.084 675.951 527.335 674.885 531.151C671.347 543.824 669.162 558.453 670.809 558.453C671.913 558.453 680.013 527.663 680.528 521.51C681.591 508.786 695.792 484.949 702.31 484.949C708.775 484.949 703.276 500.382 689.337 521.358C682.283 531.975 682.516 533.483 689.963 525.404C697.42 517.315 702.972 514.444 710.822 514.621C715.444 514.724 717.175 514.284 719.848 512.323C725.686 508.042 726.55 505.523 720.881 509.316C716.463 512.272 715.034 512.703 709.909 512.631C705.331 512.568 702.989 513.12 699.409 515.109C696.874 516.517 694.945 517.315 695.123 516.881C695.301 516.447 697.581 511.879 700.19 506.729C709.25 488.844 708.897 478.996 699.337 482.921ZM677.534 513.344C676.747 515.482 676.07 516.739 676.031 516.137C675.934 514.618 678.104 508.6 678.579 509.072C678.792 509.285 678.322 511.207 677.534 513.344Z" fill="black"/>
</svg>
