<svg width="282" height="36" viewBox="0 0 282 36" fill="none" xmlns="http://www.w3.org/2000/svg">
<path fill-rule="evenodd" clip-rule="evenodd" d="M14.2423 0C17.0782 0 19.6834 0.482249 22.058 1.44676C24.4326 2.41127 26.4826 3.72023 28.208 5.37368C29.9334 7.02713 31.283 8.94751 32.2568 11.1349C33.2305 13.3223 33.7174 15.5543 33.7174 18C33.7174 20.4457 33.2305 22.6777 32.2568 24.8651C31.283 27.0525 29.9334 28.9729 28.208 30.6263C26.4826 32.2798 24.4326 33.5887 22.058 34.5532C19.6834 35.5178 17.0782 36 14.2423 36H0V0H14.2423ZM19.0957 6.66L6.67139 20.2127H14.4809L10.9311 29.34L23.7104 15.7873H15.9008L19.0957 6.66Z" fill="#0E091F"/>
<path d="M54.6696 25.6047C53.0434 25.6047 51.6483 25.2306 50.4844 24.4824C49.3364 23.7183 48.5552 22.6357 48.1406 21.2348L51.9193 19.7782C52.1266 20.5582 52.5013 21.1552 53.0434 21.5691C53.6014 21.9671 54.271 22.1661 55.0523 22.1661C55.7379 22.1661 56.2561 22.0387 56.6068 21.784C56.9576 21.5293 57.133 21.1711 57.133 20.7095C57.133 20.2159 56.9257 19.8339 56.5112 19.5632C56.1126 19.2767 55.6024 19.0299 54.9805 18.823C54.3747 18.6001 53.713 18.3852 52.9955 18.1782C52.2781 17.9554 51.6084 17.6608 50.9866 17.2947C50.3807 16.9126 49.8705 16.4191 49.456 15.8142C49.0574 15.1933 48.8581 14.3894 48.8581 13.4024C48.8581 12.6701 48.9856 12.0014 49.2408 11.3965C49.5118 10.7756 49.9024 10.2423 50.4126 9.79657C50.9388 9.35082 51.5765 9.00855 52.3259 8.76975C53.0753 8.51504 53.9362 8.38768 54.9088 8.38768C56.5032 8.38768 57.8265 8.75383 58.8788 9.48614C59.9311 10.2025 60.6087 11.1338 60.9117 12.28L57.1569 13.7367C56.9815 13.068 56.6786 12.5745 56.2481 12.2561C55.8335 11.9378 55.3233 11.7786 54.7175 11.7786C54.0957 11.7786 53.6253 11.9059 53.3064 12.1606C53.0035 12.3994 52.852 12.7099 52.852 13.0919C52.852 13.5695 53.0593 13.9436 53.4738 14.2143C53.8884 14.469 54.3986 14.6998 55.0045 14.9068C55.6263 15.1137 56.2959 15.3366 57.0134 15.5754C57.7309 15.7983 58.3925 16.1087 58.9984 16.5067C59.6202 16.9047 60.1384 17.43 60.5529 18.0827C60.9675 18.7195 61.1747 19.5632 61.1747 20.6139C61.1747 21.3462 61.0233 22.0228 60.7203 22.6437C60.4333 23.2486 60.0108 23.774 59.4528 24.2197C58.8948 24.6496 58.2092 24.9918 57.396 25.2465C56.5988 25.4853 55.69 25.6047 54.6696 25.6047Z" fill="#0E091F"/>
<path d="M75.2381 12.7099V25.2943H71.5072V24.2436C71.0608 24.6575 70.5347 24.9918 69.9288 25.2465C69.3389 25.4853 68.6931 25.6047 67.9916 25.6047C67.1785 25.6047 66.469 25.4774 65.8631 25.2227C65.2572 24.9679 64.747 24.6177 64.3325 24.172C63.9339 23.7103 63.631 23.177 63.4237 22.572C63.2324 21.9512 63.1367 21.2826 63.1367 20.5662V12.7099H67.1306V20.0408C67.1306 20.6299 67.306 21.1154 67.6568 21.4975C68.0235 21.8795 68.5337 22.0706 69.1874 22.0706C69.8252 22.0706 70.3274 21.8875 70.6941 21.5214C71.0767 21.1393 71.2681 20.6458 71.2681 20.0408V12.7099H75.2381Z" fill="#0E091F"/>
<path d="M85.1395 12.4233C86.0483 12.4233 86.8774 12.5905 87.6268 12.9248C88.3921 13.2591 89.0458 13.7207 89.5879 14.3098C90.13 14.8988 90.5525 15.5993 90.8554 16.4112C91.1584 17.2071 91.3098 18.0748 91.3098 19.014C91.3098 19.9533 91.1504 20.8288 90.8315 21.6407C90.5286 22.4367 90.0981 23.1292 89.5401 23.7183C88.982 24.3073 88.3203 24.769 87.555 25.1033C86.7897 25.4376 85.9527 25.6047 85.0439 25.6047C84.3742 25.6047 83.7604 25.5092 83.2024 25.3182C82.6443 25.1271 82.1501 24.8565 81.7196 24.5063V29.5687H77.7256V12.7099H81.4087V13.8561C81.8711 13.3944 82.4131 13.0442 83.035 12.8054C83.6727 12.5507 84.3742 12.4233 85.1395 12.4233ZM84.4699 22.0945C85.3149 22.0945 86.0085 21.8079 86.5506 21.2348C87.0927 20.6617 87.3637 19.9214 87.3637 19.014C87.3637 18.1066 87.0927 17.3663 86.5506 16.7932C86.0085 16.2042 85.3149 15.9097 84.4699 15.9097C83.593 15.9097 82.8835 16.1962 82.3414 16.7694C81.7993 17.3425 81.5283 18.0907 81.5283 19.014C81.5283 19.9374 81.7913 20.6856 82.3175 21.2587C82.8596 21.8159 83.577 22.0945 84.4699 22.0945Z" fill="#0E091F"/>
<path d="M96.5697 20.1841C96.777 20.9005 97.1437 21.4418 97.6699 21.8079C98.196 22.1741 98.8417 22.3571 99.607 22.3571C100.325 22.3571 100.875 22.2457 101.257 22.0228C101.64 21.784 101.959 21.4577 102.214 21.0438L105.203 23.0258C104.948 23.3601 104.653 23.6864 104.318 24.0048C103.984 24.3073 103.585 24.5779 103.123 24.8167C102.676 25.0555 102.15 25.2465 101.544 25.3898C100.954 25.5331 100.269 25.6047 99.4875 25.6047C98.4511 25.6047 97.5104 25.4376 96.6654 25.1033C95.8363 24.769 95.1268 24.3073 94.5369 23.7183C93.947 23.1292 93.4926 22.4367 93.1737 21.6407C92.8548 20.8288 92.6954 19.9533 92.6954 19.014C92.6954 18.1066 92.8628 17.2549 93.1976 16.4589C93.5484 15.647 94.0187 14.9466 94.6086 14.3575C95.1986 13.7526 95.8921 13.275 96.6893 12.9248C97.4865 12.5745 98.3395 12.3994 99.2483 12.3994C100.285 12.3994 101.201 12.5905 101.999 12.9725C102.812 13.3387 103.497 13.8242 104.055 14.4292C104.629 15.0182 105.06 15.6948 105.347 16.4589C105.65 17.2071 105.801 17.9713 105.801 18.7513C105.801 19.0697 105.793 19.3483 105.777 19.5871C105.761 19.81 105.737 20.009 105.706 20.1841H96.5697ZM102.094 17.7006C101.919 16.9843 101.6 16.4191 101.138 16.0052C100.675 15.5913 100.077 15.3843 99.344 15.3843C98.6106 15.3843 97.9967 15.5833 97.5025 15.9813C97.0241 16.3634 96.6973 16.9365 96.5219 17.7006H102.094Z" fill="#0E091F"/>
<path d="M111.447 13.7844C111.877 13.3705 112.387 13.0362 112.977 12.7815C113.567 12.5268 114.221 12.3994 114.938 12.3994V16.1246C113.886 16.1246 113.081 16.3236 112.523 16.7216C111.965 17.1196 111.686 17.7325 111.686 18.5603V25.2943H107.692V12.7099H111.447V13.7844Z" fill="#0E091F"/>
<path d="M122.469 25.6047C121.513 25.6047 120.62 25.4376 119.791 25.1033C118.978 24.769 118.268 24.3073 117.662 23.7183C117.072 23.1292 116.602 22.4367 116.251 21.6407C115.917 20.8288 115.749 19.9612 115.749 19.0379C115.749 18.1146 115.917 17.2549 116.251 16.4589C116.586 15.647 117.049 14.9466 117.638 14.3575C118.244 13.7526 118.954 13.283 119.767 12.9486C120.596 12.5984 121.489 12.4233 122.446 12.4233C123.338 12.4233 124.136 12.5586 124.837 12.8293C125.555 13.084 126.168 13.4183 126.679 13.8322C127.189 14.2302 127.603 14.6759 127.922 15.1694C128.257 15.6629 128.488 16.1405 128.616 16.6022L125.076 18.0111C124.917 17.4061 124.622 16.9126 124.191 16.5306C123.761 16.1485 123.211 15.9575 122.541 15.9575C121.76 15.9575 121.098 16.2281 120.556 16.7694C120.03 17.3106 119.767 18.0588 119.767 19.014C119.767 19.9692 120.03 20.7174 120.556 21.2587C121.098 21.7999 121.76 22.0706 122.541 22.0706C123.227 22.0706 123.793 21.8795 124.239 21.4975C124.686 21.1154 124.989 20.6378 125.148 20.0647L128.688 21.4736C128.56 21.9193 128.329 22.389 127.994 22.8825C127.675 23.3601 127.253 23.8058 126.726 24.2197C126.216 24.6177 125.602 24.952 124.885 25.2227C124.168 25.4774 123.362 25.6047 122.469 25.6047Z" fill="#0E091F"/>
<path d="M137.668 12.3994C138.417 12.3994 139.087 12.5188 139.677 12.7576C140.283 12.9964 140.801 13.3307 141.232 13.7605C141.662 14.1904 141.989 14.7078 142.212 15.3127C142.451 15.9177 142.571 16.5783 142.571 17.2947V25.2943H138.577V18.0827C138.577 17.3982 138.37 16.8728 137.955 16.5067C137.556 16.1246 137.054 15.9336 136.448 15.9336C135.843 15.9336 135.324 16.1246 134.894 16.5067C134.479 16.8887 134.272 17.3663 134.272 17.9394V25.2943H130.278V7.83846H134.272V13.5218C134.703 13.1715 135.197 12.9009 135.755 12.7099C136.329 12.5029 136.967 12.3994 137.668 12.3994Z" fill="#0E091F"/>
<path d="M158.04 12.7099V25.2943H154.357V24.1481C153.91 24.6098 153.384 24.9679 152.778 25.2227C152.188 25.4774 151.503 25.6047 150.721 25.6047C149.813 25.6047 148.968 25.4376 148.186 25.1033C147.421 24.769 146.759 24.3073 146.201 23.7183C145.643 23.1292 145.205 22.4367 144.886 21.6407C144.583 20.8288 144.432 19.9533 144.432 19.014C144.432 18.0748 144.583 17.2151 144.886 16.435C145.205 15.655 145.643 14.9864 146.201 14.4292C146.759 13.872 147.421 13.4422 148.186 13.1397C148.968 12.8213 149.813 12.6621 150.721 12.6621C152.236 12.6621 153.448 13.1158 154.357 14.0232V12.7099H158.04ZM151.295 22.0945C152.172 22.0945 152.874 21.8079 153.4 21.2348C153.942 20.6617 154.213 19.9214 154.213 19.014C154.213 18.0907 153.942 17.3425 153.4 16.7694C152.874 16.1962 152.172 15.9097 151.295 15.9097C150.45 15.9097 149.757 16.2042 149.215 16.7932C148.673 17.3663 148.402 18.1066 148.402 19.014C148.402 19.9214 148.665 20.6617 149.191 21.2348C149.733 21.8079 150.434 22.0945 151.295 22.0945Z" fill="#0E091F"/>
<path d="M164.256 13.7844C164.687 13.3705 165.197 13.0362 165.787 12.7815C166.377 12.5268 167.03 12.3994 167.748 12.3994V16.1246C166.696 16.1246 165.89 16.3236 165.332 16.7216C164.774 17.1196 164.495 17.7325 164.495 18.5603V25.2943H160.501V12.7099H164.256V13.7844Z" fill="#0E091F"/>
<path d="M182.19 12.7099V23.3123C182.19 24.2834 182.031 25.1669 181.712 25.9629C181.409 26.7748 180.954 27.4673 180.348 28.0404C179.759 28.6295 179.025 29.0832 178.148 29.4016C177.271 29.7199 176.275 29.8791 175.159 29.8791C173.357 29.8791 171.938 29.5369 170.902 28.8523C169.881 28.1678 169.164 27.2922 168.749 26.2256L172.121 24.9122C172.377 25.4853 172.767 25.8992 173.293 26.154C173.835 26.4246 174.465 26.5599 175.183 26.5599C176.235 26.5599 177.048 26.2972 177.622 25.7719C178.212 25.2465 178.507 24.554 178.507 23.6944V23.3362C178.06 23.7979 177.534 24.156 176.928 24.4108C176.339 24.6496 175.653 24.7689 174.872 24.7689C173.963 24.7689 173.118 24.6098 172.337 24.2914C171.571 23.973 170.91 23.5352 170.352 22.978C169.81 22.4208 169.379 21.7681 169.06 21.0199C168.757 20.2717 168.606 19.4757 168.606 18.6319C168.606 17.7882 168.757 16.9922 169.06 16.244C169.379 15.4799 169.818 14.8192 170.376 14.262C170.934 13.6889 171.595 13.2432 172.361 12.9248C173.126 12.5905 173.963 12.4233 174.872 12.4233C175.653 12.4233 176.339 12.5507 176.928 12.8054C177.534 13.0442 178.06 13.3944 178.507 13.8561V12.7099H182.19ZM175.398 21.7363C176.259 21.7363 176.952 21.4577 177.479 20.9005C178.005 20.3433 178.268 19.6508 178.268 18.823C178.268 17.9952 178.005 17.3027 177.479 16.7455C176.952 16.1883 176.259 15.9097 175.398 15.9097C174.999 15.9097 174.625 15.9893 174.274 16.1485C173.923 16.2918 173.62 16.4987 173.365 16.7694C173.11 17.0241 172.911 17.3265 172.767 17.6768C172.624 18.027 172.552 18.4091 172.552 18.823C172.552 19.221 172.624 19.603 172.767 19.9692C172.911 20.3194 173.11 20.6299 173.365 20.9005C173.62 21.1552 173.923 21.3622 174.274 21.5214C174.625 21.6646 174.999 21.7363 175.398 21.7363Z" fill="#0E091F"/>
<path d="M187.953 20.1841C188.16 20.9005 188.527 21.4418 189.053 21.8079C189.579 22.1741 190.225 22.3571 190.99 22.3571C191.707 22.3571 192.258 22.2457 192.64 22.0228C193.023 21.784 193.342 21.4577 193.597 21.0438L196.586 23.0258C196.331 23.3601 196.036 23.6864 195.701 24.0048C195.367 24.3073 194.968 24.5779 194.506 24.8167C194.059 25.0555 193.533 25.2465 192.927 25.3898C192.337 25.5331 191.652 25.6047 190.87 25.6047C189.834 25.6047 188.893 25.4376 188.048 25.1033C187.219 24.769 186.51 24.3073 185.92 23.7183C185.33 23.1292 184.876 22.4367 184.557 21.6407C184.238 20.8288 184.078 19.9533 184.078 19.014C184.078 18.1066 184.246 17.2549 184.581 16.4589C184.931 15.647 185.402 14.9466 185.992 14.3575C186.581 13.7526 187.275 13.275 188.072 12.9248C188.869 12.5745 189.722 12.3994 190.631 12.3994C191.668 12.3994 192.584 12.5905 193.382 12.9725C194.195 13.3387 194.88 13.8242 195.438 14.4292C196.012 15.0182 196.443 15.6948 196.73 16.4589C197.033 17.2071 197.184 17.9713 197.184 18.7513C197.184 19.0697 197.176 19.3483 197.16 19.5871C197.144 19.81 197.12 20.009 197.088 20.1841H187.953ZM193.477 17.7006C193.302 16.9843 192.983 16.4191 192.521 16.0052C192.058 15.5913 191.46 15.3843 190.727 15.3843C189.993 15.3843 189.38 15.5833 188.885 15.9813C188.407 16.3634 188.08 16.9365 187.905 17.7006H193.477Z" fill="#0E091F"/>
<path d="M210.599 8.69812C211.874 8.69812 213.03 8.89711 214.067 9.2951C215.119 9.67717 216.02 10.2264 216.769 10.9428C217.535 11.6592 218.124 12.5268 218.539 13.5456C218.954 14.5645 219.161 15.7107 219.161 16.9843C219.161 18.2578 218.954 19.412 218.539 20.4468C218.124 21.4656 217.535 22.3333 216.769 23.0496C216.02 23.766 215.119 24.3232 214.067 24.7212C213.03 25.1033 211.874 25.2943 210.599 25.2943H203.998V8.69812H210.599ZM210.479 21.7601C211.882 21.7601 213.006 21.3622 213.851 20.5662C214.697 19.7543 215.119 18.5762 215.119 17.032C215.119 15.456 214.697 14.262 213.851 13.4501C213.006 12.6382 211.882 12.2323 210.479 12.2323H207.992V21.7601H210.479Z" fill="#0E091F"/>
<path d="M224.564 20.1841C224.772 20.9005 225.138 21.4418 225.665 21.8079C226.191 22.1741 226.836 22.3571 227.602 22.3571C228.319 22.3571 228.869 22.2457 229.252 22.0228C229.635 21.784 229.953 21.4577 230.209 21.0438L233.198 23.0258C232.943 23.3601 232.648 23.6864 232.313 24.0048C231.978 24.3073 231.58 24.5779 231.117 24.8167C230.671 25.0555 230.145 25.2465 229.539 25.3898C228.949 25.5331 228.263 25.6047 227.482 25.6047C226.446 25.6047 225.505 25.4376 224.66 25.1033C223.831 24.769 223.121 24.3073 222.532 23.7183C221.942 23.1292 221.487 22.4367 221.168 21.6407C220.849 20.8288 220.69 19.9533 220.69 19.014C220.69 18.1066 220.857 17.2549 221.192 16.4589C221.543 15.647 222.013 14.9466 222.603 14.3575C223.193 13.7526 223.887 13.275 224.684 12.9248C225.481 12.5745 226.334 12.3994 227.243 12.3994C228.279 12.3994 229.196 12.5905 229.993 12.9725C230.806 13.3387 231.492 13.8242 232.05 14.4292C232.624 15.0182 233.054 15.6948 233.341 16.4589C233.644 17.2071 233.796 17.9713 233.796 18.7513C233.796 19.0697 233.788 19.3483 233.772 19.5871C233.756 19.81 233.732 20.009 233.7 20.1841H224.564ZM230.089 17.7006C229.914 16.9843 229.595 16.4191 229.132 16.0052C228.67 15.5913 228.072 15.3843 227.339 15.3843C226.605 15.3843 225.991 15.5833 225.497 15.9813C225.019 16.3634 224.692 16.9365 224.517 17.7006H230.089Z" fill="#0E091F"/>
<path d="M240.378 25.6047C238.943 25.6047 237.739 25.3182 236.766 24.7451C235.794 24.172 235.124 23.3362 234.757 22.2377L238.058 20.9721C238.233 21.4975 238.52 21.9034 238.919 22.19C239.333 22.4765 239.867 22.6198 240.521 22.6198C240.983 22.6198 241.326 22.5402 241.549 22.381C241.789 22.2059 241.908 21.9751 241.908 21.6885C241.908 21.3542 241.741 21.0915 241.406 20.9005C241.087 20.7095 240.68 20.5343 240.186 20.3751C239.708 20.2159 239.182 20.0567 238.608 19.8976C238.05 19.7224 237.524 19.4916 237.029 19.205C236.551 18.9185 236.144 18.5523 235.81 18.1066C235.491 17.6449 235.331 17.0559 235.331 16.3395C235.331 15.1137 235.794 14.1585 236.718 13.474C237.659 12.7735 238.927 12.4233 240.521 12.4233C241.812 12.4233 242.897 12.6701 243.774 13.1636C244.65 13.6412 245.216 14.3257 245.472 15.2172L242.171 16.5067C241.884 15.7107 241.31 15.3127 240.449 15.3127C239.636 15.3127 239.23 15.5913 239.23 16.1485C239.23 16.451 239.389 16.6818 239.708 16.841C240.043 17.0002 240.449 17.1514 240.928 17.2947C241.422 17.4221 241.948 17.5653 242.506 17.7245C243.08 17.8837 243.606 18.1066 244.084 18.3932C244.579 18.6797 244.985 19.0618 245.304 19.5394C245.639 20.0169 245.806 20.6458 245.806 21.4258C245.806 22.7312 245.32 23.7581 244.348 24.5063C243.375 25.2386 242.052 25.6047 240.378 25.6047Z" fill="#0E091F"/>
<path d="M249.713 11.0144C248.995 11.0144 248.397 10.7915 247.919 10.3458C247.441 9.88413 247.201 9.2951 247.201 8.57872C247.201 7.86234 247.441 7.27331 247.919 6.81164C248.397 6.34997 248.995 6.11914 249.713 6.11914C250.43 6.11914 251.028 6.34997 251.506 6.81164C251.985 7.27331 252.224 7.86234 252.224 8.57872C252.224 9.2951 251.985 9.88413 251.506 10.3458C251.028 10.7915 250.43 11.0144 249.713 11.0144ZM247.704 12.7099H251.698V25.2943H247.704V12.7099Z" fill="#0E091F"/>
<path d="M267.244 12.7099V23.3123C267.244 24.2834 267.084 25.1669 266.765 25.9629C266.462 26.7748 266.008 27.4673 265.402 28.0404C264.812 28.6295 264.079 29.0832 263.202 29.4016C262.325 29.7199 261.328 29.8791 260.212 29.8791C258.411 29.8791 256.992 29.5369 255.955 28.8523C254.935 28.1678 254.217 27.2922 253.803 26.2256L257.175 24.9122C257.43 25.4853 257.821 25.8992 258.347 26.154C258.889 26.4246 259.519 26.5599 260.236 26.5599C261.289 26.5599 262.102 26.2972 262.676 25.7719C263.266 25.2465 263.561 24.554 263.561 23.6944V23.3362C263.114 23.7979 262.588 24.156 261.982 24.4108C261.392 24.6496 260.707 24.7689 259.925 24.7689C259.017 24.7689 258.172 24.6098 257.39 24.2914C256.625 23.973 255.963 23.5352 255.405 22.978C254.863 22.4208 254.433 21.7681 254.114 21.0199C253.811 20.2717 253.659 19.4757 253.659 18.6319C253.659 17.7882 253.811 16.9922 254.114 16.244C254.433 15.4799 254.871 14.8192 255.429 14.262C255.987 13.6889 256.649 13.2432 257.414 12.9248C258.18 12.5905 259.017 12.4233 259.925 12.4233C260.707 12.4233 261.392 12.5507 261.982 12.8054C262.588 13.0442 263.114 13.3944 263.561 13.8561V12.7099H267.244ZM260.452 21.7363C261.312 21.7363 262.006 21.4577 262.532 20.9005C263.058 20.3433 263.321 19.6508 263.321 18.823C263.321 17.9952 263.058 17.3027 262.532 16.7455C262.006 16.1883 261.312 15.9097 260.452 15.9097C260.053 15.9097 259.678 15.9893 259.328 16.1485C258.977 16.2918 258.674 16.4987 258.419 16.7694C258.164 17.0241 257.964 17.3265 257.821 17.6768C257.677 18.027 257.606 18.4091 257.606 18.823C257.606 19.221 257.677 19.603 257.821 19.9692C257.964 20.3194 258.164 20.6299 258.419 20.9005C258.674 21.1552 258.977 21.3622 259.328 21.5214C259.678 21.6646 260.053 21.7363 260.452 21.7363Z" fill="#0E091F"/>
<path d="M277.096 12.3994C277.845 12.3994 278.515 12.5188 279.105 12.7576C279.711 12.9964 280.229 13.3307 280.659 13.7605C281.09 14.1904 281.417 14.7078 281.64 15.3127C281.879 15.9177 281.999 16.5783 281.999 17.2947V25.2943H278.005V18.0827C278.005 17.3982 277.797 16.8728 277.383 16.5067C276.984 16.1246 276.482 15.9336 275.876 15.9336C275.27 15.9336 274.752 16.1246 274.322 16.5067C273.907 16.8887 273.7 17.3663 273.7 17.9394V25.2943H269.706V12.7099H273.461V13.7128C273.891 13.3148 274.409 12.9964 275.015 12.7576C275.637 12.5188 276.331 12.3994 277.096 12.3994Z" fill="#0E091F"/>
</svg>
